<svg width="643" height="578" viewBox="0 0 643 578" fill="none" xmlns="http://www.w3.org/2000/svg">
<g clip-path="url(#clip0_150_5471)">
<path d="M578.285 381.068H369.689C365.961 381.068 362.926 378.033 362.926 374.305V70.4649C362.926 66.7373 365.961 63.7021 369.689 63.7021H578.285C582.012 63.7021 585.047 66.7373 585.047 70.4649V374.294C585.047 378.033 582.012 381.068 578.285 381.068ZM369.689 63.9907C366.123 63.9907 363.214 66.8989 363.214 70.4649V374.294C363.214 377.86 366.123 380.768 369.689 380.768H578.285C581.851 380.768 584.759 377.86 584.759 374.294V70.4649C584.759 66.8989 581.851 63.9907 578.285 63.9907H369.689Z" fill="#E0E0E0"/>
<path d="M337.742 381.069H129.157C125.43 381.069 122.395 378.034 122.395 374.306V70.4659C122.395 66.7383 125.43 63.7031 129.157 63.7031H337.753C341.481 63.7031 344.516 66.7383 344.516 70.4659V374.295C344.504 378.034 341.481 381.069 337.742 381.069ZM129.157 63.9916C125.591 63.9916 122.683 66.8999 122.683 70.4659V374.295C122.683 377.861 125.591 380.769 129.157 380.769H337.753C341.319 380.769 344.228 377.861 344.228 374.295V70.4659C344.228 66.8999 341.319 63.9916 337.753 63.9916H129.157Z" fill="#E0E0E0"/>
<path d="M642.999 406.838H65.9697V407.127H642.999V406.838Z" fill="#E0E0E0"/>
<path d="M144.136 423.295H125.602V423.584H144.136V423.295Z" fill="#E0E0E0"/>
<path d="M324.339 420.167H262.562V420.456H324.339V420.167Z" fill="#E0E0E0"/>
<path d="M187.124 434.017H145.289V434.305H187.124V434.017Z" fill="#E0E0E0"/>
<path d="M552.453 420.018H502.609V420.307H552.453V420.018Z" fill="#E0E0E0"/>
<path d="M570.038 420.018H562.732V420.307H570.038V420.018Z" fill="#E0E0E0"/>
<path d="M493.089 427.208H430.896V427.497H493.089V427.208Z" fill="#E0E0E0"/>
<path d="M365.497 410.752C363.558 414.572 362.415 418.657 362.035 422.777L355.676 424.093L357.061 436.522L363.546 436.418C364.827 440.353 366.836 444.093 369.571 447.393L366.016 452.806L375.779 460.619L380.28 455.968C384.1 457.907 388.186 459.049 392.306 459.43L393.621 465.789L406.05 464.404L405.947 457.918C409.882 456.637 413.621 454.629 416.922 451.894L422.334 455.448L430.147 445.685L425.496 441.184C427.435 437.364 428.578 433.279 428.958 429.159L435.306 427.843L433.921 415.414L427.435 415.518C426.154 411.583 424.146 407.844 421.411 404.543L424.965 399.13L415.191 391.317L410.69 395.968C406.87 394.029 402.784 392.887 398.664 392.495L397.349 386.136L384.92 387.521L385.023 394.006C381.088 395.287 377.349 397.295 374.048 400.031L368.636 396.476L360.823 406.251L365.497 410.752ZM405.947 412.621C412.859 418.149 413.979 428.236 408.451 435.149C402.923 442.061 392.836 443.181 385.924 437.653C379.011 432.125 377.891 422.038 383.419 415.126C388.936 408.213 399.034 407.082 405.947 412.621Z" fill="#F0F0F0"/>
<path d="M302.415 407.359C301.008 410.129 300.188 413.083 299.9 416.072L295.295 417.03L296.299 426.032L300.996 425.951C301.931 428.802 303.385 431.514 305.358 433.903L302.785 437.826L309.859 443.493L313.114 440.123C315.883 441.531 318.838 442.35 321.827 442.639L322.785 447.243L331.786 446.239L331.705 441.542C334.556 440.608 337.268 439.153 339.657 437.18L343.581 439.754L349.247 432.679L345.877 429.425C347.285 426.655 348.105 423.701 348.393 420.712L352.998 419.754L351.994 410.752L347.297 410.833C346.362 407.982 344.908 405.27 342.934 402.881L345.508 398.958L338.434 393.291L335.179 396.661C332.409 395.253 329.455 394.434 326.466 394.145L325.508 389.541L316.506 390.545L316.587 395.242C313.737 396.176 311.025 397.63 308.636 399.604L304.712 397.03L299.046 404.105L302.415 407.359ZM331.717 408.709C336.726 412.714 337.533 420.019 333.529 425.028C329.524 430.036 322.219 430.844 317.21 426.84C312.202 422.835 311.394 415.53 315.399 410.521C319.403 405.513 326.708 404.705 331.717 408.709Z" fill="#F0F0F0"/>
<path d="M337.834 453.649C337.257 454.78 336.922 455.992 336.807 457.227L334.914 457.619L335.33 461.312L337.257 461.277C337.638 462.443 338.238 463.562 339.046 464.532L337.995 466.136L340.904 468.456L342.242 467.071C343.373 467.648 344.585 467.982 345.82 468.098L346.212 469.991L349.905 469.575L349.871 467.648C351.036 467.267 352.156 466.667 353.125 465.859L354.729 466.909L357.049 464.001L355.664 462.662C356.241 461.531 356.576 460.32 356.691 459.085L358.584 458.692L358.168 454.999L356.241 455.034C355.86 453.868 355.26 452.76 354.452 451.78L355.502 450.175L352.594 447.856L351.256 449.241C350.125 448.664 348.913 448.329 347.678 448.213L347.286 446.321L343.593 446.736L343.627 448.664C342.462 449.044 341.342 449.645 340.373 450.452L338.769 449.402L336.449 452.31L337.834 453.649ZM349.848 454.203C351.902 455.842 352.236 458.842 350.586 460.897C348.947 462.951 345.947 463.285 343.893 461.635C341.838 459.996 341.504 456.996 343.154 454.942C344.793 452.887 347.793 452.553 349.848 454.203Z" fill="#F0F0F0"/>
<path d="M617.972 312.147C637.252 292.867 637.252 261.607 617.972 242.327C598.692 223.047 567.432 223.047 548.152 242.327C528.872 261.607 528.872 292.867 548.152 312.147C567.432 331.427 598.692 331.427 617.972 312.147Z" fill="#EBEBEB"/>
<path d="M616.445 298.967C628.43 280.538 623.207 255.884 604.779 243.898C586.35 231.913 561.696 237.137 549.711 255.565C537.726 273.993 542.949 298.648 561.377 310.633C579.805 322.618 604.46 317.395 616.445 298.967Z" fill="white"/>
<path d="M593.446 303.076C607.724 297.359 614.665 281.15 608.949 266.871C603.232 252.593 587.023 245.652 572.744 251.369C558.466 257.085 551.525 273.295 557.242 287.573C562.958 301.852 579.167 308.793 593.446 303.076Z" fill="#F0F0F0"/>
<path d="M599.162 284.455C603.132 275.569 599.147 265.147 590.261 261.178C581.375 257.208 570.953 261.193 566.983 270.079C563.013 278.965 566.998 289.386 575.884 293.356C584.77 297.326 595.192 293.341 599.162 284.455Z" fill="#E0E0E0"/>
<path d="M589.893 275.9C590.551 279.685 588.023 283.286 584.249 283.944C580.464 284.601 576.864 282.074 576.206 278.3C575.548 274.526 578.075 270.914 581.849 270.256C585.623 269.587 589.223 272.114 589.893 275.9Z" fill="#F0F0F0"/>
<path d="M628.041 241.716L628.076 239.743C628.099 238.277 628.78 236.916 629.911 235.992L635.842 231.191L634.665 236.592L628.041 241.716Z" fill="#EBEBEB"/>
<path d="M627.996 241.439L629.889 242.028C631.285 242.467 632.797 242.259 634.032 241.474L640.471 237.377L634.978 236.789L627.996 241.439Z" fill="#EBEBEB"/>
<path d="M583.579 277.297C589.592 272.634 595.593 267.983 601.605 263.321C611.172 255.9 620.74 248.48 630.318 241.059C632.511 239.363 634.704 237.666 636.885 235.958C637.762 235.277 636.527 234.054 635.661 234.735C629.649 239.397 623.648 244.048 617.635 248.711C608.068 256.131 598.501 263.552 588.922 270.972C586.729 272.669 584.537 274.365 582.356 276.073C581.478 276.754 582.713 277.966 583.579 277.297Z" fill="#E0E0E0"/>
<path d="M105.908 126.317C105.908 126.317 121.961 140.489 126.3 128.463C126.3 128.463 127.108 124.828 129.312 120.27C131.517 115.711 134.09 108.163 125.943 102.901C117.795 97.6384 106.047 92.3413 106.047 92.3413L90.7207 114.453C90.7207 114.453 96.918 120.443 98.0605 129.906C99.053 138.088 98.4067 140.708 99.3992 140.639C100.403 140.569 103.242 139.496 105.054 135.226C106.866 130.979 105.908 126.317 105.908 126.317Z" fill="#F0F0F0"/>
<path d="M72.2881 105.682L89.001 117.265L108.242 89.5015L91.5287 77.9189L72.2881 105.682Z" fill="#E0E0E0"/>
<path d="M176.222 81.6615C176.222 81.6615 151.329 67.3396 148.848 84.3043C148.848 84.3043 148.767 89.2898 147.082 95.8679C145.397 102.446 144.047 113.052 156.165 117.795C168.282 122.538 185.131 126.335 185.131 126.335L199.349 93.179C199.349 93.179 189.598 86.9702 185.57 74.841C182.073 64.3506 182.223 60.7384 180.931 61.0962C179.638 61.4539 176.199 63.6236 174.953 69.717C173.718 75.7989 176.222 81.6615 176.222 81.6615Z" fill="#F0F0F0"/>
<path d="M225.927 99.7678L200.873 89.0278L183.026 130.66L208.08 141.4L225.927 99.7678Z" fill="#E0E0E0"/>
<path d="M370.515 208.249C369.384 210.476 368.715 212.865 368.496 215.266L364.791 216.039L365.599 223.298L369.384 223.24C370.134 225.537 371.3 227.718 372.904 229.645L370.827 232.807L376.528 237.366L379.159 234.654C381.386 235.785 383.775 236.454 386.176 236.673L386.949 240.378L394.208 239.57L394.15 235.785C396.447 235.035 398.628 233.869 400.555 232.265L403.717 234.342L408.276 228.641L405.564 226.01C406.695 223.782 407.364 221.394 407.583 218.993L411.288 218.22L410.48 210.961L406.695 211.019C405.945 208.722 404.779 206.541 403.175 204.614L405.252 201.451L399.551 196.893L396.92 199.605C394.693 198.474 392.304 197.805 389.903 197.585L389.13 193.881L381.871 194.689L381.929 198.474C379.632 199.224 377.451 200.39 375.524 201.994L372.362 199.917L367.803 205.618L370.515 208.249ZM394.139 209.334C398.178 212.565 398.824 218.451 395.604 222.49C392.373 226.529 386.487 227.175 382.448 223.956C378.409 220.724 377.763 214.839 380.982 210.799C384.214 206.76 390.099 206.102 394.139 209.334Z" fill="#F0F0F0"/>
<path d="M110.366 296.765C109.235 298.993 108.565 301.382 108.346 303.782L104.642 304.555L105.449 311.814L109.235 311.757C109.985 314.053 111.15 316.234 112.755 318.162L110.677 321.324L116.378 325.882L119.01 323.17C121.237 324.301 123.626 324.971 126.026 325.19L126.8 328.894L134.059 328.087L134.001 324.301C136.297 323.551 138.479 322.386 140.406 320.781L143.568 322.859L148.126 317.158L145.414 314.526C146.545 312.299 147.215 309.91 147.434 307.51L151.139 306.737L150.331 299.478L146.545 299.535C145.795 297.239 144.63 295.057 143.026 293.13L145.103 289.968L139.402 285.41L136.771 288.122C134.543 286.991 132.154 286.321 129.754 286.102L128.981 282.397L121.722 283.205L121.779 286.991C119.483 287.741 117.302 288.906 115.374 290.51L112.212 288.433L107.654 294.134L110.366 296.765ZM133.989 297.85C138.028 301.082 138.675 306.967 135.455 311.007C132.224 315.046 126.338 315.692 122.299 312.472C118.259 309.241 117.613 303.355 120.833 299.316C124.064 295.277 129.95 294.619 133.989 297.85Z" fill="#F0F0F0"/>
<path d="M335.303 215.508C334.726 216.639 334.391 217.851 334.275 219.086L332.383 219.478L332.798 223.171L334.726 223.137C335.106 224.302 335.706 225.41 336.514 226.391L335.464 227.995L338.372 230.315L339.711 228.93C340.842 229.507 342.054 229.842 343.289 229.957L343.681 231.85L347.374 231.434L347.339 229.507C348.505 229.126 349.624 228.526 350.594 227.718L352.198 228.769L354.518 225.86L353.133 224.522C353.71 223.391 354.044 222.179 354.16 220.944L356.053 220.552L355.637 216.859L353.71 216.893C353.329 215.728 352.729 214.62 351.921 213.639L352.971 212.035L350.063 209.715L348.724 211.1C347.593 210.523 346.382 210.188 345.147 210.073L344.754 208.18L341.061 208.596L341.096 210.523C339.93 210.904 338.811 211.504 337.842 212.312L336.237 211.262L333.918 214.17L335.303 215.508ZM347.328 216.074C349.382 217.713 349.717 220.713 348.066 222.767C346.428 224.822 343.427 225.156 341.373 223.506C339.319 221.867 338.984 218.867 340.634 216.813C342.273 214.758 345.274 214.424 347.328 216.074Z" fill="#F0F0F0"/>
<path d="M305.775 177.967C305.198 179.098 304.864 180.31 304.748 181.545L302.855 181.937L303.271 185.63L305.198 185.595C305.579 186.761 306.179 187.869 306.987 188.85L305.937 190.454L308.845 192.773L310.184 191.389C311.315 191.966 312.526 192.3 313.761 192.416L314.154 194.308L317.847 193.893L317.812 191.966C318.978 191.585 320.097 190.985 321.066 190.177L322.671 191.227L324.99 188.319L323.605 186.98C324.182 185.849 324.517 184.637 324.633 183.403L326.525 183.01L326.11 179.317L324.182 179.352C323.802 178.186 323.202 177.067 322.394 176.097L323.444 174.493L320.536 172.174L319.197 173.558C318.066 172.981 316.854 172.647 315.619 172.531L315.227 170.639L311.534 171.054L311.569 172.981C310.403 173.362 309.284 173.962 308.314 174.77L306.71 173.72L304.39 176.628L305.775 177.967ZM317.789 178.532C319.843 180.171 320.178 183.172 318.528 185.226C316.889 187.28 313.888 187.615 311.834 185.965C309.78 184.326 309.445 181.325 311.095 179.271C312.734 177.217 315.735 176.882 317.789 178.532Z" fill="#E0E0E0"/>
<path d="M319.843 563.254C456.794 563.254 567.815 558.196 567.815 551.956C567.815 545.716 456.794 540.658 319.843 540.658C182.891 540.658 71.8701 545.716 71.8701 551.956C71.8701 558.196 182.891 563.254 319.843 563.254Z" fill="#F5F5F5"/>
<path d="M405.551 506.147C408.217 505.997 410.721 504.704 412.683 502.904C414.645 501.103 416.099 498.807 417.311 496.429C420.507 490.117 422.054 482.973 421.754 475.899C421.685 474.387 421.535 472.829 420.877 471.467C420.231 470.094 418.996 468.917 417.495 468.709C415.257 468.386 413.295 470.175 411.875 471.94C405.412 479.938 402.077 490.417 402.747 500.676C402.908 503.181 403.751 505.604 405.551 506.147Z" fill="#7E9197"/>
<g opacity="0.6">
<path d="M393.637 492.229C395.83 487.682 395.991 482.292 394.537 477.457C393.095 472.621 390.117 468.328 386.436 464.877C382.396 461.092 377.215 458.184 371.675 458.161C369.321 458.149 366.759 458.784 365.316 460.642C363.77 462.627 363.897 465.443 364.578 467.866C365.686 471.825 368.04 475.356 370.844 478.357C373.649 481.357 376.915 483.896 380.181 486.401C383.851 489.228 387.82 492.148 392.448 492.506" fill="#284752"/>
</g>
<path d="M393.315 507.578C392.669 502.466 388.699 498.242 384.059 496.015C379.42 493.776 374.158 493.233 369.022 492.98C367.88 492.922 366.702 492.876 365.606 493.222C364.51 493.568 363.494 494.364 363.194 495.472C362.813 496.926 363.725 498.381 364.694 499.535C370.326 506.297 379.143 510.29 387.949 510.06C388.964 510.036 390.003 509.944 390.949 509.563C391.884 509.171 392.726 508.432 393.015 507.451" fill="#7E9197"/>
<path d="M416.662 472.459C408.791 491.697 402.951 511.709 399.224 532.158C399.12 532.701 399.962 532.932 400.055 532.389C403.771 511.939 409.622 491.928 417.492 472.69C417.712 472.171 416.869 471.951 416.662 472.459Z" fill="#263238"/>
<path d="M399.731 526.238C400.031 516.833 399.269 507.324 396.592 498.264C393.96 489.343 389.425 481.092 383.228 474.144C379.316 469.759 374.815 465.962 369.979 462.65C369.518 462.338 369.091 463.088 369.541 463.4C377.781 469.055 384.936 476.21 389.956 484.9C394.491 492.759 397.123 501.588 398.231 510.566C398.877 515.771 399.027 521.011 398.854 526.25C398.854 526.792 399.719 526.792 399.731 526.238Z" fill="#263238"/>
<path d="M399.225 512.933C391.85 504.381 381.556 498.426 370.442 496.441C369.9 496.349 369.669 497.18 370.212 497.272C381.198 499.246 391.331 505.097 398.613 513.544C398.971 513.96 399.582 513.348 399.225 512.933Z" fill="#263238"/>
<path d="M382.537 532.887V521.831H397.944H413.35V532.887C413.35 532.887 413.939 552.437 403.079 554.214H397.944H392.808C381.948 552.437 382.537 532.887 382.537 532.887Z" fill="#284752"/>
<path opacity="0.5" d="M382.537 532.887V521.831H397.944H413.35V532.887C413.35 532.887 413.939 552.437 403.079 554.214H397.944H392.808C381.948 552.437 382.537 532.887 382.537 532.887Z" fill="black"/>
<path d="M247.389 458.462C247.389 458.462 221.895 467.625 232.582 479.766C232.582 479.766 236.113 482.87 239.83 488.086C243.534 493.314 250.343 500.746 261.145 494.93C271.947 489.102 284.965 479.304 284.965 479.304L269.789 448.848C269.789 448.848 259.368 452.068 248.185 447.567C238.514 443.678 235.998 441.37 235.467 442.513C234.936 443.667 234.394 447.463 238.018 452.068C241.641 456.684 247.389 458.462 247.389 458.462Z" fill="#74A475"/>
<path opacity="0.6" d="M247.389 458.462C247.389 458.462 221.895 467.625 232.582 479.766C232.582 479.766 236.113 482.87 239.83 488.086C243.534 493.314 250.343 500.746 261.145 494.93C271.947 489.102 284.965 479.304 284.965 479.304L269.789 448.848C269.789 448.848 259.368 452.068 248.185 447.567C238.514 443.678 235.998 441.37 235.467 442.513C234.936 443.667 234.394 447.463 238.018 452.068C241.641 456.684 247.389 458.462 247.389 458.462Z" fill="white"/>
<path d="M290.754 433.754L267.741 445.225L286.805 483.472L309.818 472.002L290.754 433.754Z" fill="#74A475"/>
<path d="M285.937 447.67C285.937 449.401 284.529 450.809 282.798 450.809C281.067 450.809 279.659 449.401 279.659 447.67C279.659 445.939 281.067 444.531 282.798 444.531C284.529 444.531 285.937 445.939 285.937 447.67Z" fill="white"/>
<path d="M447.041 413.729H212.029C208.128 413.729 204.966 410.567 204.966 406.666V220.817C204.966 216.916 208.128 213.754 212.029 213.754H447.041C450.942 213.754 454.104 216.916 454.104 220.817V406.666C454.092 410.567 450.93 413.729 447.041 413.729Z" fill="#BCBCBC"/>
<path opacity="0.6" d="M447.041 413.729H212.029C208.128 413.729 204.966 410.567 204.966 406.666V220.817C204.966 216.916 208.128 213.754 212.029 213.754H447.041C450.942 213.754 454.104 216.916 454.104 220.817V406.666C454.092 410.567 450.93 413.729 447.041 413.729Z" fill="white"/>
<path d="M433.967 284.59H288.463C286.905 284.59 285.647 283.332 285.647 281.774V246.922C285.647 245.364 286.905 244.106 288.463 244.106H433.967C435.525 244.106 436.783 245.364 436.783 246.922V281.774C436.783 283.332 435.525 284.59 433.967 284.59Z" fill="#BCBCBC"/>
<path d="M290.061 309.955C327.66 309.955 365.26 309.955 402.87 309.955C413.418 309.955 423.978 309.955 434.526 309.955C436.753 309.955 436.753 306.493 434.526 306.493C396.927 306.493 359.328 306.493 321.717 306.493C311.169 306.493 300.609 306.493 290.061 306.493C287.834 306.493 287.834 309.955 290.061 309.955Z" fill="#263238"/>
<path d="M290.061 319.246C327.66 319.246 365.26 319.246 402.87 319.246C413.418 319.246 423.978 319.246 434.526 319.246C436.753 319.246 436.753 315.784 434.526 315.784C396.927 315.784 359.328 315.784 321.717 315.784C311.169 315.784 300.609 315.784 290.061 315.784C287.834 315.784 287.834 319.246 290.061 319.246Z" fill="#263238"/>
<path d="M290.061 357.989C327.66 357.989 365.26 357.989 402.87 357.989C413.418 357.989 423.978 357.989 434.526 357.989C436.753 357.989 436.753 354.526 434.526 354.526C396.927 354.526 359.328 354.526 321.717 354.526C311.169 354.526 300.609 354.526 290.061 354.526C287.834 354.526 287.834 357.989 290.061 357.989Z" fill="#263238"/>
<path d="M290.061 368.097C327.66 368.097 365.26 368.097 402.87 368.097C413.418 368.097 423.978 368.097 434.526 368.097C436.753 368.097 436.753 364.635 434.526 364.635C396.927 364.635 359.328 364.635 321.717 364.635C311.169 364.635 300.609 364.635 290.061 364.635C287.834 364.635 287.834 368.097 290.061 368.097Z" fill="#263238"/>
<path d="M290.061 377.309C312.785 377.309 335.496 377.309 358.22 377.309C364.648 377.309 371.064 377.309 377.493 377.309C379.72 377.309 379.72 373.847 377.493 373.847C354.769 373.847 332.057 373.847 309.334 373.847C302.906 373.847 296.489 373.847 290.061 373.847C287.834 373.847 287.834 377.309 290.061 377.309Z" fill="#263238"/>
<path d="M290.061 348.711C327.66 348.711 365.26 348.711 402.87 348.711C413.418 348.711 423.978 348.711 434.526 348.711C436.753 348.711 436.753 345.249 434.526 345.249C396.927 345.249 359.328 345.249 321.717 345.249C311.169 345.249 300.609 345.249 290.061 345.249C287.834 345.249 287.834 348.711 290.061 348.711Z" fill="#263238"/>
<path d="M290.061 328.535C314.527 328.535 338.993 328.535 363.471 328.535C365.698 328.535 365.698 325.073 363.471 325.073C339.005 325.073 314.539 325.073 290.061 325.073C287.834 325.073 287.834 328.535 290.061 328.535Z" fill="#263238"/>
<path opacity="0.4" d="M272.628 391.814H227.851C224.573 391.814 221.931 389.16 221.931 385.894V301.717C221.931 298.439 224.585 295.796 227.851 295.796H272.628C275.906 295.796 278.549 298.451 278.549 301.717V385.894C278.549 389.16 275.894 391.814 272.628 391.814Z" fill="#BCBCBC"/>
<path d="M256.071 282.65C266.175 278.413 270.932 266.787 266.695 256.683C262.458 246.579 250.832 241.823 240.728 246.06C230.624 250.297 225.868 261.922 230.105 272.026C234.342 282.13 245.967 286.886 256.071 282.65Z" fill="#BCBCBC"/>
<path opacity="0.4" d="M218.018 230.534C220.172 230.534 221.919 228.788 221.919 226.634C221.919 224.479 220.172 222.733 218.018 222.733C215.864 222.733 214.117 224.479 214.117 226.634C214.117 228.788 215.864 230.534 218.018 230.534Z" fill="#BCBCBC"/>
<path opacity="0.4" d="M228.58 230.534C230.735 230.534 232.481 228.788 232.481 226.634C232.481 224.479 230.735 222.733 228.58 222.733C226.426 222.733 224.68 224.479 224.68 226.634C224.68 228.788 226.426 230.534 228.58 230.534Z" fill="#BCBCBC"/>
<path opacity="0.4" d="M239.129 230.534C241.284 230.534 243.03 228.788 243.03 226.634C243.03 224.479 241.284 222.733 239.129 222.733C236.975 222.733 235.229 224.479 235.229 226.634C235.229 228.788 236.975 230.534 239.129 230.534Z" fill="#BCBCBC"/>
<path d="M287.653 266.345C295.409 261.671 304.399 258.116 313.47 257.228C317.843 256.801 322.39 257.204 326.222 259.513C329.661 261.578 332.535 265.364 332.015 269.576C331.75 271.746 330.377 273.684 328.218 274.296C326.407 274.815 324.629 274.077 323.695 272.45C321.975 269.437 323.256 265.756 325.599 263.506C331.692 257.666 340.89 260.205 347.56 263.367C355.004 266.899 362.783 271.873 371.415 270.349C374.681 269.772 378.028 267.995 379.655 264.994C381.097 262.34 380.728 259.132 378.697 256.87C376.7 254.654 373.492 254.331 371.196 256.293C368.553 258.555 368.38 262.317 369.788 265.294C372.857 271.815 381.178 274.873 387.941 273.315C395.362 271.607 400.012 264.983 405.99 260.84C412.372 256.42 420.693 255.427 427.998 258.001C429.868 258.659 431.622 259.57 433.272 260.667C434.196 261.29 435.073 259.79 434.149 259.166C427.952 255.023 420.035 253.823 412.846 255.762C409.268 256.72 406.083 258.497 403.198 260.782C400.162 263.182 397.473 265.998 394.346 268.283C391.138 270.626 387.514 272.173 383.486 271.976C379.586 271.78 375.754 270.061 373.134 267.164C371.634 265.502 370.411 263.275 370.63 260.967C370.815 259.051 372.153 257.02 374.162 256.708C375.95 256.431 377.485 257.724 378.247 259.247C379.112 260.955 378.951 262.825 377.958 264.44C375.766 268.018 371.069 269.068 367.156 268.849C362.494 268.583 358.097 266.656 353.966 264.602C346.96 261.117 339.482 256.881 331.381 258.67C325.53 259.963 319.482 265.271 321.56 271.838C322.46 274.677 325.045 276.627 328.08 276.062C331.588 275.416 333.746 272.138 333.781 268.699C333.862 260.713 325.68 255.981 318.628 255.381C314.07 254.989 309.419 255.877 305.022 257.043C300.775 258.162 296.632 259.697 292.662 261.601C290.631 262.571 288.657 263.656 286.742 264.81C285.83 265.421 286.695 266.922 287.653 266.345Z" fill="white"/>
<path opacity="0.4" d="M310.124 295.785H289.074C288.232 295.785 287.551 295.104 287.551 294.262V291.48C287.551 290.638 288.232 289.957 289.074 289.957H310.124C310.967 289.957 311.648 290.638 311.648 291.48V294.25C311.648 295.104 310.967 295.785 310.124 295.785Z" fill="#BCBCBC"/>
<path opacity="0.4" d="M350.018 295.785H318.455C317.613 295.785 316.932 295.104 316.932 294.262V291.48C316.932 290.638 317.613 289.957 318.455 289.957H350.018C350.861 289.957 351.542 290.638 351.542 291.48V294.25C351.553 295.104 350.872 295.785 350.018 295.785Z" fill="#BCBCBC"/>
<path opacity="0.4" d="M380.152 295.785H358.514C357.671 295.785 356.99 295.104 356.99 294.262V291.48C356.99 290.638 357.671 289.957 358.514 289.957H380.152C380.995 289.957 381.676 290.638 381.676 291.48V294.25C381.676 295.104 380.995 295.785 380.152 295.785Z" fill="#BCBCBC"/>
<path d="M594.783 160.372C601.376 157.21 603.73 148.061 600.467 141.536C597.205 135.01 589.519 131.394 582.22 131.747C574.92 132.117 568.126 135.935 562.929 141.065C557.715 134.657 547.187 133.496 540.695 138.609C534.321 143.638 535.38 153.931 540.173 160.524C534.556 163.265 530.822 169.976 532.202 176.165C533.9 183.8 542.932 188.863 550.332 186.306C550.315 196.195 559.145 205.244 569.034 205.446C578.906 205.664 588.14 197.003 588.56 187.13C596.095 190.629 606.253 185.684 608.137 177.594C610.004 169.521 603.091 160.591 594.783 160.372Z" fill="#B7D0B7"/>
<path d="M547.628 197.29C547.628 199.611 545.744 201.494 543.423 201.494C541.102 201.494 539.219 199.611 539.219 197.29C539.219 194.969 541.102 193.085 543.423 193.085C545.761 193.085 547.628 194.969 547.628 197.29Z" fill="#B7D0B7"/>
<g opacity="0.6">
<path d="M594.783 160.372C601.376 157.21 603.73 148.061 600.467 141.536C597.205 135.01 589.519 131.394 582.22 131.747C574.92 132.117 568.126 135.935 562.929 141.065C557.715 134.657 547.187 133.496 540.695 138.609C534.321 143.638 535.38 153.931 540.173 160.524C534.556 163.265 530.822 169.976 532.202 176.165C533.9 183.8 542.932 188.863 550.332 186.306C550.315 196.195 559.145 205.244 569.034 205.446C578.906 205.664 588.14 197.003 588.56 187.13C596.095 190.629 606.253 185.684 608.137 177.594C610.004 169.521 603.091 160.591 594.783 160.372Z" fill="white"/>
</g>
<path opacity="0.6" d="M547.628 197.29C547.628 199.611 545.744 201.494 543.423 201.494C541.102 201.494 539.219 199.611 539.219 197.29C539.219 194.969 541.102 193.085 543.423 193.085C545.761 193.085 547.628 194.969 547.628 197.29Z" fill="white"/>
<path d="M569.103 169.825C569.692 168.832 570.549 167.739 571.659 166.528C572.483 165.654 573.089 164.914 573.476 164.308C573.863 163.703 574.064 163.03 574.064 162.256C574.064 161.18 573.694 160.322 572.954 159.683C572.214 159.061 571.239 158.741 570.011 158.741C568.834 158.741 567.791 159.027 566.883 159.599C565.975 160.171 565.201 160.961 564.579 161.987L560.055 158.876C561.097 157.009 562.51 155.546 564.293 154.52C566.076 153.494 568.195 152.989 570.633 152.989C573.493 152.989 575.797 153.712 577.529 155.142C579.261 156.572 580.136 158.573 580.136 161.113C580.136 162.307 579.968 163.366 579.631 164.274C579.295 165.183 578.891 165.956 578.404 166.579C577.916 167.201 577.294 167.941 576.52 168.748C575.595 169.707 574.922 170.531 574.502 171.187C574.081 171.843 573.863 172.65 573.863 173.575H568.212C568.228 172.078 568.514 170.817 569.103 169.825ZM568.498 183.145C567.808 182.455 567.472 181.597 567.472 180.605C567.472 179.613 567.808 178.772 568.481 178.099C569.153 177.426 570.011 177.09 571.054 177.09C572.097 177.09 572.954 177.426 573.627 178.099C574.3 178.772 574.636 179.596 574.636 180.605C574.636 181.597 574.3 182.455 573.61 183.145C572.921 183.834 572.063 184.187 571.054 184.187C570.045 184.187 569.187 183.834 568.498 183.145Z" fill="#B7D0B7"/>
<path d="M372.935 192.538H212.518C208.449 192.538 205.158 189.907 205.158 186.654V155.211C205.158 151.958 208.449 149.327 212.518 149.327H372.935C377.004 149.327 380.295 151.958 380.295 155.211V186.654C380.295 189.907 377.004 192.538 372.935 192.538Z" fill="#407BFF"/>
<path d="M372.935 192.538H212.518C208.449 192.538 205.158 189.907 205.158 186.654V155.211C205.158 151.958 208.449 149.327 212.518 149.327H372.935C377.004 149.327 380.295 151.958 380.295 155.211V186.654C380.295 189.907 377.004 192.538 372.935 192.538Z" fill="#C7DBC8"/>
<path opacity="0.6" d="M372.935 192.538H212.518C208.449 192.538 205.158 189.907 205.158 186.654V155.211C205.158 151.958 208.449 149.327 212.518 149.327H372.935C377.004 149.327 380.295 151.958 380.295 155.211V186.654C380.295 189.907 377.004 192.538 372.935 192.538Z" fill="#284752"/>
<path d="M230.754 159.236L233.61 165.019C233.855 165.518 234.334 165.865 234.885 165.947L241.259 166.875C242.646 167.079 243.207 168.792 242.197 169.771L237.577 174.269C237.179 174.656 236.996 175.217 237.088 175.768L238.179 182.122C238.413 183.509 236.965 184.57 235.721 183.907L230.02 180.908C229.53 180.653 228.939 180.653 228.439 180.908L222.738 183.907C221.494 184.559 220.035 183.509 220.28 182.122L221.371 175.768C221.463 175.217 221.28 174.656 220.882 174.269L216.262 169.771C215.252 168.792 215.813 167.079 217.2 166.875L223.574 165.947C224.125 165.865 224.604 165.518 224.849 165.019L227.705 159.236C228.327 157.971 230.132 157.971 230.754 159.236Z" fill="#FFD400"/>
<path d="M263.033 159.236L265.888 165.019C266.133 165.518 266.612 165.865 267.163 165.947L273.537 166.875C274.924 167.079 275.485 168.792 274.475 169.771L269.855 174.269C269.458 174.656 269.274 175.217 269.366 175.768L270.457 182.122C270.692 183.509 269.244 184.57 267.999 183.907L262.298 180.908C261.809 180.653 261.217 180.653 260.717 180.908L255.016 183.907C253.772 184.559 252.314 183.509 252.559 182.122L253.65 175.768C253.742 175.217 253.558 174.656 253.16 174.269L248.54 169.771C247.531 168.792 248.092 167.079 249.479 166.875L255.853 165.947C256.403 165.865 256.883 165.518 257.128 165.019L259.983 159.236C260.605 157.971 262.41 157.971 263.033 159.236Z" fill="#FFD400"/>
<path d="M295.617 159.236L298.472 165.019C298.717 165.518 299.196 165.865 299.747 165.947L306.121 166.875C307.508 167.079 308.069 168.792 307.059 169.771L302.439 174.269C302.042 174.656 301.858 175.217 301.95 175.768L303.041 182.122C303.276 183.509 301.828 184.57 300.583 183.907L294.882 180.908C294.393 180.653 293.801 180.653 293.301 180.908L287.6 183.907C286.356 184.559 284.898 183.509 285.143 182.122L286.234 175.768C286.326 175.217 286.142 174.656 285.744 174.269L281.124 169.771C280.115 168.792 280.676 167.079 282.063 166.875L288.437 165.947C288.987 165.865 289.467 165.518 289.712 165.019L292.567 159.236C293.189 157.971 294.994 157.971 295.617 159.236Z" fill="#FFD400"/>
<path d="M328.201 159.236L331.056 165.019C331.301 165.518 331.78 165.865 332.331 165.947L338.705 166.875C340.092 167.079 340.653 168.792 339.643 169.771L335.023 174.269C334.626 174.656 334.442 175.217 334.534 175.768L335.625 182.122C335.86 183.509 334.411 184.57 333.167 183.907L327.466 180.908C326.977 180.653 326.385 180.653 325.885 180.908L320.184 183.907C318.94 184.559 317.482 183.509 317.726 182.122L318.818 175.768C318.91 175.217 318.726 174.656 318.328 174.269L313.708 169.771C312.699 168.792 313.259 167.079 314.647 166.875L321.021 165.947C321.571 165.865 322.051 165.518 322.295 165.019L325.151 159.236C325.783 157.971 327.578 157.971 328.201 159.236Z" fill="#FFD400"/>
<path d="M360.781 159.236L363.636 165.019C363.881 165.518 364.36 165.865 364.911 165.947L371.285 166.875C372.672 167.079 373.233 168.792 372.223 169.771L367.603 174.269C367.206 174.656 367.022 175.217 367.114 175.768L368.205 182.122C368.44 183.509 366.992 184.57 365.747 183.907L360.046 180.908C359.557 180.653 358.965 180.653 358.465 180.908L352.764 183.907C351.52 184.559 350.062 183.509 350.307 182.122L351.398 175.768C351.49 175.217 351.306 174.656 350.908 174.269L346.288 169.771C345.279 168.792 345.84 167.079 347.227 166.875L353.601 165.947C354.151 165.865 354.631 165.518 354.876 165.019L357.731 159.236C358.364 157.971 360.158 157.971 360.781 159.236Z" fill="#FFD400"/>
<path d="M454.856 202.272C494.392 202.272 526.442 170.222 526.442 130.686C526.442 91.1498 494.392 59.0996 454.856 59.0996C415.32 59.0996 383.27 91.1498 383.27 130.686C383.27 170.222 415.32 202.272 454.856 202.272Z" fill="#CDE9B7"/>
<path opacity="0.7" d="M454.856 202.272C494.392 202.272 526.442 170.222 526.442 130.686C526.442 91.1498 494.392 59.0996 454.856 59.0996C415.32 59.0996 383.27 91.1498 383.27 130.686C383.27 170.222 415.32 202.272 454.856 202.272Z" fill="white"/>
<path d="M477.254 111.747L461.132 108.204L445.252 107.65C445.229 107.223 428.402 108.088 426.498 111.181C425.09 113.466 422.632 164.418 420.059 193.408C430.895 200.009 441.132 202.363 454.75 202.363C465.413 202.363 475.523 200.021 484.605 195.831C483.555 175.347 481.951 141.498 482.424 133.455C483.128 121.672 477.254 111.747 477.254 111.747Z" fill="#CDE9B7"/>
<path d="M427.148 137.945C426.328 139.307 415.503 170.397 400.304 168.966C386.871 167.697 370.68 136.733 370.68 136.733L377.142 130.247C377.142 130.247 394.673 151.067 399.647 151.978C403.801 152.74 418.331 123.623 418.331 123.623L427.148 137.945Z" fill="#FDBBB5"/>
<path d="M358.549 128.124C358.63 127.743 359.692 126.554 359.692 126.554C359.692 126.554 359.265 125.7 359.242 125.273C359.184 124.061 360.326 123.15 361.434 122.642C361.146 122.319 361.203 119.63 363.465 119.815C362.669 118.349 364.677 116.133 366.628 117.102C367.516 117.541 371.128 120.449 372.19 121.13C372.571 119.457 373.39 118.014 374.625 116.618C375.041 116.145 376.541 115.452 377.176 115.544C377.81 115.637 377.464 116.306 377.499 116.941C377.545 117.564 376.806 119.087 376.702 119.711C375.86 124.823 376.564 127.754 377.499 132.013L371.036 137.599C366.535 134.875 366.72 134.148 361.527 131.978C359.657 131.194 358.18 129.993 358.549 128.124Z" fill="#FDBBB5"/>
<path d="M363.467 120.068C364.137 120.576 364.841 121.049 365.591 121.453C366.283 121.834 367.068 122.296 367.876 122.365C368.568 122.423 369.215 122.053 369.549 121.453C369.93 120.784 369.872 119.965 369.595 119.261C369.48 118.949 368.972 119.087 369.099 119.399C369.342 120.011 369.422 120.726 369.041 121.292C368.638 121.892 367.968 121.938 367.322 121.707C366.687 121.488 366.064 121.13 365.487 120.795C364.875 120.438 364.298 120.045 363.733 119.618C363.467 119.422 363.202 119.872 363.467 120.068Z" fill="#FF7D74"/>
<path d="M366.907 122.4C367.381 122.804 367.577 123.496 367.265 124.062C366.942 124.651 366.296 124.858 365.661 124.697C364.957 124.524 364.288 124.131 363.641 123.797C362.972 123.45 362.314 123.069 361.668 122.666C361.379 122.492 361.126 122.931 361.403 123.116C362.21 123.623 363.03 124.085 363.884 124.512C364.645 124.881 365.499 125.389 366.377 125.251C367.057 125.147 367.634 124.639 367.842 123.993C368.073 123.3 367.808 122.504 367.254 122.031C367.023 121.823 366.654 122.181 366.907 122.4Z" fill="#FF7D74"/>
<path d="M365.273 125.377C365.769 125.724 366.034 126.382 365.85 126.97C365.653 127.628 365.03 128.032 364.361 128.009C363.622 127.986 362.884 127.605 362.203 127.351C361.441 127.062 360.691 126.774 359.929 126.485C359.618 126.37 359.479 126.866 359.791 126.982C360.76 127.351 361.73 127.72 362.711 128.101C363.507 128.401 364.384 128.736 365.215 128.378C366.669 127.766 366.796 125.804 365.538 124.927C365.261 124.743 365.007 125.193 365.273 125.377Z" fill="#FF7D74"/>
<path d="M363.902 128.448C364.225 128.702 364.352 129.094 364.306 129.498C364.249 129.925 363.972 130.271 363.602 130.479C362.656 131.033 361.537 130.652 360.659 130.156C360.371 129.994 360.105 130.444 360.394 130.606C361.479 131.206 362.887 131.61 363.995 130.837C364.456 130.513 364.756 130.052 364.814 129.486C364.872 128.967 364.687 128.401 364.26 128.067C364.145 127.974 364.006 127.963 363.891 128.067C363.81 128.171 363.798 128.355 363.902 128.448Z" fill="#FF7D74"/>
<path d="M371.753 122.041C369.11 124.384 368.441 128.262 370.103 131.378C370.264 131.678 370.714 131.412 370.553 131.112C368.995 128.192 369.653 124.603 372.122 122.411C372.365 122.191 371.995 121.822 371.753 122.041Z" fill="#FF7D74"/>
<path d="M442.485 118.672C439.853 127.327 427.967 151.978 427.967 151.978L405.555 139.364C405.555 139.364 414.81 120.726 421.85 113.709C432.629 105.146 445.877 107.512 442.485 118.672Z" fill="#CDE9B7"/>
<path opacity="0.2" d="M421.748 148.481L424.057 129.52L414.812 144.568L421.748 148.481Z" fill="black"/>
<path d="M445.716 93.6632L462.934 84.5C462.807 85.7348 462.761 88.1007 461.757 89.4163C452.94 100.934 459.772 108.147 459.772 108.147C455.121 111.574 444.781 113.178 442.738 107.777C444.192 104.904 445.854 97.5639 445.716 93.6632Z" fill="#FDBBB5"/>
<path opacity="0.2" d="M445.08 99.0876L454.751 97.5527C453.689 100.461 450.839 103.808 444.191 103.658C444.191 103.669 445.068 100.392 445.08 99.0876Z" fill="black"/>
<path d="M434.843 63.4509C432.65 67.1554 433.042 76.711 439.251 75.3492C445.472 73.9875 438.616 57.0805 434.843 63.4509Z" fill="#263238"/>
<path d="M463.58 76.4682C461.78 86.8893 460.983 92.8096 455.086 97.5644C429.685 113.271 424.723 66.0355 445.357 59.7805C455.952 56.8838 465.38 66.047 463.58 76.4682Z" fill="#FDBBB5"/>
<path d="M470.402 65.0667C470.402 65.0667 460.916 63.7395 459.323 63.6126C457.731 63.4972 456.104 69.1751 456.334 71.0216C456.565 72.8681 459.058 73.676 458.989 75.4417C458.908 76.9419 456.392 81.3274 457.292 83.3585C458.319 84.1663 463.951 80.808 463.951 80.808L467.252 82.0198C467.252 82.0083 476.715 69.3252 470.402 65.0667Z" fill="#263238"/>
<path d="M470.226 65.8972C471.219 65.0085 472.292 63.4621 471.115 60.577C471.115 61.3617 470.122 62.2965 469.511 62.6196C468.899 60.2423 465.806 56.1454 457.104 54.2066C446.395 51.8292 443.59 55.4414 440.474 53.8373C437.347 52.2331 441.259 50.9867 441.259 50.9867C441.259 50.9867 435.858 49.7404 434.116 53.8142C432.373 57.8995 433.873 65.0662 443.429 64.6162C452.973 64.1661 454.842 67.2705 459.655 66.5088C463.152 66.0703 466.683 65.8625 470.226 65.8972Z" fill="#263238"/>
<path d="M466.763 85.4929C464.917 90.9747 455.373 93.9637 456.584 85.7699C457.3 77.7954 469.152 75.8335 466.763 85.4929Z" fill="#FDBBB5"/>
<path d="M448.068 77.6106C448.068 80.1611 445.46 80.0919 445.506 77.5645C445.495 75.014 448.103 75.0832 448.068 77.6106Z" fill="#263238"/>
<path d="M437.936 78.1067C437.936 80.6572 435.327 80.588 435.374 78.0606C435.374 75.5217 437.982 75.5794 437.936 78.1067Z" fill="#263238"/>
<path d="M441.166 76.6875C441.166 76.6875 437.185 81.65 435.857 83.7042C437.208 85.216 439.85 84.8813 439.85 84.8813L441.166 76.6875Z" fill="#FF7D74"/>
<path d="M451.406 73.0759C451.233 73.1221 451.048 73.0875 450.91 72.949C449.282 71.3679 447.459 71.7488 447.448 71.7488C445.232 70.7678 449.329 69.7869 451.614 72.2335C451.902 72.4874 451.775 72.9836 451.406 73.0759Z" fill="#263238"/>
<path opacity="0.2" d="M464.686 82.5161C462.944 80.081 459.851 82.9661 459.551 85.1358" stroke="black" stroke-width="0.577029" stroke-miterlimit="10" stroke-linecap="round" stroke-linejoin="round"/>
<path d="M433.518 71.8629C433.148 71.7475 433.044 71.2166 433.356 70.9858C435.549 69.2547 437.741 70.0049 437.845 70.028C438.457 70.2241 438.145 71.2051 437.534 70.9858C437.199 70.605 435.26 70.9743 433.518 71.8629Z" fill="#263238"/>
<path d="M441.273 88.4702C442.231 89.6358 443.097 90.8706 443.87 92.1747C444.112 92.0824 444.366 91.9901 444.609 91.8747C447.955 90.5013 449.052 88.7703 449.248 87.2584C449.329 86.5198 449.236 85.7697 448.971 85.0657C448.832 84.6733 448.636 84.2925 448.394 83.9463C447.055 85.7351 444.043 87.2469 442.404 87.9855C441.677 88.274 441.273 88.4702 441.273 88.4702Z" fill="#263238"/>
<path d="M442.402 87.963L443.199 89.0363C446.338 87.7438 448.369 86.4166 448.969 85.0433C448.83 84.6509 448.634 84.27 448.392 83.9238C447.042 85.7242 444.041 87.2244 442.402 87.963Z" fill="white"/>
<path d="M444.561 91.9102C447.907 90.5368 449.004 88.8058 449.2 87.2939C447.942 87.8364 446.788 88.598 445.795 89.5444C445.149 90.1791 444.722 91.01 444.561 91.9102Z" fill="#FF3F3E"/>
<path d="M422.129 147.731C423.18 140.472 424.241 133.202 425.291 125.943C425.372 125.4 424.541 125.158 424.461 125.712C423.41 132.971 422.349 140.241 421.298 147.5C421.218 148.043 422.06 148.285 422.129 147.731Z" fill="black"/>
<path d="M499.184 180.806C498.434 172.301 493.494 143.865 489.79 130.213C488.809 126.577 485.624 123.6 481.585 122.942C480.05 122.7 478.457 122.804 477.061 123.634C472.398 126.404 471.556 135.544 473.702 143.311C476.172 152.232 481.227 165.884 483.743 178.025C483.95 179.041 484.124 186.981 484.262 196.028C489.478 193.778 494.395 190.627 498.965 187.096C499.219 184.222 499.299 182.18 499.184 180.806Z" fill="#FDBBB5"/>
<path d="M489.591 122.965C493.873 133.848 498.558 151.009 498.558 151.009L474.265 156.514C471.484 147.939 468.022 138.58 468.841 129.601C470.111 117.391 471.288 109.832 478.778 112.071C482.574 113.202 487.052 116.549 489.591 122.965Z" fill="#CDE9B7"/>
<path d="M498.442 150.593C490.767 152.428 483.093 154.263 475.418 156.098C475.591 156.201 475.776 156.294 475.949 156.398C474.345 148.919 472.729 141.453 471.125 133.974C471.01 133.432 470.179 133.663 470.294 134.205C471.898 141.683 473.514 149.15 475.118 156.628C475.164 156.859 475.43 156.986 475.649 156.929C483.323 155.094 490.998 153.259 498.672 151.424C499.203 151.297 498.984 150.466 498.442 150.593Z" fill="black"/>
<g opacity="0.3">
<path d="M466.786 186.53C453.86 178.994 442.216 169.416 432.314 158.198C431.945 157.783 431.333 158.394 431.702 158.81C441.65 170.073 453.364 179.698 466.347 187.269C466.832 187.557 467.27 186.807 466.786 186.53Z" fill="black"/>
</g>
<path d="M372.831 84.4885C365.226 74.102 367.614 59.5839 378.151 52.0595C388.688 44.535 403.402 46.8432 410.995 57.2297C416.858 65.2388 416.754 75.7177 411.561 83.5422L413.384 90.2703L405.975 89.4163C405.871 89.4971 405.779 89.5779 405.675 89.6587C395.139 97.1831 380.425 94.8635 372.831 84.4885Z" fill="#91CD92"/>
<path d="M371.989 53.8257C366.335 58.9266 363.542 66.9473 364.846 74.3794" stroke="#91CD92" stroke-width="1.15406" stroke-miterlimit="10" stroke-linecap="round" stroke-linejoin="round"/>
<path d="M365.549 77.7598C365.664 78.9023 366.01 80.0217 366.587 81.0258" stroke="#91CD92" stroke-width="1.15406" stroke-miterlimit="10" stroke-linecap="round" stroke-linejoin="round"/>
<path d="M392.028 80.8767L380.418 72.5675L383.326 68.5167L391.105 74.0908L401.422 61.3154L405.299 64.4429L392.028 80.8767Z" fill="white"/>
<path d="M561.297 523.839L545.855 522.916L550.333 548.051L560.339 550.105L561.297 523.839Z" fill="#E0E0E0"/>
<path d="M548.08 543.504L551.9 543.48C552.765 543.48 553.573 543.884 554.116 544.554C556.424 547.404 558.039 546.319 560.324 543.607C561.836 543.434 562.309 545.096 562.459 545.546L565.702 555.425C565.979 556.256 565.518 557.11 564.652 557.352C564.502 557.398 564.341 557.421 564.179 557.41C559.54 557.433 557.358 557.445 551.588 557.479L533.954 557.572C529.142 557.595 527.965 552.978 529.927 552.54C538.755 550.613 544.964 548.085 547.618 545.592C548.114 545.177 547.584 544.854 548.08 543.504Z" fill="#263238"/>
<path d="M542.529 546.908C543.729 546.874 544.93 546.723 546.084 546.447C546.188 546.412 546.245 546.296 546.199 546.193C546.176 546.135 546.13 546.089 546.072 546.077C545.53 545.835 540.671 543.734 539.506 544.542C539.286 544.681 539.171 544.935 539.217 545.189C539.24 545.662 539.494 546.1 539.91 546.377C540.706 546.804 541.629 547 542.529 546.908ZM545.322 546.181C543.926 546.435 541.317 546.781 540.21 546.02C539.921 545.812 539.736 545.5 539.702 545.154C539.679 545.05 539.725 544.935 539.817 544.877C540.463 544.438 543.314 545.362 545.322 546.181Z" fill="#91CD92"/>
<path d="M546.037 546.469C546.083 546.481 546.14 546.481 546.187 546.469C546.244 546.411 546.267 546.331 546.244 546.25C546.233 546.065 544.94 541.587 542.332 541.887C541.686 541.98 541.513 542.268 541.501 542.522C541.386 543.711 544.479 545.938 545.933 546.504L546.037 546.469ZM542.609 542.245C544.271 542.234 545.333 544.842 545.69 545.892C544.098 545.119 541.847 543.261 541.963 542.534C541.963 542.476 541.951 542.303 542.436 542.257L542.609 542.245Z" fill="#91CD92"/>
<path d="M545.541 546.331C546.857 546.493 548.115 547.243 548.865 548.304" stroke="#91CD92" stroke-width="0.577029" stroke-miterlimit="10" stroke-linecap="round" stroke-linejoin="round"/>
<path d="M543.244 548.051C544.56 548.212 545.818 548.962 546.568 550.024" stroke="#91CD92" stroke-width="0.577029" stroke-miterlimit="10" stroke-linecap="round" stroke-linejoin="round"/>
<path d="M540.35 549.494C541.665 549.655 542.923 550.405 543.673 551.467" stroke="#91CD92" stroke-width="0.577029" stroke-miterlimit="10" stroke-linecap="round" stroke-linejoin="round"/>
<path d="M497.28 522.222L481.227 520.26L484.389 546.515L494.394 548.581L497.28 522.222Z" fill="#E0E0E0"/>
<path d="M482.15 541.979L485.97 541.956C486.836 541.956 487.643 542.36 488.186 543.029C490.494 545.88 492.11 544.795 494.395 542.083C495.907 541.91 496.38 543.572 496.53 544.022L499.773 553.901C500.05 554.731 499.588 555.585 498.722 555.828C498.572 555.874 498.411 555.897 498.249 555.886C493.61 555.909 491.429 555.92 485.658 555.955L468.024 556.047C463.212 556.07 462.035 551.454 463.997 551.015C472.825 549.088 479.034 546.561 481.689 544.068C482.185 543.641 481.642 543.318 482.15 541.979Z" fill="#263238"/>
<path d="M476.59 545.372C477.79 545.337 478.99 545.187 480.144 544.91C480.248 544.876 480.306 544.76 480.26 544.657C480.237 544.599 480.19 544.553 480.133 544.541C479.59 544.299 474.732 542.198 473.566 543.006C473.347 543.145 473.231 543.399 473.278 543.652C473.301 544.126 473.555 544.564 473.97 544.841C474.778 545.268 475.69 545.464 476.59 545.372ZM479.394 544.645C477.998 544.899 475.39 545.245 474.282 544.483C473.993 544.276 473.809 543.964 473.774 543.618C473.751 543.514 473.797 543.399 473.889 543.341C474.524 542.902 477.375 543.826 479.394 544.645Z" fill="#91CD92"/>
<path d="M480.097 544.933C480.143 544.945 480.201 544.945 480.247 544.933C480.305 544.876 480.328 544.795 480.305 544.714C480.293 544.53 479.001 540.052 476.393 540.352C475.746 540.444 475.573 540.733 475.562 540.987C475.446 542.175 478.539 544.403 479.993 544.968L480.097 544.933ZM476.67 540.71C478.331 540.698 479.393 543.306 479.751 544.356C478.158 543.583 475.908 541.725 476.023 540.998C476.023 540.94 476.012 540.767 476.497 540.721L476.67 540.71Z" fill="#91CD92"/>
<path d="M479.611 544.795C480.927 544.957 482.185 545.707 482.935 546.769" stroke="#91CD92" stroke-width="0.577029" stroke-miterlimit="10" stroke-linecap="round" stroke-linejoin="round"/>
<path d="M477.305 546.516C478.62 546.677 479.878 547.427 480.628 548.489" stroke="#91CD92" stroke-width="0.577029" stroke-miterlimit="10" stroke-linecap="round" stroke-linejoin="round"/>
<path d="M474.408 547.958C475.724 548.12 476.982 548.87 477.732 549.931" stroke="#91CD92" stroke-width="0.577029" stroke-miterlimit="10" stroke-linecap="round" stroke-linejoin="round"/>
<path d="M493.104 352C493.161 353.189 476.959 429.737 476.001 448.422C475.043 467.106 479.555 537.873 479.555 537.873L497.385 537.746C497.385 537.746 500.882 505.513 499.924 492.08C498.955 478.646 498.597 457.573 502.994 445.456C507.391 433.338 522.14 393.431 522.14 393.431L516.958 355.993L493.104 352Z" fill="#263238"/>
<path d="M550.565 349.195C552.493 350.292 552.908 371.688 552.816 395.496C552.735 419.304 559.221 463.009 560.571 478.011C561.921 493.014 564.253 540.896 563.641 540.93C563.018 540.965 543.099 541.138 543.664 539.915C544.23 538.703 539.521 518.161 533.589 481.831C527.761 446.205 516.89 407.625 514.651 395.6C512.897 386.137 509.539 369.83 509.539 369.83L508.627 351.226L550.565 349.195Z" fill="#263238"/>
<path opacity="0.3" d="M551.994 357.458C551.994 357.458 535.48 368.018 515.745 368.307C496.011 368.595 490.76 364.198 490.76 364.198L491.521 360.09L551.994 357.458Z" fill="black"/>
<g opacity="0.3">
<path d="M525.373 438.184C523.803 431.918 522.222 425.663 520.652 419.396C518.137 409.402 515.621 399.408 513.116 389.414C512.539 387.094 511.951 384.786 511.374 382.467C511.235 381.924 510.404 382.155 510.543 382.697C512.112 388.964 513.693 395.219 515.263 401.485C517.779 411.48 520.295 421.474 522.799 431.468C523.376 433.787 523.965 436.096 524.542 438.415C524.669 438.958 525.499 438.727 525.373 438.184Z" fill="black"/>
</g>
<path d="M537.523 261.764C537.523 261.764 542.428 272.682 544.205 287.177C547.321 312.543 552.757 346.564 552.987 356.674C552.987 356.674 510.899 370.338 488.025 358.855L490.807 304.303L489.999 263.749L498.7 260.587C498.712 260.575 532.514 256.536 537.523 261.764Z" fill="#91CD92"/>
<path opacity="0.2" d="M537.523 261.764C537.523 261.764 542.428 272.682 544.205 287.177C547.321 312.543 552.757 346.564 552.987 356.674C552.987 356.674 510.899 370.338 488.025 358.855L490.807 304.303L489.999 263.749L498.7 260.587C498.712 260.575 532.514 256.536 537.523 261.764Z" fill="black"/>
<path opacity="0.2" d="M536.924 287.996C536.924 287.996 538.332 297.852 541.367 302.549C543.133 305.284 546.941 307.938 546.941 307.938L545.81 298.717L536.924 287.996Z" fill="black"/>
<path d="M497.407 292.843C496.576 293.051 485.29 307.488 485.29 307.488C485.29 307.488 471.995 293.42 470.656 287.361C470.656 287.361 485.624 265.422 487.586 264.118C492.814 260.633 498.7 260.587 498.7 260.587L497.407 292.843Z" fill="#91CD92"/>
<path opacity="0.2" d="M497.407 292.843C496.576 293.051 485.29 307.488 485.29 307.488C485.29 307.488 471.995 293.42 470.656 287.361C470.656 287.361 485.624 265.422 487.586 264.118C492.814 260.633 498.7 260.587 498.7 260.587L497.407 292.843Z" fill="black"/>
<path opacity="0.2" d="M491.002 300.343C490.991 299.836 490.483 281.232 490.506 282.075C490.529 282.906 487.24 305.006 487.24 305.006L491.002 300.343Z" fill="black"/>
<path d="M504.846 261.545C509.243 261.084 508.793 255.683 508.262 251.551C508.042 250.074 507.708 248.62 507.258 247.177L514.921 240.784L521.857 234.91C521.43 237.495 521.129 240.091 520.979 242.711C520.599 247.235 521.106 250.847 521.695 255.186C522.237 257.125 523.414 258.626 524.361 259.849C524.361 259.849 516.49 265.804 511.089 265.654C505.665 265.515 504.846 261.545 504.846 261.545Z" fill="#B97964"/>
<path opacity="0.2" d="M521.083 246.161C521.083 246.161 516.536 257.09 508.389 252.82L508.273 250.915L521.083 246.161Z" fill="black"/>
<path d="M525.17 221.533C522.585 213.974 514.114 209.658 506.255 211.897C495.419 214.99 493.018 230.119 494.784 239.571C496.757 250.085 509.833 256.04 518.523 248.873C524.316 244.107 524.512 238.048 525.805 227.823C526.082 225.722 525.874 223.576 525.17 221.533Z" fill="#B97964"/>
<path d="M491.668 218.383C491.668 218.383 492.672 219.549 493.607 219.214C492.672 217.691 492.788 215.81 493.907 214.471C493.907 214.471 494.588 216.087 495.385 216.121C495.869 212.313 497.566 208.758 500.255 205.954C504.917 200.761 520.22 207.454 520.22 207.454C520.22 207.454 523.878 204.35 529.695 209.612C534.357 213.836 534.911 222.457 534.472 226.161C532.776 229.739 528.771 233.201 523.336 234.955C520.67 231.92 520.485 227.339 520.751 224.177C519.943 223.957 519.193 223.542 518.581 222.942C516.192 220.657 517.969 212.694 508.46 213.882C506.775 212.855 504.652 212.844 503.036 213.859C500.116 215.556 498.535 224.857 494.496 222.145C490.457 219.422 491.668 218.383 491.668 218.383Z" fill="#263238"/>
<path d="M509.441 230.119C509.326 231.285 508.437 232.093 507.618 231.943C506.799 231.793 506.337 230.719 506.533 229.565C506.729 228.411 507.56 227.592 508.357 227.742C509.153 227.892 509.638 228.942 509.441 230.119Z" fill="#263238"/>
<path d="M499.296 228.988C499.18 230.153 498.268 230.961 497.472 230.811C496.676 230.661 496.191 229.588 496.387 228.434C496.584 227.28 497.414 226.46 498.211 226.61C499.007 226.761 499.48 227.88 499.296 228.988Z" fill="#263238"/>
<path d="M494.657 222.814C494.842 222.906 495.072 222.906 495.246 222.803C496.446 222.052 497.958 221.891 499.319 222.353C499.608 222.479 499.943 222.364 500.07 222.099C500.196 221.833 500.07 221.51 499.793 221.395C498.085 220.76 496.169 220.945 494.657 221.891C494.392 222.041 494.299 222.364 494.461 222.618C494.461 222.618 494.461 222.63 494.472 222.63C494.507 222.699 494.576 222.768 494.657 222.814Z" fill="#263238"/>
<path d="M511.03 226.968C511.146 226.957 511.249 226.911 511.342 226.841C511.538 226.611 511.492 226.276 511.238 226.091C511.238 226.091 511.226 226.091 511.226 226.08C509.784 225.006 507.88 224.66 506.125 225.145C505.837 225.249 505.687 225.549 505.791 225.826C505.906 226.103 506.229 226.241 506.518 226.149C507.914 225.803 509.415 226.091 510.545 226.945C510.696 227.026 510.869 227.026 511.03 226.968Z" fill="#263238"/>
<path d="M531.528 236.664C530.362 239.249 528.158 241.246 525.388 242.227C521.718 243.508 519.468 240.403 520.126 236.918C520.749 233.825 523.38 229.324 527.246 229.59C531.112 229.844 532.924 233.479 531.528 236.664Z" fill="#B97964"/>
<g opacity="0.1">
<path d="M523.16 237.621C523.31 236.398 523.887 235.221 524.73 234.332C525.434 233.594 526.888 232.393 527.938 233.12C528.399 233.444 528.826 232.693 528.376 232.37C527.003 231.412 525.214 232.613 524.233 233.594C523.148 234.678 522.479 236.098 522.294 237.621C522.271 237.852 522.514 238.06 522.733 238.06C522.975 238.06 523.125 237.852 523.16 237.621Z" fill="black"/>
</g>
<path d="M502.645 228.042C501.03 230.581 499.045 232.89 496.748 234.886C497.914 236.029 499.529 236.64 501.18 236.559L502.645 228.042Z" fill="#A24E3F"/>
<g opacity="0.3">
<path d="M508.945 212.97C508.448 211.597 507.814 210.477 506.752 209.45C505.794 208.527 504.525 207.869 503.186 207.754C501.616 207.615 500.07 208.342 498.997 209.462C497.912 210.593 497.254 212.047 496.815 213.536C496.654 214.066 497.496 214.297 497.646 213.766C498.327 211.504 499.712 209.012 502.286 208.654C503.29 208.515 504.201 208.769 505.09 209.289C506.613 210.177 507.514 211.608 508.102 213.212C508.298 213.72 509.141 213.501 508.945 212.97Z" fill="black"/>
</g>
<g opacity="0.3">
<path d="M511.128 212.278C510.77 208.758 508.243 205.665 504.838 204.649C504.308 204.488 504.077 205.33 504.608 205.48C507.608 206.369 509.939 209.15 510.263 212.278C510.32 212.832 511.186 212.832 511.128 212.278Z" fill="black"/>
</g>
<path d="M526.79 368.524L545.774 379.026C546.767 379.58 547.967 379.603 548.971 379.096L568.382 369.413C570.933 368.144 573.841 370.348 573.299 373.141L569.179 394.445C568.959 395.552 569.306 396.707 570.102 397.514L585.312 412.99C587.309 415.021 586.109 418.472 583.281 418.818L561.747 421.484C560.627 421.623 559.635 422.304 559.115 423.308L549.098 442.557C547.782 445.085 544.136 445.015 542.924 442.43L533.738 422.777C533.253 421.75 532.307 421.023 531.187 420.838L509.791 417.26C506.975 416.787 505.925 413.302 508.014 411.352L523.87 396.545C524.701 395.772 525.094 394.641 524.921 393.521L521.712 372.067C521.308 369.217 524.297 367.14 526.79 368.524Z" fill="#91CD92"/>
<path opacity="0.3" d="M558.003 374.584C558.003 374.584 537.23 392.438 542.493 399.87C549.267 409.425 563.739 424.428 540.196 436.534L536.896 429.46C536.896 429.46 544.882 425.19 544.593 416.788C544.305 408.398 536.169 405.94 536.896 395.196C537.623 384.44 546.982 380.009 546.982 380.009L558.003 374.584Z" fill="white"/>
<path d="M555.726 364.047L547.856 361.693L545.051 367.302C544.682 367.936 544.359 368.536 544.094 369.033C541.762 373.58 538.589 380.054 538.265 383.897C537.942 387.74 540.389 391.479 541.416 389.656C542.224 388.225 541.185 385.582 541.381 384.243C541.878 380.896 542.57 379.777 542.57 379.777C542.559 386.24 545.051 390.337 545.859 390.948C546.979 391.791 548.11 390.498 548.11 390.498C548.11 390.498 549.206 391.525 550.522 390.671C552.126 389.621 550.21 382.016 550.21 382.016C550.21 382.016 552.934 388.825 554.78 387.913C556.615 387.013 553.372 381.139 552.991 377.619C552.853 376.303 555.392 373.949 555.38 370.925C555.38 369.033 554.838 366.39 555.726 364.047Z" fill="#B97964"/>
<path d="M548.468 390.418C547.649 388.456 546.829 386.459 546.541 384.336C546.183 381.809 546.599 379.258 547.199 376.8C547.28 376.477 546.772 376.338 546.702 376.661C546.102 379.154 545.687 381.728 546.022 384.29C546.31 386.482 547.129 388.537 547.983 390.556C548.099 390.856 548.595 390.729 548.468 390.418Z" fill="#A24E3F"/>
<path d="M550.58 382.154C550.442 381.161 550.257 380.169 550.199 379.165C550.142 378.242 550.234 377.295 550.753 376.511C550.938 376.234 550.488 375.968 550.303 376.245C549.761 377.076 549.622 378.08 549.68 379.049C549.738 380.134 549.934 381.219 550.084 382.292C550.13 382.627 550.626 382.489 550.58 382.154Z" fill="#A24E3F"/>
<path d="M558.091 284.244L541.369 291.295C544.277 299.374 549.701 312.045 551.94 321.047C552.54 323.459 546.932 363.551 546.932 363.551L555.287 365.951C555.287 365.951 568.016 326.863 567.866 322.04C567.636 315.034 562.223 299.12 558.091 284.244Z" fill="#B97964"/>
<path d="M528.344 263.288C527.848 272.509 535.949 290.962 544.512 302.629C549.775 303.437 564.743 291.747 564.743 291.747C564.743 291.747 557.115 277.99 549.325 269.058C539.527 258.337 528.644 258.267 528.344 263.288Z" fill="#91CD92"/>
<g opacity="0.2">
<path d="M528.344 263.288C527.848 272.509 535.949 290.962 544.512 302.629C549.775 303.437 564.743 291.747 564.743 291.747C564.743 291.747 557.115 277.99 549.325 269.058C539.527 258.337 528.644 258.267 528.344 263.288Z" fill="black"/>
</g>
<path opacity="0.2" d="M504.617 251.031C505.067 250.962 506.245 250.108 505.956 247.823C505.656 245.538 499.597 240.09 497.058 240.402C494.519 240.714 496.343 244.153 496.343 244.153C496.343 244.153 502.782 250.235 503.094 250.385C504.052 250.835 504.617 251.031 504.617 251.031Z" fill="black"/>
<path d="M502.25 240.368C501.88 240.079 501.465 239.86 501.003 239.779C500.83 239.744 500.657 239.721 500.484 239.768C500.288 239.814 500.115 239.952 500.034 240.137C499.976 240.264 499.999 240.414 500.126 240.495C500.242 240.564 500.426 240.529 500.484 240.402C500.495 240.391 500.495 240.368 500.507 240.356C500.507 240.356 500.542 240.298 500.53 240.322C500.507 240.345 500.542 240.31 500.553 240.31C500.519 240.321 500.576 240.287 500.553 240.31C500.565 240.31 500.576 240.298 500.588 240.287C500.576 240.298 500.553 240.298 500.576 240.287C500.588 240.287 500.669 240.275 500.622 240.275C500.576 240.275 500.646 240.275 500.669 240.275C500.692 240.275 500.715 240.275 500.726 240.275C500.819 240.287 500.853 240.287 500.957 240.31C501.303 240.379 501.615 240.529 501.892 240.749C502.007 240.841 502.157 240.852 502.261 240.749C502.33 240.645 502.354 240.448 502.25 240.368Z" fill="#263238"/>
<path d="M502.887 244.487C502.875 244.476 502.864 244.476 502.852 244.464L498.813 241.348C497.347 240.275 495.397 240.171 493.827 241.083L490.261 243.114C488.923 243.887 488.034 245.272 487.872 246.83L487.111 254.089C483.395 264.014 475.755 275.797 471.173 286.068C468.784 291.792 465.288 298.116 464.434 304.602C464.076 307.303 464.872 310.015 466.615 312.092C469.546 315.439 474.82 314.192 477.29 312.277V312.288C479.309 311.088 484.283 306.426 484.295 306.414L480.729 302.421L485.484 284.637C487.169 276.616 490.354 268.919 492.604 262.352C498.097 259.029 502.033 252.231 502.033 252.231L503.556 250.131C504.906 248.388 504.606 245.861 502.887 244.487ZM479.332 305.387C479.332 305.502 479.321 305.606 479.309 305.606C479.309 305.537 479.321 305.468 479.332 305.387Z" fill="#B97964"/>
<path d="M479.273 308.757C480.093 306.368 480.797 303.945 481.385 301.486C481.512 300.944 480.681 300.713 480.554 301.256C479.966 303.714 479.25 306.137 478.442 308.526C478.258 309.057 479.1 309.288 479.273 308.757Z" fill="#A24E3F"/>
</g>
<path d="M133.425 293.54C133.541 294.653 128.659 315.412 129.969 322.533C131.291 329.654 141.056 356.872 139.409 361.291C137.762 365.721 116.946 359.563 116.946 359.563L89.8779 257.079C91.5247 255.548 107.795 254.597 113.791 259.294C114.429 259.793 117.178 262.332 117.873 262.889C123.684 267.516 131.639 276.376 133.425 293.54Z" fill="#263238"/>
<path d="M178.924 274.914C178.668 274.659 187.123 274.937 187.331 273.128C187.447 272.119 187.378 271.992 183.667 271.539C179.956 271.075 168.695 270.496 166.897 271.006C165.1 271.516 163.673 278.173 162.734 279.205C161.795 280.226 154.686 286.071 154.686 286.071L160.31 292.403L167.918 284.853C167.918 284.853 174.331 285.305 175.375 284.412C176.419 283.519 176.604 281.142 176.604 281.142C176.604 281.142 179.561 281.606 178.541 278.173C178.529 278.173 181.173 277.245 178.924 274.914Z" fill="#FFB463"/>
<path d="M167.121 272.571C168.246 272.478 169.684 272.351 170.519 273.267C171.389 274.218 171.284 275.876 171.192 277.071C171.134 277.778 171.052 278.555 170.82 279.228C170.577 279.935 169.707 279.1 169.429 278.776C168.721 277.941 168.513 276.758 168.918 275.737C168.988 275.563 168.779 275.343 168.594 275.412C167.736 275.76 166.819 275.876 165.915 275.714C165.59 275.656 165.451 276.155 165.776 276.213C166.785 276.387 167.794 276.294 168.733 275.911C168.629 275.807 168.524 275.702 168.408 275.586C168.025 276.549 168.141 277.651 168.64 278.544C168.988 279.17 170.159 280.527 170.971 279.9C171.423 279.564 171.47 278.741 171.551 278.23C171.667 277.546 171.737 276.839 171.737 276.143C171.748 274.995 171.667 273.65 170.797 272.791C169.835 271.852 168.35 271.91 167.109 272.014C166.785 272.072 166.785 272.594 167.121 272.571Z" fill="#FF7800"/>
<path d="M179.064 274.715C177.742 274.356 176.339 274.344 174.993 274.507C174.298 274.588 173.602 274.727 172.929 274.924C172.349 275.098 171.7 275.295 171.375 275.852C171.201 276.142 171.653 276.408 171.827 276.119C172.14 275.597 172.941 275.457 173.486 275.318C174.1 275.156 174.738 275.052 175.376 274.994C176.559 274.889 177.788 274.912 178.936 275.226C179.25 275.307 179.389 274.796 179.064 274.715Z" fill="#FF7800"/>
<path d="M175.304 283.995C174.144 283.763 172.996 283.52 171.836 283.288C171.291 283.172 170.676 283.114 170.166 282.882C169.679 282.662 169.285 282.082 169.783 281.641C170.178 281.305 170.804 281.235 171.291 281.27C171.871 281.316 172.439 281.34 173.019 281.351C174.19 281.386 175.35 281.386 176.521 281.49C176.858 281.514 176.858 280.992 176.521 280.969C175.106 280.853 173.692 280.876 172.265 280.806C171.268 280.76 169.656 280.516 169.111 281.664C168.902 282.117 169.041 282.627 169.389 282.975C169.772 283.369 170.34 283.508 170.862 283.613C172.3 283.914 173.726 284.204 175.164 284.494C175.501 284.564 175.64 284.065 175.304 283.995Z" fill="#FF7800"/>
<path d="M171.305 278.498C173.554 278.219 175.99 277.918 178.216 278.428C178.541 278.498 178.68 277.999 178.356 277.929C176.071 277.408 173.601 277.686 171.305 277.976C170.98 278.022 170.968 278.544 171.305 278.498Z" fill="#FF7800"/>
<path d="M163.323 278.173L139.7 293.632C139.7 293.632 137.021 287.103 133.889 280.667C130.689 274.103 125.087 263.155 118.987 262.378C116.981 262.123 114.197 261.427 112.957 261.926C103.169 265.88 116.343 291.324 116.343 291.324C116.343 291.324 128.311 309.845 133.762 312.361C139.212 314.866 168.53 287.613 168.53 287.613L163.323 278.173Z" fill="#263238"/>
<path d="M131.907 304.939C132.568 301.1 133.693 297.412 133.867 293.504C134.134 287.67 132.58 281.976 129.832 276.85C127.466 272.432 124.335 268.477 120.925 264.836C120.542 264.43 119.928 265.044 120.31 265.45C125.564 271.063 130.272 277.581 132.174 285.142C133.345 289.816 133.206 294.582 132.244 299.279C131.873 301.1 131.386 302.886 131.072 304.718C130.98 305.252 131.815 305.495 131.907 304.939Z" fill="black"/>
<path d="M37.427 557.049C36.8819 555.646 36.0702 554.347 35.038 553.245C35.038 553.245 33.4144 547.47 37.9837 535.386L33.8319 531.385C32.3591 530.016 30.1672 529.692 28.3581 530.596C28.1029 530.701 27.871 530.863 27.6738 531.072C26.7461 532.092 25.8879 533.171 25.1109 534.307C22.4899 538.192 20.1241 542.24 17.9902 546.415L18.86 546.948L23.58 539.503C25.192 536.963 25.4704 541.161 24.4266 544.258C23.3829 547.354 22.8958 551.03 28.59 554.405C35.2468 558.302 38.2272 559.566 37.427 557.049Z" fill="#263238"/>
<path d="M39.4562 530.955C39.4562 530.955 37.5543 536.591 35.9887 543.132C35.0145 546.414 34.6898 549.847 35.0377 553.245C35.0377 553.245 30.2829 551.575 30.0742 547.655C29.8654 543.735 32.9503 532.555 28.2998 530.619C29.0768 530.097 29.9002 529.668 30.7816 529.343C32.1037 528.752 39.4562 530.955 39.4562 530.955Z" fill="#FFB463"/>
<path d="M122.524 554.8C121.353 553.838 120.008 553.096 118.546 552.62C118.546 552.62 114.267 548.364 112.272 535.619L106.659 534.123C104.699 533.636 102.623 534.413 101.487 536.059C101.313 536.28 101.197 536.535 101.127 536.802C100.826 538.135 100.606 539.492 100.49 540.861C100.13 545.511 100.061 550.185 100.281 554.847L101.301 554.893L101.731 546.126C101.881 543.134 104.201 546.659 104.827 549.872C105.453 553.072 106.845 556.517 113.49 556.725C121.237 556.934 124.461 556.621 122.524 554.8Z" fill="#263238"/>
<path d="M111.355 531.061C111.355 531.061 112.492 536.894 114.371 543.353C115.148 546.682 116.562 549.836 118.557 552.631C118.557 552.631 113.582 553.466 111.46 550.138C109.337 546.821 106.485 535.572 101.475 536.117C101.892 535.293 102.402 534.516 103.005 533.809C103.84 532.661 111.355 531.061 111.355 531.061Z" fill="#FFB463"/>
<path d="M123.012 327.31C123.012 327.31 137.497 362.809 125.993 419.542C125.691 452.582 113.978 533.391 113.978 533.391C110.082 534.481 97.7423 533.727 93.7645 532.915C93.7645 532.915 93.4166 468.667 96.1883 414.845C87.792 359.608 88.3718 330.372 88.3718 330.372L123.012 327.31Z" fill="#74A475"/>
<path d="M115.531 329.177C115.531 329.177 101.464 401.798 91.9313 432.971C81.9114 465.699 44.3367 534.122 43.2118 536.313C38.6426 535.316 29.0517 531.385 26.2568 528.938C26.2568 528.938 48.303 462.15 61.2338 426.512C64.1678 408.246 66.1741 397.554 65.6523 378.21C64.6897 342.363 81.5751 326.939 81.5751 326.939L115.531 329.177Z" fill="#74A475"/>
<path opacity="0.2" d="M107.598 368.016L119.613 358.379L109.512 373.281L95.2588 434.769L95.9662 418.359L107.598 368.016Z" fill="black"/>
<path d="M125.423 280.759C125.423 280.759 131.5 294.328 127.673 302.318C119.937 325.501 129.551 326.545 126.582 330.824C122.152 334.315 94.8528 338.988 80.5303 327.89C82.4322 318.461 82.8729 302.26 75.8915 275.425C74.3838 269.638 77.921 263.735 83.8007 262.25C84.1718 262.157 84.5545 262.076 84.9372 262.03C86.6536 261.786 88.4859 261.554 90.3531 261.38C96.8939 260.638 100.64 260.569 107.215 260.743C108.363 260.801 107.424 260.603 110.915 261.427C110.915 261.427 117.896 266.599 119.868 269.719C121.99 273.035 125.33 280.492 125.423 280.759Z" fill="white"/>
<g opacity="0.3">
<path d="M121.412 302.783C119.22 307.769 115.185 311.944 110.221 314.345C113.619 314.844 117.017 313.73 120.264 312.629C116.866 316.096 111.126 317.094 106.719 314.983C111.427 310.97 116.715 306.795 121.412 302.783Z" fill="black"/>
</g>
<path d="M64.0641 248.322C64.6324 246.513 66.0008 245.133 67.0794 243.602C69.1205 240.726 70.1874 237.247 71.0108 233.768C71.8226 230.288 72.4141 226.74 73.6433 223.4C74.8726 220.06 76.821 216.882 79.7318 215.015C82.6427 213.148 86.6437 212.858 89.427 214.945L90.9115 215.201C88.2905 226.218 89.1835 237.838 87.3743 249.029C86.9221 251.859 86.2146 254.805 84.3359 256.892C81.3206 260.232 76.1947 260.325 71.9734 258.991C69.6771 258.261 67.4157 257.147 65.7921 255.28C64.1917 253.413 63.3219 250.699 64.0641 248.322Z" fill="#263238"/>
<path d="M87.7459 215.247C91.1207 211.953 94.2403 210.005 98.7052 209.32C102.625 208.717 108.168 209.158 111.74 211.083C116.6 213.704 119.545 219.375 121.389 225.011C123.465 231.332 120.925 239.09 117.968 244.9C116.739 247.301 115.649 248.298 113.236 248.055L112.343 249.319C105.037 251.546 98.4037 259.269 84.7307 238.325C80.1962 231.39 82.0633 220.778 87.7459 215.247Z" fill="#263238"/>
<path d="M106.323 260.278C105.175 259.292 105.616 257.17 105.778 255.094C105.883 253.505 106.323 251.835 106.857 250.212L104.595 248.032L92.9287 238.29C93.8216 245.387 96.3034 256.787 90.9919 261.136L87.9883 261.519C89.9482 262.841 95.3409 269.394 106.984 269.892C113.293 270.159 111.878 263.792 110.046 261.113C107.193 260.487 106.323 260.278 106.323 260.278Z" fill="#FFB463"/>
<path opacity="0.2" d="M105.85 256.011C102.742 255.454 98.2187 253.645 97.3025 250.224C96.9198 248.821 96.8155 247.406 96.8618 246.466L106.302 251.673C106.256 253.03 105.548 254.086 105.85 256.011Z" fill="black"/>
<path d="M87.8974 227.192C89.9153 237.954 90.5415 242.535 96.746 247.707C106.093 255.488 118.978 251.43 120.242 240.47C121.378 230.613 117.888 214.667 106.65 211.083C95.5863 207.558 85.8795 216.429 87.8974 227.192Z" fill="#FFB463"/>
<path d="M104.04 230.149C104.098 231.366 104.748 232.352 105.467 232.364C106.197 232.375 106.731 231.401 106.673 230.183C106.615 228.966 105.965 227.98 105.246 227.968C104.516 227.957 103.971 228.943 104.04 230.149Z" fill="#263238"/>
<path d="M101.952 227.029C102.091 227.052 102.242 227.006 102.347 226.913C104.086 225.406 106 225.997 106.011 225.997C106.29 226.09 106.58 225.939 106.661 225.649C106.73 225.371 106.556 225.058 106.278 224.965C106.174 224.93 103.785 224.188 101.628 226.067C101.407 226.252 101.396 226.589 101.593 226.82C101.697 226.936 101.825 227.006 101.952 227.029Z" fill="#263238"/>
<path d="M117.643 225.011C117.77 224.976 117.886 224.895 117.944 224.767C118.083 224.512 117.967 224.199 117.689 224.06C114.941 222.645 112.737 223.723 112.644 223.77C112.378 223.897 112.296 224.211 112.447 224.466C112.598 224.721 112.946 224.825 113.201 224.686C113.282 224.64 115.022 223.828 117.202 224.964C117.341 225.046 117.504 225.057 117.643 225.011Z" fill="#263238"/>
<path d="M110.348 228.167C110.348 228.167 112.447 232.075 114.627 234.429C115.01 234.846 114.859 235.507 114.349 235.739C113.038 236.354 111.403 236.053 111.403 236.053L110.348 228.167Z" fill="#FF7800"/>
<path d="M104.816 228.061L107.344 227.447C107.344 227.458 104.305 229.755 104.816 228.061Z" fill="#263238"/>
<path d="M113.907 229.268C113.965 230.509 114.615 231.518 115.334 231.518C116.064 231.529 116.598 230.532 116.54 229.291C116.482 228.05 115.832 227.041 115.113 227.041C114.383 227.041 113.838 228.038 113.907 229.268Z" fill="#263238"/>
<path d="M114.616 227.168L117.144 226.553C117.144 226.553 114.825 228.467 114.616 227.168Z" fill="#263238"/>
<path d="M93.9503 245.794C82.8635 239.369 80.3005 211.756 99.517 209.355C118.733 206.955 121.482 232.921 121.482 232.921C113.747 217.346 96.9656 217.184 96.9656 217.184C101.059 225.429 93.788 231.286 93.788 231.286C91.3642 236.991 93.9503 243.231 93.9503 245.794Z" fill="#263238"/>
<path d="M85.3913 236.331C86.899 238.441 89.1488 239.647 91.1203 239.949C94.1008 240.401 95.1793 235.658 93.9152 232.863C92.7787 230.358 89.7519 228.897 86.9685 229.72C84.2316 230.532 83.6634 233.93 85.3913 236.331Z" fill="#FFB463"/>
<path opacity="0.2" d="M89.23 232.317C88.279 232.016 87.3396 232.677 87.0729 233.454C86.7482 234.393 87.386 236.504 90.2853 237.026" stroke="black" stroke-width="0.579856" stroke-miterlimit="10" stroke-linecap="round" stroke-linejoin="round"/>
<g opacity="0.3">
<path d="M96.1772 217.497C96.9774 218.726 97.0238 220.361 96.4903 221.718C95.8873 223.237 94.426 224.293 93.0228 225.035C89.7988 226.74 86.0181 227.435 82.3882 227.331C81.8315 227.319 81.8315 228.189 82.3882 228.201C86.4124 228.317 90.7845 227.505 94.2405 225.348C95.6321 224.478 96.9078 223.284 97.4181 221.683C97.9051 220.176 97.7892 218.413 96.9194 217.079C96.6179 216.592 95.8641 217.033 96.1772 217.497Z" fill="black"/>
</g>
<g opacity="0.3">
<path d="M88.1638 214.376C84.1512 218.156 81.4259 223.619 81.5302 229.197C81.6346 234.52 84.4411 239.112 87.6419 243.183C87.9898 243.624 88.6045 243.009 88.2566 242.568C85.2065 238.683 82.5044 234.276 82.4 229.197C82.2957 223.839 84.9166 218.62 88.7784 214.99C89.1843 214.608 88.5697 213.993 88.1638 214.376Z" fill="black"/>
</g>
<g opacity="0.3">
<path d="M95.2164 217.486C93.8247 221.753 89.325 224.235 84.9529 223.284C84.4078 223.168 84.1759 224.003 84.721 224.119C89.5686 225.163 94.5089 222.449 96.0514 217.706C96.2253 217.184 95.3903 216.964 95.2164 217.486Z" fill="black"/>
</g>
<path d="M91.4206 257.414C92.0469 260.986 100.722 298.039 101.742 308.94C102.774 319.841 90.6436 364.653 87.5588 367.517C84.474 370.382 57.7194 352.522 58.624 352.267C59.5286 352.012 73.6306 329.386 75.579 319.656C77.5273 309.926 74.6396 271.806 74.2453 267.666C73.8626 263.514 80.2874 263.839 86.6658 261.172L89.8782 257.089L91.4206 257.414Z" fill="#263238"/>
<path opacity="0.3" d="M70.5928 332.215L73.3529 348.857L70.5464 349.379C70.5464 349.379 74.9765 360.118 74.5242 362.762L68.2038 359.758L64.6318 343.812L70.5928 332.215Z" fill="black"/>
<path d="M81.064 263.352C77.4341 263.561 71.1717 265.741 69.9772 268.803C65.4659 280.319 56.5013 307.409 54.6226 313.939C53.4281 318.079 57.7306 349.437 57.7306 349.437L71.0905 347.466C71.0905 347.466 68.0057 317.429 68.8987 315.4C72.2618 307.827 84.9027 287.288 86.4451 280.434C87.9991 273.581 89.4604 267.26 85.5985 264.43C84.4388 263.595 82.4325 263.271 81.064 263.352Z" fill="#263238"/>
<path d="M60.8742 348.985C61.3149 351.177 60.4335 353.415 60.1436 355.074C59.6797 357.729 61.5932 360.176 61.2685 361.313C60.3987 364.351 56.6064 369.025 58.1141 370.092C59.6217 371.159 63.0776 365.581 63.0776 365.581C63.0776 365.581 60.132 371.994 61.5584 372.956C63.5415 374.29 63.8199 373.443 63.8199 373.443C63.8199 373.443 64.4229 374.789 65.8378 374.36C66.7075 374.093 69.2589 370.428 70.2331 364.746C70.2331 364.746 70.3606 366.601 70.291 369.616C70.2679 370.822 69.4329 372.168 69.7576 373.606C70.2215 375.612 73.1439 372.446 73.4339 369.013C73.7238 365.592 71.8683 359.422 70.4766 355.085C70.3258 354.61 70.1171 354.041 69.8852 353.427L68.2268 347.883" fill="#FFB463"/>
<path d="M63.9448 373.559C65.0118 371.889 66.0671 370.196 66.6701 368.294C67.366 366.079 67.3892 363.737 67.2268 361.44C67.192 360.884 66.3222 360.884 66.357 361.44C66.5194 363.667 66.5078 365.917 65.8352 368.062C65.2553 369.883 64.2232 371.518 63.2026 373.119C62.8895 373.594 63.6433 374.035 63.9448 373.559Z" fill="#FF7800"/>
<path d="M63.3567 365.882C63.9133 364.143 64.8179 362.183 64.0293 360.373C63.9365 360.153 63.6234 360.107 63.4378 360.223C63.2175 360.35 63.1827 360.605 63.2871 360.814C63.6118 361.556 63.5074 362.403 63.3103 363.168C63.0899 364.003 62.8 364.827 62.5333 365.65C62.3477 366.184 63.1943 366.416 63.3567 365.882Z" fill="#FF7800"/>
<path d="M99.3873 296.925C97.1723 293.736 94.992 290.523 92.8465 287.276C91.8492 285.757 90.272 283.959 90.156 282.069C90.0632 280.515 91.1881 279.193 91.1997 277.651C91.2229 275.018 88.4512 273.789 87.1639 271.84C84.9141 268.454 86.5725 264.384 87.8482 260.986C88.0453 260.464 87.1987 260.232 87.0132 260.754C85.8419 263.885 84.543 267.167 85.5983 270.518C86.0158 271.852 86.8044 272.896 87.7902 273.87C89.0775 275.134 90.6779 276.34 90.2256 278.37C89.9009 279.831 89.0775 281.037 89.3442 282.603C89.6341 284.249 90.7359 285.664 91.6288 287.021C93.9135 290.5 96.2445 293.945 98.6219 297.366C98.9582 297.83 99.712 297.389 99.3873 296.925Z" fill="black"/>
<path d="M76.7066 302.26C79.4203 297.273 81.6933 292.066 83.5141 286.697C83.6996 286.163 82.853 285.943 82.6791 286.465C80.8815 291.765 78.6317 296.902 75.9527 301.82C75.686 302.318 76.4398 302.759 76.7066 302.26Z" fill="black"/>
<path d="M87.0399 338.303C83.3636 336.216 79.6989 334.117 76.0226 332.029C75.5355 331.751 75.0948 332.505 75.5819 332.783C79.2582 334.871 82.9229 336.97 86.5992 339.057C87.0862 339.336 87.5269 338.582 87.0399 338.303Z" fill="black"/>
<path d="M110.961 240.182C110.149 241.052 109.407 241.98 108.734 242.954C108.549 242.873 108.352 242.78 108.166 242.687C105.58 241.469 104.78 240.066 104.698 238.872C104.664 238.292 104.78 237.7 105.023 237.167C105.151 236.865 105.325 236.575 105.533 236.32C106.519 237.782 108.839 239.092 110.103 239.753C110.648 240.008 110.961 240.182 110.961 240.182Z" fill="#263238"/>
<path d="M110.091 239.741L109.407 240.541C106.972 239.393 105.418 238.268 105.012 237.155C105.139 236.853 105.313 236.563 105.522 236.308C106.508 237.781 108.816 239.08 110.091 239.741Z" fill="white"/>
<path d="M108.191 242.721C105.605 241.504 104.805 240.1 104.724 238.906C105.698 239.381 106.579 240.031 107.321 240.819C107.808 241.341 108.11 242.014 108.191 242.721Z" fill="#FF3F3E"/>
<path d="M38.572 218.71H10.5766C4.73163 218.71 0 213.978 0 208.133V190.018C0 184.174 4.73163 179.442 10.5766 179.442H38.572C44.417 179.442 49.1486 184.174 49.1486 190.018V208.133C49.137 213.967 44.4054 218.71 38.572 218.71Z" fill="#74A475" fill-opacity="0.52"/>
<path d="M32.0332 199.968C32.0332 201.847 33.564 203.378 35.4428 203.378C37.3215 203.378 38.8523 201.847 38.8523 199.968C38.8523 198.089 37.3215 196.559 35.4428 196.559C33.564 196.559 32.0332 198.078 32.0332 199.968Z" fill="white"/>
<path d="M20.1562 199.968C20.1562 201.847 21.6871 203.378 23.5658 203.378C25.4445 203.378 26.9754 201.847 26.9754 199.968C26.9754 198.089 25.4445 196.559 23.5658 196.559C21.6755 196.559 20.1562 198.078 20.1562 199.968Z" fill="white"/>
<path d="M8.375 199.968C8.375 201.847 9.90582 203.378 11.7846 203.378C13.6633 203.378 15.1941 201.847 15.1941 199.968C15.1941 198.089 13.6633 196.559 11.7846 196.559C9.89422 196.559 8.375 198.078 8.375 199.968Z" fill="white"/>
<path d="M34.0137 217.202L42.0389 225.227L43.6857 214.963L34.0137 217.202Z" fill="#F3D4C9" fill-opacity="0.38"/>
<defs>
<clipPath id="clip0_150_5471">
<rect width="577.029" height="577.029" fill="white" transform="translate(65.9717)"/>
</clipPath>
</defs>
</svg>
