<svg width="693" height="452" viewBox="0 0 693 452" fill="none" xmlns="http://www.w3.org/2000/svg">
<mask id="mask0_150_4736" style="mask-type:alpha" maskUnits="userSpaceOnUse" x="0" y="0" width="693" height="452">
<rect width="693" height="452" rx="16.3783" fill="#D9D9D9"/>
</mask>
<g mask="url(#mask0_150_4736)">
<rect opacity="0.2" width="693" height="452" rx="16.3783" fill="#D9D9D9"/>
<path d="M331.271 -7.76123H107.488V192.454H331.271V-7.76123Z" fill="#FAFAFA"/>
<path d="M331.271 192.442C331.271 192.442 331.238 191.158 331.217 188.72C331.206 186.261 331.184 182.669 331.163 177.988C331.13 168.593 331.087 154.852 331.033 137.345C330.969 102.366 330.882 52.382 330.774 -7.7838L331.281 -7.27684C266.833 -7.25527 189.916 -7.22291 107.509 -7.19055H107.488L108.081 -7.7838C108.059 65.0559 108.027 133.603 108.006 192.431L107.488 191.924C174.244 192.032 230.128 192.129 269.347 192.194C288.967 192.258 304.424 192.302 314.994 192.334C320.269 192.366 324.313 192.377 327.075 192.399C328.434 192.409 329.458 192.42 330.192 192.431C330.904 192.431 331.271 192.442 331.271 192.442C331.271 192.442 330.936 192.463 330.257 192.474C329.545 192.485 328.531 192.496 327.193 192.506C324.454 192.517 320.43 192.539 315.21 192.571C304.661 192.604 289.247 192.647 269.681 192.711C230.376 192.776 174.384 192.862 107.488 192.981H106.959V192.453C106.938 133.624 106.916 65.0775 106.884 -7.76222V-8.35547H107.488H107.509C189.916 -8.32311 266.823 -8.29075 331.281 -8.26918H331.788V-7.76222C331.68 52.533 331.594 102.624 331.529 137.691C331.476 155.143 331.432 168.841 331.4 178.215C331.378 182.853 331.357 186.412 331.346 188.85C331.314 191.234 331.271 192.442 331.271 192.442Z" fill="#E0E0E0"/>
<path d="M193.293 27.8108C193.293 28.1452 181.515 28.4041 166.985 28.4041C152.456 28.4041 140.678 28.1344 140.678 27.8108C140.678 27.4765 152.456 27.2176 166.985 27.2176C181.515 27.2068 193.293 27.4765 193.293 27.8108Z" fill="#E0E0E0"/>
<path d="M288.115 42.8374C288.115 43.1718 255.756 43.4306 215.847 43.4306C175.927 43.4306 143.568 43.161 143.568 42.8374C143.568 42.503 175.927 42.2441 215.847 42.2441C255.756 42.2441 288.115 42.5138 288.115 42.8374Z" fill="#E0E0E0"/>
<path d="M150.492 68.3037H141.064V77.7309H150.492V68.3037Z" fill="#E0E0E0"/>
<path d="M173.697 68.3027H164.27V77.7299H173.697V68.3027Z" fill="#E0E0E0"/>
<path d="M197.335 67.8701H187.908V77.2973H197.335V67.8701Z" fill="#E0E0E0"/>
<path d="M220.118 68.3037H210.69V77.7309H220.118V68.3037Z" fill="#E0E0E0"/>
<path d="M243.321 68.3027H233.894V77.7299H243.321V68.3027Z" fill="#E0E0E0"/>
<path d="M266.532 68.3032H257.104V77.7304H266.532V68.3032Z" fill="#E0E0E0"/>
<path d="M289.733 68.3018H280.306V77.729H289.733V68.3018Z" fill="#EBEBEB"/>
<path d="M150.492 88.3433H141.064V97.7705H150.492V88.3433Z" fill="#EBEBEB"/>
<path d="M173.697 88.3433H164.27V97.7705H173.697V88.3433Z" fill="#E0E0E0"/>
<path d="M196.907 88.3428H187.479V97.77H196.907V88.3428Z" fill="#EBEBEB"/>
<path d="M220.118 88.3433H210.69V97.7705H220.118V88.3433Z" fill="#E0E0E0"/>
<path d="M243.321 88.3433H233.894V97.7705H243.321V88.3433Z" fill="#E0E0E0"/>
<path d="M266.96 87.9238H257.533V97.351H266.96V87.9238Z" fill="#E0E0E0"/>
<path d="M289.733 88.3433H280.306V97.7705H289.733V88.3433Z" fill="#E0E0E0"/>
<path d="M150.492 108.394H141.064V117.821H150.492V108.394Z" fill="#E0E0E0"/>
<path d="M174.124 107.964H164.697V117.391H174.124V107.964Z" fill="#E0E0E0"/>
<path d="M196.907 108.394H187.479V117.821H196.907V108.394Z" fill="#E0E0E0"/>
<path d="M220.118 108.394H210.69V117.821H220.118V108.394Z" fill="#EBEBEB"/>
<path d="M243.321 108.395H233.894V117.822H243.321V108.395Z" fill="#E0E0E0"/>
<path d="M266.532 108.394H257.104V117.821H266.532V108.394Z" fill="#E0E0E0"/>
<path d="M289.733 108.396H280.306V117.823H289.733V108.396Z" fill="#E0E0E0"/>
<path d="M150.492 128.437H141.064V137.864H150.492V128.437Z" fill="#E0E0E0"/>
<path d="M173.697 128.437H164.27V137.864H173.697V128.437Z" fill="#E0E0E0"/>
<path d="M196.907 128.437H187.479V137.864H196.907V128.437Z" fill="#E0E0E0"/>
<path d="M220.54 128.004H211.113V137.432H220.54V128.004Z" fill="#E0E0E0"/>
<path d="M243.321 128.437H233.894V137.864H243.321V128.437Z" fill="#E0E0E0"/>
<path d="M266.532 128.437H257.104V137.864H266.532V128.437Z" fill="#EBEBEB"/>
<path d="M289.733 128.436H280.306V137.863H289.733V128.436Z" fill="#E0E0E0"/>
<path d="M150.492 148.475H141.064V157.902H150.492V148.475Z" fill="#E0E0E0"/>
<path d="M173.697 148.476H164.27V157.903H173.697V148.476Z" fill="#EBEBEB"/>
<path d="M196.907 148.475H187.479V157.902H196.907V148.475Z" fill="#E0E0E0"/>
<path d="M220.118 148.475H210.69V157.902H220.118V148.475Z" fill="#E0E0E0"/>
<path d="M243.321 148.476H233.894V157.903H243.321V148.476Z" fill="#E0E0E0"/>
<path d="M266.96 148.045H257.533V157.473H266.96V148.045Z" fill="#E0E0E0"/>
<path d="M289.733 148.477H280.306V157.904H289.733V148.477Z" fill="#E0E0E0"/>
<path d="M528.343 261.354C538.31 256.208 550.056 255.54 561.123 257.373C567.066 258.355 573.268 260.135 577.313 264.6C581.358 269.066 582.124 276.929 577.475 280.769C574.714 283.056 570.852 283.401 567.26 283.358C558.599 283.26 548.978 281.729 542.053 286.949C538.105 289.926 535.473 294.866 530.749 296.333C526.132 297.768 520.912 295.039 518.463 290.865C516.015 286.691 515.928 281.481 517.072 276.778C517.093 276.778 518.301 266.531 528.343 261.354Z" fill="#EBEBEB"/>
<path d="M505.5 217.248C511.595 225.953 523.449 223.073 528.939 217.755C534.429 212.438 536.759 204.736 538.873 197.391C543.705 180.607 548.57 162.993 544.978 145.897C543.9 140.784 541.99 135.693 538.399 131.896C534.807 128.11 529.284 125.845 524.236 127.183C518.261 128.758 514.55 134.615 511.864 140.18C503.98 156.543 499.795 174.686 499.741 192.85C499.719 201.349 500.711 210.248 505.5 217.248Z" fill="#EBEBEB"/>
<path d="M488.757 229.751C495.379 221.899 496.631 210.433 493.686 200.596C490.741 190.748 484.086 182.378 476.417 175.54C467.421 167.525 456.851 161.291 445.493 157.289C441.017 155.714 436.303 154.474 431.579 154.927C426.854 155.38 422.108 157.785 419.908 161.992C416.65 168.205 419.778 175.734 423.144 181.871C429.087 192.69 435.893 203.045 443.454 212.806C449.538 220.658 456.516 228.403 465.793 231.952C475.069 235.5 484.712 235.08 489.63 228.651" fill="#EBEBEB"/>
<path d="M505.088 348.626C505.207 348.636 505.39 347.223 505.638 344.667C505.919 341.787 506.275 338.174 506.685 333.87C507.192 329.329 507.85 323.914 509.112 318.025C510.374 312.147 512.337 305.783 514.871 299.332C517.492 292.915 520.685 287.079 524.417 282.42C528.128 277.738 532.431 274.341 536.487 272.388C540.521 270.393 544.145 269.584 546.648 269.228C549.172 268.969 550.585 268.775 550.585 268.656C550.585 268.548 549.172 268.527 546.572 268.592C544.005 268.764 540.23 269.411 535.969 271.353C531.698 273.251 527.125 276.692 523.242 281.47C519.326 286.238 516.015 292.192 513.351 298.728C510.773 305.297 508.842 311.726 507.634 317.734C506.437 323.72 505.886 329.189 505.53 333.773C505.185 338.357 505.056 342.068 504.991 344.635C504.948 347.191 504.98 348.615 505.088 348.626Z" fill="#E0E0E0"/>
<path d="M505.834 340.31C505.888 340.31 505.92 339.673 505.942 338.476C505.942 337.095 505.931 335.359 505.931 333.223C505.92 328.671 505.92 322.07 506.168 313.927C506.567 297.639 507.97 280.112 510.677 255.4C513.244 232.167 516.685 205.125 520.32 187.544C521.096 183.542 521.884 179.95 522.617 176.801C523.318 173.64 523.922 170.922 524.505 168.722C525.001 166.651 525.411 164.957 525.735 163.62C525.993 162.444 526.112 161.819 526.058 161.808C526.004 161.797 525.788 162.39 525.422 163.534C525.023 164.86 524.516 166.521 523.901 168.56C523.221 170.739 522.531 173.446 521.744 176.596C520.924 179.735 520.05 183.326 519.198 187.317C515.606 203.249 511.799 225.511 509.059 250.288C506.341 275.053 505.122 297.596 505.014 313.927C504.917 322.092 505.09 328.704 505.295 333.256C505.424 335.391 505.532 337.128 505.618 338.508C505.704 339.684 505.78 340.31 505.834 340.31Z" fill="#E0E0E0"/>
<path d="M505.942 296.83C506.061 296.83 506.039 294.878 505.899 291.34C505.694 287.813 505.209 282.722 504.216 276.477C503.159 270.253 501.692 262.854 499.384 254.829C498.381 251.161 496.03 242.36 490.334 229.211C482.827 211.392 472.623 196.831 463.746 187.813C461.665 185.419 459.345 183.693 457.49 182C456.53 181.191 455.678 180.382 454.815 179.735C453.942 179.13 453.143 178.58 452.388 178.063C449.465 176.067 447.826 175.01 447.772 175.107C447.513 175.463 454.319 179.465 462.905 188.612C471.458 197.737 481.382 212.201 488.835 229.869C492.988 239.447 495.889 248.001 497.939 255.249C500.312 263.209 501.887 270.523 503.084 276.681C504.216 282.862 504.874 287.899 505.263 291.394C505.597 294.889 505.834 296.83 505.942 296.83Z" fill="#E0E0E0"/>
<path d="M463.908 373.532L468.266 433.234H544.956L549.314 373.532H463.908Z" fill="#E0E0E0"/>
<path d="M558.461 350.007H456.498V373.542H558.461V350.007Z" fill="#E0E0E0"/>
<path d="M456.498 430.947V437.472H461.298H556.778V430.947H456.498Z" fill="#EBEBEB"/>
<path d="M465.991 448.95L461.299 437.473H553.133L547.654 448.95H465.991Z" fill="#E0E0E0"/>
<path d="M547.889 393.044C547.911 393.055 547.781 393.249 547.533 393.594C547.231 393.993 546.854 394.5 546.39 395.115C545.301 396.506 543.801 398.426 541.925 400.832L541.73 401.091L541.536 400.821C538.732 396.938 534.978 391.75 530.556 385.645H531.192C527.924 390.272 524.289 395.417 520.384 400.95L520.05 401.425L519.672 400.972C515.682 396.226 511.356 391.07 506.858 385.72L507.592 385.709C507.365 385.99 507.128 386.292 506.891 386.594C502.921 391.577 499.071 396.399 495.436 400.961L495.058 401.436L494.702 400.94C490.808 395.439 487.173 390.294 483.894 385.645L484.52 385.677C479.192 391.75 474.672 396.895 471.21 400.842L470.972 401.112L470.789 400.81C469.031 397.865 467.64 395.514 466.615 393.81C466.183 393.055 465.827 392.44 465.547 391.944C465.31 391.512 465.202 391.297 465.223 391.275C465.245 391.264 465.396 391.469 465.666 391.868C465.978 392.343 466.367 392.936 466.852 393.659C467.92 395.331 469.387 397.639 471.231 400.54L470.811 400.508C474.219 396.506 478.674 391.297 483.916 385.148L484.25 384.76L484.552 385.181C487.864 389.808 491.531 394.932 495.457 400.411L494.724 400.389C498.348 395.827 502.188 390.995 506.157 386.001C506.395 385.699 506.643 385.397 506.858 385.116L507.225 384.663L507.603 385.116C512.09 390.477 516.404 395.643 520.384 400.389L519.662 400.422C523.609 394.921 527.277 389.797 530.577 385.202L530.901 384.76L531.214 385.202C535.539 391.372 539.206 396.625 541.957 400.551L541.569 400.54C543.532 398.189 545.085 396.323 546.217 394.964C546.724 394.382 547.134 393.907 547.458 393.519C547.717 393.195 547.879 393.033 547.889 393.044Z" fill="#F5F5F5"/>
<path d="M550.38 373.144C550.38 373.402 531.159 373.618 507.462 373.618C483.753 373.618 464.543 373.402 464.543 373.144C464.543 372.885 483.753 372.669 507.462 372.669C531.17 372.669 550.38 372.874 550.38 373.144Z" fill="#F5F5F5"/>
<path d="M554.254 438.12C554.254 438.379 533.372 438.595 507.614 438.595C481.846 438.595 460.964 438.379 460.964 438.12C460.964 437.862 481.846 437.646 507.614 437.646C533.372 437.635 554.254 437.851 554.254 438.12Z" fill="#F5F5F5"/>
<path d="M277.654 211.587L269.025 216.215L249.934 230.916C249.934 230.916 191.44 238.683 189.196 240.365C186.953 242.048 157.862 255.865 153.925 274.396C149.999 292.927 141.909 413.862 141.909 413.862L152.523 449.597L365.562 449.932L415.524 449.22C415.524 449.22 434.724 404.381 434.724 392.031C434.724 379.67 429.104 287.005 429.104 287.005L369.187 244.755L277.654 211.587Z" fill="#74A475"/>
<path d="M249.384 230.043C249.395 230.053 249.298 230.226 249.082 230.539C248.834 230.905 248.521 231.358 248.144 231.909C247.303 233.073 246.17 234.821 244.832 237.01C244.185 238.121 243.452 239.319 242.772 240.667C242.05 241.994 241.359 243.45 240.647 244.982C239.267 248.077 237.918 251.561 236.775 255.304C234.521 262.811 233.356 269.833 232.579 274.913C232.223 277.394 231.932 279.444 231.716 280.943C231.619 281.601 231.533 282.14 231.468 282.582C231.404 282.96 231.36 283.154 231.35 283.154C231.328 283.154 231.339 282.949 231.36 282.572C231.393 282.129 231.447 281.579 231.501 280.921C231.63 279.487 231.857 277.416 232.191 274.859C232.871 269.758 233.971 262.693 236.247 255.142C237.401 251.378 238.76 247.872 240.184 244.766C240.917 243.223 241.618 241.767 242.373 240.441C243.074 239.092 243.829 237.895 244.498 236.795C245.879 234.616 247.076 232.901 247.971 231.768C248.381 231.24 248.726 230.808 248.996 230.463C249.233 230.183 249.374 230.032 249.384 230.043Z" fill="#263238"/>
<g opacity="0.3">
<path d="M250.713 265.594C250.357 264.461 249.904 263.167 248.793 262.725C247.92 262.38 248.276 262.941 247.402 263.296C239.312 266.629 235.408 274.115 231.978 282.539L232.172 282.334C231.665 283.629 232.193 285.484 233.498 286.239C235.321 287.307 237.662 286.724 239.539 285.753C241.416 284.783 243.131 283.434 245.169 282.917C249.602 281.784 254.003 284.815 257.131 288.148C260.259 291.492 263.074 295.461 267.335 297.111C259.946 287.749 254.284 276.995 250.713 265.594Z" fill="black"/>
</g>
<path d="M231.35 283.155C231.35 283.155 232.31 280.577 234.769 276.295C236.009 274.159 237.649 271.603 239.903 268.906C241.057 267.579 242.362 266.209 243.937 264.969C245.523 263.761 247.4 262.65 249.632 262.24L249.794 262.208L249.859 262.369C251.218 265.897 252.642 269.747 254.281 273.803C255.932 277.848 257.819 282.108 260.311 286.293C262.781 290.479 265.866 294.566 269.587 298.288C273.297 302.009 277.612 305.353 282.293 308.362C283.846 309.29 285.367 310.261 286.92 311.123C288.495 311.965 290.048 312.795 291.591 313.615L291.31 313.637C293.953 311.814 296.553 310.012 299.098 308.265C300.371 307.391 301.633 306.518 302.873 305.666C304.125 304.813 305.343 303.961 306.498 303.055C311.125 299.442 315.127 295.526 318.578 291.697L318.6 291.676L318.621 291.665C323.421 287.976 327.142 283.759 329.699 279.574C332.309 275.41 333.808 271.354 334.693 267.957C335.567 264.548 335.847 261.787 335.966 259.91C336.03 258.972 336.009 258.249 336.041 257.764C336.052 257.278 336.084 257.03 336.084 257.03C336.084 257.03 336.106 257.278 336.117 257.764C336.117 258.249 336.16 258.972 336.117 259.921C336.041 261.809 335.815 264.591 334.973 268.032C334.121 271.462 332.654 275.572 330.044 279.779C327.488 284.018 323.756 288.3 318.923 292.043L318.956 292.01C315.493 295.893 311.492 299.819 306.832 303.476C305.667 304.393 304.448 305.256 303.197 306.108C301.957 306.971 300.695 307.844 299.422 308.718C296.876 310.476 294.277 312.278 291.634 314.111L291.494 314.208L291.354 314.133C289.8 313.313 288.236 312.472 286.651 311.63C285.087 310.767 283.555 309.786 281.991 308.848C277.288 305.827 272.941 302.451 269.199 298.687C265.445 294.933 262.349 290.802 259.869 286.574C257.366 282.356 255.478 278.064 253.85 273.997C252.221 269.92 250.819 266.058 249.481 262.531L249.708 262.661C247.583 263.038 245.738 264.106 244.174 265.282C242.621 266.49 241.327 267.827 240.162 269.132C237.897 271.786 236.247 274.31 234.974 276.413C233.712 278.527 232.827 280.232 232.245 281.386C231.964 281.947 231.749 282.389 231.587 282.712C231.447 283.014 231.36 283.165 231.35 283.155Z" fill="#263238"/>
<path d="M351.91 256.598C351.91 256.598 352.266 262.897 351.133 273.047C350.561 278.117 349.537 284.135 347.843 290.704C346.161 297.273 343.755 304.36 340.703 311.608L340.293 312.579L340.163 311.522C340.088 310.896 340.023 310.206 339.926 309.526C339.387 305.546 338.448 301.706 337.208 298.136C336.582 296.346 335.892 294.62 335.126 292.959C334.749 292.128 334.35 291.319 333.94 290.521C333.519 289.723 333.142 288.946 332.624 288.267C332.117 287.598 331.502 286.994 330.769 286.724C330.046 286.444 329.248 286.627 328.644 287.123C328.04 287.609 327.533 288.277 326.993 288.871C326.465 289.475 325.947 290.068 325.429 290.661C323.38 293.002 321.471 295.181 319.723 297.176C316.24 301.124 313.414 304.327 311.429 306.582C310.458 307.66 309.703 308.512 309.153 309.116C308.905 309.386 308.711 309.602 308.549 309.764C308.409 309.904 308.333 309.979 308.333 309.969C308.322 309.958 308.387 309.882 308.506 309.721C308.657 309.537 308.84 309.311 309.067 309.03C309.595 308.405 310.329 307.531 311.267 306.42C313.219 304.144 316.002 300.897 319.421 296.906C321.147 294.9 323.046 292.7 325.073 290.348C325.58 289.755 326.098 289.162 326.627 288.558C327.166 287.965 327.641 287.296 328.331 286.735C329 286.163 330.046 285.894 330.93 286.25C331.815 286.584 332.473 287.253 333.023 287.954C333.584 288.666 333.983 289.485 334.404 290.273C334.813 291.071 335.223 291.891 335.601 292.721C336.367 294.393 337.079 296.141 337.715 297.942C338.977 301.555 339.926 305.417 340.466 309.44C340.573 310.13 340.627 310.821 340.703 311.457L340.163 311.371C343.205 304.155 345.621 297.09 347.326 290.553C349.041 284.017 350.108 278.03 350.723 272.982C351.349 267.935 351.597 263.825 351.716 260.988C351.791 259.575 351.791 258.464 351.823 257.72C351.834 257.375 351.856 257.094 351.856 256.868C351.899 256.695 351.91 256.598 351.91 256.598Z" fill="#263238"/>
<path d="M271.463 226.795C271.474 226.806 271.409 226.871 271.301 227.011C271.161 227.162 270.989 227.356 270.784 227.594C270.298 228.079 269.684 228.877 268.885 229.902C267.343 231.984 265.401 235.23 263.719 239.556C261.993 243.859 260.558 249.242 259.846 255.325C259.178 261.409 259.253 268.225 260.709 275.15C261.4 278.623 262.457 281.924 263.73 284.998C264.948 288.105 266.534 290.909 268.163 293.508C271.506 298.643 275.389 302.655 278.949 305.611C280.686 307.153 282.454 308.286 283.932 309.397C285.507 310.367 286.823 311.252 287.955 311.888C289.066 312.492 289.94 312.978 290.577 313.334C290.846 313.495 291.073 313.614 291.256 313.722C291.407 313.808 291.483 313.862 291.483 313.873C291.483 313.884 291.396 313.851 291.235 313.776C291.051 313.69 290.814 313.571 290.533 313.442C289.875 313.107 288.98 312.665 287.858 312.093C286.704 311.478 285.367 310.616 283.77 309.666C282.271 308.588 280.47 307.455 278.701 305.934C275.087 302.99 271.129 298.977 267.731 293.811C266.081 291.2 264.474 288.363 263.223 285.235C261.939 282.129 260.86 278.796 260.17 275.291C258.692 268.301 258.638 261.419 259.34 255.293C260.084 249.155 261.572 243.751 263.352 239.437C265.099 235.101 267.116 231.854 268.713 229.794C269.543 228.78 270.19 228.003 270.697 227.54C270.924 227.324 271.107 227.141 271.258 226.99C271.388 226.849 271.452 226.795 271.463 226.795Z" fill="#263238"/>
<path d="M179.695 330.441C179.706 330.43 179.781 330.538 179.911 330.754C180.062 331.024 180.256 331.347 180.493 331.757L180.332 331.811C179.566 328.187 177.462 317.077 175.089 303.929C173.655 295.828 172.361 288.504 171.411 283.111C170.98 280.501 170.624 278.365 170.354 276.79C170.246 276.089 170.16 275.518 170.095 275.064C170.041 274.665 170.02 274.46 170.041 274.46C170.063 274.46 170.117 274.655 170.203 275.043C170.3 275.496 170.419 276.057 170.57 276.747C170.872 278.311 171.293 280.436 171.8 283.036C172.792 288.429 174.151 295.742 175.64 303.821C178.013 316.958 179.954 328.111 180.493 331.768L180.58 332.318L180.342 331.822C180.137 331.401 179.976 331.056 179.835 330.786C179.728 330.56 179.684 330.441 179.695 330.441Z" fill="#263238"/>
<path d="M177.095 328.219C176.955 328.284 174.237 322.815 171.033 316.009C167.819 309.203 165.338 303.626 165.478 303.562C165.619 303.497 168.337 308.955 171.54 315.772C174.744 322.578 177.235 328.154 177.095 328.219Z" fill="#263238"/>
<g opacity="0.3">
<path d="M175.982 446.815C182.745 450.212 198.418 444.215 204.113 436.74C209.808 429.266 211.458 419.547 212.699 410.228C214.565 396.184 215.892 382.065 216.69 367.924C228.296 376.413 242.836 380.814 257.192 380.156C266.339 379.746 276.769 376.111 279.595 367.395C282.4 358.777 276.37 349.922 270.103 343.374C264.139 337.14 257.634 331.434 250.677 326.332C246.104 322.988 241.11 319.817 235.479 319.202C229.407 318.534 223.269 321.025 218.642 325.027C214.026 329.029 210.8 334.422 208.438 340.052C201.222 357.246 201.611 376.51 200.144 395.095C198.666 413.69 196.703 432.944 180.221 445.046" fill="black"/>
</g>
<path d="M176.427 446.879C176.427 446.868 176.578 446.793 176.891 446.652C177.236 446.501 177.689 446.307 178.25 446.07C179.382 445.434 181.054 444.506 182.866 442.899C186.544 439.771 191.085 434.442 195.324 427.367L195.292 427.453C196.273 420.064 197.428 411.435 198.657 402.267C200.631 387.727 202.389 374.568 203.792 365.054C204.665 360.362 205.377 356.544 205.873 353.858C206.121 352.575 206.326 351.561 206.467 350.816C206.531 350.493 206.585 350.234 206.639 350.029C206.682 349.856 206.704 349.759 206.715 349.759C206.725 349.759 206.715 349.856 206.693 350.04C206.661 350.255 206.628 350.514 206.574 350.838C206.456 351.582 206.294 352.607 206.089 353.89C205.636 356.587 204.978 360.405 204.18 365.108C202.896 374.676 201.149 387.813 199.207 402.342C197.956 411.511 196.78 420.129 195.777 427.517L195.767 427.571L195.745 427.615C191.42 434.723 186.814 440.03 183.039 443.125C181.183 444.711 179.458 445.617 178.304 446.21C177.7 446.458 177.214 446.62 176.901 446.728C176.599 446.847 176.427 446.9 176.427 446.879Z" fill="#263238"/>
<path d="M280.255 449.22C280.244 449.22 280.211 449.112 280.157 448.875C280.093 448.616 280.017 448.282 279.92 447.861C279.737 446.966 279.37 445.661 279.09 443.946C278.453 440.537 277.795 435.532 277.601 429.32C277.429 423.107 277.72 415.696 278.766 407.553C279.758 399.398 281.409 390.521 283.329 381.256C285.173 371.958 287.492 363.232 289.358 355.261C291.267 347.29 292.486 339.998 292.821 333.818C293.144 327.637 292.756 322.622 292.281 319.192C292.098 317.466 291.796 316.15 291.677 315.244C291.612 314.812 291.559 314.478 291.526 314.219C291.494 313.982 291.483 313.863 291.494 313.863C291.505 313.863 291.537 313.982 291.58 314.208C291.634 314.467 291.699 314.802 291.796 315.222C291.947 316.118 292.281 317.434 292.497 319.159C293.036 322.589 293.489 327.627 293.209 333.839C292.928 340.052 291.742 347.398 289.854 355.38C287.999 363.383 285.702 372.088 283.868 381.375C281.948 390.64 280.287 399.496 279.273 407.628C278.205 415.75 277.871 423.139 277.989 429.32C278.13 435.511 278.723 440.494 279.295 443.913C279.543 445.628 279.866 446.934 280.017 447.84C280.093 448.26 280.157 448.605 280.201 448.864C280.244 449.102 280.255 449.22 280.255 449.22Z" fill="#263238"/>
<path d="M298.397 327.604C298.257 327.518 300.123 324.541 302.194 320.755C304.276 316.969 305.764 313.809 305.915 313.874C305.98 313.906 305.699 314.736 305.138 316.042C304.578 317.347 303.725 319.116 302.69 321.025C301.644 322.923 300.608 324.595 299.81 325.771C299.012 326.946 298.462 327.637 298.397 327.604Z" fill="#263238"/>
<g opacity="0.3">
<path d="M301.881 323.117C307.501 316.537 313.595 310.367 320.11 304.651C321.89 303.087 323.821 301.501 326.161 301.113C329.009 300.638 331.91 302.105 333.884 304.219C335.858 306.333 337.088 309.008 338.285 311.64C341.111 304.683 338.177 296.863 335.265 289.938C334.316 287.684 332.676 285.02 330.26 285.375C328.976 285.57 328.006 286.616 327.154 287.597C317.813 298.438 309.162 309.893 301.277 321.833" fill="black"/>
</g>
<g opacity="0.3">
<path d="M396.714 271.743L397.113 268.323C393.004 268.712 387.956 269.197 384.677 271.699C380.848 274.622 379.338 279.595 378.054 284.233C375.12 294.793 383.436 349.102 383.016 360.05C386.662 358.507 389.218 335.198 389.876 331.293C391.472 321.791 388.247 315.858 389.218 313.205C390.199 310.562 390.167 307.672 390.253 304.846C390.599 292.236 391.85 283.37 396.714 271.743Z" fill="black"/>
</g>
<path d="M343.095 97.4363C337.875 90.9645 339.579 80.6205 345.555 74.839C351.53 69.0576 360.623 67.3857 368.821 68.7664C380.696 70.7618 391.375 78.8299 396.552 89.6917C399.346 95.5702 400.877 102.506 406.012 106.508C410.52 110.024 416.733 110.326 421.867 112.839C428.749 116.215 433.193 123.42 434.768 130.928C436.343 138.435 435.393 146.233 433.808 153.741C432.352 160.622 430.41 168.065 433.366 174.45C436.246 180.674 442.987 184.072 447.42 189.303C455.758 199.151 453.87 215.923 443.537 223.668C440.247 226.138 436.084 228.015 434.509 231.822C433.074 235.296 434.293 239.233 434.229 242.997C434.034 252.672 423.378 260.622 414.047 258.055C409.334 256.76 404.998 253.276 400.166 253.945C395.355 254.603 392.151 259.047 388.247 261.927C380.567 267.59 368.788 266.716 362.025 259.985C359.188 257.17 356.913 253.33 353.051 252.306C349.2 251.281 345.145 253.492 341.197 252.963C336.03 252.262 332.633 247.128 331.101 242.134C329.569 237.14 329.159 231.736 326.582 227.195C323.205 221.252 316.766 217.897 311.362 213.712C299.433 204.49 291.774 189.95 290.922 174.892C290.07 159.835 296.035 144.518 306.843 134.002" fill="#263238"/>
<path d="M270.751 226.829C260.428 238.661 256.362 255.66 260.202 270.88C264.042 286.099 276.78 308.351 291.471 313.874C301.006 306.884 313.259 297.123 322.147 289.335C327.896 284.298 330.949 276.931 333.796 269.823C335.436 265.724 337.108 261.302 336.083 257.009C335.328 253.848 333.181 251.216 330.927 248.876C316.463 233.84 294.426 226.483 273.825 229.827" fill="#FFBC9E"/>
<path d="M314.419 117.254C319.888 106.165 332.368 100.416 344.34 103.469L381.143 112.853C399.534 118.785 413.933 147.239 403.093 172.167C394.529 191.851 385.76 216.584 376.969 230.175C359.279 257.497 335.097 251.251 335.097 251.251L322.045 280.364L268.686 230.326L314.419 117.254Z" fill="#FFBC9E"/>
<path d="M376.545 179.871C377.236 179.612 379.048 183.053 383.039 184.973C387.008 186.947 390.923 186.31 391.128 187.011C391.236 187.335 390.341 187.982 388.615 188.284C386.911 188.597 384.333 188.467 381.852 187.249C379.371 186.03 377.721 184.099 376.977 182.578C376.2 181.046 376.211 179.979 376.545 179.871Z" fill="#263238"/>
<path d="M334.883 160.896C335.671 160.756 337.451 164.585 341.744 167.238C346.004 169.946 350.383 169.978 350.556 170.733C350.653 171.078 349.628 171.585 347.698 171.596C345.799 171.628 342.952 171.035 340.287 169.363C337.623 167.691 335.919 165.437 335.186 163.754C334.43 162.05 334.506 160.95 334.883 160.896Z" fill="#263238"/>
<path d="M352.53 201.584C352.617 201.347 355.324 202.027 359.649 203.31C360.728 203.666 361.807 203.893 362.292 203.256C362.864 202.62 362.928 201.304 362.961 199.88C363.101 196.946 363.241 193.861 363.392 190.636C364.115 177.52 365.129 166.928 365.657 166.961C366.186 166.993 366.024 177.65 365.301 190.766C365.096 193.991 364.902 197.065 364.719 199.999C364.589 201.347 364.676 202.987 363.457 204.303C362.831 204.95 361.828 205.176 361.084 205.058C360.329 204.961 359.746 204.723 359.218 204.518C355 202.933 352.444 201.822 352.53 201.584Z" fill="#263238"/>
<path d="M335.039 251.315C335.039 251.315 313.726 243.323 299.358 222.872C299.358 222.872 300.167 247.842 331.771 258.639L335.039 251.315Z" fill="#D37A57"/>
<path d="M338.215 147.067C338.895 145.978 343.112 147.456 348.333 147.919C353.542 148.491 357.965 147.866 358.418 149.063C358.612 149.634 357.663 150.594 355.764 151.382C353.877 152.169 351.018 152.698 347.89 152.396C344.762 152.083 342.066 151.004 340.372 149.861C338.657 148.707 337.913 147.585 338.215 147.067Z" fill="#263238"/>
<path d="M385.244 158.931C386.603 158.92 388.286 162.274 391.198 165.489C394.002 168.789 397.13 170.903 396.926 172.241C396.796 172.856 395.664 173.125 393.884 172.597C392.115 172.079 389.753 170.677 387.779 168.433C385.816 166.201 384.737 163.677 384.467 161.875C384.187 160.042 384.608 158.974 385.244 158.931Z" fill="#263238"/>
<path d="M343.171 212.85C343.171 212.85 345.673 211.544 344.519 206.734C343.354 201.934 337.249 197.576 333.377 201.524C333.377 201.524 329.472 201.826 331.004 206.335C332.546 210.843 341.445 217.207 343.106 213.583" fill="#D37A57"/>
<path d="M341.718 216.528C341.006 216.41 342.096 211.718 338.849 207.446C335.624 203.175 330.501 202.539 330.619 201.87C330.619 201.557 331.946 201.223 334.071 201.654C336.153 202.064 339.022 203.434 341.006 206.044C342.98 208.654 343.401 211.621 343.11 213.584C342.829 215.59 342.031 216.626 341.718 216.528Z" fill="#263238"/>
<path d="M282.94 101.924C277.223 106.314 273.815 113.562 274.095 120.767C274.257 124.802 275.239 129.558 272.272 132.287C269.252 135.07 264.485 133.571 260.375 133.592C253.224 133.625 246.59 139.579 245.771 146.687C245.479 149.232 245.814 151.994 244.509 154.205C243.16 156.502 240.442 157.538 238.166 158.918C232.493 162.359 228.879 168.928 228.998 175.562C229.127 182.195 233 188.624 238.803 191.838C241.445 193.305 244.53 194.211 246.461 196.541C248.672 199.205 248.758 202.98 249.837 206.259C251.908 212.559 258.261 217.197 264.905 217.24C271.539 217.283 277.957 212.753 280.125 206.475" fill="#263238"/>
<path d="M342.592 91.6C340.434 97.8991 341.222 105.148 344.684 110.843C348.157 116.527 354.23 120.55 360.82 121.521C365.933 122.276 372.038 121.629 375.339 125.598C378.812 129.783 376.752 136.46 379.502 141.152C383.428 147.861 390.116 153.211 396.469 157.687C401.366 161.15 395.768 170.782 397.904 176.391C400.039 182 408.83 194.792 414.827 195.019C416.143 190.003 423.607 167.978 423.737 162.789C423.866 157.601 422.701 152.219 419.487 148.152C417.729 145.92 415.41 144.14 413.889 141.735C410.599 136.546 411.71 129.837 410.642 123.797C409.262 116.009 403.868 109.041 396.674 105.752C390.688 103.012 383.666 102.71 378.132 99.1396C374.044 96.4969 371.121 92.2795 366.882 89.8849C358.631 85.2253 348.298 88.774 339.766 92.9159" fill="#263238"/>
<path d="M302.86 154.302C302.008 153.73 296.356 158.013 301.933 161.432C311.716 167.418 320.118 147.205 319.752 140.485C324.735 138.382 329.783 136.246 334.162 132.913C338.552 129.58 345.11 118.664 346.286 113.152C350.029 114.673 368.106 114.803 366.542 113.724C362.972 111.254 355.756 105.958 354.796 101.805C352.714 92.7988 346.318 84.9679 337.873 82.6057C329.427 80.2543 319.245 84.105 314.585 92.2918C304.521 88.9696 292.592 91.9574 284.567 99.8098C276.542 107.662 272.734 120.066 274.989 131.025C275.582 133.894 276.553 136.893 275.625 139.741C274.482 143.268 270.944 145.166 268.139 147.453C260.459 153.676 257.159 164.668 258.108 174.591C259.057 184.514 260.751 188.462 265.658 192.054C275.269 199.076 255.293 217.003 273.187 223.054" fill="#263238"/>
<path d="M436.432 222.816C436.378 222.741 437.068 222.374 438.114 221.382C439.15 220.4 440.638 218.815 441.717 216.312C442.817 213.864 443.572 210.444 442.731 206.691C441.889 202.937 439.053 199.345 435.256 196.293C431.567 193.122 426.724 190.296 423.294 185.302C419.821 180.286 419.249 173.469 420.349 166.997C421.428 160.429 424.168 154.043 425.926 147.248C426.81 143.85 427.36 140.312 427.242 136.731C427.123 133.172 426.336 129.526 424.426 126.441C422.528 123.356 419.605 121.048 416.401 119.484C413.187 117.909 409.714 116.992 406.262 116.399C402.8 115.817 399.262 115.493 395.908 114.414C392.564 113.411 389.371 111.211 387.85 108.072C386.286 104.987 385.941 101.719 385.251 98.7526C384.647 95.754 383.514 93.0575 381.767 90.8247C378.337 86.3053 373.256 83.8028 368.554 82.9184C363.775 82.0555 359.31 82.9831 355.761 84.4608C352.202 85.9817 349.483 88.0095 347.466 89.8539C343.476 93.6291 342.149 96.4875 341.987 96.3689C341.965 96.3581 342.041 96.1855 342.224 95.8511C342.408 95.5275 342.645 95.0206 343.055 94.4165C343.821 93.1761 345.104 91.418 347.078 89.4549C349.074 87.5133 351.792 85.3669 355.437 83.7381C359.062 82.1526 363.7 81.0955 368.715 81.9368C373.645 82.7997 378.995 85.3453 382.684 90.1128C384.56 92.4427 385.822 95.4197 386.459 98.483C387.171 101.514 387.559 104.707 388.994 107.479C390.374 110.272 393.135 112.192 396.307 113.142C399.478 114.155 402.94 114.468 406.478 115.051C410.016 115.655 413.619 116.593 417.006 118.243C420.382 119.872 423.553 122.353 425.613 125.718C427.684 129.073 428.514 132.967 428.633 136.71C428.752 140.463 428.159 144.152 427.252 147.614C425.43 154.561 422.701 160.882 421.622 167.235C420.522 173.512 421.061 179.973 424.254 184.676C427.414 189.4 432.171 192.291 435.881 195.549C439.7 198.698 442.666 202.517 443.486 206.54C444.306 210.52 443.421 214.058 442.202 216.56C441.005 219.117 439.398 220.691 438.287 221.619C437.165 222.547 436.432 222.816 436.432 222.816Z" fill="#455A64"/>
<path d="M403.348 157.689C403.477 157.743 402.819 159.231 402.161 162.057C401.536 164.873 400.943 169.101 401.784 174.203C402.194 176.737 402.949 179.488 404.232 182.217C405.462 184.989 407.36 187.567 409.518 190.307C410.564 191.698 411.621 193.197 412.398 194.934C413.196 196.66 413.584 198.677 413.411 200.661C413.099 204.674 411.125 208.233 409.658 211.858C408.115 215.449 407.253 219.3 408.666 222.633C409.981 225.966 412.646 228.501 415.073 230.928C417.532 233.344 419.905 235.782 421.404 238.618C422.116 240.042 422.612 241.563 422.763 243.051C422.86 244.54 422.806 245.985 422.44 247.301C421.102 252.651 417.37 255.704 414.727 256.923C413.347 257.505 412.203 257.764 411.427 257.829C410.65 257.883 410.24 257.883 410.24 257.829C410.208 257.656 411.912 257.721 414.479 256.426C416.939 255.121 420.347 252.09 421.469 247.075C422.03 244.615 421.792 241.768 420.369 239.168C418.945 236.558 416.647 234.25 414.156 231.855C411.718 229.45 408.881 226.861 407.371 223.129C406.627 221.285 406.379 219.181 406.648 217.154C406.907 215.126 407.587 213.184 408.342 211.318C409.863 207.597 411.74 204.135 412.031 200.554C412.408 196.951 410.51 193.791 408.471 191.083C406.39 188.376 404.383 185.593 403.165 182.702C401.881 179.833 401.158 176.986 400.802 174.354C400.069 169.068 400.835 164.743 401.644 161.917C402.054 160.504 402.463 159.426 402.798 158.724C403.111 158.023 403.305 157.667 403.348 157.689Z" fill="#455A64"/>
<path d="M241.51 191.546C241.488 191.568 241.283 191.417 240.895 191.093C240.496 190.78 239.967 190.252 239.331 189.507C238.09 188.019 236.462 185.495 235.75 181.849C235.027 178.29 235.307 173.35 238.392 169.035C241.359 164.807 246.978 161.291 253.569 161.603L252.975 162.391C251.767 159.004 250.861 155.207 251.163 151.173C251.401 147.182 253.31 142.911 256.934 140.344C258.692 139.039 260.925 138.197 263.244 138.186C265.595 138.197 267.763 139.103 269.759 140.031C271.765 140.958 273.728 142.005 275.799 142.361C277.849 142.727 279.973 142.145 281.505 140.667C283.803 138.521 284.838 135.317 285.043 132.189C285.291 129.018 284.989 125.782 285.323 122.557C285.981 116.085 289.088 110.293 293.273 106.205C297.458 102.042 302.84 99.7981 307.878 99.1185C312.947 98.439 317.725 99.2264 321.587 100.844L320.972 101.082C322.676 97.5653 325.653 95.3865 328.393 94.2647C331.165 93.1106 333.808 92.9488 335.868 93.1537C337.95 93.3695 339.449 94.0059 340.409 94.4697C341.347 95.009 341.8 95.3433 341.779 95.3757C341.714 95.5591 339.87 93.9951 335.825 93.6715C333.84 93.5528 331.305 93.7901 328.684 94.955C326.096 96.0876 323.345 98.2017 321.824 101.481L321.63 101.891L321.209 101.718C317.467 100.23 312.861 99.5392 308.018 100.251C303.196 100.974 298.116 103.153 294.157 107.133C290.199 111.048 287.276 116.582 286.683 122.697C286.37 125.75 286.682 128.964 286.434 132.308C286.219 135.619 285.129 139.222 282.454 141.724C280.675 143.482 277.946 144.227 275.562 143.763C273.167 143.342 271.139 142.22 269.166 141.314C267.202 140.398 265.218 139.589 263.233 139.578C261.248 139.589 259.307 140.29 257.721 141.455C254.453 143.763 252.695 147.56 252.436 151.292C252.123 155.045 252.954 158.713 254.097 162.013L254.388 162.855L253.504 162.801C247.42 162.434 242.049 165.659 239.191 169.607C236.214 173.609 235.836 178.279 236.44 181.731C237.023 185.268 238.5 187.76 239.633 189.292C240.765 190.813 241.564 191.481 241.51 191.546Z" fill="#455A64"/>
<path d="M342.151 99.7227C342.226 99.9707 340.047 99.6148 337.286 101.61C334.525 103.563 332.141 108.276 331.44 114.273L331.375 114.791L330.868 114.748C325.777 114.327 319.338 116.312 314.98 121.381C313.934 122.643 313.006 124.121 312.424 125.685C311.874 127.292 311.593 129.072 311.324 130.906C311.043 132.739 310.795 134.638 310.213 136.558C309.716 138.456 308.487 140.441 306.815 141.649C303.234 144.443 298.844 144.928 294.993 145.543C291.078 146.071 287.4 146.718 284.218 148.336C277.811 151.443 273.582 156.836 271.738 161.852C269.818 166.91 269.893 171.451 270.271 174.439C270.659 177.459 271.296 179.056 271.166 179.099C271.123 179.12 270.94 178.732 270.649 177.966C270.379 177.2 270.001 176.057 269.732 174.525C269.182 171.505 268.934 166.824 270.81 161.506C272.622 156.243 276.948 150.504 283.657 147.171C286.979 145.446 290.916 144.723 294.799 144.184C298.639 143.569 302.813 143.03 305.941 140.559C309.026 138.391 309.35 134.303 309.954 130.712C310.234 128.878 310.525 127.023 311.151 125.243C311.831 123.452 312.823 121.921 313.977 120.551C318.723 115.136 325.561 113.173 330.955 113.723L330.383 114.198C331.246 107.963 333.867 103.131 336.93 101.157C338.419 100.165 339.81 99.8305 340.727 99.7442C341.665 99.6687 342.151 99.6687 342.151 99.7227Z" fill="#455A64"/>
<path d="M304.941 157.368C308.015 151.338 303.884 143.766 297.121 143.777C293.411 143.788 289.409 145.794 286.087 152.169C277.231 169.146 296.107 174.539 296.388 174.065C296.56 173.773 301.338 164.433 304.941 157.368Z" fill="#FFBC9E"/>
<path d="M294.553 164.929C294.51 164.832 294.154 164.983 293.528 164.951C292.924 164.918 292.007 164.638 291.296 163.84C289.85 162.243 289.818 158.608 291.339 155.502C292.105 153.938 293.194 152.633 294.37 151.694C295.535 150.724 296.797 150.271 297.778 150.583C298.781 150.842 299.137 151.716 299.105 152.309C299.083 152.902 298.803 153.183 298.878 153.258C298.9 153.323 299.396 153.161 299.623 152.395C299.73 152.018 299.741 151.522 299.515 150.982C299.277 150.443 298.77 149.958 298.102 149.699C296.743 149.106 294.941 149.699 293.636 150.724C292.266 151.716 291.004 153.161 290.141 154.919C288.47 158.393 288.545 162.513 290.638 164.498C291.673 165.436 292.849 165.587 293.571 165.458C294.316 165.317 294.596 164.994 294.553 164.929Z" fill="#D37A57"/>
<path d="M288.03 393.174C286.531 390.391 282.67 388.676 282.67 388.676L279.455 380.748C279.455 380.748 280.739 377.965 279.455 374.535C278.172 371.105 268.745 351.172 268.95 350.536L266.512 350.395C266.512 350.395 275.206 371.483 276.058 372.561C276.91 373.629 278.161 379.907 276.025 380.77C273.879 381.622 269.327 379.303 267.396 377.372C265.466 375.441 259.328 360.934 258.25 357.935C257.182 354.937 259.091 350.762 259.091 350.762L260.806 346.696H258.444C258.444 346.696 256.944 350.978 256.082 355.055C255.229 359.132 264.872 376.919 266.372 378.839C267.871 380.77 273.016 382.269 275.799 384.2C278.582 386.13 278.161 392.128 278.161 392.128C278.161 392.128 275.799 395.342 275.594 399.203C275.389 403.065 283.953 421.272 289.735 425.134C295.516 428.995 302.376 426.201 303.023 426.417C303.671 426.633 305.17 423.419 305.17 423.419C305.17 423.419 289.53 395.957 288.03 393.174ZM295.926 425.026C292.841 424.778 289.659 422.663 287.966 420.42C287.265 419.492 279.757 406.43 278.797 404.003C277.104 399.764 278.28 397.413 278.895 394.921C279.79 391.319 285.366 393.433 285.366 393.433C285.366 393.433 301.783 421.801 301.405 422.663C301.028 423.526 299.011 425.274 295.926 425.026Z" fill="#263238"/>
<path d="M305.171 423.387C305.171 423.387 352.965 405.201 355.198 403.141C357.43 401.081 365.498 389.237 365.498 389.237C365.498 389.237 369.446 389.928 368.929 390.952C368.411 391.977 360.86 403.831 352.792 407.261C344.724 410.691 303.024 426.396 303.024 426.396L305.171 423.387Z" fill="#263238"/>
<path d="M153.927 273.511L134.242 387.047C134.242 387.047 126.993 409.137 128.029 413.97C129.064 418.802 132.721 439.652 143.766 446.21C154.811 452.768 176.686 448.486 181.173 443.999C185.66 439.511 194.505 431.292 195.54 427.496C196.576 423.699 203.835 365.971 203.835 365.971L206.715 349.78C206.715 349.78 196.015 353.232 189.457 348.745C182.899 344.258 174.27 324.929 174.27 324.929L164.605 339.771L153.927 273.511Z" fill="#74A475"/>
<path d="M174.279 324.918C174.29 324.929 174.16 325.144 173.901 325.554C173.599 326.007 173.211 326.601 172.736 327.323C171.723 328.866 170.256 331.088 168.497 333.881C164.96 339.436 160.224 347.224 155.058 355.853C149.891 364.493 145.232 372.324 141.769 377.932C140.043 380.737 138.609 383.002 137.606 384.544C137.12 385.278 136.732 385.86 136.43 386.313C136.16 386.712 136.009 386.917 135.988 386.907C135.966 386.896 136.096 386.669 136.333 386.249C136.613 385.785 136.969 385.181 137.422 384.426C138.404 382.786 139.763 380.51 141.424 377.728C144.822 372.011 149.449 364.201 154.572 355.562C159.739 346.933 164.528 339.167 168.152 333.655C169.954 330.894 171.475 328.693 172.542 327.194C173.06 326.482 173.481 325.921 173.794 325.479C174.096 325.101 174.257 324.907 174.279 324.918Z" fill="#263238"/>
<path d="M204.242 363.695C204.253 363.705 204.113 363.867 203.832 364.169C203.541 364.46 203.153 364.913 202.57 365.431C201.427 366.477 199.658 367.912 197.123 369.109C195.85 369.681 194.405 370.22 192.776 370.479C191.158 370.77 189.378 370.857 187.534 370.609C185.7 370.371 183.802 369.875 181.947 369.099C180.102 368.311 178.269 367.308 176.521 366.089C174.806 364.827 173.285 363.393 171.959 361.883C170.664 360.34 169.564 358.744 168.669 357.137C166.878 353.901 165.908 350.686 165.401 347.957C164.904 345.218 164.883 342.953 164.958 341.41C164.991 340.634 165.088 340.04 165.131 339.63C165.185 339.221 165.217 339.016 165.239 339.016C165.293 339.016 165.217 339.879 165.185 341.41C165.174 342.953 165.26 345.185 165.8 347.882C166.35 350.568 167.342 353.717 169.133 356.878C170.028 358.452 171.117 360.016 172.39 361.527C173.695 363.004 175.184 364.406 176.866 365.636C178.571 366.823 180.372 367.815 182.173 368.602C183.985 369.368 185.83 369.864 187.61 370.102C189.389 370.361 191.126 370.296 192.701 370.026C194.286 369.789 195.71 369.282 196.961 368.753C199.453 367.621 201.254 366.262 202.419 365.269C203.595 364.255 204.21 363.651 204.242 363.695Z" fill="#263238"/>
<path d="M174.279 324.918L189.003 315.448C189.003 315.448 228.275 299.495 232.255 298.578C236.246 297.661 240.841 295.817 242.988 298.578C245.134 301.339 267.527 317.594 267.527 317.594C267.527 317.594 280.718 342.446 280.718 345.822C280.718 349.198 284.396 353.512 280.718 354.731C277.04 355.95 277.04 355.95 277.04 355.95C277.04 355.95 275.81 361.969 271.215 362.638C266.61 363.306 265.078 362.638 265.078 362.638C265.078 362.638 264.776 368.656 261.087 368.279C257.409 367.912 251.272 362.638 251.272 362.638C251.272 362.638 248.51 365.766 246.364 365.766C244.217 365.766 237.465 361.16 237.465 361.16L224.414 349.813L212.916 345.822L206.703 349.77C206.703 349.77 193.425 350.902 191.44 349.813C189.456 348.734 174.279 324.918 174.279 324.918Z" fill="#FFBC9E"/>
<path d="M249.676 363.695C249.644 363.706 249.395 363.081 248.996 361.959C248.802 361.387 248.554 360.697 248.22 359.92C247.896 359.133 247.562 358.227 247.087 357.267C246.645 356.296 246.149 355.228 245.534 354.128C244.973 353.006 244.261 351.863 243.539 350.655C242.018 348.271 240.206 345.747 238.059 343.288C235.891 340.85 233.626 338.714 231.469 336.902C230.358 336.029 229.322 335.176 228.276 334.465C227.262 333.72 226.28 333.084 225.374 332.523C224.49 331.93 223.627 331.488 222.894 331.056C222.16 330.625 221.513 330.29 220.974 330.021C219.906 329.481 219.323 329.158 219.334 329.125C219.345 329.093 219.96 329.341 221.071 329.827C221.621 330.064 222.3 330.366 223.045 330.776C223.8 331.175 224.673 331.606 225.59 332.178C226.518 332.728 227.521 333.343 228.556 334.076C229.624 334.767 230.681 335.619 231.803 336.492C234.003 338.305 236.301 340.451 238.491 342.91C240.648 345.402 242.481 347.958 243.981 350.374C244.703 351.604 245.405 352.769 245.955 353.912C246.559 355.034 247.033 356.113 247.454 357.105C247.907 358.087 248.22 359.014 248.522 359.812C248.835 360.611 249.05 361.312 249.212 361.894C249.546 363.037 249.708 363.685 249.676 363.695Z" fill="#D37A57"/>
<path d="M265.057 363.317C265.035 363.328 264.927 363.166 264.722 362.843C264.528 362.519 264.215 362.055 263.881 361.419C263.202 360.157 262.339 358.258 261.487 355.832C260.624 353.415 259.804 350.471 258.833 347.235C257.83 344.021 256.676 340.472 254.691 337.15C252.75 333.795 250.021 331.217 247.313 329.243C244.595 327.259 241.985 325.662 239.989 324.034C237.972 322.427 236.581 320.83 235.826 319.601C235.459 318.986 235.179 318.49 235.049 318.134C234.898 317.788 234.823 317.605 234.844 317.594C234.909 317.562 235.211 318.306 236.009 319.471C236.808 320.647 238.221 322.157 240.238 323.71C242.244 325.285 244.865 326.838 247.626 328.812C250.377 330.786 253.192 333.428 255.187 336.848C257.215 340.245 258.369 343.837 259.351 347.073C260.3 350.32 261.077 353.264 261.886 355.681C262.684 358.108 263.482 360.006 264.097 361.289C264.712 362.595 265.1 363.285 265.057 363.317Z" fill="#D37A57"/>
<path d="M276.124 356.199C276.102 356.199 276.048 356.015 275.962 355.659C275.865 355.239 275.746 354.732 275.595 354.106C275.455 353.427 275.261 352.607 274.98 351.668C274.711 350.73 274.452 349.641 274.042 348.476C273.664 347.3 273.244 346.016 272.694 344.679C272.197 343.309 271.539 341.907 270.881 340.418C269.468 337.484 267.743 334.335 265.639 331.218C263.504 328.111 261.217 325.35 259.006 322.955C257.862 321.79 256.805 320.658 255.716 319.709C254.67 318.706 253.634 317.843 252.674 317.055C251.747 316.246 250.83 315.599 250.053 315.006C249.277 314.402 248.586 313.916 248.004 313.539C247.475 313.172 247.044 312.87 246.699 312.622C246.407 312.406 246.256 312.288 246.267 312.266C246.278 312.245 246.45 312.342 246.763 312.525C247.13 312.752 247.583 313.021 248.133 313.345C248.726 313.701 249.449 314.154 250.236 314.736C251.035 315.308 251.973 315.933 252.922 316.732C253.893 317.497 254.961 318.35 256.029 319.353C257.14 320.302 258.218 321.434 259.383 322.589C261.638 324.983 263.957 327.766 266.103 330.894C268.217 334.044 269.954 337.226 271.356 340.192C272.014 341.702 272.661 343.115 273.136 344.506C273.675 345.865 274.074 347.171 274.43 348.357C274.818 349.533 275.056 350.633 275.293 351.593C275.541 352.542 275.703 353.383 275.811 354.063C275.919 354.699 276.005 355.217 276.08 355.638C276.124 356.004 276.145 356.199 276.124 356.199Z" fill="#D37A57"/>
<path d="M218.332 314.325C218.343 314.422 217.566 314.53 216.434 315.026C215.312 315.501 213.823 316.439 212.702 317.928C211.58 319.416 211.084 321.099 210.922 322.307C210.76 323.526 210.857 324.313 210.76 324.324C210.695 324.335 210.458 323.569 210.523 322.275C210.577 321.002 211.041 319.19 212.249 317.593C213.457 315.997 215.075 315.069 216.283 314.67C217.512 314.239 218.332 314.26 218.332 314.325Z" fill="#D37A57"/>
<path d="M229.27 303.929C229.356 304.069 227.457 305.277 225.581 307.283C223.682 309.268 222.582 311.231 222.442 311.156C222.312 311.102 223.218 308.955 225.182 306.895C227.112 304.824 229.216 303.799 229.27 303.929Z" fill="#D37A57"/>
<path d="M383.199 175.842C381.333 176.608 380.956 178.841 380.988 180.858C381.021 183.382 381.657 183.792 383.728 188.031C387.093 194.945 391.127 208.061 391.127 208.061C391.127 208.061 387.827 241.175 389.995 248.952C391.958 255.973 398.591 257.764 398.591 257.764L395.571 283.338H431.694C431.694 283.338 430.411 258.584 429.634 251.033C428.815 243.052 429.365 194.783 429.365 194.783L425.816 169.004L417.446 154.539C417.446 154.539 413.088 157.16 414.976 162.457C416.863 167.763 418.104 177.924 418.104 177.924L397.189 146.45C397.189 146.45 393.08 147.431 392.832 155.036C392.832 155.036 386.748 158.994 390.663 165.423C395.032 172.596 399.573 194.147 397.977 194.157L385.001 175.098L383.199 175.842Z" fill="#FFBC9E"/>
<path d="M395.571 283.337C395.571 283.337 395.614 282.765 395.733 281.644C395.862 280.511 396.045 278.85 396.283 276.693C396.779 272.335 397.512 265.939 398.451 257.752L398.548 257.903C396.93 257.396 395.366 256.533 393.953 255.347C392.529 254.171 391.31 252.629 390.501 250.795C389.638 248.972 389.412 246.869 389.239 244.765C389.11 242.641 389.067 240.451 389.088 238.186C389.185 229.136 389.887 219.029 390.911 208.049L390.922 208.135C389.229 202.807 387.363 197.187 385.011 191.492C384.418 190.068 383.781 188.655 383.07 187.253C382.401 185.829 381.527 184.513 381.009 182.906C380.783 182.097 380.74 181.256 380.751 180.436C380.772 179.616 380.848 178.775 381.106 177.955C381.355 177.146 381.84 176.337 382.617 175.863C383.005 175.615 383.404 175.485 383.771 175.323L384.914 174.849L385.108 174.773L385.227 174.946C389.531 181.256 394.082 187.943 398.764 194.814L398.278 194.911C398.483 193.315 398.397 191.6 398.214 189.917C398.009 188.235 397.75 186.541 397.351 184.869C396.606 181.504 395.549 178.171 394.33 174.849C393.144 171.516 391.645 168.28 390.189 164.947C389.498 163.254 389.131 161.312 389.606 159.457C390.038 157.602 391.149 155.951 392.691 154.797L392.572 155.002C392.777 153.406 393.09 151.745 393.726 150.138C394.039 149.339 394.46 148.552 394.988 147.84C395.539 147.139 396.175 146.481 397.146 146.168L397.318 146.114L397.437 146.287C397.512 146.405 397.599 146.524 397.674 146.654C404.75 157.31 411.664 167.719 418.341 177.772L417.834 177.955C417.284 173.759 416.615 169.618 415.623 165.627C415.374 164.634 415.094 163.642 414.76 162.682C414.436 161.69 414.188 160.643 414.242 159.576C414.317 157.429 415.558 155.466 417.294 154.301L417.521 154.15L417.661 154.398C420.52 159.349 423.302 164.17 426.021 168.873L426.042 168.916L426.053 168.97C427.282 177.988 428.469 186.584 429.58 194.75V194.771V194.793C429.429 208.146 429.353 220.356 429.364 231.175C429.375 236.579 429.407 241.637 429.526 246.297C429.591 248.638 429.72 250.849 429.936 252.985C430.119 255.12 430.249 257.159 430.378 259.09C430.874 266.813 431.187 272.874 431.392 277.006C431.489 279.066 431.565 280.641 431.619 281.719C431.662 282.787 431.673 283.337 431.673 283.337C431.673 283.337 431.619 282.787 431.554 281.719C431.489 280.641 431.392 279.066 431.263 277.006C431.004 272.874 430.659 266.813 430.119 259.1C429.979 257.17 429.839 255.142 429.645 253.006C429.418 250.881 429.278 248.627 429.202 246.297C429.062 241.627 429.008 236.568 428.987 231.164C428.933 220.345 428.987 208.135 429.105 194.782V194.814C427.973 186.66 426.786 178.052 425.535 169.046L425.568 169.143C422.849 164.44 420.056 159.619 417.197 154.679L417.564 154.776C415.989 155.833 414.824 157.666 414.77 159.619C414.727 160.6 414.943 161.571 415.267 162.52C415.601 163.502 415.892 164.494 416.14 165.508C417.143 169.542 417.812 173.684 418.373 177.912L418.524 179.088L417.866 178.096C411.189 168.043 404.265 157.634 397.189 146.988C397.103 146.859 397.027 146.74 396.951 146.621L397.243 146.74C396.552 146.956 395.894 147.57 395.409 148.207C394.913 148.865 394.525 149.598 394.223 150.364C393.608 151.896 393.306 153.524 393.101 155.088L393.09 155.207L392.982 155.283C391.591 156.318 390.512 157.893 390.124 159.597C389.682 161.312 390.016 163.124 390.685 164.753C392.119 168.043 393.64 171.322 394.837 174.676C396.067 178.009 397.124 181.375 397.879 184.772C398.278 186.466 398.548 188.181 398.753 189.885C398.936 191.6 399.033 193.293 398.807 195.041L398.72 195.72L398.321 195.138C393.64 188.267 389.099 181.58 384.806 175.259L385.119 175.356C384.386 175.679 383.533 175.96 382.886 176.327C382.239 176.715 381.818 177.405 381.581 178.139C381.344 178.883 381.257 179.681 381.247 180.469C381.236 181.267 381.268 182.054 381.484 182.788C381.948 184.255 382.832 185.624 383.512 187.048C384.224 188.461 384.86 189.896 385.453 191.32C387.805 197.047 389.66 202.667 391.353 208.017L391.364 208.06V208.103C390.318 219.073 389.595 229.179 389.466 238.207C389.433 240.462 389.477 242.651 389.595 244.755C389.768 246.858 389.973 248.897 390.814 250.676C392.378 254.279 395.56 256.63 398.645 257.644L398.764 257.687L398.753 257.795C397.76 265.982 396.984 272.368 396.455 276.725C396.186 278.882 395.981 280.544 395.841 281.665C395.668 282.765 395.571 283.337 395.571 283.337Z" fill="#D37A57"/>
<path d="M411.533 196.929C411.49 196.929 411.361 196.293 411.145 195.149C410.951 193.995 410.595 192.334 410.131 190.285C409.16 186.208 407.51 180.642 404.792 174.85C402.106 169.047 399 164.139 396.659 160.666C395.494 158.929 394.524 157.527 393.844 156.578C393.175 155.618 392.808 155.068 392.841 155.046C392.873 155.025 393.294 155.521 394.017 156.448C394.75 157.365 395.775 158.724 396.983 160.45C399.41 163.88 402.592 168.788 405.299 174.623C408.028 180.459 409.646 186.089 410.52 190.199C410.94 192.259 411.231 193.941 411.361 195.106C411.512 196.282 411.577 196.929 411.533 196.929Z" fill="#D37A57"/>
<path d="M422.753 188.894C422.613 188.958 421.426 186.445 420.11 183.285C418.794 180.124 417.845 177.525 417.985 177.46C418.126 177.395 419.312 179.909 420.628 183.069C421.944 186.229 422.893 188.829 422.753 188.894Z" fill="#D37A57"/>
<path d="M392.689 272.745C386.358 328.694 378.095 388.255 368.604 450.136H442.134C455.962 419.525 447.505 392.818 443.816 354.753L431.692 268.323L392.689 272.745Z" fill="#74A475"/>
<path d="M368.603 450.137C368.592 450.137 368.603 450.007 368.624 449.77C368.657 449.5 368.7 449.155 368.754 448.713C368.883 447.742 369.077 446.383 369.315 444.636C369.832 441.065 370.577 435.964 371.483 429.675C373.349 417.012 375.905 399.581 378.731 380.317C381.503 361.031 383.855 343.547 385.397 330.873C386.184 324.541 386.778 319.407 387.177 315.858C387.382 314.111 387.544 312.741 387.651 311.77C387.705 311.328 387.759 310.983 387.792 310.713C387.824 310.476 387.846 310.357 387.856 310.357C387.867 310.357 387.867 310.487 387.846 310.724C387.824 310.994 387.802 311.35 387.759 311.792C387.673 312.763 387.544 314.133 387.382 315.891C387.047 319.45 386.508 324.585 385.775 330.927C384.329 343.611 382.043 361.107 379.27 380.403C376.498 399.689 373.813 417.12 371.85 429.74C370.857 436.017 370.059 441.119 369.498 444.679C369.218 446.415 368.991 447.775 368.829 448.734C368.754 449.177 368.689 449.522 368.646 449.792C368.635 450.018 368.614 450.147 368.603 450.137Z" fill="#263238"/>
<path d="M527.916 449.65H318.241L345.293 302.493C346.253 297.272 350.805 293.486 356.112 293.486H544.516C551.419 293.486 556.618 299.775 555.313 306.548L527.916 449.65Z" fill="#D4D4D4"/>
<path d="M318.24 449.651H238.713L239.036 449.414C246.134 444.096 254.698 441.097 263.564 440.828L320.44 439.156L318.24 449.651Z" fill="#D4D4D4"/>
<path d="M368.602 293.681C368.591 293.735 368.019 293.573 366.908 293.562C365.808 293.551 364.136 293.778 362.248 294.716C360.372 295.644 358.279 297.294 356.661 299.797C355.043 302.31 353.943 305.6 353.242 309.31C352.562 313.031 351.958 317.163 351.214 321.574C350.459 325.986 349.65 330.689 348.722 335.639C346.9 345.53 344.732 356.371 342.38 367.739C337.645 390.466 333.266 411.014 330.397 425.953C328.951 433.417 327.84 439.468 327.085 443.653C326.708 445.703 326.416 447.31 326.212 448.475C326.114 448.992 326.028 449.402 325.963 449.726C325.899 450.006 325.866 450.146 325.856 450.146C325.845 450.146 325.856 449.995 325.888 449.715C325.931 449.391 325.985 448.971 326.061 448.453C326.233 447.288 326.481 445.67 326.794 443.61C327.452 439.403 328.487 433.341 329.857 425.856C332.586 410.884 336.879 390.315 341.614 367.588C343.966 356.23 346.155 345.39 348.021 335.521C348.971 330.581 349.801 325.878 350.589 321.477C351.354 317.076 351.991 312.967 352.713 309.213C353.458 305.47 354.612 302.126 356.316 299.57C358.02 297.014 360.199 295.353 362.141 294.447C364.093 293.53 365.819 293.346 366.93 293.411C368.041 293.465 368.602 293.681 368.602 293.681Z" fill="#263238"/>
<path d="M457.156 368.258C457.156 373.856 452.615 378.397 447.017 378.397C441.419 378.397 436.878 373.856 436.878 368.258C436.878 362.66 441.419 358.119 447.017 358.119C452.615 358.119 457.156 362.66 457.156 368.258Z" fill="#F5F5F5"/>
<path d="M579.52 449.824C579.52 449.975 469.111 450.104 332.935 450.104C196.715 450.104 86.3281 449.975 86.3281 449.824C86.3281 449.673 196.715 449.543 332.935 449.543C469.1 449.543 579.52 449.662 579.52 449.824Z" fill="#263238"/>
<path d="M287.165 63.4588L284.285 36.3745L270.468 39.4917L258.56 18.4585L265.981 46.8911L279.992 43.6768L287.165 63.4588Z" fill="#E19379"/>
<path d="M281.534 68.5721L268.699 55.3589L262.648 62.7906L247.536 56.5669L263.349 68.6044L269.465 61.0432L281.534 68.5721Z" fill="#E19379"/>
<path d="M420.291 80.2538L431.962 59.0264L442.219 66.3287L459.208 53.1694L443.363 73.9438L432.965 66.5013L420.291 80.2538Z" fill="#E19379"/>
<path d="M441.701 92.3672L453.771 87.2222L455.702 93.7586L467.34 93.8342L453.642 97.3828L451.7 90.7385L441.701 92.3672Z" fill="#E19379"/>
<path d="M357.977 9.89492C357.977 9.89492 358.462 9.58211 359.433 8.99965C360.414 8.43877 361.881 7.60823 363.931 6.74532C367.975 5.01952 374.426 2.90541 383.012 3.229C384.079 3.28293 385.18 3.34765 386.301 3.49866C387.423 3.61731 388.577 3.80067 389.731 4.12426C390.886 4.44785 392.04 4.86852 393.129 5.50491C394.208 6.15208 395.243 7.00419 395.901 8.16911C396.591 9.31246 396.807 10.747 396.57 12.1169C396.3 13.4975 395.534 14.7487 394.574 15.8166C392.601 17.9307 389.904 19.4084 386.992 20.4007C381.21 22.5256 374.544 23.669 367.501 23.1944C360.479 22.7306 353.058 20.7243 346.252 16.6795L346.101 16.5932L346.198 16.4422C348.797 12.2032 352.745 8.65449 357.394 6.15208C362.054 3.63888 367.404 2.09644 372.991 1.68656C378.589 1.2659 384.371 1.82679 390.141 3.07799C393.021 3.69281 395.912 4.45863 398.803 5.35389C401.683 6.24915 404.616 7.17678 407.378 8.64371C410.128 10.0783 412.695 12.16 414.292 14.9645C415.079 16.3667 415.651 17.9199 415.791 19.5486C415.964 21.1774 415.64 22.8492 414.993 24.3593C413.645 27.4226 410.883 29.5906 407.982 31.1331C405.048 32.6971 401.801 33.6786 398.533 34.4445C385.449 37.648 371.168 38.1765 356.963 35.5015C356.067 35.3505 355.194 35.1456 354.309 34.9514C353.425 34.7681 352.54 34.5631 351.656 34.3366C349.887 33.9159 348.107 33.4413 346.403 32.7294C344.699 32.0391 343.038 31.1439 341.603 29.9142C340.179 28.6954 339.014 27.0343 338.702 25.1143C338.346 23.216 338.853 21.1989 339.91 19.6026C340.945 17.9846 342.39 16.6903 343.933 15.5793C345.486 14.4683 347.19 13.5946 348.905 12.7964C349.757 12.365 350.631 11.9982 351.516 11.6207C352.389 11.2324 353.274 10.8765 354.18 10.5529C361.353 7.86709 369.086 6.36781 376.939 6.24916C380.865 6.18444 384.824 6.45409 388.75 7.06891C389.731 7.21992 390.713 7.38171 391.684 7.59744C392.654 7.80238 393.636 7.99653 394.596 8.26619C396.537 8.74078 398.479 9.30167 400.323 10.1214C402.179 10.9196 403.969 11.9443 405.501 13.3034C407.033 14.6517 408.284 16.4314 408.769 18.47L408.931 19.2358L408.996 20.0124C409.071 20.5302 408.985 21.0587 408.963 21.5764C408.801 22.6011 408.543 23.6366 408.057 24.5642C407.162 26.4626 405.717 28.0159 404.153 29.3533C402.578 30.6908 400.809 31.8018 398.975 32.751C398.058 33.2364 397.109 33.6463 396.16 34.0454C395.222 34.466 394.262 34.8436 393.291 35.2211C389.44 36.7204 385.46 37.95 381.394 38.8776C373.261 40.7652 364.794 41.4771 356.326 40.9486C352.098 40.6789 347.794 39.7945 343.998 37.7019C342.121 36.6449 340.373 35.2426 339.176 33.3874C338 31.5322 337.45 29.2886 337.623 27.0882C337.774 25.2761 338.432 23.5503 339.381 22.0403C340.33 20.5194 341.528 19.1819 342.843 18.017C345.497 15.6764 348.614 13.9398 351.828 12.6131C358.246 9.88413 365.085 8.26619 371.945 7.75923C375.375 7.51115 378.816 7.53272 382.224 7.83474C383.928 7.98575 385.622 8.20147 387.294 8.4927C388.966 8.76236 390.659 9.1183 392.266 9.68997C393.873 10.2616 395.448 10.9628 396.84 11.9767C398.231 12.969 399.482 14.2634 400.14 15.8921C400.841 17.4884 400.863 19.3545 400.302 20.9832C399.752 22.6227 398.706 24.0465 397.444 25.1791C394.855 27.4657 391.511 28.4257 388.329 29.1916C385.126 29.9574 381.933 30.7124 378.74 31.4135C372.365 32.8265 365.969 34.013 359.562 34.52C353.166 35.0593 346.748 34.822 340.557 33.6031C334.387 32.3735 328.455 30.076 323.363 26.5921L323.083 26.3979L323.331 26.1714C332.197 18.3621 343.253 13.6917 354.363 12.0953C365.495 10.4882 376.766 11.9335 386.539 16.248C387.736 16.8521 388.89 17.5532 389.904 18.4376C390.918 19.3113 391.792 20.4115 392.234 21.7059C392.665 23.011 392.59 24.4456 392.04 25.6968C391.479 26.9372 390.54 27.9296 389.494 28.7277C387.391 30.3241 384.91 31.1762 382.505 31.9852C380.078 32.7618 377.608 33.3443 375.138 33.7326C370.176 34.4876 365.193 34.4984 360.404 33.7434C359.206 33.5168 357.977 33.1825 356.995 32.3627C356.003 31.5645 355.517 30.2055 355.755 28.965C356.024 27.7246 356.79 26.7107 357.642 25.8802C358.505 25.0388 359.508 24.3809 360.555 23.8416C369.097 19.9909 378.298 18.7936 386.841 19.7212C388.976 19.9585 391.09 20.3576 393.064 21.1558C395.027 21.9324 396.84 23.162 398.069 24.8555C399.299 26.5273 400.021 28.6091 399.784 30.6585C399.558 32.7295 398.253 34.466 396.764 35.728C395.265 37.0116 393.571 37.9392 391.921 38.8884C390.249 39.7837 388.556 40.6034 386.83 41.2722C383.4 42.642 379.916 43.5804 376.475 44.1305C369.593 45.2415 362.949 44.7885 357.071 43.2892L356.876 43.2353L356.995 43.0735C359.853 39.1473 363.79 36.4831 367.792 35.0161C371.805 33.5492 375.925 33.204 379.571 33.862C381.394 34.1532 383.13 34.7465 384.554 35.728C385.255 36.2242 385.87 36.8282 386.312 37.5293C386.744 38.2304 387.035 39.0178 387.11 39.8052C387.283 41.3908 386.7 42.8793 385.924 44.055C385.147 45.2523 384.144 46.1691 383.141 46.935C381.102 48.4666 378.934 49.1138 377.176 49.8365C375.396 50.516 373.919 51.1416 372.808 51.778C371.697 52.4144 370.931 53.0292 370.467 53.4715C370.219 53.6872 370.068 53.8813 369.949 53.9892C369.831 54.1078 369.777 54.1618 369.777 54.1618C369.777 54.1618 369.982 53.9029 370.446 53.4391C370.909 52.9753 371.664 52.3605 372.775 51.7025C373.886 51.0553 375.364 50.4081 377.144 49.7178C378.902 48.9951 381.059 48.3264 383.065 46.8055C384.058 46.0505 385.039 45.1229 385.794 43.958C386.56 42.8038 387.11 41.3585 386.938 39.8268C386.862 39.061 386.582 38.3167 386.161 37.6372C385.73 36.9685 385.136 36.386 384.446 35.9006C383.055 34.9514 381.35 34.369 379.549 34.0777C375.936 33.4413 371.859 33.7973 367.889 35.2534C363.941 36.7204 360.048 39.363 357.232 43.2461L357.157 43.0303C363.003 44.5081 369.615 44.9503 376.443 43.8285C379.851 43.2676 383.314 42.3292 386.722 40.9702C388.437 40.3014 390.109 39.4817 391.77 38.5972C393.399 37.6588 395.092 36.7312 396.548 35.4692C398.004 34.2395 399.223 32.5892 399.439 30.6369C399.655 28.6954 398.975 26.6999 397.778 25.1036C396.602 23.4748 394.844 22.2991 392.935 21.5333C391.015 20.7567 388.933 20.3684 386.819 20.1311C378.363 19.2143 369.205 20.4331 360.77 24.2407C359.756 24.7692 358.786 25.4056 357.966 26.2038C357.146 26.9911 356.434 27.9619 356.208 29.0621C356.003 30.1515 356.423 31.338 357.308 32.0499C358.182 32.7834 359.346 33.1178 360.511 33.3227C365.247 34.0669 370.197 34.0562 375.105 33.3011C377.554 32.9128 380.002 32.3304 382.407 31.5645C384.791 30.7556 387.229 29.9142 389.257 28.3718C390.26 27.606 391.144 26.6676 391.651 25.5242C392.147 24.3809 392.212 23.065 391.824 21.8785C391.414 20.692 390.605 19.6565 389.624 18.8152C388.653 17.963 387.531 17.2835 386.355 16.6903C376.702 12.4405 365.484 10.9951 354.46 12.6023C343.447 14.1986 332.489 18.8367 323.709 26.5705L323.687 26.1606C328.713 29.6014 334.581 31.8665 340.697 33.0854C346.824 34.2935 353.187 34.52 359.551 33.9807C365.915 33.4737 372.279 32.2872 378.654 30.885C381.836 30.1839 385.029 29.4289 388.232 28.663C391.392 27.8972 394.65 26.9372 397.109 24.7692C398.317 23.6906 399.299 22.3315 399.817 20.7998C400.334 19.279 400.313 17.5747 399.666 16.097C399.061 14.5977 397.886 13.3789 396.559 12.4189C395.222 11.4481 393.69 10.7578 392.126 10.2077C390.551 9.64683 388.912 9.30167 387.24 9.03201C385.579 8.74078 383.896 8.52506 382.213 8.38484C378.837 8.08282 375.429 8.06125 372.031 8.32012C365.225 8.81629 358.451 10.4234 352.087 13.1308C348.895 14.4467 345.842 16.151 343.253 18.4376C340.708 20.7028 338.507 23.6906 338.216 27.1422C338.054 29.2131 338.572 31.338 339.683 33.0854C340.805 34.8436 342.487 36.1918 344.3 37.2165C347.988 39.2444 352.217 40.1288 356.391 40.3877C364.804 40.9162 373.218 40.2043 381.297 38.3383C385.341 37.4215 389.289 36.2026 393.118 34.7033C394.078 34.3366 395.027 33.9483 395.966 33.5384C396.915 33.1393 397.843 32.7294 398.749 32.2549C400.55 31.3272 402.287 30.2378 403.818 28.9327C405.339 27.6275 406.731 26.1175 407.583 24.3269C408.046 23.4533 408.284 22.4825 408.435 21.5117C408.456 21.0263 408.532 20.5302 408.467 20.0448L408.413 19.3113L408.262 18.5886C407.82 16.6795 406.644 14.9968 405.167 13.7025C403.689 12.3973 401.952 11.3942 400.129 10.6176C398.317 9.81941 396.408 9.25853 394.488 8.79472C393.539 8.52506 392.568 8.33091 391.597 8.13675C390.637 7.92103 389.656 7.74845 388.685 7.60822C384.791 6.99341 380.865 6.72375 376.971 6.78847C369.173 6.90712 361.504 8.38484 354.396 11.049C353.5 11.3618 352.616 11.7178 351.753 12.1061C350.879 12.4728 350.006 12.8396 349.164 13.271C347.449 14.0692 345.777 14.9321 344.267 16.0107C342.757 17.0894 341.366 18.3514 340.373 19.883C339.37 21.4039 338.906 23.2591 339.241 25.0281C339.532 26.8078 340.611 28.361 341.97 29.5259C343.34 30.7016 344.958 31.5753 346.629 32.2549C348.301 32.956 350.049 33.4198 351.818 33.8404C352.691 34.0669 353.576 34.2827 354.46 34.4552C355.345 34.6386 356.218 34.8543 357.103 34.9946C371.233 37.6588 385.449 37.1518 398.468 33.9699C401.736 33.204 404.918 32.2441 407.809 30.7016C410.668 29.1916 413.332 27.0667 414.615 24.1544C415.23 22.709 415.532 21.1234 415.381 19.5702C415.241 18.017 414.702 16.5177 413.936 15.1694C412.393 12.4513 409.912 10.4234 407.205 9.01044C404.498 7.57587 401.575 6.63746 398.706 5.75299C395.826 4.85773 392.956 4.0919 390.077 3.47709C384.338 2.22588 378.589 1.66499 373.045 2.07487C367.501 2.48475 362.205 4.00561 357.588 6.47567C352.983 8.94572 349.078 12.4405 346.511 16.6148L346.446 16.3667C353.187 20.4007 360.555 22.407 367.533 22.8708C374.534 23.3562 381.167 22.2344 386.916 20.1419C389.818 19.1603 392.46 17.7042 394.402 15.644C395.34 14.6085 396.084 13.3897 396.343 12.0737C396.57 10.7686 396.376 9.38796 395.718 8.28776C395.092 7.16599 394.089 6.33544 393.032 5.69905C391.964 5.07345 390.821 4.642 389.688 4.3292C388.556 4.00561 387.412 3.82225 386.291 3.7036C385.18 3.55259 384.079 3.47709 383.022 3.42316C374.469 3.06721 368.029 5.14896 363.985 6.8424C361.935 7.69452 360.457 8.50349 359.476 9.05359C358.484 9.61447 357.977 9.89492 357.977 9.89492Z" fill="#263238"/>
</g>
</svg>
