<svg width="693" height="426" viewBox="0 0 693 426" fill="none" xmlns="http://www.w3.org/2000/svg">
<mask id="mask0_150_3020" style="mask-type:alpha" maskUnits="userSpaceOnUse" x="0" y="0" width="693" height="426">
<rect width="693" height="425.109" rx="21.2953" fill="#F7F7F7"/>
</mask>
<g mask="url(#mask0_150_3020)">
<rect width="693" height="425.109" rx="21.2953" fill="#F7F7F7"/>
<path d="M378.609 -47.7659H58.6279V238.516H378.609V-47.7659Z" fill="#FAFAFA"/>
<path d="M378.607 238.501C378.607 238.501 378.561 236.666 378.53 233.18C378.515 229.664 378.484 224.528 378.453 217.835C378.407 204.401 378.345 184.752 378.268 159.721C378.176 109.704 378.052 38.2336 377.898 -47.7959L378.623 -47.071C286.47 -47.0401 176.489 -46.9939 58.6572 -46.9476H58.6264L59.4746 -47.7959C59.4438 56.3557 59.3975 154.369 59.3667 238.486L58.6264 237.761C154.079 237.915 233.986 238.054 290.064 238.147C318.118 238.239 340.22 238.301 355.334 238.347C362.876 238.393 368.66 238.409 372.608 238.44C374.551 238.455 376.016 238.47 377.065 238.486C378.083 238.486 378.607 238.501 378.607 238.501C378.607 238.501 378.129 238.532 377.158 238.548C376.14 238.563 374.69 238.578 372.778 238.594C368.86 238.609 363.107 238.64 355.643 238.686C340.559 238.733 318.519 238.794 290.542 238.887C234.341 238.979 154.28 239.103 58.6264 239.272H57.8707V238.517C57.8398 154.4 57.809 56.3865 57.7627 -47.765V-48.6133H58.6264H58.6572C176.489 -48.567 286.455 -48.5207 378.623 -48.4899H379.348V-47.765C379.193 38.4496 379.07 110.074 378.978 160.214C378.9 185.169 378.839 204.756 378.792 218.158C378.762 224.79 378.731 229.88 378.715 233.365C378.669 236.774 378.607 238.501 378.607 238.501Z" fill="#E0E0E0"/>
<path d="M181.322 3.09945C181.322 3.57756 164.48 3.94771 143.706 3.94771C122.931 3.94771 106.089 3.56214 106.089 3.09945C106.089 2.62134 122.931 2.25118 143.706 2.25118C164.48 2.23576 181.322 2.62134 181.322 3.09945Z" fill="#E0E0E0"/>
<path d="M316.903 24.5839C316.903 25.062 270.634 25.4321 213.569 25.4321C156.489 25.4321 110.22 25.0466 110.22 24.5839C110.22 24.1058 156.489 23.7356 213.569 23.7356C270.634 23.7356 316.903 24.1212 316.903 24.5839Z" fill="#E0E0E0"/>
<path d="M120.119 60.998H106.64V74.4777H120.119V60.998Z" fill="#E0E0E0"/>
<path d="M153.293 60.9983H139.813V74.478H153.293V60.9983Z" fill="#E0E0E0"/>
<path d="M187.1 60.3809H173.62V73.8606H187.1V60.3809Z" fill="#E0E0E0"/>
<path d="M219.673 60.9983H206.193V74.478H219.673V60.9983Z" fill="#E0E0E0"/>
<path d="M252.85 60.998H239.37V74.4777H252.85V60.998Z" fill="#E0E0E0"/>
<path d="M286.039 60.998H272.56V74.4777H286.039V60.998Z" fill="#E0E0E0"/>
<path d="M319.217 60.9983H305.737V74.478H319.217V60.9983Z" fill="#EBEBEB"/>
<path d="M120.119 89.6538H106.64V103.133H120.119V89.6538Z" fill="#EBEBEB"/>
<path d="M153.293 89.6536H139.813V103.133H153.293V89.6536Z" fill="#E0E0E0"/>
<path d="M186.486 89.6536H173.006V103.133H186.486V89.6536Z" fill="#EBEBEB"/>
<path d="M219.673 89.6536H206.193V103.133H219.673V89.6536Z" fill="#E0E0E0"/>
<path d="M252.85 89.6538H239.37V103.133H252.85V89.6538Z" fill="#E0E0E0"/>
<path d="M286.657 89.0525H273.178V102.532H286.657V89.0525Z" fill="#E0E0E0"/>
<path d="M319.217 89.6536H305.737V103.133H319.217V89.6536Z" fill="#E0E0E0"/>
<path d="M120.119 118.325H106.64V131.805H120.119V118.325Z" fill="#E0E0E0"/>
<path d="M153.911 117.708H140.432V131.188H153.911V117.708Z" fill="#E0E0E0"/>
<path d="M186.486 118.326H173.006V131.806H186.486V118.326Z" fill="#E0E0E0"/>
<path d="M219.673 118.326H206.193V131.806H219.673V118.326Z" fill="#EBEBEB"/>
<path d="M252.85 118.325H239.37V131.805H252.85V118.325Z" fill="#E0E0E0"/>
<path d="M286.039 118.325H272.56V131.805H286.039V118.325Z" fill="#E0E0E0"/>
<path d="M319.217 118.326H305.737V131.806H319.217V118.326Z" fill="#E0E0E0"/>
<path d="M120.119 146.981H106.64V160.461H120.119V146.981Z" fill="#E0E0E0"/>
<path d="M153.293 146.981H139.813V160.461H153.293V146.981Z" fill="#E0E0E0"/>
<path d="M186.486 146.981H173.006V160.461H186.486V146.981Z" fill="#E0E0E0"/>
<path d="M220.279 146.364H206.799V159.844H220.279V146.364Z" fill="#E0E0E0"/>
<path d="M252.85 146.981H239.37V160.461H252.85V146.981Z" fill="#E0E0E0"/>
<path d="M286.039 146.981H272.56V160.461H286.039V146.981Z" fill="#EBEBEB"/>
<path d="M319.217 146.981H305.737V160.461H319.217V146.981Z" fill="#E0E0E0"/>
<path d="M120.119 175.637H106.64V189.117H120.119V175.637Z" fill="#E0E0E0"/>
<path d="M153.293 175.637H139.813V189.117H153.293V175.637Z" fill="#EBEBEB"/>
<path d="M186.486 175.637H173.006V189.117H186.486V175.637Z" fill="#E0E0E0"/>
<path d="M219.673 175.637H206.193V189.117H219.673V175.637Z" fill="#E0E0E0"/>
<path d="M252.85 175.637H239.37V189.117H252.85V175.637Z" fill="#E0E0E0"/>
<path d="M286.657 175.02H273.178V188.5H286.657V175.02Z" fill="#E0E0E0"/>
<path d="M319.217 175.637H305.737V189.117H319.217V175.637Z" fill="#E0E0E0"/>
<path d="M611.943 242.077C627.356 234.12 645.522 233.086 662.636 235.922C671.827 237.44 681.419 240.192 687.674 247.098C693.929 254.004 695.114 266.164 687.924 272.102C683.654 275.639 677.682 276.173 672.128 276.106C658.733 275.956 643.853 273.587 633.144 281.661C627.039 286.265 622.969 293.904 615.663 296.173C608.523 298.392 600.45 294.171 596.663 287.716C592.877 281.26 592.743 273.203 594.511 265.93C594.545 265.93 596.413 250.084 611.943 242.077Z" fill="#E3EDE3"/>
<path d="M576.611 173.869C586.036 187.33 604.368 182.876 612.859 174.653C621.349 166.429 624.952 154.519 628.222 143.159C635.695 117.204 643.218 89.9639 637.663 63.5246C635.995 55.6179 633.043 47.7445 627.488 41.8728C621.933 36.0178 613.393 32.5148 605.586 34.5833C596.345 37.0187 590.607 46.0764 586.453 54.6837C574.259 79.9887 567.787 108.046 567.704 136.137C567.67 149.281 569.205 163.043 576.611 173.869Z" fill="#E3EDE3"/>
<path d="M550.729 193.202C560.972 181.059 562.907 163.327 558.353 148.114C553.799 132.884 543.507 119.94 531.647 109.364C517.735 96.9702 501.387 87.3286 483.822 81.14C476.9 78.7046 469.61 76.7863 462.304 77.4869C454.998 78.1875 447.658 81.9073 444.255 88.4129C439.218 98.0211 444.055 109.664 449.26 119.156C458.451 135.887 468.976 151.9 480.67 166.997C490.078 179.14 500.87 191.117 515.216 196.605C529.561 202.093 544.474 201.443 552.081 191.501" fill="#E3EDE3"/>
<path d="M575.981 377.043C576.165 377.06 576.449 374.874 576.832 370.921C577.266 366.467 577.816 360.879 578.45 354.223C579.234 347.201 580.252 338.827 582.203 329.719C584.155 320.628 587.191 310.786 591.111 300.811C595.164 290.886 600.102 281.862 605.874 274.656C611.612 267.416 618.268 262.162 624.54 259.142C630.778 256.056 636.383 254.805 640.253 254.255C644.156 253.854 646.341 253.554 646.341 253.371C646.341 253.204 644.156 253.171 640.136 253.271C636.166 253.538 630.328 254.538 623.739 257.541C617.133 260.477 610.061 265.798 604.055 273.188C598 280.561 592.879 289.768 588.759 299.877C584.772 310.036 581.786 319.978 579.918 329.269C578.067 338.527 577.216 346.984 576.665 354.073C576.132 361.163 575.931 366.901 575.831 370.871C575.765 374.824 575.815 377.026 575.981 377.043Z" fill="#263238"/>
<path d="M577.131 364.182C577.214 364.182 577.265 363.197 577.298 361.346C577.298 359.211 577.281 356.525 577.281 353.222C577.264 346.183 577.264 335.974 577.648 323.38C578.265 298.192 580.434 271.085 584.621 232.87C588.591 196.939 593.912 155.12 599.533 127.93C600.735 121.741 601.952 116.187 603.087 111.316C604.171 106.428 605.105 102.225 606.006 98.8218C606.773 95.6191 607.407 93.0002 607.907 90.9318C608.308 89.1135 608.491 88.1461 608.408 88.1294C608.324 88.1127 607.991 89.0301 607.424 90.7983C606.806 92.8501 606.022 95.4189 605.072 98.5716C604.021 101.941 602.953 106.128 601.735 110.999C600.468 115.853 599.117 121.408 597.799 127.58C592.244 152.217 586.356 186.647 582.119 224.963C577.915 263.262 576.03 298.125 575.863 323.38C575.713 336.007 575.98 346.233 576.297 353.272C576.497 356.575 576.664 359.261 576.797 361.396C576.931 363.214 577.048 364.182 577.131 364.182Z" fill="#263238"/>
<path d="M577.301 296.941C577.485 296.941 577.451 293.921 577.234 288.45C576.918 282.995 576.167 275.122 574.632 265.464C572.998 255.839 570.729 244.396 567.159 231.985C565.608 226.314 561.971 212.702 553.164 192.368C541.554 164.811 525.774 142.292 512.046 128.347C508.826 124.644 505.24 121.975 502.371 119.356C500.886 118.105 499.568 116.854 498.234 115.853C496.883 114.919 495.648 114.068 494.481 113.267C489.96 110.181 487.425 108.547 487.341 108.697C486.941 109.247 497.466 115.436 510.744 129.581C523.972 143.693 539.319 166.062 550.845 193.386C557.267 208.198 561.755 221.426 564.924 232.636C568.594 244.946 571.029 256.256 572.881 265.781C574.632 275.339 575.65 283.129 576.25 288.534C576.767 293.938 577.134 296.941 577.301 296.941Z" fill="#263238"/>
<path d="M143.797 424.97C153.222 438.431 171.554 433.977 180.044 425.754C188.535 417.53 192.138 405.62 195.407 394.26C202.881 368.305 210.404 341.065 204.849 314.625C203.181 306.719 200.228 298.845 194.674 292.974C189.119 287.119 180.578 283.616 172.772 285.684C163.53 288.119 157.792 297.177 153.639 305.785C141.445 331.09 134.973 359.147 134.889 387.237C134.856 400.382 136.39 414.144 143.797 424.97Z" fill="#E3EDE3"/>
<path d="M117.91 444.303C128.152 432.159 130.087 414.427 125.533 399.214C120.979 383.985 110.687 371.04 98.8272 360.465C84.9153 348.071 68.568 338.429 51.003 332.241C44.0805 329.805 36.7909 327.887 29.4847 328.587C22.1785 329.288 14.8388 333.008 11.4359 339.513C6.39831 349.122 11.2358 360.765 16.4402 370.256C25.6314 386.987 36.1571 403.001 47.8504 418.097C57.2584 430.241 68.0509 442.218 82.3965 447.706C96.7421 453.194 111.655 452.543 119.261 442.601" fill="#E3EDE3"/>
<path d="M144.312 615.281C144.395 615.281 144.445 614.297 144.479 612.446C144.479 610.31 144.462 607.625 144.462 604.322C144.445 597.283 144.445 587.074 144.829 574.48C145.446 549.292 147.615 522.185 151.801 483.969C155.771 448.039 161.093 406.22 166.714 379.03C167.915 372.841 169.133 367.286 170.267 362.416C171.351 357.528 172.286 353.325 173.186 349.922C173.954 346.719 174.588 344.1 175.088 342.032C175.488 340.213 175.672 339.246 175.588 339.229C175.505 339.213 175.171 340.13 174.604 341.898C173.987 343.95 173.203 346.519 172.252 349.671C171.201 353.041 170.134 357.228 168.916 362.099C167.648 366.953 166.297 372.508 164.979 378.68C159.425 403.317 153.536 437.747 149.299 476.063C145.096 514.362 143.211 549.225 143.044 574.48C142.894 587.107 143.161 597.333 143.478 604.372C143.678 607.675 143.845 610.361 143.978 612.496C144.112 614.314 144.228 615.281 144.312 615.281Z" fill="#263238"/>
<path d="M144.48 548.042C144.663 548.042 144.63 545.022 144.413 539.551C144.096 534.096 143.346 526.223 141.811 516.565C140.176 506.94 137.908 495.497 134.338 483.086C132.787 477.415 129.15 463.803 120.343 443.469C108.733 415.912 92.9526 393.393 79.2242 379.448C76.0048 375.745 72.4184 373.076 69.5493 370.457C68.0647 369.206 66.7469 367.955 65.4125 366.954C64.0613 366.02 62.8269 365.169 61.6593 364.368C57.1387 361.282 54.6032 359.648 54.5198 359.798C54.1195 360.348 64.6451 366.537 77.9231 380.682C91.1511 394.794 106.497 417.163 118.024 444.487C124.446 459.299 128.933 472.527 132.103 483.737C135.772 496.047 138.208 507.357 140.059 516.882C141.811 526.44 142.828 534.23 143.429 539.635C143.946 545.039 144.313 548.042 144.48 548.042Z" fill="#263238"/>
<path d="M512.295 419.964L519.034 512.292H637.635L644.374 419.964H512.295Z" fill="#E0E0E0"/>
<path d="M658.515 383.583H500.83V419.981H658.515V383.583Z" fill="#E0E0E0"/>
<path d="M646.018 419.363C646.018 419.763 616.293 420.097 579.645 420.097C542.98 420.097 513.271 419.763 513.271 419.363C513.271 418.963 542.98 418.629 579.645 418.629C616.309 418.629 646.018 418.946 646.018 419.363Z" fill="#F5F5F5"/>
<path d="M294.799 138.257C294.799 138.257 296.477 130.927 293.497 125.136C290.519 119.344 289.431 113.97 286.967 109.809C284.503 105.649 283.972 112.006 284.305 115.522C284.637 119.037 284.981 123.021 282.62 122.616C280.26 122.212 263.183 107.881 259.891 107.737C256.598 107.592 258.801 110.82 258.801 110.82C258.801 110.82 254.955 107.638 253.109 108.862C251.263 110.088 253.218 112.853 253.218 112.853C253.218 112.853 250.578 110.81 249.696 112.95C248.816 115.088 262.129 129.288 261.215 130.254C260.301 131.218 255.321 121.019 252.765 122.029C250.208 123.038 254.817 128.315 257.998 132.926C261.18 137.536 265.75 141.405 270.725 142.913C275.7 144.421 283.602 149.841 287.959 145.961C292.32 142.083 294.799 138.257 294.799 138.257Z" fill="#E69892"/>
<path d="M253.366 112.235C257.911 116.047 262.34 120.013 266.631 124.108C267.139 124.592 266.304 125.292 265.803 124.813C261.577 120.782 257.219 116.881 252.744 113.127C252.21 112.68 252.828 111.785 253.366 112.235Z" fill="#B86166"/>
<path d="M259.112 110.806C262.817 113.377 266.19 116.33 269.228 119.661C269.702 120.18 268.87 120.882 268.4 120.366C265.422 117.104 262.116 114.215 258.488 111.697C257.914 111.298 258.536 110.406 259.112 110.806Z" fill="#B86166"/>
<path d="M263.458 128.258C265.39 124.138 268.185 120.611 271.777 117.816C272.33 117.386 273.035 118.214 272.483 118.644C269.041 121.321 266.33 124.684 264.479 128.633C264.186 129.262 263.161 128.893 263.458 128.258Z" fill="#B86166"/>
<path d="M272.715 125.278C279.373 126.498 284.341 131.407 285.618 138.065C285.749 138.754 284.679 138.944 284.546 138.255C283.367 132.106 278.778 127.489 272.613 126.36C271.931 126.236 272.025 125.151 272.715 125.278Z" fill="#B86166"/>
<path d="M284.197 147.152C284.197 147.152 320.712 192.157 347.24 204.244C363.755 211.769 422.058 188.694 422.058 188.694C433.795 178.076 423.439 156.741 414.725 154.03C414.725 154.03 368.94 172.756 361.231 174.427C353.521 176.099 294.197 137.573 294.197 137.573L284.197 147.152Z" fill="#E69892"/>
<path d="M361.136 175.514C359.695 178.418 358.256 181.321 356.815 184.225C356.4 185.063 355.147 184.327 355.56 183.493C357.001 180.588 358.442 177.686 359.882 174.782C360.297 173.944 361.549 174.68 361.136 175.514Z" fill="#B86166"/>
<path d="M606.851 571.775C607.384 571.775 607.924 571.666 608.442 571.437C610.429 570.557 611.327 568.232 610.447 566.245L538.111 402.888C537.231 400.901 534.906 400.004 532.919 400.882C530.932 401.762 530.034 404.087 530.914 406.074L603.25 569.432C603.9 570.9 605.341 571.775 606.851 571.775Z" fill="#263238"/>
<path d="M372.063 571.775C373.573 571.775 375.012 570.902 375.664 569.432L448 406.074C448.88 404.087 447.982 401.762 445.995 400.882C444.006 400.002 441.683 400.901 440.803 402.888L368.467 566.246C367.587 568.233 368.484 570.557 370.472 571.437C370.99 571.666 371.53 571.775 372.063 571.775Z" fill="#263238"/>
<path d="M450.997 244.639C531.716 149.274 679.339 257.253 612.415 362.758C611.748 363.808 611.066 364.861 610.367 365.918C549.19 458.319 403.799 408.256 403.799 408.256C403.799 408.256 384.408 370.088 400.996 329.801C408.158 312.414 423.827 276.742 450.997 244.639Z" fill="#263238"/>
<path d="M585.681 227.34C599.805 245.435 609.101 267.403 611.523 290.279C613.893 312.66 608.567 335.179 597.489 354.686C586.726 373.633 570.316 390.364 550.484 399.736C529.311 409.743 505.313 411.949 482.21 412.81C454.716 413.837 426.949 408.868 400.886 400.262C399.561 399.825 400.128 397.721 401.465 398.161C424.018 405.608 447.902 410.365 471.689 410.775C483.149 410.971 494.74 410.237 506.127 408.967C517.683 407.679 529.229 405.511 540.212 401.617C581.337 387.037 610.514 343.427 609.933 300.021C609.59 274.397 599.847 248.999 584.142 228.881C583.287 227.787 584.818 226.235 585.681 227.34Z" fill="white"/>
<path d="M482.995 261.78C512.37 231.501 564.045 243.88 575.497 284.481C579.03 297.015 578.147 310.856 569.297 325.375C535.312 381.127 396.31 351.134 396.31 351.134L482.995 261.78Z" fill="white"/>
<path d="M333.797 356.413L288.964 542.078C288.964 542.078 299.512 548.262 309.672 542.992L368.59 394.366C363.615 378.245 344.484 341.91 333.797 356.413Z" fill="#E69892"/>
<path d="M527.815 295.944C527.815 295.944 542.948 339.885 515.888 353.063C473.352 373.779 382.991 354.568 382.991 354.568C382.991 354.568 388.722 374.581 399.542 425.05C410.364 475.519 414.835 544.506 414.835 544.506L398.62 545.488C398.62 545.488 322.117 353.903 321.271 324.52C320.426 295.136 446.919 290.746 446.919 290.746L527.815 295.944Z" fill="#E69892"/>
<path d="M332.607 365.496C338.796 387.571 347.374 408.87 354.858 430.517C355.154 431.374 353.799 431.741 353.505 430.89C346.02 409.243 337.443 387.944 331.253 365.869C331.01 364.999 332.363 364.626 332.607 365.496Z" fill="#B86166"/>
<path d="M452.908 142.579C452.908 142.579 466.317 142.545 475.245 147.643C491.183 156.741 523.887 249.283 530.56 284.933C539.707 333.803 424.657 292.082 424.657 292.082C424.657 292.082 446.808 279.021 429.632 246.492C420.438 229.076 406.492 230.891 406.492 213.383C406.492 198.042 415.849 191.177 409.413 176.238C402.975 161.3 410.948 148.217 430.08 145.399C444.332 143.298 452.908 142.579 452.908 142.579Z" fill="#74A475"/>
<path d="M425.749 184.04C424.512 194.48 416.543 200.428 407.585 204.304C407.755 203.559 407.943 202.838 408.136 202.131C415.725 198.661 422.295 193.483 423.829 184.671C425.76 173.613 417.052 168.016 407.75 165.006C407.829 164.321 407.943 163.649 408.096 162.984C411.838 164.086 415.406 165.643 418.525 168.102C423.434 171.958 426.499 177.706 425.749 184.04Z" fill="white"/>
<path d="M484.685 198.164C475.346 203.453 472.395 215.221 476.671 224.778C481.633 235.865 493.477 241.1 505.107 241.137C506.276 241.141 506.278 239.323 505.107 239.32C494.722 239.288 484.154 235.01 479.043 225.497C474.244 216.565 476.466 204.906 485.602 199.733C486.619 199.157 485.704 197.588 484.685 198.164Z" fill="white"/>
<path d="M477.404 183.32C475.145 199.538 455.947 201.258 443.138 202.434C429.967 203.645 415.939 207.443 406.704 216.891C406.607 216.158 406.546 215.382 406.516 214.564V214.558C413.953 207.557 424.091 203.541 434.235 201.761C442.653 200.282 451.417 200.64 459.683 198.358C467.229 196.268 474.502 191.071 475.652 182.841C475.81 181.686 477.56 182.181 477.404 183.32Z" fill="white"/>
<path d="M436.147 270.481C436.177 269.561 436.171 268.598 436.117 267.616V267.611C439.859 262.372 441.209 255.527 438.95 248.915C436.085 240.52 428.557 235.409 420.461 234.865C419.741 234.21 419.02 233.598 418.311 233.01C427.687 232.727 436.819 238.121 440.41 247.613C443.492 255.759 441.44 264.413 436.147 270.481Z" fill="white"/>
<path d="M441.173 288.33C446.188 273.729 454.764 257.846 471.31 254.556C479.989 252.831 487.035 256.568 494.256 260.895C500.353 264.546 506.873 267.845 514.174 266.565C515.323 266.364 514.836 264.612 513.69 264.813C503.935 266.521 496.177 259.245 488.026 255.255C481.364 251.993 474.201 251.391 467.148 253.8C452.055 258.956 444.287 273.675 439.419 287.846C439.042 288.954 440.795 289.431 441.173 288.33Z" fill="white"/>
<path d="M420.558 161.355C427.455 167.311 436.611 169.555 445.477 167.427C446.396 167.205 446.008 165.789 445.086 166.009C436.76 168.008 428.081 165.917 421.596 160.317C420.884 159.701 419.841 160.735 420.558 161.355Z" fill="#467B5B"/>
<path d="M478.117 184.737C487.036 200.316 495.33 216.259 501.955 232.959C508.267 248.872 513.099 265.305 517.627 281.797C517.877 282.708 519.295 282.321 519.045 281.406C514.432 264.608 509.504 247.867 503.018 231.681C496.405 215.18 488.21 199.409 479.386 183.993C478.917 183.175 477.647 183.914 478.117 184.737Z" fill="#467B5B"/>
<path d="M407.027 78.2393C407.027 78.2393 390.033 84.3212 390.84 95.9038C392.229 115.848 399.914 119.837 395.38 126.36C389.737 134.483 389.645 139.401 396.121 147.394C402.127 154.808 418.823 150.878 418.823 150.878L477.502 136.482C476.027 136.791 465.308 129.159 465.355 121.51C465.404 113.353 468.219 110.09 462.093 104.194C457.953 100.21 451.851 102.936 448.923 96.4027C445.996 89.869 446.424 85.4717 439.235 78.5332C434.547 74.0083 421.359 67.3117 407.027 78.2393Z" fill="#151515"/>
<path d="M407.864 131.458C408.675 133.645 407.562 136.075 405.375 136.887C403.188 137.698 400.757 136.584 399.946 134.397C399.135 132.211 400.249 129.78 402.435 128.969C404.622 128.158 407.053 129.273 407.864 131.458Z" fill="white"/>
<path d="M451.242 143.542C449.653 146.313 433.042 171.264 423.863 156.176L422.877 149.555L421.516 139.804L420.562 132.978L436.493 115.309L451.242 143.542Z" fill="#E69892"/>
<path d="M435.662 127.277C432.556 145.926 426.347 154.195 423.597 154.692L421.491 139.607L435.662 127.277Z" fill="#2C2F37"/>
<path d="M441.641 108.758C441.454 115.772 440.166 118.404 437.01 125.999C434.192 132.778 427.572 137.565 423.884 138.852C410.484 143.523 402.67 139.644 399.504 120.64C397.541 108.839 392.673 103.24 394.439 98.0235L394.444 98.0218C394.588 97.7648 394.733 97.5146 394.88 97.2677C398.433 91.3336 404.253 87.0942 410.927 85.2803C444.098 76.2557 441.91 98.6903 441.641 108.758Z" fill="#E69892"/>
<path d="M412.99 115.122C413.165 115.083 413.322 114.977 413.425 114.814C414.879 112.507 417.332 111.642 417.357 111.633C417.72 111.509 417.913 111.113 417.788 110.75C417.664 110.385 417.263 110.175 416.905 110.318C416.786 110.358 413.962 111.354 412.249 114.072C412.044 114.398 412.142 114.826 412.466 115.031C412.629 115.135 412.817 115.16 412.99 115.122Z" fill="#1C2F35"/>
<path d="M406.352 116.626C406.527 116.587 406.685 116.481 406.787 116.318C406.992 115.994 406.895 115.564 406.571 115.359C403.779 113.597 402.02 114.368 401.831 114.462C401.486 114.632 401.342 115.047 401.51 115.393C401.678 115.734 402.086 115.87 402.429 115.719C402.501 115.683 403.715 115.203 405.828 116.537C405.991 116.637 406.179 116.664 406.352 116.626Z" fill="#1C2F35"/>
<path d="M408.272 125.498C408.272 125.498 412.069 124.515 419.539 122.629C419.539 122.629 420.232 130.866 414.701 131.64C410.01 132.297 408.272 125.498 408.272 125.498Z" fill="white"/>
<path d="M404.505 93.6781C404.505 93.6781 403.661 105.738 394.083 107.369C394.083 107.369 388.162 93.3019 403.881 87.4921C419.601 81.6823 404.505 93.6781 404.505 93.6781Z" fill="#151515"/>
<path d="M403.154 88.0427C403.154 88.0427 401.906 98.7788 409.672 97.2739C417.437 95.769 418.578 97.5225 419.681 100.494C420.785 103.463 422.493 105.672 424.463 104.565C426.433 103.458 426.354 108.789 428.363 111.213C430.372 113.637 429.191 110.029 434.816 107.214C440.441 104.397 439.129 102.857 442.388 106.419C445.646 109.984 446.274 99.8572 441.582 91.9462C436.89 84.0352 424.196 71.8378 403.154 88.0427Z" fill="#151515"/>
<path d="M416.543 75.7803C416.543 75.7803 406.243 59.8138 425.967 54.3601C441.834 49.9729 453.323 72.9014 438.292 81.9915C423.263 91.0816 416.543 75.7803 416.543 75.7803Z" fill="#151515"/>
<path d="M416.759 73.9194C424.923 72.1054 433.556 74.5828 439.506 80.4665C439.986 80.9418 440.651 80.1255 440.172 79.6519C434.057 73.6053 425.064 71.0052 416.668 72.8713C416.016 73.0174 416.1 74.0655 416.759 73.9194Z" fill="white"/>
<path d="M425.051 114.984C425.282 115.98 423.918 117.149 422.007 117.593C420.094 118.036 418.357 117.588 418.125 116.592C417.894 115.596 419.258 114.427 421.171 113.983C423.082 113.54 424.82 113.988 425.051 114.984Z" fill="#B86166"/>
<path d="M405.47 120.604C405.702 121.604 404.338 122.771 402.429 123.213C401.528 123.421 400.667 123.433 399.985 123.283C399.812 122.433 399.647 121.553 399.494 120.639C399.486 120.601 399.481 120.562 399.474 120.53C400.013 120.137 400.751 119.801 401.591 119.606C403.5 119.163 405.239 119.61 405.47 120.604Z" fill="#B86166"/>
<path d="M414.364 133.982C415.844 134.119 417.303 133.782 418.167 132.487C418.603 131.83 417.564 131.185 417.127 131.84C416.51 132.766 415.434 132.855 414.413 132.759C413.628 132.685 413.583 133.909 414.364 133.982Z" fill="#B86166"/>
<path d="M412.617 106.238C413.85 105.407 415.706 105.22 416.646 106.601C417.523 107.889 419.686 106.739 418.798 105.434C417.142 103.002 413.9 102.434 411.449 104.087C410.156 104.958 411.307 107.122 412.617 106.238Z" fill="#2C2F37"/>
<path d="M400.279 112.16C400.932 110.816 401.703 108.917 403.458 108.938C405.034 108.959 405.134 106.511 403.559 106.493C400.762 106.458 399.304 108.597 398.201 110.867C397.519 112.271 399.59 113.577 400.279 112.16Z" fill="#2C2F37"/>
<path d="M430.542 117.054C429.383 114.197 429.499 111.64 429.751 109.63C430.172 106.265 432.638 101.433 435.947 101.126C440.809 100.674 442.351 104.73 442.889 109.104C443.426 113.478 441.933 119.721 435.845 120.2C432.799 120.438 431.347 119.039 430.542 117.054Z" fill="#E69892"/>
<path d="M445.293 117.604C446.143 119.895 444.975 122.44 442.686 123.291C440.395 124.141 437.85 122.974 436.999 120.684C436.149 118.393 437.316 115.847 439.606 114.997C441.895 114.146 444.441 115.313 445.293 117.604Z" fill="white"/>
<path d="M436.067 115.005C435.392 113.331 434.808 111.545 435.023 109.711C435.214 108.073 436.318 105.485 438.387 105.616C439.081 105.66 439.269 104.587 438.57 104.541C436.576 104.415 435.108 105.952 434.406 107.714C433.395 110.255 434.07 112.964 435.051 115.397C435.313 116.047 436.329 115.657 436.067 115.005Z" fill="#2C2F37"/>
<path d="M408.056 114.173C406.088 109.726 400.869 107.708 396.42 109.679C391.972 111.647 389.955 116.866 391.923 121.313C393.892 125.761 399.11 127.778 403.56 125.81C408.007 123.839 410.025 118.621 408.056 114.173ZM407.094 114.598C408.827 118.515 407.052 123.112 403.133 124.847C399.216 126.581 394.619 124.804 392.884 120.887C391.151 116.97 392.928 112.373 396.845 110.639C400.763 108.906 405.36 110.681 407.094 114.598Z" fill="white"/>
<path d="M427.496 108.549C425.528 104.102 420.309 102.085 415.86 104.053C411.412 106.022 409.395 111.242 411.364 115.689C413.332 120.137 418.552 122.154 423 120.186C427.448 118.216 429.463 112.997 427.496 108.549ZM426.534 108.974C428.267 112.891 426.49 117.49 422.573 119.223C418.656 120.957 414.059 119.181 412.324 115.263C410.591 111.346 412.368 106.747 416.285 105.014C420.202 103.28 424.8 105.057 426.534 108.974Z" fill="white"/>
<path d="M409.619 114.777C409.686 115.499 410.008 116.541 409.849 117.234C409.714 117.814 409.221 117.785 408.735 118.157C408.055 118.679 407.637 119.539 407.677 120.399C407.771 122.441 409.913 123.444 411.648 122.626C412.256 122.339 411.895 121.351 411.281 121.64C409.773 122.352 407.81 120.679 409.153 119.196C409.577 118.729 410.385 118.766 410.752 118.244C411.325 117.434 410.747 115.567 410.667 114.686C410.603 114.011 409.555 114.102 409.619 114.777Z" fill="#2C2F37"/>
<path d="M411.691 115.13C411.555 115.191 411.392 115.192 411.246 115.12C409.728 114.378 408.695 115.691 408.649 115.747C408.475 115.978 408.144 116.02 407.914 115.846C407.684 115.671 407.637 115.344 407.811 115.112C408.352 114.393 409.865 113.269 411.71 114.176C411.972 114.304 412.078 114.62 411.95 114.878C411.894 114.996 411.8 115.082 411.691 115.13Z" fill="white"/>
<path d="M426.427 107.434C426.262 107.507 426.064 107.493 425.908 107.381C425.671 107.211 425.619 106.882 425.788 106.647C425.874 106.527 427.913 103.729 431.334 102.214C431.361 102.202 431.387 102.191 431.415 102.179C431.682 102.063 431.991 102.186 432.107 102.453C432.221 102.718 432.102 103.025 431.837 103.143C431.815 103.148 431.786 103.165 431.761 103.177C428.597 104.577 426.66 107.235 426.642 107.261C426.585 107.339 426.511 107.398 426.427 107.434Z" fill="white"/>
<path d="M411.719 397.645C411.642 397.571 411.563 397.499 411.486 397.425C395.511 382.184 380.366 366.144 366.383 349.051C354.691 334.757 343.777 319.808 331.568 305.953C352.783 293.878 394.325 291.243 410.1 290.748C431.097 290.088 433.502 281.663 433.502 281.663C465.68 290.82 510.247 287.694 526.903 269.949C526.903 269.949 546.168 313.312 531.081 353.066C520.829 380.081 429.886 380.641 412.929 396.387C412.505 396.78 412.106 397.204 411.719 397.645Z" fill="#1C2F35"/>
<path d="M392.482 376.983C398.92 367.193 407.884 359.272 418.423 354.132C430.649 348.169 444.056 347.239 457.441 346.834C478.319 346.203 504.548 345.04 516.323 324.556C522.531 313.757 522.902 300.719 521.157 288.687C520.978 287.445 519.088 287.974 519.268 289.208C520.957 300.863 520.549 313.628 514.37 324.003C508.416 334 497.765 339.456 486.77 342.098C463.437 347.704 438.683 341.661 416.537 352.884C406.082 358.182 397.22 366.212 390.787 375.994C390.097 377.052 391.791 378.035 392.482 376.983Z" fill="white"/>
<path d="M474.952 155.492C483.078 157.423 488.229 165.422 486.629 173.62C482.171 196.453 473.267 239.137 466.717 251.657C453.476 276.96 362.347 236.15 362.347 236.15L367.159 223.175L441.457 226.845L456.244 166.906C458.289 158.611 466.64 153.517 474.952 155.492Z" fill="#E69892"/>
<path d="M442.124 226.565C444.84 228.804 447.556 231.041 450.272 233.28C450.994 233.875 449.961 234.897 449.246 234.306C446.53 232.069 443.814 229.83 441.098 227.593C440.376 226.997 441.409 225.975 442.124 226.565Z" fill="#B86166"/>
<path d="M448.558 228.329C447.055 228.651 445.551 228.972 444.046 229.294C443.134 229.489 442.745 228.09 443.66 227.894C445.163 227.571 446.667 227.25 448.172 226.928C449.084 226.733 449.473 228.132 448.558 228.329Z" fill="#B86166"/>
<path d="M375.406 228.176C376.038 233.417 372.072 238.034 366.856 238.842C364.103 239.268 361.123 239.989 358.988 241.207C353.867 244.129 348.628 249.003 345.623 249.748C341.189 250.846 343.576 246.536 343.946 246.044C346.31 242.885 350.33 239.089 350.33 239.089C350.33 239.089 341.589 243.986 339.184 247.116C336.779 250.245 333.225 250.335 333.801 246.131C334.377 241.929 342.884 234.529 345.795 233.114C345.795 233.114 339.624 234.744 336.226 238.875C332.828 243.006 331.058 244.029 329.032 244.794C327.005 245.56 325.883 241.356 330.774 235.711C335.663 230.066 338.955 229.13 342.348 227.81C342.348 227.81 339.395 227.78 334.647 228.776C329.899 229.774 326.353 234.859 323.54 234.152C320.663 233.427 325.004 227.748 328.8 225.687C332.596 223.626 335.183 221.805 340.672 221.213C346.161 220.618 351.428 220.242 354.799 220.677C358.172 221.112 370.364 221.078 373.876 224.496C374.773 225.368 375.227 226.691 375.406 228.176Z" fill="#E69892"/>
<path d="M364.154 221.658C364.154 221.658 354.911 216.931 351.409 217.111C347.909 217.291 342.531 215.702 342.454 218.058C342.378 220.416 349.044 222.192 349.044 222.192L364.154 221.658Z" fill="#E69892"/>
<path d="M452.178 142.992C448.78 149.903 444.772 156.491 440.14 162.645C436.227 167.843 431.814 173.584 425.621 176.159C423.428 177.071 420.685 177.625 418.579 176.176C416.431 174.698 416.027 171.906 416.049 169.491C416.117 162.165 418.31 154.805 421.585 148.303C422.005 147.468 423.26 148.202 422.84 149.037C419.872 154.927 418.008 161.343 417.576 167.937C417.353 171.354 417.695 175.914 422.287 175.558C425.343 175.321 428.272 173.255 430.538 171.332C434.9 167.632 438.402 162.769 441.64 158.102C445.135 153.063 448.219 147.76 450.923 142.259C451.336 141.42 452.589 142.155 452.178 142.992Z" fill="white"/>
<path d="M47.3026 279.443H534.781V293.678H47.3026V279.443Z" fill="#1C2F35"/>
<path d="M64.7924 293.674H516.91V306.216H64.7924V293.674Z" fill="#1C2F35"/>
<path d="M265.903 295.397H516.782C516.853 295.397 516.91 295.34 516.91 295.269V293.835C516.91 293.764 516.853 293.707 516.782 293.707H265.903C265.833 293.707 265.775 293.764 64.7924 293.835V295.269C265.775 295.34 265.833 295.397 265.903 295.397Z" fill="#44584F"/>
<path d="M118.289 306.217L48.9595 570.253H36.8411L96.2659 306.217H118.289Z" fill="#1C2F35"/>
<path d="M444.481 306.217L513.135 570.253H525.254L466.503 306.217H444.481Z" fill="#1C2F35"/>
<path d="M373.211 279.691L245.004 279.431L241.374 266.021L369.581 266.281L373.211 279.691Z" fill="#C6C6C6"/>
<path d="M324.791 272.679L253.121 272.533C250.604 272.528 248.405 270.674 247.767 268.016L233.571 208.921C232.649 205.08 235.309 201.326 238.949 201.334L311.513 201.482C314.799 201.489 317.667 203.909 318.501 207.376L331.81 262.776C333.016 267.79 329.542 272.689 324.791 272.679Z" fill="#C6C6C6"/>
<path d="M318.899 272.667L247.229 272.521C244.712 272.516 242.513 270.662 241.875 268.006L227.679 208.911C226.757 205.069 229.417 201.315 233.057 201.324L305.621 201.472C308.907 201.478 311.777 203.897 312.609 207.365L325.918 262.766C327.122 267.776 323.649 272.677 318.899 272.667Z" fill="#C6C6C6"/>
<path d="M284.52 241.379C285.271 246.183 282.444 250.069 278.204 250.059C273.965 250.051 269.921 246.151 269.17 241.347C268.419 236.544 271.246 232.657 275.485 232.665C279.725 232.675 283.769 236.575 284.52 241.379Z" fill="#1C2F35"/>
<path d="M313.034 206.74C317.698 226.509 322.363 246.28 327.027 266.049C327.217 266.852 326.001 267.299 325.809 266.489C321.145 246.72 316.481 226.949 311.816 207.18C311.628 206.379 312.844 205.93 313.034 206.74Z" fill="#1C2F35"/>
<path d="M114.111 260.968H187.475V279.441H114.111V260.968Z" fill="black"/>
<path d="M116.414 260.968H206.215V276.945H116.414V260.968Z" fill="#BBBBBB"/>
<path d="M116.415 263.464H189.779V279.441H116.415V263.464Z" fill="white"/>
<path d="M117.544 275.526H132.852V274.501H117.544C117.414 274.501 117.31 274.605 117.31 274.734V275.29C117.308 275.42 117.414 275.526 117.544 275.526Z" fill="#ACC7C1"/>
<path d="M117.544 269.983H132.852V268.958H117.544C117.414 268.958 117.31 269.062 117.31 269.192V269.749C117.308 269.877 117.414 269.983 117.544 269.983Z" fill="#ACC7C1"/>
<path d="M132.851 263.464H206.215V279.441H132.851V263.464Z" fill="#BBBBBB"/>
<path d="M141.145 265.859H145.322V276.946H141.145V265.859Z" fill="black"/>
<path d="M159.729 263.464H162.413V279.441H159.729V263.464Z" fill="#2B2B39"/>
<path d="M151.755 263.464H154.439V279.441H151.755V263.464Z" fill="#2B2B39"/>
<path d="M191.041 270.206C191.041 272.855 193.188 275.003 195.837 275.003C198.485 275.003 200.632 272.855 200.632 270.206C200.632 267.557 198.484 265.411 195.837 265.411C193.188 265.409 191.041 267.557 191.041 270.206Z" fill="#2B2B39"/>
<path d="M122.566 242.496H195.93V260.968H122.566V242.496Z" fill="black"/>
<path d="M124.869 242.496H214.67V258.472H124.869V242.496Z" fill="#979797"/>
<path d="M124.87 244.992H198.235V260.968H124.87V244.992Z" fill="white"/>
<path d="M126.001 257.028H141.309V256.003H126.001C125.871 256.003 125.767 256.107 125.767 256.237V256.794C125.767 256.922 125.871 257.028 126.001 257.028Z" fill="#ACC7C1"/>
<path d="M126.001 251.485H141.309V250.46H126.001C125.871 250.46 125.767 250.565 125.767 250.694V251.252C125.767 251.379 125.871 251.485 126.001 251.485Z" fill="#ACC7C1"/>
<path d="M141.304 244.992H214.67V260.968H141.304V244.992Z" fill="#979797"/>
<path d="M149.6 247.385H153.777V258.472H149.6V247.385Z" fill="black"/>
<path d="M168.187 244.992H170.871V260.968H168.187V244.992Z" fill="#2B2B39"/>
<path d="M160.21 244.992H162.895V260.968H160.21V244.992Z" fill="#2B2B39"/>
<path d="M199.497 252.276C199.497 254.925 201.643 257.072 204.292 257.072C206.941 257.072 209.089 254.924 209.089 252.276C209.089 249.628 206.941 247.479 204.292 247.479C201.645 247.481 199.497 249.628 199.497 252.276Z" fill="#2B2B39"/>
<path d="M111.342 224.021H184.706V242.494H111.342V224.021Z" fill="black"/>
<path d="M113.645 224.021H203.445V239.998H113.645V224.021Z" fill="#CECECE"/>
<path d="M113.645 226.518H187.009V242.494H113.645V226.518Z" fill="white"/>
<path d="M114.772 238.308H130.08V237.284H114.772C114.643 237.284 114.539 237.388 114.539 237.517V238.075C114.539 238.203 114.643 238.308 114.772 238.308Z" fill="#ACC7C1"/>
<path d="M114.772 232.766H130.08V231.741H114.772C114.643 231.741 114.539 231.845 114.539 231.974V232.53C114.539 232.66 114.643 232.766 114.772 232.766Z" fill="#ACC7C1"/>
<path d="M130.081 226.517H203.445V242.494H130.081V226.517Z" fill="#CECECE"/>
<path d="M138.374 228.912H142.551V240H138.374V228.912Z" fill="black"/>
<path d="M156.961 226.518H159.645V242.494H156.961V226.518Z" fill="#2B2B39"/>
<path d="M148.985 226.518H151.669V242.494H148.985V226.518Z" fill="#2B2B39"/>
<path d="M188.272 233.803C188.272 236.452 190.42 238.6 193.067 238.6C195.716 238.6 197.864 236.452 197.864 233.803C197.864 231.155 195.716 229.008 193.067 229.008C190.42 229.006 188.272 231.155 188.272 233.803Z" fill="#2B2B39"/>
</g>
</svg>
