<svg width="693" height="426" viewBox="0 0 693 426" fill="none" xmlns="http://www.w3.org/2000/svg">
<mask id="mask0_150_3644" style="mask-type:alpha" maskUnits="userSpaceOnUse" x="0" y="0" width="693" height="426">
<rect width="693" height="425.109" rx="23.4676" fill="#F7F7F7"/>
</mask>
<g mask="url(#mask0_150_3644)">
<rect width="693" height="425.109" rx="23.4676" fill="#F7F7F7"/>
<path d="M613.164 405.049C605.191 405.049 598.704 398.576 598.704 390.619C598.704 382.663 605.191 376.189 613.164 376.189C621.137 376.189 627.624 382.663 627.624 390.619C627.624 398.576 621.137 405.049 613.164 405.049ZM613.164 378.532C606.485 378.532 601.052 383.955 601.052 390.619C601.052 397.284 606.485 402.706 613.164 402.706C619.842 402.706 625.276 397.284 625.276 390.619C625.276 383.955 619.842 378.532 613.164 378.532Z" fill="#DADADA"/>
<path d="M46.5427 91.8419C38.5698 91.8419 32.083 85.3683 32.083 77.4117C32.083 69.4551 38.5698 62.9814 46.5427 62.9814C54.5157 62.9814 61.0025 69.4551 61.0025 77.4117C61.0025 85.3683 54.5157 91.8419 46.5427 91.8419ZM46.5427 65.3246C39.8644 65.3246 34.4309 70.7469 34.4309 77.4117C34.4309 84.0764 39.8644 89.4988 46.5427 89.4988C53.2211 89.4988 58.6546 84.0764 58.6546 77.4117C58.6564 70.7469 53.2211 65.3246 46.5427 65.3246Z" fill="#DADADA"/>
<g opacity="0.5">
<path d="M652.346 315.556H613.438C611.13 315.556 609.258 313.689 609.258 311.385V298.489C609.258 296.186 611.129 294.318 613.438 294.318H652.346C654.655 294.318 656.526 296.185 656.526 298.489V311.385C656.526 313.687 654.655 315.556 652.346 315.556Z" fill="#DADADA"/>
<path d="M702.884 315.555H663.976C661.667 315.555 659.796 313.688 659.796 311.384V298.488C659.796 296.186 661.667 294.317 663.976 294.317H702.884C705.193 294.317 707.064 296.184 707.064 298.488V311.384C707.064 313.686 705.193 315.555 702.884 315.555Z" fill="#DADADA"/>
<path d="M677.397 339.242H638.488C636.179 339.242 634.309 337.375 634.309 335.071V322.177C634.309 319.874 636.179 318.006 638.488 318.006H677.397C679.706 318.006 681.577 319.873 681.577 322.177V335.073C681.575 337.375 679.704 339.242 677.397 339.242Z" fill="#DADADA"/>
</g>
<g opacity="0.5">
<path d="M89.2067 420.927H50.2979C47.9908 420.927 46.1182 419.06 46.1182 416.756V403.86C46.1182 401.557 47.989 399.688 50.2979 399.688H89.2067C91.5155 399.688 93.3864 401.556 93.3864 403.86V416.756C93.3864 419.058 91.5155 420.927 89.2067 420.927Z" fill="#DADADA"/>
<path d="M139.749 420.928H100.84C98.531 420.928 96.6602 419.06 96.6602 416.756V403.86C96.6602 401.558 98.531 399.689 100.84 399.689H139.749C142.058 399.689 143.928 401.556 143.928 403.86V416.756C143.928 419.059 142.058 420.928 139.749 420.928Z" fill="#DADADA"/>
<path d="M114.255 444.614H75.3467C73.0378 444.614 71.167 442.746 71.167 440.442V427.548C71.167 425.246 73.0378 423.377 75.3467 423.377H114.255C116.564 423.377 118.435 425.244 118.435 427.548V440.444C118.433 442.746 116.563 444.614 114.255 444.614Z" fill="#DADADA"/>
</g>
<g opacity="0.5">
<path d="M110.457 96.8948H242.834V370.622H110.457C101.073 370.622 93.4512 363.016 93.4512 353.648V113.854C93.4512 104.488 101.073 96.8948 110.457 96.8948Z" fill="#ADD1C8"/>
<path d="M437.773 96.8945H247.124V370.622H437.773V96.8945Z" fill="#ADD1C8"/>
<path d="M597.418 113.853V353.648C597.418 363.014 589.809 370.622 580.412 370.622H442.065V96.8945H580.412C589.809 96.8945 597.418 104.488 597.418 113.853Z" fill="#ADD1C8"/>
</g>
<g opacity="0.2">
<path d="M268.645 141.364L264.239 192.473L312.568 196.622L316.973 145.513L268.645 141.364Z" fill="#ADD1C8"/>
</g>
<path d="M266.152 139.995L261.995 188.22L310.324 192.368L314.481 144.143L266.152 139.995Z" fill="#EAFAF2"/>
<g opacity="0.5">
<path d="M295.377 130.664L287.298 129.971L285.882 146.392L293.961 147.085L295.377 130.664Z" fill="#EAFAF2"/>
</g>
<path d="M414.489 229.747L366.158 233.896L370.564 285.005L418.895 280.856L414.489 229.747Z" fill="#ADD1C8"/>
<path d="M416.994 228.375L368.665 232.523L372.822 280.748L421.15 276.6L416.994 228.375Z" fill="#EAFAF2"/>
<path d="M389.226 235.549L397.305 234.854L395.888 218.433L387.809 219.127L389.226 235.549Z" fill="#EAFAF2"/>
<g opacity="0.2">
<path d="M134.186 282.217L129.78 333.327L178.109 337.475L182.514 286.366L134.186 282.217Z" fill="#ADD1C8"/>
</g>
<path d="M131.675 280.839L127.519 329.064L175.847 333.213L180.004 284.988L131.675 280.839Z" fill="#EAFAF2"/>
<g opacity="0.5">
<path d="M160.92 271.528L152.841 270.835L151.425 287.256L159.504 287.95L160.92 271.528Z" fill="#EAFAF2"/>
</g>
<g opacity="0.2">
<path d="M521.42 134.887L517.015 185.996L565.343 190.145L569.749 139.035L521.42 134.887Z" fill="#ADD1C8"/>
</g>
<path d="M518.916 133.513L514.76 181.738L563.091 185.887L567.248 137.662L518.916 133.513Z" fill="#EAFAF2"/>
<path d="M548.15 124.173L540.071 123.479L538.656 139.901L546.735 140.594L548.15 124.173Z" fill="#EAFAF2"/>
<path d="M215.02 128.345H126.842C125.31 128.345 124.066 127.106 124.066 125.575C124.066 124.047 125.31 122.806 126.842 122.806H215.02C216.552 122.806 217.795 124.047 217.795 125.575C217.795 127.104 216.552 128.345 215.02 128.345Z" fill="#ADD1C8"/>
<path d="M215.02 144.323H126.842C125.31 144.323 124.066 143.082 124.066 141.554C124.066 140.025 125.31 138.784 126.842 138.784H215.02C216.552 138.784 217.795 140.025 217.795 141.554C217.795 143.082 216.552 144.323 215.02 144.323Z" fill="#ADD1C8"/>
<path d="M215.02 160.301H126.842C125.31 160.301 124.066 159.06 124.066 157.531C124.066 156.002 125.31 154.761 126.842 154.761H215.02C216.552 154.761 217.795 156.002 217.795 157.531C217.795 159.062 216.552 160.301 215.02 160.301Z" fill="#ADD1C8"/>
<path d="M215.02 176.279H126.842C125.31 176.279 124.066 175.038 124.066 173.51C124.066 171.979 125.31 170.74 126.842 170.74H215.02C216.552 170.74 217.795 171.979 217.795 173.51C217.795 175.041 216.552 176.279 215.02 176.279Z" fill="#ADD1C8"/>
<path d="M215.02 192.261H126.842C125.31 192.261 124.066 191.02 124.066 189.491C124.066 187.963 125.31 186.722 126.842 186.722H215.02C216.552 186.722 217.795 187.963 217.795 189.491C217.795 191.02 216.552 192.261 215.02 192.261Z" fill="#ADD1C8"/>
<path d="M215.02 208.239H126.842C125.31 208.239 124.066 207 124.066 205.469C124.066 203.941 125.31 202.7 126.842 202.7H215.02C216.552 202.7 217.795 203.938 217.795 205.469C217.795 207 216.552 208.239 215.02 208.239Z" fill="#ADD1C8"/>
<path d="M563.831 240.642H475.655C474.123 240.642 472.88 239.401 472.88 237.872C472.88 236.344 474.121 235.103 475.655 235.103H563.831C565.363 235.103 566.606 236.344 566.606 237.872C566.606 239.401 565.365 240.642 563.831 240.642Z" fill="#ADD1C8"/>
<path d="M563.831 256.621H475.655C474.123 256.621 472.88 255.38 472.88 253.851C472.88 252.323 474.121 251.082 475.655 251.082H563.831C565.363 251.082 566.606 252.323 566.606 253.851C566.606 255.382 565.365 256.621 563.831 256.621Z" fill="#ADD1C8"/>
<path d="M563.831 272.599H475.655C474.123 272.599 472.88 271.358 472.88 269.829C472.88 268.301 474.121 267.06 475.655 267.06H563.831C565.363 267.06 566.606 268.301 566.606 269.829C566.606 271.36 565.365 272.599 563.831 272.599Z" fill="#ADD1C8"/>
<path d="M563.831 288.58H475.655C474.123 288.58 472.88 287.339 472.88 285.81C472.88 284.282 474.121 283.041 475.655 283.041H563.831C565.363 283.041 566.606 284.282 566.606 285.81C566.606 287.339 565.365 288.58 563.831 288.58Z" fill="#ADD1C8"/>
<path d="M563.831 304.558H475.655C474.123 304.558 472.88 303.317 472.88 301.788C472.88 300.26 474.121 299.019 475.655 299.019H563.831C565.363 299.019 566.606 300.257 566.606 301.788C566.606 303.319 565.365 304.558 563.831 304.558Z" fill="#ADD1C8"/>
<path d="M563.831 320.536H475.655C474.123 320.536 472.88 319.295 472.88 317.766C472.88 316.238 474.121 314.997 475.655 314.997H563.831C565.363 314.997 566.606 316.235 566.606 317.766C566.606 319.297 565.365 320.536 563.831 320.536Z" fill="#ADD1C8"/>
<path d="M93.9668 211.095C93.9668 211.095 90.734 210.074 96.6338 202.128C102.534 194.18 115.472 182.185 115.472 182.185C115.472 182.185 121.641 203.193 93.9668 211.095Z" fill="#1C2F35"/>
<path d="M117.967 192.32L98.3715 162.982L86.5256 168.413L103.571 205.43L117.967 192.32Z" fill="#FFCEC8"/>
<path d="M100.447 162.775C100.447 162.775 100.53 156.222 96.6965 152.387C92.8626 148.55 90.8233 144.469 87.7749 141.814C84.7265 139.16 85.4926 144.556 86.4821 147.345C87.4716 150.134 88.5658 153.303 86.3474 153.707C84.1289 154.11 65.8459 147.646 62.833 148.554C59.8201 149.461 62.4499 151.431 62.4499 151.431C62.4499 151.431 58.3393 150.012 56.9082 151.596C55.4754 153.18 57.7896 154.845 57.7896 154.845C57.7896 154.845 54.9966 153.988 54.6171 156.024C54.2376 158.057 69.0858 165.587 68.4474 166.667C67.809 167.744 61.2973 160.906 59.1782 162.534C57.059 164.162 62.2708 167.067 66.0569 169.868C69.8429 172.669 74.7445 174.427 79.5484 174.115C84.3524 173.804 92.5771 175.8 95.7638 171.248C98.9522 166.697 100.447 162.775 100.447 162.775Z" fill="#FFCEC8"/>
<path d="M57.799 154.288C62.665 156.009 67.4548 157.888 72.1488 159.92C72.7038 160.16 72.0849 160.996 71.5352 160.759C66.9157 158.759 62.2004 156.909 57.4088 155.218C56.8378 155.014 57.2227 154.085 57.799 154.288Z" fill="#6B2636"/>
<path d="M62.7334 151.319C66.5957 152.278 70.231 153.656 73.6376 155.449C74.1678 155.729 73.5525 156.566 73.024 156.288C69.6866 154.532 66.1241 153.187 62.3433 152.248C61.7439 152.097 62.1323 151.17 62.7334 151.319Z" fill="#6B2636"/>
<path d="M70.0887 164.323C71.0321 160.331 72.8729 156.558 75.5808 153.139C75.9976 152.613 76.799 153.073 76.3823 153.601C73.7879 156.876 71.9915 160.488 71.0871 164.314C70.9435 164.923 69.9433 164.939 70.0887 164.323Z" fill="#6B2636"/>
<path d="M77.8973 158.986C84.1695 157.912 89.635 160.402 92.0964 165.482C92.35 166.008 91.4172 166.498 91.1636 165.973C88.8902 161.281 83.8273 158.913 78.0178 159.91C77.3741 160.019 77.2464 159.097 77.8973 158.986Z" fill="#6B2636"/>
<path d="M93.9641 211.095C93.9641 211.095 105.198 220.301 117.775 241.003C120.137 244.889 122.68 248.344 125.325 251.299C135.265 262.409 146.627 266.517 155.032 260.434C156.297 259.519 157.497 258.374 158.611 256.987C161.939 252.848 165.749 245.293 169.402 236.901C177.275 218.8 184.42 196.81 184.42 196.81L174.282 172.931L159.56 164.065L158.363 167.349L153.071 185.239L141.397 218.653L115.471 182.181C115.448 182.282 115.425 182.383 115.402 182.489C114.13 188.619 111.55 194.323 107.899 199.215C104.248 204.112 99.5252 208.198 93.9641 211.095Z" fill="#E19379"/>
<path d="M125.326 251.299C135.266 262.409 146.628 266.516 155.033 260.434C149.729 255.682 138.101 246.894 127.726 250.196C126.782 250.499 125.99 250.869 125.326 251.299Z" fill="white"/>
<path d="M142.032 218.29C145.534 224.688 148.315 231.42 150.345 238.422C150.563 239.176 149.386 239.498 149.168 238.746C147.166 231.843 144.429 225.211 140.977 218.904C140.603 218.216 141.656 217.6 142.032 218.29Z" fill="white"/>
<path d="M145.301 224.849C147.399 226.59 149.273 228.58 151.371 230.319C151.976 230.82 151.109 231.678 150.507 231.179C148.41 229.44 146.537 227.449 144.437 225.709C143.833 225.208 144.702 224.352 145.301 224.849Z" fill="white"/>
<path d="M333.648 214.545C333.648 214.545 337.113 213.451 330.79 204.932C324.466 196.414 310.599 183.557 310.599 183.557C310.599 183.557 303.984 206.077 333.648 214.545Z" fill="#1C2F35"/>
<path d="M307.927 194.422L328.932 162.976L341.627 168.798L323.358 208.475L307.927 194.422Z" fill="#FFCEC8"/>
<path d="M328.389 163.329C328.389 163.329 328.137 157.147 331.654 153.427C335.17 149.706 336.986 145.802 339.793 143.214C342.601 140.629 342.021 145.742 341.161 148.398C340.301 151.056 339.354 154.075 341.457 154.397C343.562 154.719 360.642 148.136 363.508 148.913C366.376 149.69 363.946 151.617 363.946 151.617C363.946 151.617 367.787 150.169 369.181 151.626C370.575 153.082 368.434 154.716 368.434 154.716C368.434 154.716 371.048 153.834 371.46 155.744C371.871 157.654 358.06 165.152 358.692 166.152C359.323 167.153 365.287 160.528 367.33 162.009C369.373 163.49 364.531 166.366 361.033 169.111C357.534 171.854 352.957 173.641 348.413 173.475C343.872 173.308 336.165 175.407 333.035 171.199C329.905 166.991 328.389 163.329 328.389 163.329Z" fill="#FFCEC8"/>
<path d="M368.41 154.195C363.863 155.947 359.393 157.847 355.02 159.888C354.502 160.128 355.108 160.902 355.621 160.663C359.927 158.654 364.328 156.784 368.804 155.06C369.336 154.855 368.947 153.987 368.41 154.195Z" fill="#6B2636"/>
<path d="M363.678 151.521C360.06 152.528 356.666 153.926 353.497 155.706C353.004 155.984 353.607 156.758 354.098 156.482C357.201 154.737 360.526 153.372 364.069 152.386C364.632 152.229 364.24 151.364 363.678 151.521Z" fill="#6B2636"/>
<path d="M357.08 163.987C356.085 160.246 354.246 156.733 351.6 153.577C351.194 153.093 350.449 153.549 350.857 154.034C353.391 157.057 355.184 160.417 356.138 164.005C356.289 164.576 357.234 164.564 357.08 163.987Z" fill="#6B2636"/>
<path d="M349.577 159.157C343.63 158.309 338.538 160.802 336.35 165.662C336.125 166.165 337.017 166.603 337.244 166.101C339.264 161.615 343.979 159.247 349.487 160.031C350.097 160.117 350.195 159.245 349.577 159.157Z" fill="#6B2636"/>
<path d="M333.65 214.546C333.65 214.546 321.609 224.414 308.13 246.603C305.598 250.769 302.872 254.471 300.037 257.639C289.383 269.547 277.207 273.949 268.197 267.429C266.842 266.449 265.556 265.222 264.361 263.734C260.793 259.297 256.711 251.199 252.794 242.205C244.356 222.804 236.699 199.235 236.699 199.235L247.566 173.641L255.551 154.831L258.628 162.483L268.394 186.776L282.814 222.646L310.602 183.557C310.627 183.665 310.652 183.773 310.675 183.886C312.037 190.457 314.803 196.57 318.715 201.813C322.627 207.061 327.688 211.441 333.65 214.546Z" fill="#E19379"/>
<path d="M300.036 257.637C289.382 269.545 277.206 273.946 268.196 267.427C273.881 262.334 286.344 252.915 297.465 256.455C298.476 256.778 299.325 257.175 300.036 257.637Z" fill="white"/>
<path d="M282.122 222.258C278.368 229.116 275.387 236.331 273.211 243.836C272.977 244.645 274.238 244.99 274.472 244.183C276.618 236.784 279.551 229.677 283.252 222.917C283.656 222.179 282.527 221.52 282.122 222.258Z" fill="white"/>
<path d="M278.632 229.288C276.384 231.154 274.376 233.286 272.128 235.151C271.48 235.689 272.41 236.608 273.051 236.074C275.3 234.208 277.307 232.076 279.556 230.21C280.203 229.672 279.274 228.754 278.632 229.288Z" fill="white"/>
<path d="M246.83 244.046L246.537 245.711L245.537 251.406L243.624 262.316C206.973 276.402 176.384 257.835 176.384 257.835C177.124 256.216 177.558 253.878 177.803 251.406C178.161 247.849 178.131 244.014 178.053 241.65C178.011 240.241 177.952 239.351 177.952 239.351L246.83 244.046Z" fill="#FFCEC8"/>
<path d="M246.539 245.712L245.539 251.407C227.167 254.162 204.21 253.914 177.805 251.407C178.163 247.849 178.133 244.014 178.055 241.65L246.539 245.712Z" fill="#FFCEC8"/>
<path d="M171.676 267.595C171.676 267.595 153.184 286.722 152.313 315.978C151.129 355.711 161.916 507.292 163.774 536.275C165.567 564.222 170.688 629.564 173.058 659.514C173.74 668.134 181.188 674.636 189.84 674.166L214.133 672.844C222.913 672.366 229.652 664.896 229.207 656.132C225.899 591.097 213.616 347.171 214.348 327.045C215.194 303.806 213.5 275.494 213.5 275.494L171.676 267.595Z" fill="#74A475"/>
<path d="M284.023 370.049C278.268 348.036 277.536 337.126 273.046 320.906C269.249 319.379 260.746 297.001 257.158 295.015C252.122 292.226 247.219 289.189 242.174 286.409C238.388 284.321 234.641 282.164 230.986 279.858C223.57 275.179 215.849 269.705 210.796 262.322C206.907 268.202 204.492 278.753 204.606 296.201L272.014 662.643C273.033 668.191 277.846 672.24 283.498 672.3C293.487 672.406 309.039 672.206 319.798 670.329C326.082 669.232 330.358 663.354 329.454 657.051C322.795 610.566 293.028 404.498 284.023 370.049Z" fill="#74A475"/>
<path d="M219.128 342.855L280.637 666.229L279.353 666.472L217.844 343.099L219.128 342.855Z" fill="#263238"/>
<path d="M165.12 279.92C165.12 279.92 172.008 269.077 176.384 254.535C176.384 254.535 202.555 266.715 245.163 259.772C245.163 259.772 260.139 284.247 273.047 320.907C273.047 320.907 174.586 297.541 165.12 279.92Z" fill="#74A475"/>
<path d="M235.172 272.859C236.72 293.584 252.625 310.664 271.547 317.829C272.334 318.128 272.675 316.867 271.894 316.571C253.555 309.625 237.981 292.958 236.479 272.859C236.417 272.026 235.108 272.019 235.172 272.859Z" fill="#263238"/>
<path d="M191.417 272.494C191.151 282.359 187.007 291.958 179.795 298.757C172.581 305.558 162.732 309.115 152.851 308.819C152.009 308.795 152.01 310.099 152.851 310.125C163.079 310.432 173.255 306.708 180.719 299.681C188.181 292.657 192.449 282.69 192.724 272.496C192.749 271.654 191.44 271.654 191.417 272.494Z" fill="#263238"/>
<path d="M209.237 302.108C210.539 317.912 212.244 333.678 213.546 349.481C213.615 350.313 214.922 350.32 214.855 349.481C213.553 333.678 211.847 317.912 210.546 302.108C210.475 301.278 209.168 301.269 209.237 302.108Z" fill="#263238"/>
<path d="M215.559 303.334C216.302 307.82 216.827 312.333 217.095 316.872C217.212 318.852 217.368 320.87 217.292 322.854C217.203 325.124 215.919 329.391 212.681 327.818C211.927 327.451 211.264 328.577 212.021 328.945C216.348 331.049 218.561 325.968 218.602 322.507C218.68 315.996 217.882 309.4 216.82 302.987C216.683 302.16 215.423 302.511 215.559 303.334Z" fill="#263238"/>
<path d="M174.085 266.82C178.098 270.828 184.794 271.396 190.091 272.357C196.863 273.586 203.696 274.543 210.571 274.957C223.731 275.75 237.292 274.555 249.515 269.345C250.287 269.016 249.622 267.892 248.856 268.218C237.114 273.221 224.048 274.378 211.41 273.699C204.785 273.343 198.199 272.469 191.669 271.317C186.354 270.379 179.039 269.917 175.012 265.896C174.415 265.303 173.489 266.225 174.085 266.82Z" fill="#263238"/>
<path d="M158.108 172.833C158.571 181.508 162.942 192.197 166.625 200.371C168.296 204.07 169.643 208.829 170.729 213.874C173.926 228.803 174.813 246.242 174.813 246.242C206.602 247.621 242.21 251.321 251.745 247.964C251.745 247.964 252.169 245.621 252.791 242.204C253.806 236.64 255.349 228.219 256.485 222.328C258.117 213.871 259.885 199.43 260.254 184.753C260.3 182.922 260.328 181.083 260.328 179.251C260.328 173.316 259.743 167.584 258.62 162.482C256.634 153.421 252.942 146.324 247.782 143.514C245.127 142.064 239.052 141.787 232.091 142.056C224.541 142.348 215.947 143.294 209.556 144.112C203.924 144.838 200.001 145.462 200.001 145.462C200.001 145.462 199.223 145.816 197.847 146.409C197.19 146.696 196.4 147.036 195.493 147.421C189.184 150.11 177.288 154.98 166.625 158.275C163.306 159.301 161.107 161.165 159.773 163.598C158.372 166.15 157.92 169.327 158.108 172.833Z" fill="#E19379"/>
<path d="M200.959 134.936C200.959 134.936 198.05 125.05 184.756 117.669C171.459 110.287 169.764 87.7236 183.954 76.6311C187.595 73.7854 191.331 73.0775 193.211 71.1503C205.289 58.7782 221.584 67.041 229.337 73.4243C238.495 80.9633 233.223 89.5305 232.095 97.3809C230.967 105.23 200.959 134.936 200.959 134.936Z" fill="#575757"/>
<path d="M188.943 76.1709L181.38 84.3346C160.052 73.7411 142.042 102.451 142.042 102.451C137.194 99.977 133.606 97.011 130.952 93.9441L134.252 88.8049L129.544 92.1974C127.109 88.9535 125.637 85.6849 124.754 82.8462L131.911 76.0452L124.041 80.1545C123.302 76.7248 123.424 74.4082 123.424 74.4082C154.844 42.249 188.943 76.1709 188.943 76.1709Z" fill="#575757"/>
<path d="M186.586 74.5165C182.626 75.619 179.487 78.5284 178.127 82.4058C177.891 83.0766 176.815 82.7881 177.052 82.1103C178.542 77.8612 181.938 74.6563 186.288 73.444C186.981 73.2511 187.276 74.3236 186.586 74.5165Z" fill="#1C2F35"/>
<path d="M197.078 114.755L197.266 118.452L197.402 121.225L197.54 123.981L198.913 150.686C204.745 156.779 230.491 160.697 227.902 145.773L224.781 137.574L221.933 130.093L221.367 128.621L218.982 122.356L197.078 114.755Z" fill="#FFCEC8"/>
<path d="M196.07 147.214C196.07 147.214 206.163 167.33 224.161 163.857C235.693 161.63 227.901 145.774 227.901 145.774C227.901 145.774 218.614 144.48 210.134 143.905C204.503 144.63 200.579 145.255 200.579 145.255C200.579 145.255 199.801 145.607 198.425 146.202C197.768 146.489 196.976 146.828 196.07 147.214Z" fill="#FFCEC8"/>
<path d="M203.403 124.564C214.809 139.012 223.995 143.155 226.577 142.292L221.367 128.621L203.403 124.564Z" fill="#1C2F35"/>
<path d="M189.979 111.419C191.626 114.69 193.015 116.727 194.868 118.728C195.623 119.549 196.464 120.355 197.407 121.227C197.888 121.673 198.384 122.135 198.934 122.648C199.636 123.282 200.409 123.967 201.25 124.737C206.551 129.564 214.406 131.053 218.216 130.66C219.537 130.523 220.789 130.334 221.938 130.095C232.95 127.853 236.844 120.834 232.246 104.452C229.074 93.2056 231.063 86.2382 227.341 82.3519H227.323C227.1 82.1979 226.86 82.0263 226.637 81.8723C221.01 78.1064 214.098 76.772 207.442 77.9347C174.301 83.7057 185.552 102.62 189.979 111.419Z" fill="#FFCEC8"/>
<path d="M194.863 118.727C195.618 119.548 196.459 120.353 197.402 121.225L197.54 123.981C198.09 123.604 198.553 123.142 198.931 122.645C200.321 120.831 200.663 118.553 200.663 118.553C200.388 118.245 198.879 118.297 197.267 118.451C196.441 118.521 195.584 118.624 194.863 118.727Z" fill="#1C2F35"/>
<path d="M223.066 108.889C223.07 108.889 223.075 108.887 223.075 108.887C223.868 108.652 225.292 107.792 225.008 106.21C224.742 104.718 223.331 104.316 222.414 104.3L221.328 102.481C221.195 102.26 220.91 102.189 220.688 102.32C220.467 102.451 220.394 102.737 220.527 102.957L221.752 105.01C221.844 105.162 222.013 105.25 222.192 105.236C222.259 105.231 223.868 105.125 224.091 106.374C224.299 107.532 222.871 107.978 222.811 107.997C222.564 108.071 222.424 108.33 222.499 108.576C222.571 108.816 222.823 108.954 223.066 108.889Z" fill="#1C2F35"/>
<path d="M224.064 76.725C224.064 76.725 233.971 81.9863 230.965 84.671C227.96 87.3556 211.638 74.012 201.987 93.6611C199.585 98.5561 203.19 103.248 195.208 106.52C187.226 109.792 185.435 109.135 182.66 102.181C179.886 95.2255 185.903 78.0381 203.018 74.9942C220.134 71.9503 224.064 76.725 224.064 76.725Z" fill="#575757"/>
<path d="M214.448 81.0925C214.448 81.0925 215.536 97.9809 198.037 101.292C180.54 104.603 190.642 78.1035 214.448 81.0925Z" fill="#575757"/>
<path d="M214.04 82.5755C211.658 76.6169 204.604 75.8081 199.022 75.6294C198.369 75.6081 198.367 74.5941 199.022 74.6153C205.147 74.8118 212.444 75.863 215.019 82.3065C215.26 82.9135 214.279 83.1754 214.04 82.5755Z" fill="#A8681B"/>
<path d="M189.179 90.0258C191.182 89.9514 195.054 90.6009 196.9 91.8362C198.027 96.7577 203.777 109.312 198.398 111.515C190.416 114.786 191.455 120.64 185.08 107.257C182.661 102.18 181.853 94.9438 183.724 90.431C185.527 90.2346 187.338 90.093 189.179 90.0258Z" fill="#575757"/>
<path d="M212.959 102.472C214.092 102.048 215.349 102.446 216.089 103.382C216.647 104.088 217.724 103.196 217.165 102.49C216.025 101.048 214.09 100.559 212.382 101.2C211.54 101.517 212.12 102.787 212.959 102.472Z" fill="#1C2F35"/>
<path d="M224.737 102.695C225.303 101.54 226.31 100.942 227.594 100.965C228.49 100.981 228.626 99.5914 227.724 99.5754C225.759 99.5401 224.282 100.46 223.423 102.218C223.028 103.023 224.345 103.497 224.737 102.695Z" fill="#1C2F35"/>
<path d="M225.394 120.736C224.141 121.471 222.706 121.778 221.404 120.991C220.745 120.591 221.397 119.589 222.055 119.989C222.986 120.552 223.976 120.184 224.843 119.676C225.508 119.285 226.058 120.349 225.394 120.736Z" fill="#FFC2D0"/>
<path d="M207.251 110.046C207.46 111.023 209.152 111.49 211.031 111.09C212.909 110.69 214.264 109.573 214.055 108.596C213.846 107.62 212.154 107.152 210.274 107.552C208.394 107.952 207.041 109.069 207.251 110.046Z" fill="#FFC2D0"/>
<path d="M226.931 106.898C227.14 107.879 228.834 108.344 230.71 107.944C231.595 107.756 232.362 107.408 232.903 106.994C232.703 106.171 232.483 105.325 232.238 104.452C232.229 104.415 232.217 104.38 232.212 104.348C231.57 104.224 230.777 104.233 229.952 104.408C228.076 104.808 226.722 105.923 226.931 106.898Z" fill="#FFC2D0"/>
<path d="M213.485 97.5662C212.048 97.3414 210.326 97.9467 210.066 99.5571C209.823 101.06 207.429 100.939 207.673 99.4173C208.131 96.5804 210.766 94.7346 213.623 95.1806C215.132 95.416 215.011 97.8051 213.485 97.5662Z" fill="#1C2F35"/>
<path d="M227.729 97.8196C226.593 96.9011 225.121 95.542 223.574 96.2888C222.188 96.9595 221.081 94.8394 222.47 94.1669C224.933 92.9759 227.114 94.2643 229.033 95.8128C230.219 96.7737 228.928 98.7877 227.729 97.8196Z" fill="#1C2F35"/>
<path d="M228.05 111.155C228.05 111.155 223.753 112.886 215.381 112.496C215.381 112.496 217.601 119.715 223.579 118.406C228.647 117.294 228.05 111.155 228.05 111.155Z" fill="white"/>
<path d="M203.949 113.864C204.247 111.326 203.254 108.815 201.436 107.015C199.083 104.682 194.912 101.209 191.853 102.309C187.357 103.925 187.677 108.151 189.017 112.241C190.358 116.331 194.273 121.231 199.866 119.13C202.665 118.077 203.706 115.941 203.949 113.864Z" fill="#FFCEC8"/>
<path d="M198.405 116.069L203.868 123.285C204.159 123.669 203.922 124.222 203.443 124.277L195.213 125.219C194.759 125.27 194.406 124.833 194.551 124.403L197.318 116.246C197.477 115.772 198.103 115.671 198.405 116.069Z" fill="white"/>
<path d="M197.664 114.359C197.567 112.598 197.341 110.777 196.391 109.247C195.542 107.879 193.488 106.049 191.709 107.02C191.114 107.346 190.5 106.475 191.101 106.146C192.814 105.208 194.754 105.957 196.107 107.224C198.06 109.052 198.585 111.726 198.726 114.283C198.766 114.966 197.702 115.044 197.664 114.359Z" fill="#1C2F35"/>
<path d="M209.632 92.9985C209.632 92.9985 208.885 96.4123 205.475 102.626C202.269 108.466 203.982 112.423 206.826 117.159C209.669 121.893 201.773 127.278 201.773 127.278C201.773 127.278 204.629 119.53 200.857 113.324C197.086 107.117 196.667 97.7856 200.315 96.0177C203.959 94.248 209.632 92.9985 209.632 92.9985Z" fill="#575757"/>
<path d="M197.626 103.768C194.196 100.26 189.05 99.0674 184.417 100.678C183.798 100.892 183.532 99.9133 184.147 99.7009C189.107 97.9772 194.679 99.3027 198.344 103.051C198.8 103.518 198.084 104.237 197.626 103.768Z" fill="#A8681B"/>
<path d="M188.023 150.519C187.949 160.712 179.618 168.982 169.388 168.982C165.481 168.982 161.858 167.782 158.865 165.724C159.005 165.294 159.166 164.876 159.349 164.471C162.177 166.49 165.648 167.678 169.388 167.678C178.721 167.678 186.355 160.277 186.704 151.046C187.151 150.866 187.591 150.692 188.023 150.519Z" fill="white"/>
<path d="M260.795 167.889C260.415 168.047 260.027 168.19 259.635 168.316C257.782 168.933 255.808 169.268 253.749 169.268C252.329 169.268 250.946 169.107 249.618 168.802C241.325 166.927 235.114 159.51 235.114 150.673C235.114 147.529 235.899 144.566 237.289 141.968C237.795 141.972 238.288 141.981 238.772 141.995C237.277 144.545 236.422 147.511 236.422 150.673C236.422 158.97 242.308 165.918 250.132 167.583H250.135C251.304 167.831 252.512 167.962 253.749 167.962C255.746 167.962 257.665 167.622 259.452 167.001C259.745 166.9 260.029 166.792 260.311 166.675L260.795 167.889Z" fill="white"/>
<path d="M222.95 183.555C222.95 193.809 214.592 202.153 204.314 202.153C194.039 202.153 185.682 193.809 185.682 183.555C185.682 173.302 194.038 164.958 204.314 164.958C214.592 164.958 222.95 173.302 222.95 183.555ZM221.643 183.555C221.643 174.024 213.871 166.262 204.314 166.262C194.763 166.262 186.989 174.024 186.989 183.555C186.989 193.092 194.761 200.849 204.314 200.849C213.869 200.849 221.643 193.092 221.643 183.555Z" fill="white"/>
<path d="M266.193 197.729C265.088 202.1 262.317 205.817 258.587 208.154C255.924 209.825 252.772 210.795 249.398 210.795C245.754 210.795 242.361 209.664 239.572 207.731C239.572 207.731 239.566 207.731 239.566 207.728C235.041 204.613 232.069 199.401 232.069 193.501C232.069 184.999 238.247 177.908 246.358 176.473C247.344 176.3 248.359 176.208 249.398 176.208C252.803 176.208 255.977 177.197 258.658 178.899C259.052 179.151 259.578 178.922 259.648 178.462C259.648 178.457 259.649 178.452 259.649 178.448C259.688 178.191 259.58 177.933 259.362 177.795C256.48 175.965 253.061 174.905 249.396 174.905C248.571 174.905 247.757 174.958 246.959 175.063C237.83 176.259 230.76 184.072 230.76 193.505C230.76 200.444 234.589 206.509 240.251 209.701C242.954 211.228 246.075 212.103 249.398 212.103C252.659 212.103 255.729 211.264 258.396 209.784C262.46 207.54 265.588 203.82 267.076 199.357C266.794 198.817 266.498 198.274 266.193 197.729Z" fill="white"/>
<path d="M177.805 203.338C177.271 203.338 176.744 203.368 176.223 203.412C176.315 203.838 176.407 204.267 176.492 204.695C176.927 204.663 177.363 204.642 177.805 204.642C187.356 204.642 195.133 212.399 195.133 221.93C195.133 230.536 188.797 237.693 180.541 239.006C180.475 239.454 180.418 239.902 180.362 240.349C189.431 239.1 196.44 231.319 196.44 221.93C196.44 211.678 188.079 203.338 177.805 203.338Z" fill="white"/>
<path d="M243.791 236.236C243.791 239.188 243.044 241.968 241.732 244.403C242.246 244.352 242.762 244.301 243.277 244.253C244.445 241.823 245.1 239.105 245.1 236.238C245.1 225.979 236.738 217.64 226.464 217.64C216.189 217.64 207.828 225.981 207.828 236.238C207.828 238.627 208.285 240.91 209.112 243.011C209.589 243.02 210.067 243.039 210.543 243.06C209.638 240.967 209.135 238.661 209.135 236.238C209.135 226.701 216.907 218.944 226.464 218.944C236.018 218.943 243.791 226.701 243.791 236.236Z" fill="white"/>
<path d="M252.465 243.355C239.756 244.571 227.178 244.095 214.461 243.323C201.372 242.529 188.264 242.1 175.178 241.24C174.338 241.185 174.341 242.49 175.178 242.546C188.264 243.408 201.372 243.836 214.461 244.629C227.178 245.401 239.756 245.877 252.465 244.661C253.297 244.581 253.304 243.275 252.465 243.355Z" fill="white"/>
<path d="M173.968 198.841C177.718 212.941 179.417 227.472 179.023 242.054C179 242.895 180.309 242.893 180.33 242.054C180.726 227.362 179.006 212.7 175.227 198.494C175.014 197.684 173.751 198.027 173.968 198.841Z" fill="white"/>
<path d="M261.883 186.183C261.631 185.76 261.377 185.336 261.124 184.909C260.503 184.695 259.865 184.539 259.226 184.378C262.959 190.811 267.054 197.171 266.903 204.795C266.744 212.842 262.324 218.719 257.425 224.671C255.49 227.021 253.685 229.285 252.789 232.24C251.844 235.364 251.853 238.664 252.007 241.892C252.046 242.727 253.355 242.733 253.314 241.892C253.149 238.446 253.13 234.884 254.375 231.612C255.71 228.101 258.631 225.324 260.943 222.436C265.098 217.242 268.074 211.579 268.208 204.795C268.347 197.924 265.313 191.944 261.883 186.183Z" fill="white"/>
<path d="M676.846 111.923L680.497 102.961L672.083 99.5469C672.526 97.2516 672.583 94.8749 672.257 92.5017L680.409 89.0702L676.64 80.1562L668.838 83.4408C667.19 80.9596 665.089 78.8891 662.684 77.3087L666.109 68.9114L657.128 65.2676L653.601 73.9215C651.665 73.656 649.687 73.6489 647.705 73.9215L644.268 65.7843L635.336 69.545L638.627 77.3317C636.143 78.9758 634.066 81.0729 632.483 83.4726L625.129 80.4853L621.476 89.4472L629.09 92.5371C628.752 95.0023 628.823 97.5383 629.367 100.055L621.562 103.338L625.331 112.252L633.485 108.822C635.201 111.023 637.301 112.832 639.652 114.207L636.208 122.656L645.19 126.3L648.923 117.141C651.019 117.315 653.158 117.186 655.279 116.726L658.568 124.514L667.501 120.753L664.062 112.618C665.639 111.392 667.015 109.972 668.178 108.403L676.846 111.923ZM654.124 103.631C649.61 105.532 644.389 103.412 642.484 98.9063C640.58 94.4006 642.704 89.1905 647.217 87.2899C651.732 85.391 656.953 87.5093 658.857 92.015C660.762 96.5207 658.639 101.731 654.124 103.631Z" fill="#DADADA"/>
<path d="M353.113 7.62897L361.672 -13.3791L341.947 -21.3816C342.986 -26.7622 343.119 -32.3337 342.354 -37.8968L361.464 -45.9408L352.63 -66.8368L334.34 -59.1372C330.478 -64.9534 325.552 -69.8072 319.915 -73.5118L327.942 -93.1965L306.891 -101.738L298.623 -81.4521C294.083 -82.0743 289.448 -82.0909 284.8 -81.4521L276.744 -100.527L255.805 -91.7113L263.521 -73.4579C257.697 -69.6039 252.829 -64.6879 249.117 -59.0625L231.878 -66.0652L223.314 -45.0571L241.165 -37.8138C240.371 -32.0349 240.537 -26.0901 241.813 -20.1909L223.518 -12.4955L232.352 8.40061L251.466 0.360779C255.49 5.52153 260.412 9.76131 265.924 12.9847L257.851 32.7897L278.906 41.3315L287.656 19.863C292.57 20.2695 297.583 19.9667 302.555 18.8881L310.266 37.1457L331.205 28.3301L323.145 9.25936C326.84 6.38444 330.066 3.05732 332.793 -0.622414L353.113 7.62897ZM299.849 -11.8068C289.265 -7.3513 277.027 -12.3212 272.562 -22.8833C268.098 -33.4454 273.078 -45.6587 283.657 -50.1142C294.241 -54.5655 306.479 -49.5998 310.944 -39.0377C315.408 -28.4755 310.433 -16.2623 299.849 -11.8068Z" fill="#DADADA"/>
<path d="M330.328 82.1882V113.778C330.328 116.354 328.239 118.451 325.657 118.451H283.769L270.239 123.267C269.019 123.693 267.839 122.49 268.332 121.272L273.989 107.2V82.1882C273.989 79.6115 276.091 77.5144 278.673 77.5144H325.659C328.239 77.5144 330.328 79.6115 330.328 82.1882Z" fill="#263238"/>
<path d="M296.433 110.494L289.43 100.808L293.631 97.7837L296.998 102.44L313.951 84.8118L317.688 88.3919L296.433 110.494Z" fill="#FFFFFB"/>
</g>
</svg>
