<svg width="700" height="394" viewBox="0 0 700 394" fill="none" xmlns="http://www.w3.org/2000/svg">
<mask id="mask0_150_2520" style="mask-type:alpha" maskUnits="userSpaceOnUse" x="0" y="0" width="700" height="394">
<rect width="700" height="394" rx="20" fill="#D9D9D9"/>
</mask>
<g mask="url(#mask0_150_2520)">
<rect width="700" height="394" rx="20" fill="#ECECEC"/>
<path d="M156.758 464.517C123.731 464.517 96.959 437.743 96.959 404.718V359.624H216.557V404.718C216.557 437.743 189.783 464.517 156.758 464.517Z" fill="#E1E1E1"/>
<path d="M156.758 465.46C123.265 465.46 96.0156 438.21 96.0156 404.718V358.681H217.5V404.718C217.5 438.209 190.25 465.46 156.758 465.46ZM97.9019 360.565V404.716C97.9019 437.169 124.304 463.572 156.758 463.572C189.211 463.572 215.613 437.169 215.613 404.716V360.565H97.9019Z" fill="#787878"/>
<path d="M86.0979 264.701C85.5886 265.983 84.8529 267.096 83.9098 268.021C83.0421 268.869 82.0424 269.53 80.9106 270.001C80.439 270.228 79.9486 270.397 79.4204 270.529C75.0254 271.774 69.1402 270.812 62.6702 267.983C57.1812 265.606 51.2582 261.89 45.4674 257.042C43.1661 255.118 40.8648 253.006 38.639 250.723C21.6059 233.37 14.2494 212.96 22.2095 205.151C23.0395 204.321 24.0203 203.68 25.1144 203.189C34.4137 199.058 52.2391 206.905 67.4803 222.429C69.1402 224.127 70.7247 225.862 72.196 227.598C77.6473 234.03 81.7594 240.669 84.287 246.762C87.2108 253.873 87.9653 260.251 86.0979 264.701Z" fill="#CDCDCD"/>
<path d="M86.7398 284.546C84.2876 290.28 74.7241 291.921 63.6517 289.129C62.0861 288.752 60.5016 288.281 58.8794 287.677C57.8231 287.319 56.7667 286.904 55.6916 286.451C41.5633 280.434 32.528 269.833 35.5461 262.759C36.9231 259.534 40.5636 257.61 45.4679 257.044C51.0702 256.384 58.3135 257.497 65.6889 260.496C65.9907 260.609 66.2736 260.722 66.5754 260.854C66.8584 260.967 67.1224 261.099 67.4054 261.231C72.8379 263.627 77.4781 266.72 80.9112 270.003C82.1938 271.21 83.3067 272.474 84.2121 273.719C85.5137 275.492 86.438 277.265 86.9284 278.962C87.4943 280.943 87.4566 282.848 86.7398 284.546Z" fill="#CDCDCD"/>
<path d="M129.142 305.521C128.897 307.653 128.105 309.652 126.879 311.482C126.049 312.708 125.03 313.859 123.823 314.934C121.258 317.198 117.919 319.046 113.995 320.442C112.6 320.932 111.109 321.366 109.563 321.743C103.489 323.196 96.453 323.611 89.04 322.724C68.3097 320.272 52.6536 308.577 54.0683 296.618C54.4644 293.261 56.1621 290.243 58.8783 287.677C59.9346 286.677 61.1419 285.753 62.5 284.885C68.4984 281.094 77.1752 278.887 86.9273 278.963C89.1531 278.981 91.4355 279.113 93.7557 279.378C93.7745 279.378 93.7745 279.378 93.7745 279.378C93.9066 279.378 94.0575 279.396 94.1895 279.415C94.6611 279.472 95.1327 279.528 95.5854 279.604C107.167 281.207 117.051 285.715 123.05 291.506C127.426 295.711 129.727 300.596 129.142 305.521Z" fill="#CDCDCD"/>
<path d="M137.272 295.052C137.159 295.486 137.046 295.901 136.914 296.297C134.801 303.239 131.293 308.634 126.879 311.482C125.03 312.689 123.012 313.425 120.881 313.632C109.318 314.802 98.3207 300.07 95.6988 280.396C95.6611 280.132 95.6233 279.868 95.5856 279.604C95.529 279.132 95.4913 278.661 95.4347 278.189C95.265 276.322 95.1518 274.473 95.1329 272.643C94.982 262.401 97.3021 253.234 101.282 246.971C103.319 243.764 105.772 241.331 108.563 239.86C110.072 239.068 111.694 238.577 113.392 238.407C125.389 237.219 136.782 253.083 138.838 273.869C139.611 281.564 138.989 288.865 137.272 295.052Z" fill="#CDCDCD"/>
<path d="M76.7442 248.611C83.7385 265.963 96.2389 277.276 104.663 273.879C113.089 270.484 114.249 253.664 107.253 236.312C100.259 218.96 87.7582 207.646 79.334 211.044C70.9099 214.439 69.7498 231.259 76.7442 248.611Z" fill="#CDCDCD"/>
<path d="M137.085 295.014C137.028 295.447 136.99 295.881 136.915 296.296C136.104 301.842 133.953 306.973 130.407 311.254C129.785 311.99 129.124 312.707 128.426 313.405C123.975 317.781 118.373 320.422 112.28 321.403C111.393 321.554 110.469 321.667 109.564 321.742C97.9442 322.666 85.0043 317.856 75.1013 307.746C69.6311 302.181 65.8019 295.73 63.6516 289.128C63.1988 287.714 62.8027 286.299 62.5009 284.884C61.2371 279.093 61.2748 273.302 62.6707 267.983C63.3497 265.342 64.3495 262.834 65.6887 260.495C65.7831 260.325 65.8774 260.155 65.9905 259.985C67.2166 257.929 68.7068 256.024 70.461 254.308C72.4605 252.346 74.7052 250.724 77.1007 249.479C79.3643 248.253 81.7787 247.366 84.2875 246.762C89.6445 245.499 95.4731 245.574 101.283 246.97C104.64 247.762 107.998 249.007 111.242 250.686C115.713 252.968 119.976 256.081 123.786 259.966C133.802 270.173 138.367 283.358 137.085 295.014Z" fill="#CDCDCD"/>
<path d="M137.273 295.053C137.16 295.486 137.046 295.901 136.914 296.298C136.103 301.843 133.953 306.974 130.407 311.256C128.219 312.482 126.012 313.708 123.824 314.934C120.541 316.764 117.278 318.612 113.996 320.442C113.43 320.763 112.845 321.083 112.279 321.404C111.393 321.555 110.469 321.668 109.563 321.744C103.489 323.196 96.4536 323.611 89.0405 322.724C68.3102 320.272 52.6541 308.577 54.0688 296.618C54.4649 293.261 56.1626 290.243 58.8788 287.677C57.8225 287.319 56.7662 286.904 55.691 286.451C41.5628 280.434 32.5275 269.833 35.5455 262.759C36.9225 259.534 40.563 257.61 45.4674 257.044C43.1661 255.12 40.8648 253.007 38.639 250.725C21.6059 233.371 14.2494 212.962 22.2095 205.152C23.0395 204.322 24.0203 203.681 25.1144 203.191C32.2823 219.677 44.7694 241.294 65.9901 259.987C66.4617 260.402 66.9333 260.817 67.4048 261.232C71.1397 264.419 75.1386 267.551 79.4204 270.531C80.6465 271.38 81.8915 272.229 83.1741 273.059C83.5137 273.285 83.8721 273.511 84.2116 273.719C87.4183 275.775 90.6061 277.661 93.7562 279.378C93.775 279.378 93.775 279.378 93.775 279.378C94.4164 279.736 95.0577 280.076 95.6991 280.396C105.244 285.414 114.524 288.96 123.05 291.506C128.011 292.997 132.727 294.147 137.084 295.015C137.141 295.034 137.216 295.034 137.273 295.053Z" fill="#CDCDCD"/>
<path d="M137.189 360.646C136.415 344.351 133.171 328.566 127.546 313.736C107.229 260.158 61.8317 232.666 36.5801 221.045L37.3685 219.332C62.8824 231.072 108.755 258.861 129.31 313.065C135.006 328.084 138.29 344.062 139.073 360.558L137.189 360.646Z" fill="#CDCDCD"/>
<path d="M103.699 150.281C103.001 151.526 102.077 152.563 100.964 153.393C99.9452 154.148 98.8134 154.695 97.5873 155.034C92.9094 156.354 86.7412 154.845 80.1204 151.054C79.7431 150.847 79.3847 150.62 79.0075 150.394C73.6504 147.168 68.0482 142.49 62.7477 136.662C60.6351 134.342 58.5602 131.852 56.5796 129.192C41.395 108.858 36.6604 86.7129 45.9787 79.7525C46.2427 79.5639 46.5068 79.3753 46.7709 79.2055C56.4098 73.3958 75.5933 84.1853 90.3629 103.972C91.853 105.953 93.23 107.952 94.4938 109.952C99.2661 117.384 102.605 124.835 104.34 131.493C106.359 139.246 106.245 145.921 103.699 150.281Z" fill="#CDCDCD"/>
<path d="M101.944 170.16C101.849 170.405 101.717 170.651 101.585 170.877C98.2656 176.46 88.1362 176.819 77.0826 172.405C75.517 171.782 73.9137 171.066 72.3292 170.236C71.2917 169.708 70.2543 169.142 69.2168 168.519C55.447 160.314 47.6 148.091 51.6933 141.206C53.5607 138.056 57.5973 136.584 62.7469 136.66C64.7652 136.698 66.991 136.981 69.3111 137.509C73.6873 138.49 78.4785 140.357 83.1942 143.073C83.4771 143.224 83.7789 143.394 84.0619 143.564C89.7018 146.921 94.3421 150.958 97.5865 155.032C100.359 158.503 102.114 162.011 102.547 165.124C102.812 166.972 102.642 168.672 101.944 170.16Z" fill="#CDCDCD"/>
<path d="M142.519 198.511C141.953 200.661 140.878 202.604 139.369 204.32C135.408 208.81 128.447 211.696 120.016 212.526C113.527 213.186 106.17 212.62 98.6253 210.677C77.5367 205.245 62.9746 190.965 66.1247 178.799C67.0112 175.385 69.1805 172.499 72.3305 170.235C73.5566 169.33 74.9525 168.538 76.4804 167.84C81.347 165.614 87.534 164.444 94.4001 164.501C97.022 164.52 99.7571 164.727 102.549 165.123C105.001 165.463 107.491 165.972 110 166.614C110.49 166.746 110.98 166.878 111.452 167.01C126.373 171.216 137.766 179.818 141.576 188.796C142.953 192.061 143.33 195.362 142.519 198.511Z" fill="#CDCDCD"/>
<path d="M111.476 165.52C110.706 187.292 120.264 205.302 132.823 205.745C145.384 206.19 156.19 188.901 156.96 167.129C157.73 145.358 148.172 127.348 135.613 126.904C123.052 126.459 112.248 143.749 111.476 165.52Z" fill="#CDCDCD"/>
<path d="M96.2861 132.327C101.09 151.249 112.435 164.696 121.621 162.363C130.809 160.029 134.361 142.8 129.556 123.877C124.752 104.955 113.408 91.5063 104.22 93.8396C95.0317 96.1729 91.4799 113.404 96.2861 132.327Z" fill="#CDCDCD"/>
<path d="M151.799 190.154C151.704 190.532 151.591 190.909 151.459 191.267C149.479 197.341 145.857 202.66 140.67 206.546C134.69 211.017 127.466 212.941 120.015 212.526C107.886 211.884 95.1537 205.094 86.3071 193.248C81.4405 186.74 78.3847 179.535 77.0831 172.404C76.8002 170.877 76.5927 169.349 76.4795 167.84C75.9891 161.671 76.8379 155.673 79.0072 150.392C79.0637 150.259 79.1203 150.127 79.1769 150.014C80.2144 147.524 81.5536 145.185 83.1947 143.073C84.8358 140.922 86.7598 138.998 88.9856 137.338C91.3246 135.584 93.8711 134.245 96.5307 133.264C99.0395 132.34 101.661 131.755 104.34 131.491C110.074 130.906 116.091 131.812 121.901 134.056C125.259 135.358 128.56 137.112 131.672 139.3C135.973 142.299 139.953 146.11 143.348 150.656C152.61 163.086 155.364 178.007 151.799 190.154Z" fill="#CDCDCD"/>
<path d="M151.46 191.268C149.479 197.342 145.857 202.661 140.67 206.547C134.691 211.017 127.466 212.941 120.015 212.526C113.526 213.186 106.17 212.62 98.6248 210.678C77.5362 205.245 62.9741 190.966 66.1242 178.799C67.0107 175.385 69.1799 172.499 72.33 170.236C71.2926 169.708 70.2551 169.142 69.2177 168.519C55.4478 160.314 47.6009 148.091 51.6941 141.206C53.5615 138.056 57.5982 136.584 62.7477 136.66C60.6351 134.34 58.5602 131.85 56.5796 129.19C41.395 108.856 36.6604 86.7112 45.9787 79.7508C46.2427 79.5621 46.5068 79.3735 46.7709 79.2037C48.5063 91.8418 53.5238 114.722 69.312 137.509C72.2168 141.696 75.4801 145.884 79.1772 150.015C79.479 150.354 79.7808 150.713 80.1204 151.052C80.4976 151.486 80.8937 151.901 81.2899 152.335C85.534 156.881 89.929 160.917 94.3995 164.501C96.8894 166.539 99.417 168.406 101.945 170.16C105.283 172.48 108.641 174.574 111.98 176.442C122.43 182.364 132.634 186.25 141.575 188.797C145.027 189.796 148.272 190.589 151.29 191.23C151.346 191.251 151.403 191.251 151.46 191.268Z" fill="#CDCDCD"/>
<path d="M149.838 359.825L147.995 359.42C155.009 327.621 162.307 264.27 132.369 197.275C117.092 163.084 94.6834 133.104 65.7686 108.167L67.0003 106.737C96.1264 131.857 118.7 162.06 134.09 196.505C164.249 263.995 156.902 327.798 149.838 359.825Z" fill="#CDCDCD"/>
<path d="M259.711 250.725C257.485 253.007 255.184 255.12 252.883 257.044C247.111 261.873 241.188 265.589 235.699 267.984H235.68C228.456 271.134 221.948 271.964 217.44 270.003C216.308 269.531 215.308 268.871 214.44 268.022C213.497 267.098 212.762 265.985 212.252 264.702C210.385 260.251 211.139 253.875 214.063 246.764C215.327 243.708 216.987 240.52 219.024 237.294C221.042 234.069 223.438 230.806 226.154 227.599C227.626 225.864 229.21 224.128 230.87 222.431C247.903 205.077 268.181 197.324 276.141 205.152C277.14 206.133 277.895 207.303 278.404 208.661C282.101 218.034 274.613 235.538 259.711 250.725Z" fill="#CDCDCD"/>
<path d="M231.772 260.858C217.636 266.871 208.614 277.476 211.621 284.544C214.628 291.612 228.524 292.466 242.66 286.453C256.795 280.439 265.818 269.834 262.811 262.767C259.806 255.699 245.908 254.844 231.772 260.858Z" fill="#CDCDCD"/>
<path d="M204.172 279.412C183.44 281.873 167.785 293.564 169.206 305.525C170.626 317.486 188.583 325.186 209.316 322.724C230.048 320.263 245.702 308.572 244.283 296.611C242.861 284.652 224.904 276.95 204.172 279.412Z" fill="#CDCDCD"/>
<path d="M203.217 272.643C203.198 274.454 203.104 276.303 202.915 278.189C202.877 278.661 202.821 279.132 202.764 279.604C200.557 297.825 191.182 311.972 180.695 313.538C179.638 313.708 178.544 313.745 177.469 313.632C175.319 313.425 173.3 312.67 171.452 311.463C167.038 308.615 163.548 303.201 161.436 296.278C159.455 289.827 158.701 282.094 159.512 273.869C161.587 253.083 172.961 237.219 184.958 238.407C186.655 238.577 188.278 239.068 189.787 239.86C192.578 241.331 195.03 243.764 197.068 246.971C198.501 249.216 199.727 251.838 200.67 254.761C202.406 259.947 203.33 266.077 203.217 272.643Z" fill="#CDCDCD"/>
<path d="M226.154 227.599C226.154 229.183 226.041 230.862 225.815 232.579C225.249 237.596 223.834 243.066 221.608 248.612C221.495 248.895 221.382 249.178 221.25 249.461C218.76 255.403 215.648 260.609 212.252 264.702C209.347 268.248 206.254 270.983 203.217 272.643C199.822 274.511 196.521 275.039 193.691 273.888C192.39 273.36 191.258 272.511 190.315 271.398C186.844 267.343 185.731 259.685 187.108 250.687C187.599 247.235 188.504 243.576 189.787 239.86C190.164 238.69 190.617 237.502 191.088 236.313C198.086 218.96 210.592 207.642 219.024 211.037C223.834 212.98 226.267 219.299 226.154 227.599Z" fill="#CDCDCD"/>
<path d="M235.85 284.904C235.548 286.319 235.171 287.734 234.699 289.13C232.549 295.732 228.72 302.183 223.25 307.747C213.347 317.858 200.407 322.668 188.787 321.743C185.958 321.517 183.223 320.951 180.62 320.027C176.64 318.631 173.018 316.424 169.924 313.406C165.19 308.766 162.379 302.786 161.436 296.279C159.663 284.32 164.19 270.55 174.565 259.968C178.375 256.082 182.638 252.97 187.108 250.687C190.353 249.008 193.71 247.763 197.068 246.971C200.991 246.028 204.934 245.689 208.744 245.953C210.555 246.085 212.328 246.349 214.063 246.764C216.572 247.367 218.987 248.254 221.25 249.461C223.665 250.725 225.909 252.347 227.909 254.309C229.795 256.176 231.398 258.251 232.681 260.496C234.02 262.835 235.02 265.344 235.68 267.984H235.699C237.076 273.304 237.114 279.113 235.85 284.904Z" fill="#CDCDCD"/>
<path d="M278.404 208.659C263.408 214.205 243.564 221.127 225.815 232.577C223.513 234.067 221.231 235.633 219.024 237.293C215.44 239.952 211.988 242.82 208.744 245.951C205.877 248.686 203.179 251.61 200.67 254.76C199.84 255.797 199.029 256.872 198.237 257.966C195.087 262.305 192.484 266.813 190.315 271.397C188.221 275.811 186.542 280.3 185.222 284.789C182.279 294.655 181.034 304.52 180.695 313.536C180.638 315.347 180.6 317.139 180.6 318.874V318.893C180.6 319.271 180.6 319.648 180.619 320.025C176.639 318.629 173.018 316.422 169.924 313.404C165.189 308.764 162.379 302.784 161.436 296.277C159.455 289.826 158.701 282.092 159.512 273.868C161.587 253.081 172.961 237.217 184.958 238.406C186.655 238.575 188.278 239.066 189.787 239.858C190.164 238.689 190.617 237.5 191.088 236.312C198.086 218.958 210.592 207.64 219.024 211.036C223.834 212.979 226.267 219.298 226.154 227.597C227.625 225.862 229.21 224.127 230.87 222.429C247.903 205.075 268.18 197.322 276.141 205.151C277.14 206.131 277.895 207.301 278.404 208.659Z" fill="#CDCDCD"/>
<path d="M161.163 360.646L159.278 360.558C160.063 344.062 163.347 328.084 169.042 313.065C189.595 258.863 235.467 231.072 260.981 219.332L261.769 221.045C236.518 232.664 191.121 260.158 170.804 313.736C165.182 328.566 161.938 344.351 161.163 360.646Z" fill="#CDCDCD"/>
<g opacity="0.34">
<path d="M550.24 369.88C583.267 369.88 610.039 343.106 610.039 310.081V264.987H490.441V310.081C490.441 343.106 517.215 369.88 550.24 369.88Z" fill="#CDCDCD"/>
<path d="M550.24 370.823C583.733 370.823 610.982 343.574 610.982 310.081V264.044H489.498V310.081C489.498 343.572 516.748 370.823 550.24 370.823ZM609.096 265.928V310.079C609.096 342.532 582.694 368.935 550.24 368.935C517.787 368.935 491.385 342.532 491.385 310.079V265.928H609.096Z" fill="#CDCDCD"/>
<path d="M620.898 170.064C621.408 171.347 622.143 172.459 623.086 173.384C623.954 174.233 624.954 174.893 626.085 175.364C626.557 175.591 627.047 175.76 627.576 175.892C631.971 177.137 637.856 176.175 644.326 173.346C649.815 170.969 655.738 167.253 661.529 162.406C663.83 160.482 666.131 158.369 668.357 156.087C685.39 138.733 692.747 118.323 684.787 110.514C683.957 109.684 682.976 109.043 681.882 108.552C672.582 104.421 654.757 112.268 639.516 127.792C637.856 129.49 636.271 131.225 634.8 132.961C629.349 139.393 625.237 146.033 622.709 152.125C619.785 159.237 619.031 165.614 620.898 170.064Z" fill="#CDCDCD"/>
<path d="M620.258 189.909C622.71 195.643 632.274 197.284 643.346 194.493C644.912 194.116 646.496 193.644 648.119 193.04C649.175 192.682 650.231 192.267 651.306 191.814C665.435 185.797 674.47 175.196 671.452 168.123C670.075 164.897 666.434 162.973 661.53 162.407C655.928 161.747 648.685 162.86 641.309 165.859C641.007 165.972 640.724 166.085 640.423 166.217C640.14 166.331 639.876 166.463 639.593 166.595C634.16 168.99 629.52 172.084 626.087 175.366C624.804 176.573 623.691 177.837 622.786 179.082C621.484 180.855 620.56 182.628 620.07 184.326C619.504 186.306 619.541 188.211 620.258 189.909Z" fill="#CDCDCD"/>
<path d="M577.853 210.885C578.098 213.016 578.89 215.016 580.116 216.845C580.946 218.071 581.965 219.222 583.172 220.297C585.737 222.561 589.076 224.409 593 225.805C594.395 226.295 595.886 226.729 597.432 227.107C603.506 228.559 610.542 228.974 617.955 228.087C638.685 225.635 654.342 213.94 652.927 201.981C652.531 198.624 650.833 195.606 648.117 193.04C647.06 192.041 645.853 191.116 644.495 190.249C638.497 186.457 629.82 184.25 620.068 184.326C617.842 184.345 615.56 184.477 613.239 184.741C613.221 184.741 613.221 184.741 613.221 184.741C613.089 184.741 612.938 184.76 612.806 184.778C612.334 184.835 611.862 184.892 611.41 184.967C599.828 186.57 589.944 191.079 583.945 196.869C579.569 201.074 577.268 205.959 577.853 210.885Z" fill="#CDCDCD"/>
<path d="M569.725 200.416C569.838 200.849 569.951 201.264 570.083 201.661C572.196 208.602 575.704 213.997 580.118 216.845C581.967 218.052 583.985 218.788 586.116 218.995C597.679 220.165 608.676 205.433 611.298 185.759C611.336 185.495 611.374 185.231 611.411 184.967C611.468 184.495 611.506 184.024 611.562 183.552C611.732 181.685 611.845 179.836 611.864 178.007C612.015 167.764 609.695 158.597 605.715 152.334C603.678 149.128 601.226 146.694 598.434 145.223C596.925 144.431 595.303 143.94 593.605 143.771C581.608 142.582 570.215 158.446 568.159 179.233C567.386 186.927 568.008 194.229 569.725 200.416Z" fill="#CDCDCD"/>
<path d="M630.252 153.974C623.258 171.326 610.757 182.64 602.333 179.242C593.907 175.847 592.747 159.027 599.743 141.675C606.738 124.323 619.238 113.009 627.662 116.407C636.086 119.802 637.246 136.622 630.252 153.974Z" fill="#CDCDCD"/>
<path d="M569.913 200.377C569.969 200.811 570.007 201.244 570.082 201.659C570.893 207.205 573.044 212.336 576.59 216.618C577.212 217.353 577.873 218.07 578.571 218.768C583.022 223.144 588.624 225.785 594.717 226.766C595.604 226.917 596.528 227.03 597.433 227.105C609.053 228.03 621.993 223.22 631.896 213.109C637.366 207.545 641.195 201.094 643.346 194.492C643.798 193.077 644.194 191.662 644.496 190.247C645.76 184.457 645.722 178.666 644.326 173.346C643.647 170.706 642.648 168.197 641.308 165.858C641.214 165.688 641.12 165.518 641.007 165.349C639.78 163.292 638.29 161.387 636.536 159.671C634.537 157.709 632.292 156.087 629.896 154.842C627.633 153.616 625.218 152.729 622.71 152.126C617.353 150.862 611.524 150.937 605.714 152.333C602.357 153.125 598.999 154.37 595.755 156.049C591.284 158.332 587.021 161.444 583.211 165.33C573.195 175.536 568.63 188.721 569.913 200.377Z" fill="#CDCDCD"/>
<path d="M569.723 200.416C569.837 200.85 569.95 201.265 570.082 201.661C570.893 207.206 573.043 212.337 576.589 216.619C578.778 217.845 580.984 219.071 583.173 220.297C586.455 222.127 589.718 223.975 593 225.805C593.566 226.126 594.151 226.446 594.717 226.767C595.603 226.918 596.527 227.031 597.433 227.107C603.507 228.559 610.543 228.974 617.956 228.088C638.686 225.635 654.342 213.94 652.927 201.981C652.531 198.624 650.834 195.606 648.117 193.04C649.174 192.682 650.23 192.267 651.305 191.814C665.433 185.797 674.469 175.196 671.451 168.123C670.074 164.897 666.433 162.973 661.529 162.407C663.83 160.483 666.131 158.371 668.357 156.088C685.39 138.734 692.747 118.325 684.787 110.516C683.957 109.686 682.976 109.044 681.882 108.554C674.714 125.04 662.227 146.657 641.006 165.35C640.534 165.765 640.063 166.18 639.591 166.595C635.856 169.783 631.858 172.914 627.576 175.894C626.35 176.743 625.105 177.592 623.822 178.422C623.482 178.648 623.124 178.874 622.784 179.082C619.578 181.138 616.39 183.024 613.24 184.741C613.221 184.741 613.221 184.741 613.221 184.741C612.58 185.099 611.938 185.439 611.297 185.759C601.752 190.777 592.472 194.323 583.946 196.87C578.985 198.36 574.269 199.51 569.912 200.378C569.855 200.397 569.78 200.397 569.723 200.416Z" fill="#CDCDCD"/>
<path d="M569.807 266.01C570.581 249.714 573.825 233.93 579.45 219.1C599.767 165.522 645.164 138.029 670.416 126.408L669.628 124.695C644.114 136.435 598.241 164.224 577.686 218.428C571.99 233.447 568.706 249.425 567.923 265.921L569.807 266.01Z" fill="#CDCDCD"/>
<path d="M603.298 55.6436C603.996 56.8885 604.92 57.9259 606.033 58.7559C607.052 59.5104 608.184 60.0574 609.41 60.397C614.088 61.7174 620.256 60.2084 626.877 56.4169C627.254 56.2094 627.612 55.9831 627.99 55.7567C633.347 52.5312 638.949 47.8532 644.249 42.0246C646.362 39.7045 648.437 37.2146 650.418 34.5549C665.602 14.2208 670.337 -7.92418 661.018 -14.8846C660.754 -15.0732 660.49 -15.2618 660.226 -15.4315C650.587 -21.2413 631.404 -10.4517 616.634 9.33535C615.144 11.3159 613.767 13.3154 612.503 15.3148C607.731 22.7468 604.392 30.1976 602.657 36.8562C600.639 44.6088 600.752 51.2844 603.298 55.6436Z" fill="#CDCDCD"/>
<path d="M605.053 75.5232C605.148 75.7684 605.28 76.0136 605.412 76.24C608.732 81.8234 618.861 82.1817 629.914 77.7678C631.48 77.1454 633.083 76.4286 634.668 75.5986C635.705 75.0705 636.743 74.5046 637.78 73.8821C651.55 65.6768 659.397 53.4537 655.304 46.5687C653.436 43.4186 649.4 41.9473 644.25 42.0228C642.232 42.0605 640.006 42.3435 637.686 42.8716C633.31 43.8525 628.519 45.7199 623.803 48.4361C623.52 48.587 623.218 48.7568 622.935 48.9266C617.295 52.2842 612.655 56.3208 609.411 60.3952C606.638 63.866 604.883 67.3744 604.45 70.4868C604.186 72.3353 604.355 74.0349 605.053 75.5232Z" fill="#CDCDCD"/>
<path d="M564.48 103.874C565.046 106.024 566.121 107.967 567.63 109.683C571.591 114.173 578.552 117.059 586.983 117.889C593.472 118.549 600.829 117.983 608.374 116.04C629.462 110.608 644.024 96.3285 640.874 84.162C639.988 80.7478 637.819 77.8619 634.668 75.5983C633.442 74.6929 632.047 73.9006 630.519 73.2027C625.652 70.9769 619.465 69.8074 612.599 69.864C609.977 69.8829 607.242 70.0904 604.45 70.4865C601.998 70.826 599.508 71.3353 596.999 71.9766C596.509 72.1087 596.019 72.2407 595.547 72.3728C580.626 76.5792 569.233 85.1806 565.423 94.1593C564.046 97.4245 563.669 100.725 564.48 103.874Z" fill="#CDCDCD"/>
<path d="M595.523 70.8833C596.293 92.6548 586.735 110.665 574.176 111.108C561.615 111.553 550.809 94.2638 550.039 72.4923C549.269 50.7208 558.827 32.7106 571.386 32.2673C583.947 31.8222 594.752 49.1118 595.523 70.8833Z" fill="#CDCDCD"/>
<path d="M610.711 37.6903C605.907 56.6116 594.563 70.0589 585.376 67.7256C576.188 65.3923 572.636 48.1629 577.441 29.2397C582.245 10.3184 593.589 -3.13071 602.777 -0.797376C611.965 1.53595 615.517 18.7671 610.711 37.6903Z" fill="#CDCDCD"/>
<path d="M555.198 95.5174C555.293 95.8947 555.406 96.2719 555.538 96.6303C557.518 102.704 561.14 108.023 566.327 111.909C572.307 116.38 579.531 118.304 586.982 117.889C599.111 117.247 611.843 110.457 620.69 98.6109C625.557 92.1032 628.612 84.8976 629.914 77.7675C630.197 76.2396 630.404 74.7117 630.518 73.2027C631.008 67.0345 630.159 61.0362 627.99 55.7546C627.933 55.6225 627.877 55.4905 627.82 55.3773C626.783 52.8874 625.443 50.5484 623.802 48.4358C622.161 46.2854 620.237 44.3615 618.011 42.7015C615.672 40.9473 613.126 39.608 610.466 38.6271C607.958 37.7029 605.336 37.1181 602.657 36.854C596.923 36.2693 590.906 37.1747 585.096 39.4194C581.738 40.7209 578.437 42.4751 575.325 44.6632C571.024 47.6624 567.044 51.4727 563.649 56.0187C554.387 68.4493 551.633 83.3698 555.198 95.5174Z" fill="#CDCDCD"/>
<path d="M555.538 96.6307C557.518 102.705 561.14 108.024 566.327 111.91C572.307 116.38 579.531 118.304 586.982 117.889C593.471 118.549 600.827 117.983 608.372 116.041C629.461 110.608 644.023 96.3288 640.873 84.1623C639.986 80.7482 637.817 77.8622 634.667 75.5986C635.705 75.0705 636.742 74.5046 637.779 73.8821C651.549 65.6768 659.396 53.4537 655.303 46.5687C653.436 43.4186 649.399 41.9473 644.249 42.0228C646.362 39.7027 648.437 37.2128 650.418 34.5531C665.602 14.219 670.337 -7.92593 661.018 -14.8863C660.754 -15.0749 660.49 -15.2636 660.226 -15.4333C658.491 -2.79526 653.473 20.0854 637.685 42.8716C634.78 47.0592 631.517 51.2467 627.82 55.3777C627.518 55.7172 627.216 56.0756 626.877 56.4151C626.499 56.849 626.103 57.2639 625.707 57.6978C621.463 62.2437 617.068 66.2804 612.598 69.8643C610.108 71.9015 607.58 73.7689 605.052 75.5232C601.714 77.8433 598.356 79.937 595.017 81.8045C584.567 87.7274 574.363 91.6132 565.422 94.1597C561.97 95.1594 558.725 95.9516 555.707 96.5929C555.651 96.6137 555.594 96.6137 555.538 96.6307Z" fill="#CDCDCD"/>
<path d="M557.159 265.188L559.002 264.783C551.989 232.984 544.69 169.633 574.628 102.638C589.905 68.4473 612.314 38.4667 641.229 13.5301L639.997 12.1002C610.871 37.2198 588.298 67.423 572.907 101.868C542.748 169.358 550.095 233.161 557.159 265.188Z" fill="#CDCDCD"/>
<path d="M447.286 156.088C449.512 158.37 451.813 160.483 454.114 162.407C459.886 167.236 465.809 170.952 471.298 173.347H471.317C478.542 176.497 485.049 177.327 489.557 175.366C490.689 174.894 491.689 174.234 492.557 173.385C493.5 172.461 494.235 171.348 494.745 170.065C496.612 165.613 495.858 159.238 492.934 152.127C491.67 149.071 490.01 145.883 487.973 142.657C485.955 139.432 483.559 136.169 480.843 132.962C479.372 131.227 477.787 129.491 476.127 127.793C459.094 110.44 438.816 102.687 430.856 110.515C429.857 111.496 429.102 112.666 428.593 114.024C424.896 123.397 432.384 140.901 447.286 156.088Z" fill="#CDCDCD"/>
<path d="M475.226 166.221C489.362 172.234 498.384 182.839 495.377 189.907C492.37 196.975 478.474 197.829 464.338 191.816C450.203 185.802 441.18 175.197 444.187 168.13C447.192 161.062 461.09 160.207 475.226 166.221Z" fill="#CDCDCD"/>
<path d="M502.825 184.775C523.557 187.236 539.212 198.927 537.791 210.888C536.371 222.849 518.414 230.549 497.681 228.087C476.949 225.626 461.295 213.935 462.714 201.974C464.136 190.015 482.093 182.313 502.825 184.775Z" fill="#CDCDCD"/>
<path d="M503.78 178.006C503.799 179.817 503.893 181.666 504.082 183.552C504.12 184.024 504.176 184.495 504.233 184.967C506.44 203.188 515.815 217.335 526.302 218.901C527.359 219.071 528.453 219.109 529.528 218.995C531.678 218.788 533.697 218.033 535.545 216.826C539.959 213.978 543.449 208.564 545.561 201.642C547.542 195.19 548.296 187.457 547.485 179.232C545.41 158.446 534.036 142.582 522.039 143.77C520.342 143.94 518.72 144.431 517.211 145.223C514.419 146.694 511.967 149.127 509.929 152.334C508.496 154.579 507.27 157.201 506.327 160.124C504.591 165.31 503.667 171.44 503.78 178.006Z" fill="#CDCDCD"/>
<path d="M480.843 132.962C480.843 134.546 480.956 136.225 481.182 137.942C481.748 142.959 483.163 148.429 485.389 153.975C485.502 154.258 485.615 154.541 485.747 154.824C488.237 160.766 491.349 165.972 494.745 170.065C497.65 173.611 500.743 176.346 503.78 178.006C507.175 179.874 510.476 180.402 513.306 179.251C514.607 178.723 515.739 177.874 516.682 176.761C520.153 172.706 521.266 165.048 519.889 156.05C519.398 152.598 518.493 148.939 517.21 145.223C516.833 144.053 516.38 142.865 515.909 141.676C508.911 124.323 496.405 113.005 487.973 116.4C483.163 118.343 480.73 124.662 480.843 132.962Z" fill="#CDCDCD"/>
<path d="M471.148 190.267C471.45 191.682 471.827 193.097 472.299 194.493C474.449 201.095 478.278 207.546 483.749 213.11C493.652 223.221 506.591 228.031 518.211 227.106C521.04 226.88 523.775 226.314 526.378 225.39C530.359 223.994 533.98 221.787 537.074 218.769C541.808 214.129 544.619 208.149 545.562 201.642C547.335 189.683 542.808 175.913 532.433 165.331C528.623 161.445 524.36 158.333 519.89 156.05C516.645 154.371 513.288 153.126 509.93 152.334C506.007 151.391 502.064 151.052 498.254 151.316C496.443 151.448 494.67 151.712 492.935 152.127C490.426 152.73 488.012 153.617 485.748 154.824C483.334 156.088 481.089 157.71 479.089 159.672C477.203 161.539 475.6 163.614 474.317 165.859C472.978 168.198 471.978 170.707 471.318 173.347H471.299C469.922 178.667 469.884 184.476 471.148 190.267Z" fill="#CDCDCD"/>
<path d="M428.593 114.022C443.589 119.568 463.433 126.49 481.183 137.94C483.484 139.43 485.766 140.996 487.973 142.656C491.557 145.315 495.009 148.183 498.253 151.314C501.121 154.049 503.818 156.973 506.327 160.123C507.157 161.16 507.968 162.235 508.76 163.329C511.91 167.668 514.513 172.176 516.682 176.76C518.776 181.174 520.455 185.663 521.775 190.152C524.718 200.018 525.963 209.883 526.302 218.899C526.359 220.71 526.397 222.502 526.397 224.238V224.256C526.397 224.634 526.397 225.011 526.378 225.388C530.358 223.992 533.98 221.785 537.073 218.767C541.808 214.127 544.618 208.148 545.561 201.64C547.542 195.189 548.296 187.455 547.485 179.231C545.41 158.444 534.036 142.58 522.039 143.769C520.342 143.938 518.72 144.429 517.21 145.221C516.833 144.052 516.381 142.863 515.909 141.675C508.911 124.321 496.405 113.003 487.973 116.399C483.163 118.342 480.73 124.661 480.843 132.96C479.372 131.225 477.787 129.49 476.127 127.792C459.094 110.438 438.817 102.685 430.856 110.514C429.857 111.494 429.102 112.664 428.593 114.022Z" fill="#CDCDCD"/>
<path d="M545.832 266.009L547.717 265.921C546.932 249.425 543.648 233.446 537.953 218.428C517.4 164.226 471.528 136.435 446.014 124.695L445.226 126.407C470.477 138.027 515.874 165.521 536.192 219.099C541.813 233.929 545.057 249.714 545.832 266.009Z" fill="#CDCDCD"/>
</g>
<path d="M654.655 320.682H445.281V535.471H654.655V320.682Z" fill="#B1B1B1"/>
<path d="M452.706 459.246H266.342C250.987 459.246 238.539 446.798 238.539 431.443V71.9375C238.539 56.5816 250.987 44.1346 266.342 44.1346H452.706C468.062 44.1346 480.51 56.5826 480.51 71.9375V431.443C480.509 446.798 468.061 459.246 452.706 459.246Z" fill="#222F3E"/>
<path d="M439.544 441.652H280.516C265.161 441.652 252.713 429.204 252.713 413.848V89.0808C252.713 73.7248 265.161 61.2769 280.516 61.2769H439.544C454.899 61.2769 467.347 73.7248 467.347 89.0808V413.849C467.347 429.204 454.899 441.652 439.544 441.652Z" fill="white"/>
<path d="M406.793 79.6224H312.256C301.834 79.6224 293.387 71.1739 293.387 60.7531V44.1335H425.663V60.7531C425.662 71.1739 417.214 79.6224 406.793 79.6224Z" fill="#222F3E"/>
<path d="M376.193 127.742V197.557C376.193 202.258 372.385 206.066 367.684 206.066H268.686C264.02 206.022 260.255 202.233 260.255 197.557V127.742C260.255 123.041 264.063 119.233 268.764 119.233H367.684C372.385 119.233 376.193 123.041 376.193 127.742Z" fill="#EFEFEF"/>
<path d="M334.871 206.065H268.686L301.778 148.742L327.732 193.695L334.871 206.065Z" fill="#DEDEDE"/>
<path d="M367.375 206.065H320.592L327.733 193.696L343.983 165.545L367.375 206.065Z" fill="white"/>
<path d="M328.169 159.011C335.938 159.011 342.237 152.713 342.237 144.944C342.237 137.174 335.938 130.876 328.169 130.876C320.4 130.876 314.102 137.174 314.102 144.944C314.102 152.713 320.4 159.011 328.169 159.011Z" fill="white"/>
<path d="M451.283 233.159V267.89C451.283 270.228 449.388 272.123 447.05 272.123H397.802C395.48 272.101 393.607 270.216 393.607 267.89V233.159C393.607 230.821 395.502 228.926 397.84 228.926H447.05C449.389 228.926 451.283 230.82 451.283 233.159Z" fill="#EFEFEF"/>
<path d="M430.729 272.123H397.803L414.266 243.606L427.177 265.969L430.729 272.123Z" fill="#DEDEDE"/>
<path d="M446.896 272.123H423.623L427.175 265.969L435.259 251.965L446.896 272.123Z" fill="white"/>
<path d="M434.39 241.716C434.39 245.581 431.256 248.715 427.391 248.715C423.526 248.715 420.393 245.581 420.393 241.716C420.393 237.851 423.526 234.717 427.391 234.717C431.256 234.717 434.39 237.851 434.39 241.716Z" fill="white"/>
<path d="M452.358 295.534V330.264C452.358 332.602 450.463 334.497 448.125 334.497H398.876C396.554 334.476 394.682 332.59 394.682 330.264V295.534C394.682 293.196 396.577 291.301 398.915 291.301H448.125C450.464 291.301 452.358 293.194 452.358 295.534Z" fill="#EFEFEF"/>
<path d="M431.803 334.497H398.877L415.341 305.98L428.251 328.344L431.803 334.497Z" fill="#DEDEDE"/>
<path d="M447.97 334.497H424.697L428.249 328.343L436.333 314.339L447.97 334.497Z" fill="white"/>
<path d="M435.464 304.091C435.464 307.956 432.331 311.089 428.466 311.089C424.601 311.089 421.467 307.956 421.467 304.091C421.467 300.226 424.601 297.092 428.466 297.092C432.331 297.092 435.464 300.226 435.464 304.091Z" fill="white"/>
<path d="M374.71 237.709H264.757C262.75 237.709 261.123 236.082 261.123 234.075V233.815C261.123 231.808 262.75 230.181 264.757 230.181H374.71C376.717 230.181 378.344 231.808 378.344 233.815V234.075C378.344 236.082 376.717 237.709 374.71 237.709Z" fill="#EFEFEF"/>
<path d="M374.71 250.614H264.757C262.75 250.614 261.123 248.987 261.123 246.98V246.72C261.123 244.713 262.75 243.086 264.757 243.086H374.71C376.717 243.086 378.344 244.713 378.344 246.72V246.98C378.344 248.987 376.717 250.614 374.71 250.614Z" fill="#EFEFEF"/>
<path d="M343.523 263.519H265.831C263.824 263.519 262.197 261.892 262.197 259.885V259.625C262.197 257.618 263.824 255.991 265.831 255.991H343.523C345.529 255.991 347.157 257.618 347.157 259.625V259.885C347.157 261.892 345.529 263.519 343.523 263.519Z" fill="#EFEFEF"/>
<path d="M374.71 301.159H264.757C262.75 301.159 261.123 299.532 261.123 297.525V297.265C261.123 295.258 262.75 293.631 264.757 293.631H374.71C376.717 293.631 378.344 295.258 378.344 297.265V297.525C378.344 299.532 376.717 301.159 374.71 301.159Z" fill="#EFEFEF"/>
<path d="M343.523 314.064H265.831C263.824 314.064 262.197 312.437 262.197 310.43V310.17C262.197 308.163 263.824 306.536 265.831 306.536H343.523C345.529 306.536 347.157 308.163 347.157 310.17V310.43C347.157 312.437 345.529 314.064 343.523 314.064Z" fill="#EFEFEF"/>
<path d="M343.523 328.045H265.831C263.824 328.045 262.197 326.417 262.197 324.411V324.15C262.197 322.144 263.824 320.517 265.831 320.517H343.523C345.529 320.517 347.157 322.144 347.157 324.15V324.411C347.157 326.417 345.529 328.045 343.523 328.045Z" fill="#EFEFEF"/>
<path d="M335.735 358.156H445.689C447.695 358.156 449.322 356.529 449.322 354.523V354.262C449.322 352.256 447.695 350.628 445.689 350.628H335.735C333.729 350.628 332.102 352.256 332.102 354.262V354.523C332.102 356.529 333.729 358.156 335.735 358.156Z" fill="#EFEFEF"/>
<path d="M366.921 371.061H444.611C446.618 371.061 448.245 369.434 448.245 367.428V367.167C448.245 365.161 446.618 363.533 444.611 363.533H366.921C364.914 363.533 363.287 365.161 363.287 367.167V367.428C363.287 369.434 364.914 371.061 366.921 371.061Z" fill="#EFEFEF"/>
<path d="M366.921 385.042H444.611C446.618 385.042 448.245 383.415 448.245 381.408V381.148C448.245 379.141 446.618 377.514 444.611 377.514H366.921C364.914 377.514 363.287 379.141 363.287 381.148V381.408C363.287 383.415 364.914 385.042 366.921 385.042Z" fill="#EFEFEF"/>
<path d="M530.273 233.573H495.43V204.152C495.43 192.453 503.23 182.969 512.852 182.969C522.473 182.969 530.273 192.453 530.273 204.152V233.573Z" fill="#222F3E"/>
<path d="M519.021 202.213C517.773 204.939 518.696 208.035 521.081 209.127C523.467 210.218 526.412 208.893 527.661 206.166C528.908 203.44 527.987 200.344 525.6 199.252C523.214 198.16 520.268 199.485 519.021 202.213Z" fill="#F2C6C2"/>
<path d="M522.033 203.147C522.069 202.976 522.328 201.793 523.345 201.303C524.443 200.774 526.004 201.257 526.864 202.608" stroke="#222F3E" stroke-width="0.376397" stroke-miterlimit="10"/>
<path d="M499.571 233.299H516.016V214.662H499.571V233.299Z" fill="#F2C6C2"/>
<path d="M516.017 214.662V225.36C514.412 225.423 510.757 225.397 506.841 223.783C502.432 221.965 500.311 219.214 499.572 218.134C499.572 216.977 499.572 215.819 499.572 214.662H516.017Z" fill="#FC928D"/>
<path d="M521.275 204.359C521.207 206.014 520.994 207.602 520.626 209.102C519.726 212.722 517.994 215.819 515.739 217.987C513.483 220.174 510.706 221.423 507.734 221.326C505.024 221.239 502.556 220.039 500.543 218.074C498.297 215.877 496.623 212.722 495.839 209.082C495.452 207.311 495.287 205.434 495.345 203.498C495.558 197.294 498.152 191.932 501.888 188.96C503.95 187.344 506.35 186.434 508.896 186.521C514.325 186.695 518.816 191.332 520.539 197.758C521.091 199.81 521.352 202.036 521.275 204.359Z" fill="#F2C6C2"/>
<path d="M516.722 183.937C520.464 183.937 523.498 180.904 523.498 177.162C523.498 173.42 520.464 170.387 516.722 170.387C512.981 170.387 509.947 173.42 509.947 177.162C509.947 180.904 512.981 183.937 516.722 183.937Z" fill="#222F3E"/>
<path d="M501.418 203.402C501.388 203.814 501.03 204.123 500.618 204.093C500.206 204.061 499.898 203.703 499.928 203.292C499.958 202.881 500.316 202.572 500.728 202.603C501.141 202.633 501.45 202.991 501.418 203.402Z" fill="#222F3E"/>
<path d="M512.877 204.252C512.846 204.664 512.488 204.972 512.077 204.942C511.665 204.911 511.357 204.553 511.387 204.142C511.418 203.73 511.775 203.422 512.187 203.453C512.599 203.482 512.907 203.84 512.877 204.252Z" fill="#222F3E"/>
<path d="M512.008 208.001C511.996 209.142 512.911 210.075 514.052 210.087C515.193 210.099 516.127 209.184 516.139 208.043C516.15 206.902 515.234 205.968 514.094 205.956C512.953 205.944 512.019 206.86 512.008 208.001Z" fill="#EE5253"/>
<path d="M496.861 207.848C496.85 208.989 497.765 209.922 498.906 209.934C500.047 209.946 500.98 209.031 500.992 207.89C501.004 206.749 500.089 205.815 498.948 205.803C497.807 205.792 496.873 206.707 496.861 207.848Z" fill="#EE5253"/>
<path d="M506.077 202.184V207.868H504.152L505.669 209.407" stroke="#222F3E" stroke-width="0.376397" stroke-miterlimit="10"/>
<path d="M502.518 197.841C502.604 198.125 501.522 198.706 500.101 199.136C498.681 199.567 497.459 199.687 497.372 199.402C497.286 199.118 498.368 198.537 499.788 198.107C501.21 197.677 502.432 197.557 502.518 197.841Z" fill="#222F3E"/>
<path d="M510.28 197.841C510.194 198.125 511.276 198.706 512.697 199.136C514.117 199.567 515.339 199.687 515.426 199.402C515.512 199.118 514.43 198.537 513.01 198.107C511.588 197.677 510.366 197.557 510.28 197.841Z" fill="#222F3E"/>
<path d="M502.635 210.989C503.555 212.46 505.222 213.295 506.936 213.14C508.575 212.992 510.014 211.961 510.698 210.452" stroke="#222F3E" stroke-width="0.376397" stroke-miterlimit="10"/>
<path d="M509.131 186.854C510.021 188.397 507.509 191.514 503.52 193.818C499.531 196.122 495.574 196.738 494.684 195.195C493.792 193.651 496.304 190.534 500.294 188.23C504.283 185.927 508.239 185.31 509.131 186.854Z" fill="#222F3E"/>
<path d="M507.586 186.854C506.694 188.397 509.207 191.514 513.196 193.818C517.186 196.122 521.143 196.738 522.033 195.195C522.924 193.651 520.411 190.534 516.423 188.23C512.433 185.927 508.476 185.31 507.586 186.854Z" fill="#222F3E"/>
<path d="M524.693 300.388C525.795 315.601 514.357 328.826 499.144 329.93L426.901 335.166C419.295 335.718 412.682 329.997 412.131 322.392C411.579 314.786 417.298 308.173 424.904 307.621L524.693 300.388Z" fill="#1C2F35"/>
<path d="M535.597 307.825H478.977V241.757C478.977 235.215 484.279 229.911 490.822 229.911H523.753C530.295 229.911 535.599 235.214 535.599 241.757V307.825H535.597Z" fill="#74A475"/>
<path d="M538.19 303.986V308.506C538.19 321.263 528.426 331.603 516.382 331.603H463.97C456.769 331.603 450.932 325.42 450.932 317.795C450.932 310.169 456.769 303.986 463.97 303.986H538.19Z" fill="#1C2F35"/>
<path d="M501.026 413.685L465.996 419.378L450.584 324.554C449.012 314.88 455.579 305.765 465.252 304.193C474.925 302.62 484.04 309.188 485.613 318.86L501.026 413.685Z" fill="#1C2F35"/>
<path d="M473.714 231.652L429.18 268.308C425.786 271.102 425.3 276.118 428.093 279.511C430.887 282.905 435.903 283.391 439.296 280.598L483.83 243.942L473.714 231.652Z" fill="#F2C6C2"/>
<path d="M425.817 218.109C425.695 236.829 425.575 255.551 425.453 274.273C425.624 278.665 429.324 282.087 433.716 281.916C438.108 281.745 441.53 278.046 441.359 273.654C440.477 254.972 439.594 236.29 438.711 217.607C434.414 217.774 430.115 217.941 425.817 218.109Z" fill="#F2C6C2"/>
<path d="M457.447 241.035L473.167 260.133L488.528 247.489C493.802 243.149 494.558 235.354 490.217 230.081C485.877 224.807 478.082 224.051 472.81 228.392L457.447 241.035Z" fill="#74A475"/>
<path d="M538.505 239.282L563.128 291.441C565.004 295.416 563.303 300.16 559.328 302.036C555.354 303.913 550.61 302.212 548.733 298.237L524.109 246.078L538.505 239.282Z" fill="#F2C6C2"/>
<path d="M498.334 290.57C517.037 289.721 535.739 288.872 554.442 288.023C558.837 288.023 562.401 291.586 562.401 295.982C562.401 300.377 558.838 303.941 554.442 303.941C535.739 303.786 517.037 303.63 498.334 303.475C498.334 299.174 498.334 294.872 498.334 290.57Z" fill="#F2C6C2"/>
<path d="M549.206 254.71L526.838 265.27L518.344 247.279C515.429 241.103 518.072 233.732 524.249 230.816C530.425 227.9 537.796 230.544 540.712 236.72L549.206 254.71Z" fill="#74A475"/>
<path d="M498.335 290.57L471.422 304.11L498.335 303.475V290.57Z" fill="#F2C6C2"/>
<path d="M443.942 421.447H408.453V325.379C408.453 315.578 416.397 307.634 426.198 307.634C435.998 307.634 443.942 315.578 443.942 325.379V421.447Z" fill="#1C2F35"/>
<path d="M474.381 326.059L492.348 415.095" stroke="white" stroke-width="0.963254" stroke-miterlimit="10"/>
<path d="M454.783 307.351H521.993C521.993 304.828 520.263 302.782 518.13 302.782H454.783V307.351Z" fill="#787878"/>
<path d="M414.846 307.351H488.969C483.65 289.124 478.331 270.898 473.012 252.67C448.304 252.67 423.596 252.67 398.889 252.67C404.209 270.898 409.528 289.124 414.846 307.351Z" fill="#787878"/>
<path d="M432.377 282.138C432.377 286.564 435.966 290.153 440.392 290.153C444.818 290.153 448.407 286.564 448.407 282.138C448.407 277.711 444.818 274.123 440.392 274.123C435.966 274.123 432.377 277.711 432.377 282.138Z" fill="white"/>
<path d="M417.14 275.514C421.594 275.514 425.206 271.903 425.206 267.449C425.206 262.994 421.594 259.383 417.14 259.383C412.685 259.383 409.074 262.994 409.074 267.449C409.074 271.903 412.685 275.514 417.14 275.514Z" fill="#F9C0AD"/>
<path d="M474.623 286.074L457.859 295.753L461.174 301.494L477.938 291.815L474.623 286.074Z" fill="#D68A85"/>
<path d="M471.986 303.475C474.659 303.475 476.825 301.309 476.825 298.636C476.825 295.963 474.659 293.797 471.986 293.797C469.313 293.797 467.146 295.963 467.146 298.636C467.146 301.309 469.313 303.475 471.986 303.475Z" fill="#F9C0AD"/>
<path d="M416.473 225.284L427.248 228.583C432.349 230.145 437.751 227.276 439.314 222.175C440.875 217.074 438.006 211.672 432.905 210.109L422.129 206.81L416.473 225.284Z" fill="#F2C6C2"/>
<path d="M427.248 228.583C432.349 230.145 437.75 227.276 439.313 222.175C440.875 217.074 438.005 211.672 432.905 210.109L422.129 206.81" stroke="#FC928D" stroke-width="0.53771" stroke-miterlimit="10"/>
<path d="M407.056 207.262L423.896 212.418C425.174 212.81 426.529 212.09 426.921 210.812C427.312 209.533 426.593 208.178 425.314 207.787L408.474 202.63C407.195 202.238 405.84 202.958 405.449 204.237C405.056 205.516 405.776 206.87 407.056 207.262Z" fill="#F2C6C2"/>
<path d="M405.475 211.873L422.519 217.092C423.798 217.484 425.153 216.764 425.545 215.485C425.936 214.207 425.217 212.852 423.938 212.46L406.894 207.241C405.615 206.85 404.26 207.569 403.868 208.848C403.477 210.127 404.196 211.482 405.475 211.873Z" fill="#F2C6C2"/>
<path d="M403.431 216.268L421.116 221.683C422.396 222.074 423.75 221.355 424.141 220.076C424.533 218.798 423.813 217.443 422.534 217.051L404.849 211.636C403.57 211.245 402.215 211.964 401.824 213.243C401.431 214.522 402.151 215.877 403.431 216.268Z" fill="#F2C6C2"/>
<path d="M406.329 222.179L419.707 226.275C420.987 226.667 422.341 225.947 422.732 224.668C423.124 223.39 422.404 222.035 421.126 221.643L407.748 217.547C406.468 217.156 405.114 217.875 404.722 219.154C404.33 220.432 405.049 221.786 406.329 222.179Z" fill="#F2C6C2"/>
<path d="M407.971 207.571L419.462 211.089" stroke="#D89491" stroke-width="0.722467" stroke-miterlimit="10"/>
<path d="M407.156 212.694L418.647 216.212" stroke="#D89491" stroke-width="0.722467" stroke-miterlimit="10"/>
<path d="M407.281 217.604L418.772 221.122" stroke="#D89491" stroke-width="0.722467" stroke-miterlimit="10"/>
<path d="M423.598 211.058L419.838 223.668" stroke="#D89491" stroke-width="0.722467" stroke-miterlimit="10"/>
<path d="M403.047 233.782H423.639C425.336 233.782 426.712 232.406 426.712 230.709V190.985C426.712 189.288 425.336 187.913 423.639 187.913H403.047C401.35 187.913 399.975 189.288 399.975 190.985V230.709C399.975 232.406 401.35 233.782 403.047 233.782Z" fill="#222F3E"/>
<path d="M404.5 231.837H422.073C423.77 231.837 425.145 230.462 425.145 228.765V192.879C425.145 191.182 423.77 189.807 422.073 189.807H404.5C402.803 189.807 401.428 191.182 401.428 192.879V228.765C401.429 230.462 402.804 231.837 404.5 231.837Z" fill="white"/>
<path d="M408.121 191.834H418.568C419.72 191.834 420.653 190.9 420.653 189.748V187.912H406.037V189.748C406.037 190.9 406.971 191.834 408.121 191.834Z" fill="#222F3E"/>
<g opacity="0.35">
<path d="M402.828 197.032V204.746C402.828 205.266 403.249 205.686 403.768 205.686H414.707C415.222 205.681 415.639 205.262 415.639 204.746V197.032C415.639 196.513 415.218 196.092 414.699 196.092H403.768C403.249 196.092 402.828 196.513 402.828 197.032Z" fill="#C8D6E5"/>
<path d="M407.395 205.687H414.707L411.051 199.353L408.184 204.319L407.395 205.687Z" fill="#8395A7"/>
<path d="M403.803 205.687H408.972L408.184 204.319L406.388 201.209L403.803 205.687Z" fill="#B1BEC9"/>
<path d="M406.58 198.933C406.58 199.791 407.276 200.487 408.134 200.487C408.992 200.487 409.689 199.791 409.689 198.933C409.689 198.074 408.993 197.379 408.134 197.379C407.276 197.379 406.58 198.074 406.58 198.933Z" fill="#B1BEC9"/>
<path d="M403.205 208.799V212.638C403.205 212.896 403.415 213.105 403.673 213.105H409.115C409.37 213.103 409.578 212.895 409.578 212.638V208.799C409.578 208.541 409.368 208.332 409.11 208.332H403.673C403.415 208.332 403.205 208.541 403.205 208.799Z" fill="#C8D6E5"/>
<path d="M405.477 213.104H409.115L407.296 209.953L405.869 212.425L405.477 213.104Z" fill="#8395A7"/>
<path d="M403.689 213.104H406.261L405.868 212.425L404.976 210.877L403.689 213.104Z" fill="#B1BEC9"/>
<path d="M405.072 209.745C405.072 210.172 405.419 210.518 405.845 210.518C406.272 210.518 406.619 210.172 406.619 209.745C406.619 209.318 406.272 208.972 405.845 208.972C405.419 208.972 405.072 209.318 405.072 209.745Z" fill="#B1BEC9"/>
<path d="M403.086 215.692V219.529C403.086 219.787 403.296 219.997 403.554 219.997H408.995C409.251 219.995 409.459 219.786 409.459 219.529V215.692C409.459 215.434 409.249 215.224 408.991 215.224H403.554C403.295 215.224 403.086 215.433 403.086 215.692Z" fill="#C8D6E5"/>
<path d="M405.357 219.997H408.996L407.176 216.846L405.75 219.317L405.357 219.997Z" fill="#8395A7"/>
<path d="M403.568 219.997H406.141L405.748 219.317L404.855 217.77L403.568 219.997Z" fill="#B1BEC9"/>
<path d="M404.951 216.637C404.951 217.064 405.297 217.41 405.724 217.41C406.151 217.41 406.498 217.064 406.498 216.637C406.498 216.21 406.151 215.864 405.724 215.864C405.297 215.864 404.951 216.21 404.951 216.637Z" fill="#B1BEC9"/>
<path d="M411.682 209.302H423.803C424.033 209.302 424.219 209.116 424.219 208.886C424.219 208.655 424.033 208.469 423.803 208.469H411.682C411.452 208.469 411.266 208.655 411.266 208.886C411.266 209.116 411.453 209.302 411.682 209.302Z" fill="#C8D6E5"/>
<path d="M411.682 210.728H423.803C424.033 210.728 424.219 210.542 424.219 210.311C424.219 210.081 424.033 209.895 423.803 209.895H411.682C411.452 209.895 411.266 210.081 411.266 210.311C411.266 210.542 411.453 210.728 411.682 210.728Z" fill="#C8D6E5"/>
<path d="M415.129 212.154H423.685C423.915 212.154 424.101 211.968 424.101 211.738C424.101 211.507 423.915 211.321 423.685 211.321H415.129C414.899 211.321 414.713 211.507 414.713 211.738C414.713 211.968 414.899 212.154 415.129 212.154Z" fill="#C8D6E5"/>
<path d="M411.682 216.314H423.803C424.033 216.314 424.219 216.128 424.219 215.897C424.219 215.667 424.033 215.481 423.803 215.481H411.682C411.452 215.481 411.266 215.667 411.266 215.897C411.266 216.128 411.453 216.314 411.682 216.314Z" fill="#C8D6E5"/>
<path d="M415.129 217.739H423.685C423.915 217.739 424.101 217.553 424.101 217.323C424.101 217.093 423.915 216.907 423.685 216.907H415.129C414.899 216.907 414.713 217.093 414.713 217.323C414.713 217.553 414.899 217.739 415.129 217.739Z" fill="#C8D6E5"/>
<path d="M415.129 219.284H423.685C423.915 219.284 424.101 219.098 424.101 218.868C424.101 218.637 423.915 218.451 423.685 218.451H415.129C414.899 218.451 414.713 218.637 414.713 218.868C414.713 219.098 414.899 219.284 415.129 219.284Z" fill="#C8D6E5"/>
<path d="M415.959 222.611H403.838C403.608 222.611 403.422 222.425 403.422 222.195C403.422 221.965 403.608 221.779 403.838 221.779H415.959C416.189 221.779 416.375 221.965 416.375 222.195C416.375 222.425 416.189 222.611 415.959 222.611Z" fill="#C8D6E5"/>
<path d="M412.511 224.037H403.955C403.725 224.037 403.539 223.851 403.539 223.621C403.539 223.391 403.725 223.205 403.955 223.205H412.511C412.741 223.205 412.927 223.391 412.927 223.621C412.926 223.851 412.74 224.037 412.511 224.037Z" fill="#C8D6E5"/>
<path d="M412.511 225.582H403.955C403.725 225.582 403.539 225.396 403.539 225.166C403.539 224.936 403.725 224.75 403.955 224.75H412.511C412.741 224.75 412.927 224.936 412.927 225.166C412.926 225.395 412.74 225.582 412.511 225.582Z" fill="#C8D6E5"/>
</g>
<path d="M417.622 219.416C422.121 217.552 424.258 212.393 422.394 207.894C420.53 203.394 415.372 201.257 410.872 203.121C406.372 204.985 404.236 210.144 406.099 214.643C407.963 219.143 413.122 221.28 417.622 219.416Z" fill="#F9C0AD"/>
<path d="M420.844 210.522C420.815 210.668 420.787 210.832 420.738 210.987C420.652 211.297 420.537 211.607 420.394 211.925C420.318 212.089 420.232 212.244 420.146 212.409C419.562 213.482 418.654 214.614 417.478 215.746C417.343 215.872 417.21 215.997 417.076 216.123C416.369 216.762 415.565 217.409 414.686 218.039L414.619 218.077L414.4 218.213L414.39 218.222L414.142 218.048C414.122 218.039 414.113 218.029 414.094 218.019C413.08 217.293 412.172 216.539 411.378 215.785C411.225 215.639 411.081 215.504 410.948 215.359C410.651 215.068 410.383 214.778 410.135 214.489C410.02 214.353 409.905 214.218 409.79 214.072C408.844 212.893 408.222 211.742 408.002 210.697C407.963 210.542 407.945 210.387 407.926 210.232C407.878 209.739 407.926 209.275 408.088 208.849C408.135 208.704 408.203 208.559 408.289 208.423C408.375 208.259 408.481 208.094 408.604 207.939C409.025 207.407 409.637 206.963 410.345 206.856C410.737 206.798 411.149 206.847 411.559 206.992C411.712 207.05 411.876 207.118 412.028 207.205C412.554 207.495 413.061 207.939 413.502 208.52C413.626 208.685 413.75 208.868 413.875 209.052C414.066 209.372 414.248 209.73 414.401 210.106C414.401 210.106 414.401 210.116 414.41 210.116C414.793 209.178 415.319 208.404 415.912 207.852C416.036 207.726 416.17 207.62 416.304 207.513C417.002 206.991 417.768 206.75 418.476 206.856C419.556 207.021 420.417 207.988 420.733 208.849C420.762 208.927 420.781 209.004 420.8 209.081C420.847 209.246 420.876 209.42 420.895 209.594C420.91 209.885 420.902 210.194 420.844 210.522Z" fill="#1C2F35"/>
<path d="M420.879 210.919L429.06 214.314C430.296 214.827 431.713 214.241 432.226 213.006C432.739 211.77 432.153 210.352 430.917 209.839L422.737 206.444C421.501 205.931 420.083 206.518 419.571 207.753C419.058 208.989 419.644 210.406 420.879 210.919Z" fill="#F2C6C2"/>
<path d="M204.634 93.7684H148.94C144.125 93.7684 140.223 89.8657 140.223 85.051V57.3181C140.223 52.5034 144.125 48.6007 148.94 48.6007H204.634C209.449 48.6007 213.351 52.5034 213.351 57.3181V85.051C213.351 89.8657 209.449 93.7684 204.634 93.7684Z" fill="white"/>
<path d="M169.366 103.447L160.87 93.5706H177.863L169.366 103.447Z" fill="white"/>
<path d="M166.627 71.4255C166.627 73.0752 165.29 74.412 163.642 74.412C161.992 74.412 160.655 73.0752 160.655 71.4255C160.655 69.7769 161.992 68.4391 163.642 68.4391C165.29 68.4391 166.627 69.7758 166.627 71.4255Z" fill="#CDCDCD"/>
<path d="M176.629 68.4638C178.264 68.6735 179.42 70.1694 179.211 71.8051C179.001 73.4408 177.505 74.5969 175.869 74.3872C174.234 74.1775 173.078 72.6816 173.287 71.0459C173.497 69.4091 174.993 68.253 176.629 68.4638Z" fill="#CDCDCD"/>
<path d="M189.236 68.4638C190.872 68.6735 192.028 70.1694 191.818 71.8051C191.608 73.4408 190.112 74.5969 188.477 74.3872C186.841 74.1775 185.685 72.6816 185.895 71.0459C186.104 69.4091 187.6 68.253 189.236 68.4638Z" fill="#CDCDCD"/>
<path d="M571.581 208.649H604.333C609.147 208.649 613.05 204.746 613.05 199.932V186.369C613.05 181.554 609.147 177.651 604.333 177.651H571.581C566.766 177.651 562.863 181.554 562.863 186.369V199.932C562.863 204.745 566.766 208.649 571.581 208.649Z" fill="#1C2F35"/>
<path d="M593.048 215.291L598.879 208.513H587.217L593.048 215.291Z" fill="#1C2F35"/>
<path d="M594.926 193.315C594.926 194.446 595.843 195.365 596.974 195.365C598.106 195.365 599.024 194.447 599.024 193.315C599.024 192.183 598.107 191.266 596.974 191.266C595.844 191.266 594.926 192.183 594.926 193.315Z" fill="white"/>
<path d="M588.064 191.282C586.942 191.426 586.149 192.453 586.292 193.575C586.436 194.698 587.463 195.49 588.586 195.347C589.709 195.203 590.501 194.176 590.358 193.055C590.214 191.932 589.187 191.138 588.064 191.282Z" fill="white"/>
<path d="M579.412 191.282C578.289 191.426 577.497 192.453 577.64 193.575C577.784 194.698 578.811 195.49 579.933 195.347C581.055 195.203 581.848 194.176 581.705 193.055C581.561 191.932 580.535 191.138 579.412 191.282Z" fill="white"/>
<path d="M541.352 109.9C543.728 109.9 545.654 107.974 545.654 105.598C545.654 103.222 543.728 101.296 541.352 101.296C538.977 101.296 537.051 103.222 537.051 105.598C537.051 107.974 538.977 109.9 541.352 109.9Z" fill="#FECA57"/>
<path d="M545.657 83.6165V138.312C545.657 143.12 541.753 147.023 536.935 147.023H335.627C330.82 147.023 326.916 143.12 326.916 138.312V83.6165C326.916 78.7987 330.82 74.9056 335.627 74.9056H536.935C540.355 74.9056 543.301 76.8629 544.732 79.7235C545.323 80.8957 545.657 82.2185 545.657 83.6165Z" fill="#1C2F35"/>
<path d="M429.268 162.481L419.033 146.709H439.503L429.268 162.481Z" fill="#1C2F35"/>
<path d="M382.64 108.848L392.344 110.369L385.233 117.147L386.786 126.846L378.143 122.179L369.398 126.653L371.166 116.99L364.209 110.055L373.945 108.751L378.391 99.9908L382.64 108.848Z" fill="white"/>
<path d="M413.651 108.848L423.357 110.369L416.246 117.147L417.798 126.846L409.155 122.179L400.41 126.653L402.179 116.99L395.221 110.055L404.958 108.751L409.402 99.9908L413.651 108.848Z" fill="#FFD500"/>
<path d="M444.664 108.848L454.369 110.369L447.258 117.147L448.811 126.846L440.168 122.179L431.421 126.653L433.19 116.99L426.232 110.055L435.969 108.751L440.415 99.9908L444.664 108.848Z" fill="#FFD500"/>
<path d="M476.325 108.848L486.03 110.369L478.919 117.147L480.472 126.846L471.829 122.179L463.082 126.653L464.851 116.99L457.895 110.055L467.63 108.751L472.076 99.9908L476.325 108.848Z" fill="#FFD500"/>
<path d="M507.985 108.848L517.69 110.369L510.579 117.147L512.132 126.846L503.489 122.179L494.744 126.653L496.512 116.99L489.555 110.055L499.29 108.751L503.736 99.9908L507.985 108.848Z" fill="#FFD500"/>
<path d="M580.736 177.651V181.383C580.736 186.19 576.832 190.094 572.014 190.094H562.862H562.809V192.245H562.862H574.165C578.983 192.245 582.887 188.341 582.887 183.534V177.651H580.736Z" fill="#222F3E"/>
<path d="M572.067 190.367H539.315C534.5 190.367 530.598 186.464 530.598 181.65V168.087C530.598 163.272 534.5 159.369 539.315 159.369H572.067C576.882 159.369 580.784 163.272 580.784 168.087V181.65C580.784 186.463 576.882 190.367 572.067 190.367Z" fill="#74A475"/>
<path d="M550.599 197.009L544.768 190.23H556.429L550.599 197.009Z" fill="#74A475"/>
<path d="M548.718 175.033C548.718 176.164 547.8 177.082 546.669 177.082C545.538 177.082 544.619 176.165 544.619 175.033C544.619 173.901 545.536 172.984 546.669 172.984C547.8 172.984 548.718 173.901 548.718 175.033Z" fill="white"/>
<path d="M555.582 173C556.705 173.144 557.497 174.171 557.354 175.293C557.21 176.416 556.183 177.208 555.06 177.065C553.938 176.921 553.145 175.894 553.288 174.772C553.432 173.65 554.459 172.856 555.582 173Z" fill="white"/>
<path d="M564.232 173C565.355 173.144 566.148 174.171 566.004 175.293C565.86 176.416 564.833 177.208 563.711 177.065C562.588 176.921 561.796 175.894 561.939 174.772C562.083 173.65 563.11 172.856 564.232 173Z" fill="white"/>
<path d="M276.566 191.134L257.265 199.335L238.656 155.537C236.391 150.208 238.877 144.051 244.206 141.787C249.536 139.522 255.693 142.007 257.957 147.337L276.566 191.134Z" fill="#1C2F35"/>
<path d="M239.359 193.487H197.94V112.094C197.94 100.657 207.213 91.3843 218.65 91.3843C230.087 91.3843 239.359 100.657 239.359 112.094V193.487Z" fill="black"/>
<path d="M213.253 113.907C214.468 116.56 213.57 119.572 211.248 120.635C208.926 121.697 206.06 120.408 204.846 117.755C203.632 115.102 204.53 112.089 206.85 111.027C209.172 109.963 212.039 111.254 213.253 113.907Z" fill="#D68A85"/>
<path d="M209.215 113.4C209.047 113.374 207.879 113.212 207.089 113.976C206.236 114.8 206.15 116.387 207.093 117.628" stroke="#222F3E" stroke-width="0.337144" stroke-miterlimit="10"/>
<path d="M232.178 126.02H216.176V144.156H232.178V126.02Z" fill="#D68A85"/>
<path d="M216.176 126.02V136.43C217.737 136.491 221.295 136.466 225.104 134.896C229.395 133.128 231.459 130.451 232.177 129.399C232.177 128.273 232.177 127.146 232.177 126.019H216.176V126.02Z" fill="#BF6462"/>
<path d="M235.814 120.588C235.051 124.135 233.414 127.203 231.23 129.341C229.272 131.251 226.871 132.422 224.233 132.505C221.344 132.601 218.645 131.382 216.448 129.257C214.251 127.144 212.567 124.135 211.696 120.612C211.338 119.155 211.123 117.603 211.063 115.991C210.752 106.641 216.138 98.8681 223.111 98.6412C230.084 98.4143 235.982 105.806 236.293 115.155C236.352 117.042 236.184 118.869 235.814 120.588Z" fill="#D68A85"/>
<path d="M230.18 114.156C230.21 114.568 230.568 114.877 230.98 114.846C231.392 114.816 231.701 114.457 231.669 114.046C231.639 113.635 231.281 113.325 230.869 113.356C230.457 113.386 230.149 113.744 230.18 114.156Z" fill="#222F3E"/>
<path d="M218.722 115.005C218.753 115.417 219.111 115.725 219.522 115.694C219.934 115.664 220.242 115.305 220.212 114.894C220.181 114.483 219.824 114.173 219.412 114.205C219 114.235 218.692 114.594 218.722 115.005Z" fill="#222F3E"/>
<path d="M219.591 118.754C219.603 119.895 218.687 120.828 217.546 120.84C216.405 120.852 215.472 119.937 215.46 118.796C215.448 117.655 216.365 116.721 217.504 116.709C218.645 116.699 219.58 117.614 219.591 118.754Z" fill="#EE5253"/>
<path d="M234.736 118.601C234.748 119.742 233.833 120.675 232.692 120.687C231.551 120.699 230.617 119.784 230.606 118.643C230.594 117.502 231.509 116.568 232.65 116.557C233.791 116.545 234.724 117.46 234.736 118.601Z" fill="#EE5253"/>
<path d="M225.521 112.938V118.621H227.446L225.929 120.16" stroke="#222F3E" stroke-width="0.376397" stroke-miterlimit="10"/>
<path d="M229.078 108.594C228.992 108.878 230.074 109.458 231.495 109.889C232.915 110.32 234.137 110.44 234.223 110.155C234.309 109.871 233.227 109.291 231.806 108.86C230.386 108.43 229.164 108.31 229.078 108.594Z" fill="#222F3E"/>
<path d="M221.319 108.594C221.405 108.878 220.323 109.458 218.902 109.889C217.481 110.32 216.26 110.44 216.174 110.155C216.088 109.871 217.17 109.291 218.59 108.86C220.011 108.43 221.233 108.31 221.319 108.594Z" fill="#222F3E"/>
<path d="M217.132 120.129C219.805 120.129 221.972 117.963 221.972 115.29C221.972 112.617 219.805 110.45 217.132 110.45C214.46 110.45 212.293 112.617 212.293 115.29C212.293 117.963 214.46 120.129 217.132 120.129Z" stroke="#3C6382" stroke-width="1.07542" stroke-miterlimit="10"/>
<path d="M232.188 120.129C234.861 120.129 237.027 117.963 237.027 115.29C237.027 112.617 234.861 110.45 232.188 110.45C229.515 110.45 227.349 112.617 227.349 115.29C227.349 117.963 229.515 120.129 232.188 120.129Z" stroke="#3C6382" stroke-width="1.07542" stroke-miterlimit="10"/>
<path d="M227.501 114.099L221.819 114.102" stroke="#3C6382" stroke-width="1.07542" stroke-miterlimit="10"/>
<path d="M228.962 121.742C228.041 123.213 226.374 124.048 224.66 123.893C223.021 123.745 221.582 122.714 220.898 121.205" stroke="#222F3E" stroke-width="0.376397" stroke-miterlimit="10"/>
<path d="M230.994 105.524H216.676V103.872C216.676 99.9187 219.881 96.7129 223.835 96.7129C227.788 96.7129 230.994 99.9176 230.994 103.872V105.524Z" fill="black"/>
<path d="M170.692 210.4C165.667 207.961 163.571 201.909 166.01 196.885L189.484 148.527C191.923 143.501 197.974 141.405 202.999 143.844C208.024 146.283 210.12 152.335 207.681 157.359L184.207 205.718C181.768 210.743 175.718 212.839 170.692 210.4Z" fill="#1C2F35"/>
<path d="M287.741 153.913L300.895 162.158L314.248 140.854L301.095 132.609L287.741 153.913Z" fill="#D68A85"/>
<path d="M323.186 140.58L312.411 143.88C307.31 145.441 301.908 142.573 300.347 137.471C298.785 132.371 301.653 126.969 306.755 125.406L317.531 122.107L323.186 140.58Z" fill="#D68A85"/>
<path d="M332.603 122.557L315.763 127.714C314.484 128.105 313.129 127.386 312.738 126.107C312.346 124.829 313.066 123.474 314.344 123.082L331.184 117.926C332.463 117.534 333.818 118.254 334.209 119.532C334.602 120.812 333.882 122.166 332.603 122.557Z" fill="#F2C6C2"/>
<path d="M334.183 127.169L317.139 132.388C315.86 132.779 314.505 132.06 314.114 130.781C313.722 129.502 314.442 128.147 315.72 127.756L332.766 122.537C334.044 122.146 335.399 122.865 335.791 124.144C336.182 125.422 335.463 126.777 334.183 127.169Z" fill="#F2C6C2"/>
<path d="M336.229 131.564L318.544 136.979C317.265 137.37 315.91 136.651 315.519 135.372C315.127 134.093 315.847 132.738 317.125 132.347L334.811 126.932C336.089 126.541 337.444 127.26 337.836 128.539C338.227 129.818 337.508 131.173 336.229 131.564Z" fill="#F2C6C2"/>
<path d="M333.326 137.474L319.948 141.571C318.67 141.962 317.315 141.243 316.923 139.964C316.532 138.685 317.251 137.33 318.53 136.939L331.908 132.843C333.188 132.451 334.542 133.171 334.933 134.449C335.326 135.728 334.605 137.083 333.326 137.474Z" fill="#D68A85"/>
<path d="M331.684 122.867L320.193 126.385" stroke="#D89491" stroke-width="0.722467" stroke-miterlimit="10"/>
<path d="M332.502 127.989L321.01 131.508" stroke="#D89491" stroke-width="0.722467" stroke-miterlimit="10"/>
<path d="M332.376 132.9L320.885 136.417" stroke="#D89491" stroke-width="0.722467" stroke-miterlimit="10"/>
<path d="M316.061 126.354L319.819 138.964" stroke="#D89491" stroke-width="0.722467" stroke-miterlimit="10"/>
<path d="M344.975 146.239L326.795 136.663L308.6 146.211L312.089 125.961L297.386 111.606L317.723 108.668L326.831 90.2485L335.911 108.682L356.242 111.653L341.518 125.984L344.975 146.239Z" fill="#FFD500"/>
<path d="M318.779 126.215L310.598 129.61C309.362 130.123 307.945 129.537 307.432 128.301C306.919 127.066 307.505 125.648 308.741 125.135L316.921 121.74C318.157 121.227 319.574 121.813 320.087 123.049C320.6 124.285 320.014 125.702 318.779 126.215Z" fill="#D68A85"/>
<path d="M262.209 209.914C266.942 212.88 273.184 211.448 276.15 206.715C286.762 188.065 297.375 169.416 307.987 150.766C303.685 147.897 299.384 145.03 295.082 142.162C283.059 160.099 271.034 178.036 259.011 195.973C256.045 200.706 257.477 206.948 262.209 209.914Z" fill="#D68A85"/>
<path d="M227.89 416.427V385.982H227.847V241.671H223.416V416.427H182.292L186.002 301.432L186.411 278.321L186.422 278.332C186.4 274.116 186.454 269.17 186.68 263.706C186.701 263.308 186.712 262.932 186.733 262.545C186.798 261.308 186.863 260.05 186.927 258.781C186.949 258.405 186.97 258.028 187.002 257.663C187.024 257.329 187.035 256.996 187.045 256.673C187.121 255.587 187.174 254.544 187.239 253.544C187.25 253.404 187.26 253.253 187.271 253.114C187.476 249.887 187.68 247.134 187.959 244.628C187.992 244.381 188.024 244.134 188.056 243.876C188.175 242.908 188.304 241.972 188.443 241.058C188.852 238.456 189.411 236.057 190.207 233.541C191.132 230.583 192.562 226.798 194.907 222.486C194.971 222.335 195.057 222.174 195.154 222.034C196.1 220.313 197.208 218.506 198.477 216.646C199.112 215.71 199.8 214.775 200.52 213.828C200.692 213.57 200.908 213.323 201.101 213.076C202.047 211.86 203.069 210.634 204.166 209.376C204.22 209.312 204.284 209.247 204.338 209.183V187.255H246.699V208.924C246.839 209.075 246.968 209.226 247.097 209.376C249.301 211.86 251.183 214.302 252.775 216.646C254.152 218.668 255.345 220.625 256.367 222.486C256.442 222.636 256.528 222.776 256.614 222.926C258.808 227.045 260.174 230.691 261.067 233.541C261.841 236.025 262.379 238.38 262.798 240.95C263.379 244.51 263.701 248.457 264.035 253.544C264.045 253.694 264.045 253.834 264.056 253.995C264.142 255.479 264.239 257.071 264.347 258.781C264.949 269.471 264.906 278.601 264.755 284.742C264.744 285.053 264.734 285.365 264.723 285.677C264.691 287.14 264.637 288.409 264.594 289.463L268.681 416.427H227.89Z" fill="#74A475"/>
<path d="M187.17 249.241C188.541 249.066 190.374 248.713 192.413 247.959C193.681 247.49 195.029 246.865 196.397 246.031C203.238 241.858 205.802 235.343 206.554 233.161" stroke="white" stroke-width="0.963254" stroke-miterlimit="10"/>
<path d="M263.38 250.204C262.009 250.029 260.177 249.676 258.138 248.923C256.87 248.454 255.521 247.829 254.153 246.994C247.314 242.822 244.749 236.307 243.997 234.125" stroke="white" stroke-width="0.963254" stroke-miterlimit="10"/>
<path d="M219.514 241.214H231.714" stroke="white" stroke-width="0.963254" stroke-miterlimit="10"/>
<path d="M247.097 209.376H204.166C204.22 209.312 204.284 209.247 204.338 209.183V201.848H246.699V208.925C246.839 209.075 246.968 209.226 247.097 209.376Z" fill="#D9D9D9"/>
<path d="M234.858 198.084H216.576V213.14H234.858V198.084Z" stroke="white" stroke-width="0.963254" stroke-miterlimit="10"/>
<path d="M246.838 202.242C232.711 202.242 218.584 202.242 204.456 202.242C202.146 196.609 199.764 189.115 198.677 180.087C196.753 164.116 199.803 151.029 202.305 143.268C215.545 143.34 228.783 143.412 242.022 143.484C245.345 151.025 249.614 163.43 249.727 179.124C249.795 188.357 248.405 196.228 246.838 202.242Z" fill="#1C2F35"/>
<path d="M170.058 207.705C173.338 212.226 179.662 213.233 184.184 209.953C201.001 196.625 217.817 183.298 234.635 169.971C231.718 165.702 228.801 161.434 225.884 157.164C208.025 169.303 190.165 181.441 172.306 193.579C167.784 196.859 166.778 203.184 170.058 207.705Z" fill="#D68A85"/>
<path d="M226.294 184.325L241.976 180.34C243.269 180.012 244.05 178.698 243.722 177.406L236.033 147.156C235.705 145.864 234.391 145.082 233.1 145.411L217.418 149.397C216.126 149.725 215.344 151.039 215.672 152.331L223.361 182.581C223.689 183.872 225.002 184.653 226.294 184.325Z" fill="#222F3E"/>
<path d="M222.04 151.4L229.995 149.379C230.871 149.156 231.402 148.264 231.179 147.387L230.823 145.989L219.692 148.817L220.048 150.215C220.271 151.093 221.162 151.623 222.04 151.4Z" fill="#222F3E"/>
<path d="M238.765 161.158L219.709 166C218.579 166.287 217.429 165.604 217.141 164.473C216.854 163.343 217.537 162.193 218.668 161.905L237.724 157.062C238.855 156.775 240.004 157.458 240.292 158.589C240.581 159.721 239.897 160.869 238.765 161.158Z" fill="#D68A85"/>
<path d="M239.805 165.252L220.75 170.094C219.62 170.381 218.47 169.697 218.182 168.567C217.895 167.437 218.578 166.287 219.709 165.999L238.765 161.156C239.896 160.869 241.045 161.553 241.333 162.684C241.619 163.815 240.935 164.964 239.805 165.252Z" fill="#D68A85"/>
<path d="M240.846 169.347L221.79 174.189C220.66 174.477 219.51 173.794 219.222 172.662C218.935 171.532 219.619 170.382 220.749 170.095L239.804 165.253C240.934 164.966 242.084 165.648 242.372 166.78C242.661 167.909 241.977 169.059 240.846 169.347Z" fill="#D68A85"/>
<path d="M241.887 173.441L222.831 178.284C221.701 178.571 220.551 177.888 220.264 176.757C219.977 175.626 220.66 174.477 221.791 174.188L240.847 169.346C241.978 169.059 243.127 169.742 243.415 170.873C243.702 172.004 243.019 173.154 241.887 173.441Z" fill="#D68A85"/>
<path d="M215.742 154.009L221.442 160.789C222.303 161.812 222.171 163.341 221.148 164.201C220.124 165.062 218.596 164.93 217.735 163.905L212.034 157.126C211.173 156.102 211.305 154.574 212.33 153.713C213.353 152.853 214.881 152.985 215.742 154.009Z" fill="#D68A85"/>
</g>
</svg>
