<svg width="649" height="395" viewBox="0 0 649 395" fill="none" xmlns="http://www.w3.org/2000/svg">
<mask id="mask0_150_1998" style="mask-type:alpha" maskUnits="userSpaceOnUse" x="0" y="0" width="649" height="395">
<rect width="649" height="395" rx="20" fill="#F7F7F7"/>
</mask>
<g mask="url(#mask0_150_1998)">
<rect width="649" height="395" rx="20" fill="#F7F7F7"/>
<path d="M492.036 323.105C496.329 320.093 500.753 317.279 505.449 314.866C529.608 302.451 552.226 289.709 571.095 270.153C593.445 246.99 609.111 215.707 609.113 182.886C609.116 150.065 591.455 116.416 562.377 102.802C526.188 85.8594 484.787 101.969 445.409 106.03C394.647 111.265 344.179 95.8143 294.085 85.1435C243.992 74.4728 189.551 69.0451 144.056 92.535C107.426 111.448 80.4507 148.882 73.4006 190.584C66.3506 232.287 79.3924 277.271 107.561 308.412C148.203 353.342 212.13 365.441 271.406 368.307C315.088 370.419 358.902 368.9 402.285 363.768C421.854 361.454 440.17 357.473 457.45 347.739C469.882 340.737 480.488 331.206 492.036 323.105Z" fill="white" stroke="#F4EBD7" stroke-width="0.893556" stroke-miterlimit="10"/>
<path d="M223.045 364.292C192.531 360.683 161.826 353.31 134.863 337.152C107.901 320.994 84.8861 295.2 75.9062 263.643C66.9262 232.085 74.0213 194.901 97.134 173.857C125.898 147.668 168.514 151.833 205.967 144.967C254.247 136.116 296.598 107.454 339.91 83.4922C383.222 59.5302 431.982 39.4198 480.394 49.5615C519.374 57.7269 554.508 86.3417 572.422 124.51C590.335 162.679 590.604 209.5 573.125 247.147C547.906 301.465 492.217 330.584 438.295 349.554C398.559 363.533 357.707 374.057 316.265 380.99C301.031 383.538 285.482 385.602 270.137 383.189C254.792 380.776 239.468 373.363 229.973 360.085L223.045 364.292Z" fill="white"/>
<mask id="mask1_150_1998" style="mask-type:luminance" maskUnits="userSpaceOnUse" x="351" y="15" width="205" height="188">
<path d="M351.25 15.1793V180.425V202.501L376.897 180.425H555.453V15.1793H351.25Z" fill="white"/>
</mask>
<g mask="url(#mask1_150_1998)">
<path d="M555.453 15.1793H351.25V211.583H555.453V15.1793Z" fill="white"/>
<g opacity="0.6">
<path d="M409.202 138.034C390.748 126.523 383.157 107.416 383.091 88.9802C383.036 73.4843 389.755 54.3695 411.97 57.7737C426.903 60.0622 439.393 69.1902 453.705 73.2242C465.294 76.49 477.596 75.5357 489.329 74.9579C507.721 74.0525 527.726 84.7428 529.67 97.01C532.277 113.455 529.863 131.675 515.371 141.251C489.989 158.023 437.759 155.846 409.202 138.034Z" stroke="#C0C0C0" stroke-width="0.860347" stroke-miterlimit="10" stroke-dasharray="6.85 6.85"/>
</g>
<path d="M424.649 156.969C403.158 153.617 388.683 139.019 381.392 122.085C375.264 107.852 373.949 87.6335 395.719 82.053C410.353 78.3015 425.422 81.8 440.17 79.8976C452.111 78.3572 463.054 72.6545 473.62 67.5217C490.183 59.4757 509.387 56.1524 519.378 71.9862C528.263 86.0673 526.402 105.407 516.826 119.9C500.056 145.282 457.904 162.155 424.649 156.969Z" fill="#F0F0F0"/>
<path d="M395.091 37.657C396.174 33.0692 393.333 28.4719 388.746 27.3886C384.158 26.3053 379.56 29.1462 378.477 33.734C377.394 38.3218 380.235 42.9191 384.823 44.0024C389.41 45.0857 394.008 42.2448 395.091 37.657Z" fill="#D68A85"/>
<path d="M388.625 39.3076L386.758 36.7864L384.877 39.3076H382.997L385.831 35.6146L383.119 32.0304H385.013L386.798 34.4153L388.584 32.0304H390.424L387.698 35.5871L390.546 39.3079L388.625 39.3076Z" fill="white"/>
<path d="M417.028 37.7556C418.192 33.1872 415.432 28.5406 410.863 27.3771C406.295 26.2137 401.648 28.974 400.485 33.5424C399.321 38.1109 402.081 42.7575 406.65 43.9209C411.218 45.0844 415.865 42.3241 417.028 37.7556Z" fill="#ADD1C8"/>
<path d="M412.195 34.7315H405.324V36.6053H412.195V34.7315Z" fill="white"/>
<path d="M486.701 135.749C465.341 147.981 454.972 144.621 451.611 142.723C448.26 144.621 437.891 147.981 416.531 135.749C396.07 124.02 407.997 98.8041 416.055 83.4617C420.433 75.1277 423.81 66.3325 431.489 60.3253C438.712 54.6748 446.806 52.9297 456.297 53.3984C469.345 54.0427 477.44 61.814 481.442 71.136C484.625 78.5519 488.579 85.488 492.056 92.7497C495.315 99.555 497.942 106.962 498.185 114.516C498.469 123.303 494.676 131.178 486.701 135.749Z" fill="#6F3428"/>
<path d="M491.792 134.259C478.709 119.541 454.617 122.612 452.053 122.987C449.489 122.612 425.398 119.541 412.315 134.259C402.463 145.342 402.591 189.576 402.591 189.576C402.591 188.485 448.419 188.164 452.053 188.141C455.688 188.164 501.516 188.485 501.516 189.576C501.516 189.576 501.643 145.342 491.792 134.259Z" fill="#74A475"/>
<path d="M431.755 89.855C426.623 90.3795 422.346 102.886 436.233 103.148L439.554 99.2149L431.755 89.855Z" fill="#E28B6D"/>
<path d="M472.471 89.8553C478.26 90.1581 482.373 102.886 468.486 103.149L465.165 99.2151L472.471 89.8553Z" fill="#E28B6D"/>
<path d="M452.053 134.691C445.669 134.691 440.493 129.515 440.493 123.131V108.545H463.614V123.131C463.614 129.516 458.438 134.691 452.053 134.691Z" fill="#F9B384"/>
<path d="M463.552 111.639C455.946 124.031 448.225 123.813 440.396 112.068L463.552 111.639Z" fill="#E28B6D"/>
<path d="M474.355 80.5921C474.242 81.7239 474.108 82.8355 473.964 83.9367C471.566 102.266 465.308 116.612 451.714 116.612C437.758 116.612 432.901 102.842 430.348 83.6897C430.132 82.1252 429.947 80.5095 429.762 78.8731L457.209 67.9023L474.355 80.5921Z" fill="#F9B384"/>
<path d="M427.531 89.4259C434.521 91.7843 447.857 83.8942 447.857 83.8942C446.822 80.894 448.286 77.9417 451.202 75.0179C451.028 77.9895 451.716 82.6509 454.375 84.366C454.375 84.366 456.176 84.7948 458.963 84.1947C458.283 80.7977 458.779 77.8202 460.85 75.404C460.85 75.404 463.98 83.9372 465.524 85.8672C467.476 88.3071 474.503 91.9936 480.79 88.9118L469.083 62.411L438.08 61.7679L424.058 74.7608L427.531 89.4259Z" fill="#6F3428"/>
<path d="M444.074 92.7094C445.094 92.7094 445.922 91.5786 445.922 90.1837C445.922 88.7888 445.094 87.6581 444.074 87.6581C443.053 87.6581 442.226 88.7888 442.226 90.1837C442.226 91.5786 443.053 92.7094 444.074 92.7094Z" fill="#6F3428"/>
<path d="M459.596 92.7094C460.617 92.7094 461.444 91.5786 461.444 90.1837C461.444 88.7888 460.617 87.6581 459.596 87.6581C458.575 87.6581 457.748 88.7888 457.748 90.1837C457.748 91.5786 458.575 92.7094 459.596 92.7094Z" fill="#6F3428"/>
<path d="M454.263 96.9947C454.263 99.446 454.458 101.377 452.421 101.433C450.484 101.486 450.579 99.446 450.579 96.9947C450.579 94.5434 451.403 92.5563 452.421 92.5563C453.438 92.5563 454.263 94.5437 454.263 96.9947Z" fill="#E28B6D"/>
<path d="M446.732 105.578L458.391 105.256C458.391 105.256 453.522 114.571 446.732 105.578Z" fill="white"/>
<path opacity="0.3" d="M463.516 103.877C466.243 103.877 468.455 101.666 468.455 98.9387C468.455 96.2111 466.243 93.9999 463.516 93.9999C460.788 93.9999 458.577 96.2111 458.577 98.9387C458.577 101.666 460.788 103.877 463.516 103.877Z" fill="#E19379"/>
<path opacity="0.3" d="M447.178 100.248C447.613 97.5558 445.783 95.0203 443.091 94.5852C440.398 94.1502 437.862 95.9803 437.427 98.673C436.992 101.366 438.822 103.901 441.515 104.336C444.208 104.771 446.743 102.941 447.178 100.248Z" fill="#E19379"/>
<g opacity="0.4">
<path d="M438.414 134.622C439.24 135.585 440.282 136.354 441.43 136.933C442.563 137.534 443.771 138.005 445.013 138.352C447.5 139.04 450.094 139.358 452.661 139.244C455.225 139.133 457.774 138.604 460.092 137.536C462.415 136.474 464.442 134.811 466.044 132.743L466.55 133.072C465.893 134.265 465.031 135.35 464.051 136.321C463.049 137.27 461.913 138.084 460.693 138.743C458.237 140.052 455.467 140.668 452.724 140.779C449.976 140.875 447.213 140.502 444.621 139.595C443.327 139.14 442.066 138.575 440.901 137.835C439.75 137.084 438.661 136.164 437.919 134.967L438.414 134.622Z" fill="#6F3428"/>
</g>
<g opacity="0.4">
<path d="M425.326 153.396C425.426 156.018 425.434 158.637 425.421 161.255C425.425 163.874 425.355 166.49 425.282 169.107C425.2 171.723 425.095 174.338 424.933 176.952L424.67 180.871C424.549 182.176 424.458 183.483 424.305 184.787L423.702 184.767C423.635 183.456 423.628 182.146 423.592 180.836L423.585 176.908C423.593 174.289 423.658 171.672 423.746 169.057C423.844 166.441 423.944 163.826 424.118 161.213C424.275 158.599 424.453 155.986 424.723 153.376L425.326 153.396Z" fill="#6F3428"/>
</g>
<g opacity="0.4">
<path d="M479.939 152.081C480.379 154.701 480.727 157.329 481.053 159.959C481.397 162.587 481.667 165.223 481.935 167.859C482.193 170.496 482.429 173.135 482.607 175.78L482.856 179.749C482.905 181.075 482.984 182.398 483.002 183.727L482.401 183.785C482.164 182.477 481.988 181.163 481.782 179.853L481.265 175.91C480.933 173.28 480.658 170.645 480.406 168.007C480.163 165.369 479.923 162.73 479.756 160.085C479.573 157.441 479.41 154.794 479.339 152.139L479.939 152.081Z" fill="#6F3428"/>
</g>
</g>
<path d="M351.251 15.1793V180.425V202.501L376.898 180.425H555.454V15.1793H351.251Z" stroke="#708CD5" stroke-width="1.20449" stroke-miterlimit="10"/>
<path d="M571.538 298.97H562.361V388.732H571.538V298.97Z" fill="#A0A0A0"/>
<path d="M569.244 292.938C569.123 299.433 568.521 304.905 568.014 308.441C567.626 311.16 567.3 312.726 567.3 312.726C542.246 304.595 530.752 289.066 525.968 273.399C525.521 271.971 525.142 270.534 524.816 269.106C519.757 247.305 526.536 226.536 526.536 226.536C538.022 228.936 546.514 233.944 552.751 240.388C553.826 241.489 554.824 242.625 555.762 243.803C567.308 258.274 569.519 278.226 569.244 292.938Z" fill="#E1E1E1"/>
<path d="M601.721 249.542C601.222 266.973 594.442 287.277 573.416 306.772C571.807 308.269 570.103 309.766 568.314 311.255C568.124 311.418 567.935 311.573 567.746 311.728C567.746 311.728 564.262 306.617 560.674 298.306C560.622 298.186 560.571 298.074 560.528 297.954C559.271 295.02 558.007 291.69 556.888 288.051C555.968 285.083 555.142 281.917 554.479 278.579C551.95 265.751 551.941 250.54 558.936 235.484C564.184 224.145 573.407 212.9 588.497 202.808C588.497 202.808 602.495 222.802 601.721 249.542Z" fill="#E1E1E1"/>
<path opacity="0.5" d="M573.416 306.772C571.807 308.269 570.103 309.766 568.314 311.255C568.124 311.418 567.935 311.573 567.746 311.728C567.746 311.728 564.261 306.617 560.674 298.306C560.625 298.193 560.576 298.069 560.527 297.954L560.528 297.954C560.224 297.245 559.92 296.511 559.618 295.757C559.503 295.469 559.389 295.166 559.275 294.872C559.078 294.367 558.88 293.866 558.685 293.343C558.533 292.932 558.385 292.502 558.235 292.08C558.077 291.639 557.918 291.207 557.763 290.753C557.464 289.873 557.171 288.973 556.888 288.051C555.968 285.083 555.142 281.917 554.479 278.579C552.414 268.117 552.027 256.063 555.761 243.803C554.823 242.625 553.825 241.489 552.75 240.388C550.339 246.752 546.421 261.341 545.955 274.498C540.164 272.228 533.199 270.367 524.815 269.106C525.141 270.534 525.52 271.971 525.967 273.399C522.397 272.548 518.534 271.799 514.361 271.18C517.656 282.416 530.871 318.206 565.354 318.74C566.232 318.757 567.118 318.748 568.021 318.714C569.441 318.671 570.895 318.559 572.392 318.387C572.392 318.387 573.94 313.509 573.416 306.772Z" fill="#A0A0A0"/>
<path d="M568.237 316.838C568.237 316.864 568.237 316.898 568.228 316.924C568.211 317.139 568.194 317.346 568.168 317.544C568.151 317.638 568.142 317.733 568.134 317.828C568.117 317.991 568.099 318.146 568.074 318.301C568.013 318.774 567.945 319.213 567.876 319.634C567.833 319.91 567.781 320.176 567.729 320.434C567.273 322.749 566.757 324.125 566.757 324.125C564.305 324.28 561.965 324.272 559.711 324.117C518.888 321.381 510.508 270.638 510.508 270.638C511.824 270.801 513.106 270.982 514.362 271.18C518.535 271.799 522.398 272.548 525.968 273.399C540.723 276.91 550.488 282.201 556.889 288.051C558.816 289.806 560.434 291.621 561.784 293.445C565.57 298.539 567.334 303.77 568.013 308.441C568.16 309.405 568.254 310.343 568.314 311.255C568.444 313.285 568.392 315.169 568.237 316.838Z" fill="#E1E1E1"/>
<path opacity="0.38" d="M601.722 249.542C601.473 258.257 599.649 267.687 595.261 277.383C590.882 287.079 583.93 297.025 573.417 306.772C573.374 306.807 573.331 306.85 573.288 306.884C572.668 307.461 572.032 308.037 571.378 308.614C571.188 308.786 570.999 308.958 570.801 309.13C569.992 309.835 569.167 310.549 568.315 311.255C568.255 310.343 568.16 309.405 568.014 308.442C567.334 303.77 565.57 298.539 561.785 293.446C560.434 291.622 558.817 289.806 556.889 288.051C555.969 285.083 555.143 281.917 554.48 278.579C556.812 279.938 558.877 281.375 560.684 282.872C561.965 283.922 563.101 284.997 564.142 286.09C569.519 272.023 580.351 257.621 601.722 249.542Z" fill="#A0A0A0"/>
<path opacity="0.2" d="M568.237 316.838C568.237 316.864 568.237 316.898 568.228 316.924C568.211 317.139 568.194 317.345 568.168 317.543C568.15 317.638 568.142 317.733 568.133 317.827C568.116 317.991 568.099 318.146 568.073 318.3C568.013 318.774 567.944 319.212 567.875 319.634C567.824 319.909 567.781 320.176 567.729 320.434C567.273 322.748 566.757 324.125 566.757 324.125C564.305 324.28 561.965 324.271 559.71 324.116C559.332 321.303 558.239 310.833 560.674 298.306C560.984 296.714 561.354 295.088 561.784 293.445C565.569 298.538 567.333 303.769 568.013 308.441C568.159 309.404 568.254 310.342 568.314 311.254C568.443 313.285 568.391 315.169 568.237 316.838Z" fill="#A0A0A0"/>
<path d="M607.529 377.26L597.438 443.318C596.31 450.682 589.978 456.12 582.528 456.12H552.226C545.627 456.12 539.898 451.853 537.902 445.753C537.643 444.97 537.446 444.152 537.317 443.318L527.225 377.26H607.529Z" fill="#1C2F35"/>
<path d="M565.699 324.206C565.699 324.206 554.642 258.627 624.965 249.173C624.965 249.173 629.376 321.034 565.699 324.206Z" fill="#E1E1E1"/>
<path opacity="0.4" d="M607.528 377.26L597.436 443.318C596.309 450.682 589.977 456.12 582.527 456.12H552.225C545.626 456.12 539.896 451.853 537.9 445.753C577.244 439.446 587.792 398.941 589.926 377.26H607.528Z" fill="#1C2F35"/>
<path d="M475.499 350.108C473.383 385.03 455.78 419.925 426.924 439.128C392.528 462.022 344.434 456.955 305.263 459.871C271.399 462.392 237.278 464.56 203.406 460.955C175.651 457.996 147.656 447 134.398 420.054C121.114 393.048 119.677 357.163 132.961 329.83C137.194 321.106 142.864 313.354 149.531 306.592C150.615 305.482 151.742 304.398 152.887 303.34C153.661 302.626 154.444 301.92 155.244 301.232C156.466 300.174 157.722 299.141 158.995 298.135C159.417 297.808 159.838 297.481 160.268 297.154C160.69 296.827 161.12 296.509 161.55 296.19C161.98 295.872 162.411 295.554 162.849 295.244C163.176 295.012 163.503 294.779 163.83 294.547C164.372 294.16 164.923 293.781 165.482 293.411C170.429 290.073 175.643 287.139 181.02 284.619C186.251 282.149 191.637 280.067 197.057 278.381C214.875 272.849 233.484 270.887 251.87 268.47C290.886 263.351 330.608 261.604 369.935 261.63C402.026 261.639 438.16 266.44 459.617 293.988C471.731 309.543 476.713 330.217 475.499 350.108Z" fill="#E1E1E1"/>
<path d="M409.435 291.126C409.435 291.126 417.712 283.35 422.098 278.849C426.485 274.349 416.914 274.203 412.197 279.812C407.48 285.42 409.435 291.126 409.435 291.126Z" fill="#F9B384"/>
<path d="M181.02 284.618C175.643 287.139 170.429 290.073 165.482 293.411C164.923 293.781 164.372 294.159 163.83 294.546C163.503 294.779 163.176 295.011 162.849 295.243C162.411 295.553 161.98 295.871 161.55 296.19C161.12 296.508 160.69 296.826 160.268 297.153C159.838 297.48 159.417 297.807 158.995 298.134C157.739 299.132 156.509 300.156 155.296 301.206L155.244 301.231C154.444 301.92 153.661 302.625 152.887 303.339C151.742 304.397 150.615 305.481 149.531 306.591C149.626 307.503 150.22 308.381 151.195 308.581C157.653 309.887 160.886 316.048 166.091 319.551C169.953 322.15 174.52 322.863 178.89 321.373C174.184 331.339 171.589 341.225 173.621 352.379C174.239 355.751 175.31 359.036 176.772 362.137C170.724 357.645 164.899 348.024 162.503 338.267C162.163 336.882 160.764 336.014 159.381 336.376C157.997 336.716 157.15 338.113 157.49 339.498C160.456 351.578 168.007 363.185 175.851 367.723C177.719 368.804 179.616 369.491 181.495 369.807C183.049 371.799 184.783 373.649 186.689 375.307L198.287 378.551L207.751 317.466L181.02 284.618Z" fill="#C8C8C8"/>
<path d="M214.634 325.639C190.656 316.3 174.009 306.369 164.344 299.755C158.08 295.469 154.911 287.911 156.195 280.429L168.56 208.354C169.832 200.936 174.751 194.629 181.669 191.663C201.506 183.157 220.82 178.296 237.864 175.939C237.864 175.939 247.411 175.169 259.588 176.369C267.6 177.16 285.944 182.565 297.604 186.186C304.193 188.233 309.48 193.166 311.975 199.598C316.864 212.2 324.807 233.481 327.339 244.982C336.086 284.701 334.652 281.762 334.652 281.762L343.686 342.846L247.757 348.224L223.238 337.039L214.634 325.639Z" fill="#1C2F35"/>
<path d="M273.998 107.327C273.998 107.327 265.502 89.905 242.918 97.8632C226.571 94.3141 214.096 113.672 226.141 140.02L248.833 145.29L273.998 107.327Z" fill="#102048"/>
<path d="M261.953 156.581V187.399C261.953 194.609 256.102 200.459 248.893 200.459C239.119 200.459 231.195 192.535 231.195 182.762V156.581H261.953Z" fill="#F9B384"/>
<path d="M261.953 169.366V186.177C248.247 186.246 239.153 168.523 239.153 168.523L261.953 169.366Z" fill="#E28B6D"/>
<path d="M275.511 152.701C274.686 156.968 273.507 161.339 271.812 165.185C268.852 171.938 264.336 177.083 257.436 177.23C241.287 177.574 228.829 155.506 228.829 155.506L231.41 125.394L243.67 111.628L277.439 132.492C277.439 132.492 277.533 142.282 275.511 152.701Z" fill="#F9B384"/>
<path d="M230.873 146.688C230.873 146.688 234.207 133.137 245.821 124.319C245.821 124.319 262.706 146.365 280.558 135.718C298.41 125.072 290.667 104.101 273.998 107.327L254.855 105.176L230.873 112.812L226.786 131.632L230.873 146.688Z" fill="#102048"/>
<path opacity="0.4" d="M247.822 302.86C231.554 267.709 211.049 284.486 206.031 271.581C198.999 253.498 200.332 233.042 200.295 226.843L190.497 282.013C190.497 282.013 212.372 284.093 220.46 297.264L247.822 302.86Z" fill="#1C2F35"/>
<path d="M200.793 225.902C200.183 230.622 199.464 235.323 198.721 240.019C197.998 244.719 197.149 249.396 196.369 254.086C195.552 258.769 194.694 263.445 193.777 268.111L192.375 275.104C191.868 277.429 191.396 279.759 190.852 282.076L190.141 281.95C190.425 279.587 190.781 277.236 191.103 274.879L192.187 267.829C192.926 263.132 193.725 258.446 194.565 253.767C195.442 249.094 196.25 244.409 197.184 239.747C198.097 235.081 199.035 230.419 200.082 225.777L200.793 225.902Z" fill="white"/>
<path d="M295.837 217.177C297.139 223.307 298.341 229.454 299.519 235.606C300.717 241.754 301.797 247.924 302.941 254.081C304.033 260.249 305.101 266.42 306.14 272.596L307.641 281.872C308.104 284.97 308.6 288.062 309.029 291.167L308.367 291.285C307.696 288.223 307.093 285.15 306.457 282.083L304.66 272.86C303.5 266.706 302.37 260.545 301.263 254.381C300.209 248.207 299.09 242.044 298.089 235.861C297.068 229.681 296.071 223.497 295.175 217.295L295.837 217.177Z" fill="white"/>
<path opacity="0.4" d="M300.382 245.628C301.529 256.812 299.808 314.742 272.851 315.603L273.137 328.221L315.581 325.64L300.382 245.628Z" fill="#1C2F35"/>
<path d="M244.961 314.025C264.104 305.852 267.763 306.156 270.341 306.282C279.16 306.712 291.85 324.349 291.85 324.349L291.635 327.576H243.24L244.961 314.025Z" fill="#E28B6D"/>
<path d="M318.592 324.421H259.013V333.454H318.592V324.421Z" fill="#B1B1B1"/>
<path d="M399.608 333.462H296.08L319.309 240.945H422.838L399.608 333.462Z" fill="#B1B1B1"/>
<path d="M408.992 295.624C398.749 294.094 365.625 287.211 297.371 328.794L295.794 334.53L399.609 333.462L408.992 295.624Z" fill="#919191"/>
<path d="M410.955 316.176C410.309 320.531 410.094 326.93 396.597 326.124L392.618 324.08L396.382 319.94L404.502 315.8L410.955 316.176Z" fill="#F9B384"/>
<path d="M412.228 304.418C412.228 304.418 419.614 314.067 412.192 317.036C404.126 320.262 396.383 319.94 396.383 319.94C399.824 310.261 411.009 310.906 411.009 310.906L412.228 304.418Z" fill="#F9B384"/>
<path d="M412.442 298.181C412.442 298.181 422.623 307.645 413.159 310.297C399.794 314.043 395.666 314.312 395.666 314.312C394.949 307.214 408.212 302.626 408.212 302.626L412.442 298.181Z" fill="#F9B384"/>
<path d="M410.363 289.935C410.363 289.935 424.272 298.395 411.224 303.127C398.175 307.859 395.092 307.788 395.092 307.788C394.375 300.69 408.356 298.252 408.356 298.252L410.363 289.935Z" fill="#F9B384"/>
<path d="M395.092 307.788C395.092 307.788 410.256 305.637 414.772 301.981" stroke="#E28B6D" stroke-width="0.860347" stroke-miterlimit="10"/>
<path d="M395.666 314.312C395.666 314.312 411.439 312.089 416.386 308.648" stroke="#E28B6D" stroke-width="0.860347" stroke-miterlimit="10"/>
<path d="M396.383 319.94C396.383 319.94 405.739 320.263 411.009 317.681" stroke="#E28B6D" stroke-width="0.860347" stroke-miterlimit="10"/>
<path d="M408.014 337.126C409.201 335.431 410.225 332.936 408.728 331.507C407.171 330.01 404.624 331.327 402.989 332.738C400.107 335.216 397.492 337.934 395.074 340.825L334.798 352.027L252.205 372.099L266.406 390.224C307.702 393.236 331.223 394.01 357.066 389.449C370.239 387.125 382.014 384.728 390.798 377.57C392.889 375.858 394.868 372.984 393.508 370.653C392.588 369.078 390.678 368.665 388.759 368.683C393.173 367.642 397.457 366.119 401.527 364.131C403.342 363.254 405.364 361.877 405.321 359.864C405.295 358.419 404.125 357.197 402.783 356.681C401.441 356.165 399.961 356.208 398.524 356.311C393.018 356.724 387.572 357.928 382.401 359.873C391.814 353.3 401.389 346.495 408.014 337.126ZM382.272 359.959C382.272 359.942 382.281 359.933 382.298 359.916C382.324 359.907 382.358 359.899 382.384 359.882C382.35 359.908 382.307 359.933 382.272 359.959Z" fill="#C8C8C8"/>
<path d="M269.695 344.997C269.695 344.997 350.138 306.712 376.378 308.432C402.619 310.153 401.759 342.846 391.865 357.042C381.971 371.238 358.741 390.165 273.137 384.573L269.695 344.997Z" fill="#74A475"/>
<path d="M174.506 285.078C177.265 284.016 180.076 283.158 182.919 282.369C184.342 281.98 185.774 281.617 187.232 281.331C187.96 281.184 188.696 281.058 189.442 280.955C189.818 280.905 190.191 280.866 190.581 280.835C190.995 280.815 191.4 280.819 191.786 280.858C194.877 281.182 197.678 282.153 200.461 283.182C203.23 284.236 205.94 285.417 208.601 286.696C211.27 287.959 213.867 289.364 216.423 290.838C218.976 292.315 221.489 293.864 223.932 295.522C228.784 298.871 233.454 302.551 237.473 306.886L236.963 307.398C234.8 305.441 232.549 303.592 230.207 301.86C227.884 300.105 225.48 298.458 223.021 296.898C218.144 293.713 213.023 290.911 207.81 288.324C205.202 287.033 202.546 285.839 199.848 284.775C197.153 283.767 194.392 282.687 191.646 282.315C191.303 282.267 190.977 282.256 190.657 282.258C190.317 282.274 189.959 282.302 189.607 282.339C188.899 282.417 188.186 282.518 187.474 282.642C186.05 282.891 184.623 283.18 183.201 283.499C180.36 284.146 177.528 284.899 174.749 285.759L174.506 285.078Z" fill="white"/>
<path d="M188.823 397.694C198.502 397.049 208.014 397.742 214.92 395.328C222.305 392.747 241.591 394.468 241.591 394.468L230.98 379.197L187.963 389.951L188.823 397.694Z" fill="#E1E1E1"/>
<path d="M189.254 369.517C179.36 353.6 179.36 322.198 191.835 308.002C206.092 291.778 236.573 285.633 252.489 304.561C268.406 323.488 297.657 392.746 303.68 439.635C303.68 439.635 271.417 428.881 249.478 455.551C249.478 455.551 220.656 389.735 214.634 365.645L198.287 378.55L189.254 369.517Z" fill="#74A475"/>
<path d="M214.634 365.646C214.634 365.646 210.332 364.068 204.309 368.083C204.309 368.083 157.277 367.079 146.81 377.691C136.342 388.301 144.372 402.497 159.715 404.075C172.592 405.399 197.589 395.41 205.292 392.165C206.856 391.506 208.519 391.11 210.212 390.999L222.95 390.165L214.634 365.646Z" fill="white"/>
<path d="M233.417 147.564C233.417 147.564 230.262 137.11 223.323 139.724C216.383 142.337 220.078 155.946 233.777 159.731L233.417 147.564Z" fill="#F9B384"/>
<path d="M226.026 205.213C229.452 207.628 233.102 209.706 236.973 211.179C240.842 212.63 244.923 213.549 249.018 213.451C253.102 213.401 257.148 212.394 260.797 210.527L262.171 209.829C262.621 209.581 263.034 209.27 263.468 208.992C264.325 208.42 265.212 207.882 265.977 207.179L267.186 206.198L267.792 205.708C267.989 205.538 268.164 205.344 268.351 205.164C269.085 204.426 269.829 203.694 270.586 202.966L271.101 203.4C270.424 204.218 269.734 205.032 269.033 205.839C268.856 206.039 268.691 206.251 268.503 206.442L267.921 206.994L266.751 208.099C265.991 208.863 265.098 209.468 264.231 210.109C263.791 210.42 263.372 210.765 262.913 211.049L261.504 211.854C257.732 213.981 253.382 215.13 249.035 215.155C244.689 215.165 240.375 214.223 236.429 212.526C232.471 210.845 228.829 208.518 225.611 205.742L226.026 205.213Z" fill="white"/>
<path d="M207.504 338.18L211.232 351.223C212.5 355.562 213.686 359.922 215.011 364.24C216.307 368.566 217.599 372.892 218.96 377.195C219.64 379.346 220.312 381.503 221.058 383.631C221.422 384.698 221.751 385.78 222.137 386.84C222.521 387.9 222.896 388.965 223.26 390.035L222.64 390.295C221.679 388.238 220.779 386.151 219.929 384.046C219.084 381.938 218.314 379.805 217.534 377.673C216.006 373.4 214.655 369.07 213.375 364.722C212.134 360.362 210.906 356 209.828 351.598C208.738 347.2 207.708 342.789 206.85 338.335L207.504 338.18Z" fill="#102048"/>
<path d="M230.299 149.048C230.139 148.109 229.698 147.232 229.178 146.432C228.647 145.642 228.013 144.903 227.281 144.386C226.548 143.873 225.753 143.617 225.082 143.98C224.378 144.331 223.82 145.186 223.333 146.053L222.856 145.887C223.062 144.867 223.439 143.744 224.507 143.003C225.034 142.635 225.755 142.505 226.382 142.618C227.012 142.732 227.563 143.002 228.028 143.34C228.957 144.024 229.637 144.912 230.132 145.882C230.612 146.848 230.957 147.94 230.803 149.058L230.299 149.048Z" fill="#E28B6D"/>
<path d="M271.234 148.787C270.931 150.271 269.813 151.296 268.736 151.077C267.66 150.857 267.032 149.477 267.335 147.993C267.637 146.509 268.755 145.483 269.832 145.703C270.908 145.922 271.536 147.303 271.234 148.787Z" fill="#102048"/>
<path d="M254.47 148.118C254.714 146.623 254.032 145.268 252.948 145.091C251.863 144.914 250.787 145.983 250.543 147.478C250.299 148.973 250.981 150.328 252.065 150.504C253.15 150.681 254.226 149.613 254.47 148.118Z" fill="#102048"/>
<path d="M261.586 150.155C261.688 151.377 261.738 152.593 261.751 153.782C261.8 154.238 262.011 154.627 262.391 155.041C262.758 155.452 263.232 155.881 263.641 156.479C263.847 156.774 264.008 157.15 264.087 157.521C264.173 157.89 264.183 158.256 264.159 158.617C264.098 159.333 263.845 160.038 263.368 160.617C263.135 160.909 262.823 161.149 262.484 161.324C262.131 161.476 261.751 161.573 261.386 161.555C260.651 161.523 260.019 161.238 259.493 160.87L259.732 160.425C260.288 160.607 260.845 160.746 261.336 160.654C261.824 160.586 262.212 160.325 262.471 159.925C262.997 159.141 263.074 157.913 262.566 157.181C262.301 156.756 261.861 156.357 261.445 155.833C261.024 155.336 260.622 154.586 260.65 153.805C260.743 152.555 260.892 151.331 261.083 150.113L261.586 150.155Z" fill="#E28B6D"/>
<path d="M247.717 142.952C248.402 142.269 249.217 141.701 250.133 141.294C251.044 140.884 252.078 140.657 253.127 140.722C254.176 140.783 255.204 141.173 256.024 141.783C256.85 142.389 257.487 143.175 257.958 144.024L257.56 144.333C256.848 143.728 256.161 143.159 255.411 142.737C254.664 142.316 253.863 142.06 253.036 142.003C251.368 141.875 249.671 142.539 248.012 143.361L247.717 142.952Z" fill="#102048"/>
<path d="M265.222 144.425C265.506 143.51 266.268 142.787 267.106 142.358C267.953 141.916 268.908 141.728 269.851 141.744C270.795 141.765 271.744 142.007 272.566 142.49C273.388 142.965 274.068 143.695 274.424 144.543L274.001 144.818C272.832 143.643 271.362 143.08 269.818 143.028C268.295 142.994 266.682 143.414 265.674 144.649L265.222 144.425Z" fill="#102048"/>
<path d="M253.475 164.627L264.887 165.44C264.887 165.44 258.521 173.884 253.475 164.627Z" fill="white"/>
<path opacity="0.4" d="M275.512 152.701C274.686 156.969 273.507 161.339 271.812 165.185C269.584 164.135 268.044 161.864 268.044 159.231C268.044 155.592 271.004 152.641 274.643 152.641C274.935 152.641 275.228 152.658 275.512 152.701Z" fill="#EE6F57"/>
<path opacity="0.4" d="M249.022 163.81C252.38 162.399 253.96 158.533 252.549 155.174C251.139 151.815 247.272 150.236 243.914 151.647C240.555 153.057 238.976 156.923 240.386 160.282C241.797 163.641 245.663 165.22 249.022 163.81Z" fill="#EE6F57"/>
<path d="M153.697 144.688C160.931 136.679 165.338 126.067 165.338 114.425C165.338 89.4776 145.114 69.254 120.167 69.254C95.2198 69.254 74.9961 89.4776 74.9961 114.425C74.9961 139.372 95.2198 159.596 120.167 159.596C125.944 159.596 131.462 158.499 136.54 156.523L160.788 166.42L153.697 144.688Z" fill="white" stroke="#E19379" stroke-width="1.20449" stroke-miterlimit="10"/>
<path d="M99.9963 120.337C102.66 120.337 104.82 118.178 104.82 115.514C104.82 112.85 102.66 110.69 99.9963 110.69C97.3324 110.69 95.1729 112.85 95.1729 115.514C95.1729 118.178 97.3324 120.337 99.9963 120.337Z" fill="#E19379"/>
<path d="M120.166 120.337C122.83 120.337 124.99 118.178 124.99 115.514C124.99 112.85 122.83 110.69 120.166 110.69C117.502 110.69 115.343 112.85 115.343 115.514C115.343 118.178 117.502 120.337 120.166 120.337Z" fill="#E19379"/>
<path d="M140.337 120.337C143.001 120.337 145.161 118.178 145.161 115.514C145.161 112.85 143.001 110.69 140.337 110.69C137.673 110.69 135.514 112.85 135.514 115.514C135.514 118.178 137.673 120.337 140.337 120.337Z" fill="#E19379"/>
<path d="M269.193 -13H180.348C175.31 -13 171.188 -8.87757 171.188 -3.83938V34.2857C171.188 39.3242 175.31 43.4463 180.348 43.4463H188.552L201.887 63.4896L205.852 43.4463H269.193C274.231 43.4463 278.353 39.3239 278.353 34.2857V-3.83938C278.353 -8.87791 274.231 -13 269.193 -13Z" fill="white" stroke="#1C2F35" stroke-width="1.20449" stroke-miterlimit="10"/>
<path d="M262.822 0.877914H186.718V5.2502H262.822V0.877914Z" fill="#1C2F35"/>
<path d="M262.822 12.404H186.718V16.7763H262.822V12.404Z" fill="#D8D8D8"/>
<path d="M262.822 23.9303H186.718V28.3026H262.822V23.9303Z" fill="#D8D8D8"/>
</g>
</svg>
