<svg width="649" height="395" viewBox="0 0 649 395" fill="none" xmlns="http://www.w3.org/2000/svg">
<mask id="mask0_150_2150" style="mask-type:alpha" maskUnits="userSpaceOnUse" x="0" y="0" width="649" height="395">
<rect width="649" height="395" rx="20" fill="#F7F7F7"/>
</mask>
<g mask="url(#mask0_150_2150)">
<rect width="649" height="395" rx="20" fill="#F7F7F7"/>
<path d="M609.313 362.855C642.528 377.836 600.938 408.304 519.773 420.199C457.803 429.282 365.014 419.602 310.787 430.991C149.691 464.826 159.283 401.71 77.6165 415.533C31.0182 423.421 -38.3635 389.57 26.1954 364.539C55.1538 353.311 139.453 344.699 303.499 344.699C467.545 344.699 571.588 345.84 609.313 362.855Z" fill="#EAEEF1"/>
<path d="M464.772 389.886H169.613C163.556 389.886 158.646 384.976 158.646 378.919H472.12V382.539C472.12 386.597 468.831 389.886 464.772 389.886Z" fill="#1C2F35"/>
<path d="M172.113 381.659L159.115 382.105L99.8535 104.691L110.993 102.292L172.113 381.659Z" fill="#1C2F35"/>
<path d="M110.993 102.292L167.268 147.202L216.219 360.639L172.082 381.518L110.993 102.292Z" fill="white"/>
<path d="M115.337 109.377L166.615 148.76L213.894 356.67L172.112 369.883L115.337 109.377Z" fill="#1C2F35"/>
<path d="M472.121 378.919L432.789 360.64H216.22L171.015 381.669L472.121 378.919Z" fill="white"/>
<path d="M171.014 381.819C170.944 381.819 170.884 381.771 170.868 381.702C170.852 381.633 170.887 381.563 170.951 381.533L216.156 360.503C216.176 360.494 216.198 360.49 216.22 360.49H432.789C432.811 360.49 432.833 360.494 432.852 360.503L472.184 378.783C472.248 378.812 472.283 378.882 472.268 378.951C472.253 379.019 472.193 379.069 472.123 379.069L171.016 381.819C171.015 381.819 171.015 381.819 171.014 381.819ZM216.253 360.789L171.706 381.513L471.456 378.775L432.756 360.789L216.253 360.789Z" fill="#31313B"/>
<path d="M213.896 375.662H357.021L345.115 361.868H234.487L213.896 375.662Z" fill="#1C2F35"/>
<path d="M376.953 363.147H414.38C414.992 363.147 415.598 363.271 416.162 363.511L438.107 372.854C438.904 373.193 438.662 374.382 437.795 374.382H388.428C386.702 374.382 385.054 373.662 383.881 372.395L376.431 364.343C376.009 363.887 376.333 363.147 376.953 363.147Z" fill="white"/>
<path d="M437.795 374.532H388.428C386.666 374.532 384.968 373.79 383.771 372.496L376.321 364.444C376.085 364.189 376.025 363.832 376.164 363.514C376.303 363.195 376.606 362.997 376.953 362.997H414.38C415.016 362.997 415.635 363.123 416.221 363.372L438.166 372.715C438.657 372.924 438.799 373.398 438.722 373.775C438.645 374.152 438.329 374.532 437.795 374.532ZM376.953 363.297C376.683 363.297 376.51 363.471 376.439 363.634C376.367 363.797 376.357 364.042 376.541 364.241L383.991 372.293C385.132 373.525 386.749 374.232 388.428 374.232H437.795C438.184 374.232 438.379 373.953 438.428 373.715C438.477 373.476 438.406 373.144 438.048 372.992L416.103 363.649C415.554 363.415 414.975 363.297 414.379 363.297H376.953Z" fill="#31313B"/>
<path d="M252.507 361.135L238.111 376.657L238.551 377.064L252.946 361.543L252.507 361.135Z" fill="#EAEEF1"/>
<path d="M269.524 361.556L263.524 376.78L264.083 377L270.083 361.776L269.524 361.556Z" fill="#EAEEF1"/>
<path d="M288.154 361.341L287.557 361.387L288.755 376.91L289.353 376.864L288.154 361.341Z" fill="#EAEEF1"/>
<path d="M307.666 361.215L307.13 361.484L314.917 377.007L315.453 376.738L307.666 361.215Z" fill="#EAEEF1"/>
<path d="M326.802 361.359L326.311 361.702L337.056 377.084L337.548 376.74L326.802 361.359Z" fill="#EAEEF1"/>
<path d="M346.244 339.481C345.319 339.481 344.396 339.287 343.479 338.898C342.805 338.613 341.552 338.082 347.955 305.309C351.086 289.283 354.573 273.182 354.607 273.021L354.781 272.222L371.186 288.417L371.139 288.655C371.117 288.763 368.952 299.543 365.269 311C360.299 326.463 355.071 335.736 349.731 338.561C348.573 339.174 347.407 339.481 346.244 339.481ZM343.9 338.099C345.708 338.844 347.479 338.735 349.31 337.766C361.117 331.521 369.497 292.156 370.208 288.716L355.314 274.012C354.586 277.395 351.683 290.969 348.995 304.677C343.503 332.689 343.573 337.415 343.9 338.099ZM343.83 338.07L343.83 338.07L343.83 338.07Z" fill="#31313C"/>
<path d="M325.461 365.645C322.374 365.218 325.4 338.98 328.695 315.773C331.337 297.165 349.829 285.199 367.885 290.415L378.897 293.597C378.897 293.597 356.062 299.362 349.624 324.357C343.506 348.114 337.979 367.376 325.461 365.645Z" fill="white"/>
<path d="M297.25 339.974C297.011 339.974 296.775 339.969 296.541 339.96C291.901 339.783 288.125 337.798 285.319 334.06C284.943 333.559 285.172 332.739 287.473 330.201C288.998 328.52 291.344 326.195 294.446 323.291C299.659 318.41 307.086 311.816 316.518 303.692C332.574 289.864 349.104 276.21 349.269 276.074L349.899 275.553L353.133 301.21L352.999 301.362C352.913 301.46 344.226 311.315 333.008 320.939C318.281 333.573 306.256 339.973 297.25 339.974ZM286.079 333.574C288.711 337.049 292.242 338.895 296.575 339.061C296.792 339.069 297.011 339.073 297.23 339.073C308.167 339.074 322.353 328.895 332.422 320.256C342.836 311.323 351.054 302.195 352.19 300.919L349.212 277.288C346.091 279.872 331.899 291.648 317.872 303.713C289.614 328.018 286.176 332.705 286.079 333.574Z" fill="#31313C"/>
<path d="M327.132 366.261C326.594 366.261 326.047 366.222 325.488 366.145C325.195 366.105 324.941 365.943 324.73 365.664C322.788 363.089 324.002 346.301 328.338 315.765C329.615 306.766 334.725 298.773 342.355 293.836C349.985 288.9 359.367 287.515 368.098 290.038L380.705 293.68L379.095 294.088C379.039 294.102 373.366 295.572 366.991 300.048C361.122 304.169 353.435 311.761 350.148 324.524C347.038 336.599 344.161 347.212 340.435 354.812C336.627 362.576 332.366 366.261 327.132 366.261ZM325.611 365.254C337.37 366.876 342.836 349.306 349.277 324.3C352.636 311.255 360.5 303.499 366.505 299.29C371.117 296.057 375.288 294.385 377.41 293.664L367.848 290.902C359.369 288.452 350.255 289.796 342.844 294.591C335.432 299.387 330.47 307.15 329.229 315.891C323.59 355.61 324.44 363.784 325.449 365.122C325.483 365.168 325.55 365.246 325.611 365.254Z" fill="#31313C"/>
<path d="M316.526 307.019C327.439 291.347 346.426 277.767 376.174 255.185C393.517 242.019 442.056 253.013 498.472 252.515C532.057 252.219 612.388 254.909 615.121 248.686L572.744 281.401C557.136 309.317 537.091 335.537 517.102 334.848C516.723 334.836 453.859 319.545 454.177 319.334C465.947 311.534 451.974 302.617 389.5 295.158C382.238 294.291 370.697 302.503 356.637 307.971C347.417 311.557 348.037 319.686 335.487 326.746C328.484 330.686 319.144 366.665 296.699 358.211C293.02 356.826 310.498 315.674 316.526 307.019Z" fill="white"/>
<path d="M303.352 359.957C301.148 359.957 298.882 359.515 296.54 358.632C296.321 358.55 296.026 358.345 295.869 357.839C294.272 352.697 310.253 315.24 316.157 306.762C326.073 292.523 342.633 279.998 367.7 261.038C370.338 259.043 373.071 256.976 375.902 254.827C387.271 246.197 411.795 247.819 442.844 249.874C459.611 250.983 478.618 252.24 498.468 252.065C531.43 251.774 629.364 254.465 638.171 257.23L638.467 257.323L638.485 257.633L642.903 333.518L642.335 333.408C589.074 323.104 564.01 321.098 546.518 320.496C546.408 320.493 543.277 320.475 538.538 320.448C527.252 320.382 506.246 320.26 487.964 320.133C477.792 320.062 469.804 319.998 464.221 319.944C461.023 319.912 458.556 319.884 456.889 319.858C453.848 319.811 453.848 319.811 453.744 319.464L453.649 319.145L453.927 318.959C456.668 317.143 457.851 315.356 457.446 313.646C456.94 311.515 453.641 308.212 440.802 304.576C429.308 301.32 412.029 298.301 389.446 295.605C384.956 295.07 378.528 298.231 371.085 301.892C366.793 304.003 361.929 306.395 356.799 308.39C352.422 310.093 350.308 312.866 347.859 316.077C345.216 319.545 342.22 323.475 335.707 327.139C333.756 328.236 331.469 332.209 328.821 336.809C325.572 342.452 321.529 349.476 316.348 354.248C312.207 358.062 307.913 359.957 303.352 359.957ZM316.526 307.019L316.895 307.276C314.205 311.138 308.826 322.274 304.104 333.755C298.913 346.379 296.086 355.505 296.728 357.572C296.772 357.714 296.824 357.778 296.857 357.79C299.152 358.655 301.31 359.046 303.336 359.046C314.984 359.048 322.399 346.162 328.041 336.361C330.867 331.451 333.099 327.574 335.266 326.355C341.617 322.781 344.553 318.93 347.144 315.532C349.675 312.213 351.861 309.346 356.473 307.552C361.567 305.571 366.413 303.188 370.688 301.085C378.26 297.361 384.794 294.145 389.553 294.712C433.478 299.956 456.615 306.257 458.321 313.438C458.76 315.288 457.813 317.133 455.504 318.936C464.567 319.119 519.545 319.438 538.543 319.548C544.185 319.581 546.477 319.594 546.548 319.597C564.014 320.199 589.003 322.194 641.938 332.415L637.606 258.004C627.168 255.289 531.066 252.675 498.476 252.965C478.588 253.14 459.567 251.882 442.784 250.772C411.924 248.73 387.547 247.117 376.446 255.544C373.615 257.693 370.881 259.761 368.243 261.756C343.244 280.664 326.729 293.155 316.895 307.276L316.526 307.019Z" fill="#31313C"/>
<path d="M463.987 299.84C459.789 317.587 416.918 338.364 404.499 346.511C388.553 356.97 396.416 369.068 419.964 365.433C438.387 362.589 466.686 348.477 503.748 345.375C534.594 342.793 549.316 316.145 549.316 316.145L463.987 299.84Z" fill="white"/>
<path d="M412.007 366.229C403.714 366.229 397.777 363.843 396.132 359.56C394.517 355.358 397.552 350.225 404.251 345.831C406.722 344.211 410.58 341.948 415.046 339.328C433.006 328.794 463.066 311.161 463.537 299.822C463.547 299.58 463.746 299.391 463.986 299.391C463.993 299.391 463.999 299.391 464.005 299.391C464.253 299.401 464.446 299.611 464.436 299.859C464.218 305.105 458.372 311.846 446.564 320.469C436.71 327.664 424.452 334.854 415.501 340.105C411.045 342.718 407.197 344.975 404.745 346.584C398.426 350.728 395.52 355.459 396.971 359.238C397.864 361.56 400.395 363.398 404.098 364.411C408.244 365.546 413.707 365.641 419.895 364.686C426.69 363.637 434.866 361.037 444.333 358.028C460.374 352.927 480.338 346.58 503.71 344.624C519.503 343.302 530.949 335.496 537.77 329.181C545.175 322.324 548.886 315.691 548.922 315.625C549.042 315.407 549.316 315.328 549.533 315.448C549.751 315.569 549.83 315.842 549.71 316.06C549.673 316.127 545.907 322.865 538.405 329.819C531.477 336.24 519.847 344.176 503.785 345.52C480.514 347.468 460.604 353.798 444.606 358.885C435.104 361.906 426.897 364.515 420.032 365.575C417.181 366.015 414.488 366.229 412.007 366.229Z" fill="#31313C"/>
<path d="M481.857 157.952C481.747 156.673 480.654 155.747 479.398 155.891L473.893 156.527C472.816 156.649 471.831 155.973 471.521 154.91C471.244 153.991 470.947 153.081 470.609 152.185C470.231 151.148 470.604 149.957 471.531 149.348L476.2 146.272C477.273 145.569 477.607 144.123 476.953 143.036L472.886 136.329C472.236 135.253 470.834 134.94 469.768 135.647L465.037 138.761C464.117 139.366 462.93 139.24 462.201 138.458C461.071 137.241 459.855 136.088 458.571 135.014C457.743 134.323 457.536 133.109 458.059 132.125L460.822 126.91C461.429 125.764 461.024 124.352 459.927 123.76L453.12 120.084C452.017 119.487 450.638 119.935 450.031 121.081L447.268 126.297C446.745 127.281 445.624 127.78 444.597 127.467C442.588 126.862 440.562 126.418 438.517 126.145C437.453 125.995 436.658 125.096 436.613 123.987L436.393 118.253C436.345 116.972 435.289 115.994 434.037 116.086L426.263 116.624C425.003 116.713 424.032 117.825 424.077 119.115L424.3 124.776C424.339 125.893 423.615 126.903 422.561 127.192C420.886 127.641 419.229 128.204 417.613 128.867C416.61 129.274 415.483 128.902 414.914 127.98L411.974 123.217C411.311 122.145 409.911 121.851 408.846 122.569L402.242 126.993C401.182 127.704 400.854 129.155 401.516 130.225L404.376 134.864C404.955 135.799 404.8 137.036 403.995 137.821C402.846 138.945 401.742 140.147 400.703 141.422C400 142.272 398.828 142.508 397.893 142.002L393.389 139.57C392.293 138.976 390.909 139.432 390.302 140.578L386.534 147.692C385.927 148.837 386.324 150.245 387.422 150.839L391.75 153.176C392.707 153.692 393.151 154.847 392.808 155.917C391.919 158.656 391.315 161.431 390.98 164.205C390.851 165.303 389.983 166.17 388.922 166.293L384.15 166.835C382.902 166.985 381.972 168.137 382.079 169.423L382.731 177.379C382.83 178.663 383.935 179.583 385.178 179.441L389.75 178.919C390.831 178.789 391.835 179.476 392.126 180.545C392.423 181.683 392.773 182.802 393.171 183.902C393.534 184.932 393.122 186.101 392.213 186.705L388.246 189.308C387.179 190.015 386.845 191.463 387.492 192.543L391.558 199.253C392.212 200.338 393.61 200.64 394.685 199.937L398.551 197.395C399.472 196.782 400.678 196.908 401.403 197.715C402.621 199.06 403.948 200.329 405.356 201.514C406.184 202.206 406.42 203.408 405.895 204.401L403.767 208.42C403.16 209.566 403.552 210.982 404.657 211.577L411.461 215.255C412.559 215.846 413.95 215.394 414.557 214.248L416.676 210.249C417.199 209.259 418.314 208.758 419.345 209.07C421.461 209.715 423.609 210.171 425.769 210.443C426.839 210.578 427.638 211.488 427.68 212.603L427.857 217.221C427.907 218.514 428.961 219.482 430.217 219.4L437.995 218.854C439.242 218.769 440.225 217.654 440.169 216.368L439.995 211.68C439.949 210.571 440.666 209.547 441.719 209.257C443.509 208.76 445.266 208.136 446.978 207.406C447.988 206.967 449.133 207.341 449.703 208.273L452.115 212.171C452.775 213.249 454.178 213.537 455.239 212.827L461.844 208.402C462.915 207.686 463.235 206.231 462.574 205.163L460.1 201.15C459.529 200.235 459.667 199.01 460.446 198.227C461.658 196.999 462.807 195.697 463.889 194.308C464.585 193.42 465.777 193.16 466.734 193.678L471.064 196.015C472.16 196.607 473.541 196.159 474.146 195.014L477.916 187.9C478.523 186.754 478.127 185.338 477.032 184.747L472.521 182.311C471.587 181.805 471.128 180.69 471.446 179.634C472.273 176.862 472.81 174.05 473.082 171.25C473.182 170.129 474.057 169.227 475.146 169.1L480.429 168.492C481.68 168.354 482.607 167.191 482.505 165.914L481.857 157.952ZM417.658 195.286C403.05 187.397 397.759 168.635 405.838 153.382C413.918 138.128 432.313 132.151 446.921 140.042C461.535 147.934 466.823 166.702 458.742 181.956C450.664 197.209 432.272 203.18 417.658 195.286Z" fill="#F2C6C2"/>
<path d="M446.943 131.844C427.935 124.062 405.96 133.787 397.862 153.568C389.763 173.347 398.607 195.692 417.617 203.475C436.625 211.259 458.6 201.532 466.7 181.753C474.797 161.972 465.953 139.628 446.943 131.844ZM458.743 181.956C450.664 197.21 432.272 203.18 417.659 195.287C403.05 187.397 397.759 168.636 405.838 153.382C413.919 138.128 432.313 132.152 446.922 140.042C461.535 147.934 466.823 166.702 458.743 181.956Z" fill="#F2C6C2"/>
<path d="M486.305 157.721C486.196 156.442 485.102 155.517 483.847 155.661L478.342 156.296C477.265 156.419 476.28 155.743 475.969 154.679C475.692 153.761 475.396 152.851 475.058 151.954C474.68 150.917 475.052 149.726 475.98 149.117L480.649 146.041C481.722 145.338 482.056 143.892 481.402 142.806L477.335 136.098C476.684 135.022 475.283 134.709 474.216 135.417L469.486 138.53C468.565 139.136 467.378 139.01 466.65 138.228C465.519 137.011 464.303 135.858 463.019 134.784C462.191 134.092 461.984 132.879 462.507 131.894L465.27 126.679C465.877 125.534 465.472 124.122 464.376 123.529L457.569 119.853C456.465 119.257 455.086 119.705 454.48 120.85L451.716 126.066C451.193 127.051 450.073 127.549 449.045 127.237C447.036 126.631 445.01 126.188 442.966 125.914C441.901 125.765 441.106 124.865 441.061 123.757L440.841 118.022C440.793 116.742 439.737 115.763 438.485 115.856L430.711 116.394C429.452 116.482 428.48 117.594 428.526 118.884L428.748 124.545C428.787 125.662 428.063 126.673 427.009 126.961C425.334 127.411 423.677 127.974 422.061 128.637C421.058 129.044 419.931 128.672 419.362 127.75L416.423 122.987C415.76 121.915 414.359 121.62 413.295 122.339L406.691 126.762C405.63 127.474 405.303 128.924 405.964 129.995L408.824 134.633C409.403 135.569 409.248 136.805 408.443 137.591C407.294 138.715 406.19 139.917 405.151 141.192C404.449 142.042 403.277 142.278 402.341 141.772L397.838 139.34C396.741 138.746 395.358 139.202 394.751 140.347L390.982 147.461C390.375 148.607 390.772 150.015 391.87 150.609L396.198 152.946C397.155 153.462 397.599 154.616 397.256 155.686C396.368 158.425 395.763 161.201 395.428 163.975C395.299 165.072 394.432 165.94 393.37 166.063L388.598 166.605C387.35 166.755 386.42 167.906 386.527 169.193L387.179 177.149C387.278 178.433 388.383 179.353 389.626 179.211L394.198 178.689C395.279 178.558 396.283 179.246 396.574 180.315C396.872 181.453 397.221 182.572 397.619 183.671C397.982 184.702 397.57 185.871 396.661 186.475L392.694 189.077C391.628 189.785 391.294 191.233 391.94 192.313L396.006 199.023C396.661 200.108 398.058 200.41 399.133 199.706L402.999 197.165C403.92 196.551 405.126 196.678 405.851 197.485C407.069 198.83 408.396 200.099 409.804 201.284C410.632 201.976 410.868 203.178 410.343 204.171L408.215 208.19C407.608 209.336 408 210.752 409.105 211.347L415.909 215.025C417.007 215.616 418.398 215.164 419.005 214.019L421.124 210.02C421.647 209.029 422.762 208.528 423.793 208.84C425.909 209.485 428.057 209.941 430.217 210.213C431.287 210.348 432.086 211.258 432.128 212.373L432.305 216.991C432.355 218.284 433.409 219.252 434.665 219.17L442.443 218.624C443.691 218.539 444.673 217.424 444.617 216.138L444.444 211.45C444.397 210.341 445.114 209.317 446.167 209.027C447.957 208.53 449.714 207.906 451.426 207.176C452.436 206.738 453.581 207.111 454.151 208.043L456.563 211.941C457.223 213.019 458.626 213.308 459.687 212.597L466.292 208.172C467.363 207.456 467.683 206.001 467.022 204.933L464.548 200.92C463.977 200.005 464.115 198.78 464.894 197.997C466.106 196.769 467.255 195.467 468.337 194.078C469.033 193.19 470.225 192.93 471.182 193.447L475.511 195.784C476.608 196.377 477.989 195.929 478.594 194.783L482.364 187.669C482.971 186.524 482.575 185.108 481.48 184.517L476.969 182.081C476.035 181.575 475.576 180.46 475.894 179.403C476.721 176.632 477.258 173.82 477.53 171.019C477.63 169.899 478.505 168.996 479.594 168.87L484.877 168.262C486.128 168.124 487.055 166.96 486.953 165.684L486.305 157.721ZM422.107 195.056C407.498 187.166 402.208 168.405 410.287 153.151C418.367 137.897 436.761 131.921 451.37 139.811C465.984 147.703 471.272 166.471 463.191 181.725C455.112 196.979 436.72 202.949 422.107 195.056Z" fill="white"/>
<path d="M434.516 219.406C433.914 219.406 433.344 219.189 432.896 218.785C432.392 218.331 432.1 217.697 432.073 217L431.896 212.382C431.858 211.379 431.14 210.563 430.188 210.443C428.003 210.167 425.828 209.703 423.725 209.062C422.811 208.784 421.802 209.232 421.329 210.127L419.21 214.127C418.88 214.751 418.331 215.206 417.667 215.408C417.034 215.6 416.37 215.536 415.799 215.229L408.994 211.551C407.784 210.899 407.342 209.342 408.01 208.082L410.138 204.062C410.605 203.179 410.402 202.086 409.656 201.462C408.215 200.249 406.878 198.964 405.68 197.641C405.034 196.922 403.962 196.803 403.128 197.358L399.261 199.9C398.681 200.28 397.999 200.406 397.341 200.257C396.698 200.11 396.153 199.714 395.808 199.142L391.742 192.433C391.033 191.248 391.403 189.656 392.566 188.884L396.534 186.281C397.36 185.733 397.725 184.668 397.4 183.749C397 182.64 396.646 181.504 396.35 180.374C396.089 179.415 395.197 178.803 394.226 178.919L389.653 179.442C388.995 179.517 388.351 179.326 387.841 178.906C387.319 178.475 387.002 177.857 386.949 177.166L386.296 169.212C386.18 167.812 387.2 166.539 388.57 166.374L393.344 165.832C394.303 165.721 395.083 164.928 395.198 163.947C395.539 161.127 396.157 158.324 397.036 155.614C397.345 154.65 396.947 153.613 396.089 153.15L391.761 150.813C390.553 150.16 390.112 148.608 390.777 147.352L394.546 140.238C394.878 139.611 395.428 139.154 396.094 138.953C396.722 138.763 397.381 138.828 397.949 139.135L402.452 141.567C403.289 142.02 404.349 141.799 404.973 141.044C405.991 139.795 407.105 138.577 408.282 137.425C409.004 136.721 409.149 135.598 408.628 134.755L405.767 130.117C405.042 128.942 405.398 127.351 406.562 126.569L413.166 122.145C413.737 121.76 414.415 121.625 415.072 121.767C415.719 121.906 416.269 122.296 416.621 122.865L419.561 127.627C420.068 128.449 421.083 128.784 421.975 128.422C423.609 127.751 425.283 127.184 426.95 126.737C427.893 126.479 428.552 125.56 428.517 124.553L428.294 118.893C428.246 117.483 429.323 116.258 430.696 116.162L438.47 115.624C439.126 115.576 439.756 115.791 440.246 116.229C440.754 116.683 441.048 117.317 441.075 118.014L441.294 123.748C441.334 124.737 442.051 125.551 442.999 125.684C445.03 125.956 447.087 126.404 449.113 127.015C450.031 127.293 451.04 126.849 451.512 125.958L454.276 120.741C454.607 120.117 455.152 119.663 455.813 119.463C456.443 119.273 457.107 119.339 457.681 119.649L464.487 123.325C465.698 123.979 466.142 125.533 465.477 126.788L462.713 132.003C462.24 132.895 462.432 133.99 463.169 134.606C464.457 135.683 465.686 136.848 466.821 138.07C467.47 138.766 468.537 138.877 469.359 138.336L474.089 135.223C474.659 134.845 475.335 134.717 475.991 134.864C476.64 135.009 477.188 135.405 477.534 135.978L481.6 142.685C482.318 143.876 481.948 145.468 480.776 146.235L476.108 149.311C475.282 149.853 474.933 150.931 475.276 151.875C475.581 152.684 475.881 153.58 476.192 154.612C476.474 155.579 477.348 156.176 478.316 156.066L483.821 155.43C484.478 155.355 485.121 155.542 485.63 155.959C486.156 156.388 486.478 157.007 486.538 157.701V157.702L487.186 165.664C487.298 167.073 486.275 168.341 484.904 168.491L479.622 169.099C478.635 169.214 477.852 170.029 477.763 171.039C477.484 173.906 476.931 176.742 476.118 179.468C475.834 180.407 476.24 181.419 477.081 181.875L481.591 184.311C482.799 184.963 483.237 186.517 482.57 187.777L478.8 194.891C478.471 195.515 477.925 195.969 477.263 196.17C476.634 196.36 475.973 196.296 475.402 195.987L471.072 193.65C470.216 193.187 469.143 193.427 468.521 194.22C467.458 195.583 466.294 196.908 465.06 198.159C464.362 198.86 464.23 199.969 464.746 200.796L467.22 204.809C467.949 205.987 467.591 207.582 466.422 208.363L459.817 212.789C459.243 213.173 458.564 213.305 457.905 213.161C457.26 213.019 456.714 212.629 456.366 212.061L453.955 208.164C453.441 207.324 452.416 206.998 451.519 207.387C449.767 208.135 447.988 208.761 446.23 209.25C445.287 209.51 444.634 210.43 444.677 211.439L444.85 216.128C444.911 217.537 443.839 218.761 442.46 218.855L434.682 219.4C434.626 219.404 434.571 219.406 434.516 219.406ZM423.174 208.516C423.403 208.516 423.634 208.549 423.86 208.617C425.938 209.251 428.087 209.71 430.246 209.982C431.424 210.131 432.313 211.133 432.36 212.364L432.537 216.982C432.559 217.553 432.797 218.071 433.207 218.44C433.602 218.796 434.115 218.971 434.65 218.938L442.427 218.392C443.557 218.315 444.435 217.308 444.385 216.147L444.212 211.458C444.16 210.236 444.957 209.119 446.105 208.803C447.843 208.32 449.603 207.701 451.335 206.962C452.447 206.48 453.715 206.883 454.349 207.921L456.761 211.818C457.042 212.278 457.483 212.594 458.004 212.708C458.538 212.825 459.09 212.717 459.558 212.404L466.163 207.978C467.127 207.334 467.423 206.022 466.824 205.054L464.351 201.042C463.722 200.035 463.882 198.685 464.73 197.833C465.95 196.595 467.103 195.284 468.154 193.935C468.916 192.962 470.236 192.671 471.292 193.242L475.622 195.579C476.083 195.828 476.618 195.881 477.128 195.726C477.669 195.561 478.117 195.188 478.389 194.674L482.159 187.56C482.708 186.524 482.354 185.251 481.37 184.72L476.859 182.284C475.825 181.723 475.326 180.483 475.672 179.335C476.477 176.638 477.024 173.832 477.299 170.996C477.409 169.77 478.363 168.778 479.568 168.639L484.851 168.03C485.976 167.906 486.815 166.862 486.723 165.702L486.074 157.741C486.025 157.173 485.763 156.667 485.336 156.318C484.925 155.982 484.405 155.831 483.873 155.891L478.368 156.527C477.189 156.661 476.087 155.911 475.746 154.744C475.439 153.724 475.143 152.838 474.841 152.036C474.423 150.89 474.849 149.582 475.853 148.923L480.521 145.847C481.487 145.215 481.792 143.904 481.203 142.925L477.137 136.218C476.856 135.754 476.413 135.434 475.889 135.317C475.358 135.197 474.809 135.301 474.345 135.61L469.613 138.724C468.601 139.39 467.283 139.248 466.48 138.386C465.358 137.179 464.144 136.026 462.87 134.962C461.966 134.206 461.727 132.87 462.302 131.785L465.066 126.571C465.612 125.539 465.253 124.266 464.266 123.733L457.459 120.057C456.994 119.806 456.458 119.753 455.947 119.907C455.405 120.071 454.957 120.445 454.685 120.959L451.921 126.175C451.345 127.262 450.107 127.802 448.978 127.459C446.976 126.855 444.943 126.413 442.935 126.144C441.764 125.98 440.879 124.979 440.829 123.766L440.61 118.031C440.588 117.461 440.349 116.944 439.936 116.575C439.541 116.221 439.032 116.048 438.503 116.087L430.728 116.625C429.601 116.704 428.717 117.714 428.758 118.875L428.98 124.536C429.023 125.756 428.22 126.87 427.07 127.184C425.421 127.627 423.766 128.188 422.15 128.851C421.046 129.298 419.791 128.886 419.165 127.87L416.225 123.108C415.941 122.648 415.496 122.332 414.974 122.22C414.441 122.106 413.89 122.216 413.425 122.53L406.82 126.954C405.861 127.598 405.566 128.907 406.162 129.872L409.022 134.51C409.657 135.536 409.482 136.901 408.606 137.756C407.441 138.896 406.339 140.101 405.332 141.338C404.565 142.265 403.261 142.532 402.231 141.975L397.728 139.543C397.269 139.295 396.737 139.243 396.228 139.397C395.682 139.562 395.23 139.937 394.956 140.455L391.187 147.569C390.641 148.6 390.997 149.871 391.981 150.403L396.309 152.741C397.364 153.31 397.855 154.578 397.477 155.756C396.608 158.438 395.996 161.212 395.659 164.001C395.519 165.193 394.567 166.157 393.397 166.293L388.624 166.834C387.5 166.969 386.663 168.018 386.758 169.173L387.411 177.128C387.455 177.693 387.712 178.197 388.136 178.547C388.548 178.887 389.069 179.041 389.6 178.979L394.172 178.457C395.372 178.311 396.476 179.068 396.798 180.253C397.091 181.372 397.44 182.494 397.837 183.592C398.232 184.71 397.791 186.002 396.789 186.667L392.821 189.27C391.862 189.907 391.556 191.218 392.139 192.193L396.205 198.901C396.484 199.365 396.924 199.685 397.444 199.803C397.977 199.925 398.532 199.821 399.006 199.511L402.871 196.97C403.897 196.287 405.223 196.438 406.024 197.329C407.207 198.636 408.529 199.907 409.953 201.106C410.866 201.869 411.116 203.203 410.548 204.279L408.419 208.299C407.87 209.335 408.227 210.61 409.215 211.142L416.019 214.82C416.48 215.069 417.018 215.119 417.531 214.963C418.077 214.798 418.527 214.423 418.799 213.909L420.918 209.91C421.379 209.039 422.262 208.516 423.174 208.516ZM435.874 198.777C431.06 198.777 426.315 197.593 421.997 195.26C407.3 187.324 401.955 168.385 410.081 153.043C414.128 145.404 420.808 139.848 428.889 137.399C436.534 135.083 444.557 135.867 451.48 139.607C466.18 147.546 471.525 166.489 463.396 181.834C459.352 189.47 452.676 195.024 444.598 197.472C441.718 198.344 438.783 198.777 435.874 198.777ZM437.613 136.558C434.749 136.558 431.86 136.984 429.024 137.843C421.062 140.256 414.48 145.731 410.492 153.26C402.484 168.378 407.744 187.036 422.217 194.851C429.037 198.535 436.937 199.308 444.463 197.027C452.422 194.615 459 189.143 462.986 181.616C470.996 166.496 465.736 147.833 451.26 140.015C447.014 137.722 442.347 136.558 437.613 136.558Z" fill="#31313D"/>
<path d="M219.771 154.601C219.737 154.601 219.702 154.599 219.667 154.595L216.834 154.304C216.571 154.277 216.335 154.15 216.168 153.945C216 153.74 215.923 153.482 215.951 153.218L216.116 151.614C216.149 151.3 215.949 151.004 215.642 150.91C214.998 150.714 214.359 150.472 213.744 150.189C213.455 150.057 213.109 150.151 212.922 150.414L211.96 151.766C211.643 152.21 211.024 152.314 210.579 151.998L208.26 150.346C207.815 150.029 207.71 149.41 208.027 148.965L209.013 147.579C209.198 147.32 209.176 146.966 208.962 146.737C208.667 146.42 208.387 146.093 208.13 145.766C207.931 145.515 207.578 145.442 207.291 145.594L205.809 146.377C205.576 146.501 205.308 146.527 205.055 146.449C204.802 146.371 204.595 146.199 204.472 145.966L203.14 143.448C202.885 142.965 203.07 142.365 203.553 142.11L205.1 141.291C205.38 141.143 205.52 140.817 205.433 140.517C205.154 139.543 204.973 138.537 204.893 137.526C204.867 137.205 204.615 136.947 204.292 136.914L202.491 136.729C201.949 136.674 201.553 136.187 201.608 135.644L201.899 132.81C201.955 132.267 202.443 131.869 202.986 131.926L204.861 132.12C205.176 132.152 205.474 131.958 205.568 131.66C205.746 131.102 205.957 130.551 206.196 130.022C206.328 129.729 206.231 129.383 205.966 129.199L204.345 128.065C203.899 127.752 203.789 127.134 204.101 126.686L205.734 124.352C205.885 124.136 206.112 123.991 206.372 123.945C206.633 123.899 206.895 123.957 207.111 124.108L208.777 125.273C209.038 125.456 209.392 125.432 209.619 125.216C210.076 124.784 210.569 124.372 211.087 123.991C211.344 123.803 211.43 123.456 211.292 123.166L210.428 121.34C210.315 121.101 210.301 120.832 210.39 120.583C210.479 120.334 210.659 120.135 210.899 120.021L213.472 118.802C213.711 118.689 213.98 118.675 214.23 118.764C214.479 118.853 214.678 119.034 214.79 119.273L215.665 121.118C215.801 121.407 216.123 121.561 216.431 121.484C217.179 121.299 217.947 121.169 218.713 121.098C219.029 121.07 219.283 120.817 219.316 120.497L219.529 118.422C219.585 117.88 220.072 117.484 220.615 117.539L223.449 117.83C223.991 117.887 224.387 118.374 224.331 118.917L224.118 120.992C224.085 121.311 224.282 121.61 224.585 121.702C225.177 121.883 225.76 122.101 226.32 122.35C226.608 122.477 226.951 122.382 227.135 122.123L228.312 120.469C228.629 120.025 229.248 119.921 229.693 120.236L232.013 121.889C232.457 122.205 232.562 122.824 232.246 123.269L231.085 124.901C230.9 125.161 230.928 125.518 231.151 125.752C231.391 126.003 231.625 126.264 231.847 126.531C232.056 126.782 232.401 126.852 232.685 126.703L234.473 125.757C234.955 125.503 235.556 125.688 235.812 126.169L237.142 128.686C237.267 128.921 237.292 129.19 237.214 129.443C237.136 129.695 236.964 129.902 236.731 130.025L235.015 130.931C234.729 131.084 234.591 131.417 234.688 131.725C234.994 132.699 235.202 133.706 235.307 134.719C235.339 135.03 235.591 135.28 235.906 135.313L237.78 135.505C238.324 135.561 238.72 136.048 238.664 136.592L238.374 139.425C238.318 139.967 237.831 140.365 237.287 140.307L235.488 140.123C235.164 140.088 234.864 140.288 234.774 140.597C234.599 141.197 234.386 141.791 234.14 142.361C234.016 142.649 234.115 142.99 234.375 143.172L235.778 144.153C236.225 144.466 236.335 145.085 236.023 145.532L234.39 147.866C234.238 148.083 234.011 148.228 233.751 148.274C233.49 148.32 233.228 148.261 233.012 148.109L231.647 147.156C231.383 146.971 231.026 146.998 230.798 147.221C230.315 147.693 229.794 148.138 229.249 148.545C228.994 148.736 228.909 149.085 229.048 149.376L229.764 150.886C229.997 151.381 229.785 151.972 229.293 152.204L226.718 153.423C226.479 153.537 226.21 153.55 225.961 153.461C225.713 153.372 225.513 153.192 225.4 152.953L224.695 151.464C224.557 151.174 224.233 151.02 223.924 151.1C223.145 151.301 222.335 151.441 221.519 151.516C221.204 151.545 220.95 151.797 220.918 152.117L220.754 153.712C220.727 153.975 220.6 154.211 220.395 154.378C220.216 154.524 219.998 154.601 219.771 154.601ZM213.47 149.813C213.607 149.813 213.745 149.841 213.875 149.901C214.478 150.178 215.104 150.415 215.734 150.607C216.186 150.745 216.479 151.183 216.431 151.647L216.266 153.251C216.247 153.43 216.3 153.605 216.413 153.745C216.526 153.884 216.687 153.971 216.866 153.989L219.7 154.28C219.879 154.298 220.055 154.246 220.194 154.133C220.333 154.019 220.42 153.858 220.438 153.68L220.602 152.085C220.65 151.615 221.024 151.243 221.49 151.201C222.289 151.127 223.081 150.99 223.845 150.793C224.3 150.676 224.778 150.901 224.981 151.328L225.686 152.817C225.763 152.979 225.899 153.102 226.068 153.163C226.237 153.224 226.42 153.214 226.582 153.137L229.157 151.918C229.492 151.76 229.635 151.358 229.477 151.021L228.761 149.512C228.558 149.086 228.684 148.572 229.058 148.292C229.593 147.893 230.103 147.456 230.575 146.994C230.913 146.665 231.439 146.624 231.828 146.896L233.193 147.85C233.34 147.954 233.518 147.993 233.695 147.962C233.872 147.931 234.026 147.832 234.129 147.684L235.762 145.351C235.974 145.047 235.9 144.626 235.596 144.413L234.193 143.432C233.81 143.165 233.665 142.662 233.848 142.236C234.089 141.678 234.298 141.097 234.47 140.509C234.603 140.053 235.045 139.758 235.52 139.808L237.319 139.992C237.689 140.03 238.02 139.761 238.058 139.393L238.349 136.559C238.387 136.19 238.117 135.858 237.748 135.82L235.873 135.628C235.41 135.58 235.039 135.211 234.991 134.751C234.888 133.76 234.684 132.773 234.385 131.82C234.242 131.368 234.444 130.876 234.867 130.652L236.583 129.745C236.741 129.662 236.858 129.521 236.911 129.35C236.964 129.177 236.947 128.995 236.862 128.835L235.532 126.318C235.358 125.991 234.949 125.864 234.621 126.037L232.834 126.983C232.422 127.201 231.905 127.096 231.604 126.734C231.386 126.473 231.157 126.217 230.923 125.971C230.594 125.628 230.554 125.101 230.827 124.718L231.988 123.086C232.203 122.784 232.132 122.363 231.83 122.148L229.51 120.495C229.208 120.281 228.786 120.352 228.571 120.653L227.394 122.307C227.123 122.688 226.617 122.828 226.192 122.64C225.644 122.396 225.073 122.182 224.493 122.006C224.046 121.869 223.756 121.429 223.804 120.96L224.017 118.885C224.055 118.516 223.786 118.184 223.417 118.146L220.584 117.855C220.213 117.817 219.883 118.087 219.845 118.456L219.632 120.531C219.584 121.001 219.21 121.372 218.743 121.415C217.993 121.484 217.241 121.611 216.509 121.793C216.055 121.905 215.58 121.679 215.38 121.255L214.505 119.41C214.429 119.247 214.294 119.124 214.124 119.064C213.955 119.003 213.772 119.012 213.609 119.089L211.035 120.309C210.873 120.386 210.75 120.521 210.69 120.691C210.629 120.86 210.638 121.042 210.716 121.205L211.58 123.031C211.783 123.458 211.654 123.97 211.275 124.247C210.769 124.62 210.285 125.024 209.838 125.447C209.502 125.765 208.98 125.802 208.596 125.533L206.931 124.368C206.784 124.266 206.605 124.226 206.428 124.258C206.251 124.289 206.097 124.387 205.994 124.534L204.361 126.869C204.15 127.173 204.224 127.593 204.528 127.807L206.148 128.94C206.538 129.211 206.68 129.721 206.486 130.153C206.252 130.671 206.045 131.211 205.871 131.757C205.731 132.197 205.293 132.484 204.829 132.435L202.954 132.242C202.584 132.203 202.254 132.474 202.215 132.843L201.924 135.676C201.887 136.046 202.156 136.377 202.524 136.414L204.326 136.6C204.8 136.648 205.172 137.028 205.21 137.501C205.288 138.491 205.466 139.476 205.738 140.43C205.867 140.873 205.661 141.353 205.249 141.571L203.702 142.391C203.543 142.475 203.426 142.615 203.373 142.787C203.32 142.959 203.337 143.141 203.421 143.3L204.753 145.818C204.836 145.977 204.977 146.093 205.149 146.146C205.32 146.199 205.502 146.182 205.661 146.098L207.144 145.315C207.566 145.091 208.086 145.199 208.38 145.57C208.632 145.891 208.906 146.211 209.195 146.521C209.511 146.859 209.544 147.382 209.272 147.764L208.286 149.149C208.071 149.452 208.142 149.873 208.444 150.088L210.764 151.74C211.066 151.955 211.487 151.884 211.703 151.582L212.665 150.231C212.855 149.962 213.159 149.813 213.47 149.813ZM220.161 146.354C219.805 146.354 219.448 146.336 219.089 146.299C216.356 146.017 213.896 144.689 212.163 142.558C210.429 140.427 209.629 137.749 209.911 135.016C210.191 132.283 211.52 129.823 213.651 128.089C215.782 126.356 218.461 125.556 221.193 125.837C223.926 126.118 226.386 127.446 228.12 129.577C229.854 131.709 230.654 134.387 230.372 137.12C230.091 139.853 228.763 142.313 226.632 144.046C224.78 145.552 222.516 146.354 220.161 146.354ZM220.122 126.098C217.84 126.098 215.645 126.875 213.851 128.335C211.785 130.015 210.498 132.399 210.226 135.048C209.953 137.697 210.728 140.293 212.408 142.358C214.089 144.423 216.473 145.711 219.122 145.984C221.77 146.256 224.366 145.481 226.431 143.8C228.497 142.12 229.785 139.736 230.057 137.087C230.33 134.439 229.554 131.843 227.874 129.777C226.193 127.711 223.809 126.424 221.161 126.152C220.813 126.116 220.466 126.098 220.122 126.098Z" fill="#31313B"/>
<path d="M341.894 64.6421V89.8313C341.894 95.9337 336.902 100.926 330.799 100.926C324.697 100.926 319.704 95.9337 319.704 89.8313V64.6421C319.704 58.5396 324.697 53.5469 330.799 53.5469C333.852 53.5469 336.623 54.7943 338.635 56.8066C340.647 58.8186 341.894 61.5892 341.894 64.6421Z" fill="#E19379"/>
<path d="M331.196 105.511H330.405C322.312 105.511 315.729 98.9272 315.729 90.8348C315.729 90.2553 316.198 89.7853 316.778 89.7853C317.358 89.7853 317.827 90.2553 317.827 90.8348C317.827 97.7699 323.469 103.412 330.404 103.412H331.196C338.131 103.412 343.773 97.7699 343.773 90.8348C343.773 90.2553 344.243 89.7853 344.823 89.7853C345.402 89.7853 345.872 90.2553 345.872 90.8348C345.872 98.9272 339.289 105.511 331.196 105.511Z" fill="#31313B"/>
<path d="M326.151 73.1883C326.151 73.3532 326.086 73.503 325.974 73.6112C325.867 73.722 325.716 73.7882 325.552 73.7882H319.704V72.5886H325.552C325.882 72.5884 326.151 72.8585 326.151 73.1883Z" fill="white"/>
<path d="M326.151 77.2372C326.151 77.4021 326.086 77.5522 325.974 77.6601C325.867 77.7709 325.716 77.8371 325.552 77.8371H319.704V76.6375H325.552C325.882 76.6375 326.151 76.9073 326.151 77.2372Z" fill="white"/>
<path d="M326.151 81.2852C326.151 81.4501 326.086 81.5999 325.974 81.7081C325.867 81.8192 325.716 81.8851 325.552 81.8851H319.704V80.6855H325.552C325.882 80.6855 326.151 80.9554 326.151 81.2852Z" fill="white"/>
<path d="M341.894 72.5886V73.7882H335.375C335.045 73.7882 334.775 73.5184 334.775 73.1885C334.775 73.0236 334.841 72.8735 334.952 72.7656C335.06 72.6548 335.21 72.5886 335.375 72.5886H341.894Z" fill="white"/>
<path d="M341.894 76.6375V77.8371H335.375C335.045 77.8371 334.775 77.5672 334.775 77.2374C334.775 77.0725 334.841 76.9227 334.952 76.8145C335.06 76.7037 335.21 76.6375 335.375 76.6375H341.894Z" fill="white"/>
<path d="M341.894 80.6855V81.8851H335.375C335.045 81.8851 334.775 81.6153 334.775 81.2855C334.775 81.1206 334.841 80.9707 334.952 80.8626C335.06 80.7517 335.21 80.6855 335.375 80.6855H341.894Z" fill="white"/>
<path d="M331.197 121.919C330.617 121.919 330.147 121.449 330.147 120.869V104.462C330.147 103.882 330.617 103.412 331.197 103.412C331.777 103.412 332.246 103.882 332.246 104.462V120.869C332.246 121.449 331.776 121.919 331.197 121.919Z" fill="#31313B"/>
<path d="M337.897 121.919H324.303C323.724 121.919 323.254 121.449 323.254 120.87C323.254 120.29 323.724 119.82 324.303 119.82H337.897C338.477 119.82 338.947 120.29 338.947 120.87C338.947 121.449 338.477 121.919 337.897 121.919Z" fill="#31313B"/>
<path d="M331.843 130.776C306.402 130.776 285.705 110.078 285.705 84.638C285.705 59.1976 306.402 38.5002 331.843 38.5002C357.283 38.5002 377.981 59.1976 377.981 84.638C377.981 110.078 357.283 130.776 331.843 130.776ZM331.843 39.6998C307.064 39.6998 286.905 59.8591 286.905 84.638C286.905 109.417 307.064 129.576 331.843 129.576C356.622 129.576 376.781 109.417 376.781 84.638C376.781 59.8591 356.622 39.6998 331.843 39.6998Z" fill="#31313B"/>
<path d="M235.661 47.4155C220.383 47.4155 207.953 34.9859 207.953 19.7077C207.953 4.42955 220.383 -8 235.661 -8C250.939 -8 263.369 4.42981 263.369 19.7077C263.369 34.9859 250.939 47.4155 235.661 47.4155ZM235.661 -6.80044C221.044 -6.80044 209.153 5.09107 209.153 19.7077C209.153 34.3244 221.044 46.2159 235.661 46.2159C250.278 46.2159 262.169 34.3244 262.169 19.7077C262.169 5.09107 250.278 -6.80044 235.661 -6.80044Z" fill="#31313B"/>
<path d="M243.753 27.4527H223.777C222.496 27.4527 221.448 26.4048 221.448 25.1243V13.158C221.448 11.8775 222.496 10.8297 223.777 10.8297H243.753C245.033 10.8297 246.081 11.8775 246.081 13.158V25.1243C246.081 26.4048 245.033 27.4527 243.753 27.4527Z" fill="#E19379"/>
<path d="M250.527 13.0795L246.082 15.0325V23.9578L250.652 25.5642C251.68 25.9254 252.853 25.3535 252.853 24.4913V14.1028C252.853 13.1935 251.561 12.6251 250.527 13.0795Z" fill="#31313B"/>
<path d="M343.778 252.268C367.376 228.67 367.376 190.41 343.778 166.811C320.18 143.213 281.919 143.213 258.321 166.811C234.723 190.41 234.723 228.67 258.321 252.268C281.919 275.866 320.18 275.866 343.778 252.268Z" fill="#EAEEF1"/>
<path d="M275.277 236.975L233.446 227.357L231.522 214.788L268.562 193.1L270.532 205.969L245.799 218.996L273.296 224.031L275.277 236.975Z" fill="#31313B"/>
<path d="M280.156 250.247L301.106 175.258L313.674 173.335L292.724 248.324L280.156 250.247Z" fill="#31313B"/>
<path d="M326.149 229.19L324.168 216.246L348.901 203.218L321.404 198.184L319.435 185.315L361.266 194.933L363.189 207.501L326.149 229.19Z" fill="#31313B"/>
<path d="M279.413 234.725L237.582 225.106L235.659 212.538L272.699 190.849L274.668 203.719L249.936 216.746L277.433 221.781L279.413 234.725Z" fill="white"/>
<path d="M280.14 235.508L237.051 225.6L235.005 212.226L273.158 189.886L275.326 204.05L251.75 216.468L277.961 221.268L280.14 235.508ZM238.114 224.613L278.687 233.943L276.904 222.294L248.121 217.024L274.011 203.387L272.239 191.814L236.313 212.85L238.114 224.613Z" fill="#31313B"/>
<path d="M284.294 247.996L305.244 173.006L317.812 171.083L296.862 246.072L284.294 247.996Z" fill="white"/>
<path d="M283.467 248.728L304.77 172.471L318.64 170.349L297.336 246.606L283.467 248.728ZM305.717 173.54L285.122 247.262L296.389 245.537L316.985 171.816L305.717 173.54Z" fill="#31313B"/>
<path d="M330.286 226.939L328.305 213.994L353.037 200.967L325.541 195.932L323.571 183.063L365.402 192.682L367.326 205.25L330.286 226.939Z" fill="white"/>
<path d="M329.826 227.903L327.647 213.664L351.223 201.245L325.012 196.446L322.845 182.282L365.933 192.189L367.98 205.563L329.826 227.903ZM328.962 214.327L330.745 225.976L366.671 204.939L364.871 193.176L324.298 183.846L326.069 195.42L354.851 200.69L328.962 214.327Z" fill="#31313B"/>
<path d="M356.091 34.8714L354.882 30.931L360.42 26.716L377.396 28.9989L356.091 34.8714ZM355.499 31.1295L356.448 34.2214L374.743 29.1786L360.567 27.2723L355.499 31.1295Z" fill="#31313B"/>
<path d="M377.917 29.1837L353.01 25.186L334.382 32.7213L377.917 29.1837Z" fill="#F2C6C2"/>
<path d="M358.634 21.6729L377.917 29.1829L360.149 10.8298L358.634 21.6729Z" fill="#F2C6C2"/>
<path d="M358.634 21.6736L360.268 26.3508L377.917 29.1836L358.634 21.6736Z" fill="#31313B"/>
<path d="M259.824 119.682C256.214 119.682 253.168 117.524 251.007 113.43C247.736 107.231 246.832 97.4328 248.526 86.5469C249.273 81.7498 250.505 76.9362 252.167 72.2458C249.599 71.2948 246.921 70.7328 244.182 70.5876C228.067 69.7342 215.03 80.5421 205.441 102.716L205.144 102.587C214.791 80.2758 227.932 69.4001 244.199 70.2637C246.969 70.4105 249.679 70.9787 252.276 71.9399C254.793 64.9228 258.27 58.1898 262.514 52.2124C270.83 40.5006 281.729 31.7948 294.908 26.337C310.381 19.9289 328.614 18.2464 349.102 21.3359L349.054 21.6565C328.625 18.576 310.45 20.2514 295.032 26.6366C281.91 32.0709 271.058 40.739 262.778 52.4002C258.551 58.3549 255.087 65.0638 252.58 72.0543C257.743 74.0326 262.451 77.5697 266.292 82.439C271.458 88.9883 274.467 97.2276 274.339 104.48C274.263 108.837 273.034 112.526 270.786 115.147C268.277 118.072 264.644 119.597 259.987 119.681C259.932 119.682 259.877 119.682 259.824 119.682ZM252.471 72.3601C250.816 77.0298 249.59 81.821 248.846 86.5967C247.163 97.4151 248.055 107.14 251.294 113.278C253.426 117.318 256.427 119.42 259.98 119.356C264.541 119.275 268.093 117.788 270.539 114.936C272.738 112.373 273.939 108.755 274.015 104.474C274.141 97.2946 271.159 89.1325 266.037 82.6399C262.235 77.8199 257.577 74.3183 252.471 72.3601Z" fill="#31313B"/>
<path d="M646.907 239.63L551.101 251.108C551.101 251.108 540.933 323.775 572.255 339.033L651 348.427L646.907 239.63Z" fill="#74A475"/>
<path d="M52.1674 358.523C42.0122 356.095 32.8278 351.304 25.6073 344.67C18.7295 338.349 14.2162 330.833 12.8991 323.503C11.3253 314.745 14.4403 307.029 21.4464 302.335C25.7168 299.475 30.5462 298.532 35.4147 299.608C46.8045 302.127 54.8614 314.945 55.7427 316.398L45.8102 324.095L45.1137 322.859C43.5722 320.344 37.986 312.904 32.7129 311.751C31.1631 311.41 29.825 311.695 28.3704 312.67C27.315 313.376 24.1037 315.528 25.1419 321.304C26.7773 330.405 37.8189 342.302 55.0604 346.425L52.1674 358.523Z" fill="#C2C2C2"/>
<path d="M58.4913 393.937L57.1865 397.181C56.5062 398.872 57.7515 400.715 59.5744 400.715H114.676C116.549 400.715 117.89 398.907 117.345 397.116L116.38 393.937H58.4913Z" fill="#C2C2C2"/>
<path d="M116.381 393.937H58.4921C58.4921 393.937 50.2983 367.256 47.5005 341.948C43.2868 303.833 45.1191 288.683 45.1191 288.683H130.12C130.12 288.683 132.831 307.183 127.29 347.131C124.615 366.417 116.381 393.937 116.381 393.937Z" fill="#C2C2C2"/>
<path d="M203.5 387.357H189.107C188.117 387.357 187.308 386.547 187.308 385.558C187.308 384.568 188.117 383.758 189.107 383.758H203.5C204.49 383.758 205.3 384.568 205.3 385.558C205.3 386.547 204.49 387.357 203.5 387.357Z" fill="#61616C"/>
<path d="M225.29 387.357H210.896C209.906 387.357 209.097 386.547 209.097 385.558C209.097 384.568 209.906 383.758 210.896 383.758H225.29C226.279 383.758 227.089 384.568 227.089 385.558C227.089 386.547 226.28 387.357 225.29 387.357Z" fill="#61616C"/>
</g>
</svg>
