<svg width="19" height="21" viewBox="0 0 19 21" fill="none" xmlns="http://www.w3.org/2000/svg">
<path fill-rule="evenodd" clip-rule="evenodd" d="M9.35071 17.6554V18.7019C9.35071 19.5412 8.93243 20.2657 8.20559 20.6853C7.85589 20.8872 7.46559 20.9998 7.06093 21C6.6559 21.0002 6.26572 20.8874 5.91577 20.6853L1.2623 17.9986C0.535383 17.579 0.117188 16.8546 0.117188 16.0152V2.29023C0.117188 1.02732 1.14455 0 2.40742 0H12.656C13.919 0 14.9464 1.02724 14.9464 2.29023V5.18343C14.9464 5.59847 14.6094 5.93545 14.1944 5.93545C13.7792 5.93545 13.4425 5.59851 13.4425 5.18343V2.29023C13.4425 1.85657 13.0897 1.50371 12.656 1.50371H3.67558L8.20559 4.11957C8.93218 4.53916 9.35071 5.26349 9.35071 6.10255V16.1515H12.656C13.0897 16.1515 13.4425 15.7989 13.4425 15.3652V12.8289C13.4425 12.4136 13.779 12.0769 14.1944 12.0769C14.6096 12.0769 14.9464 12.4137 14.9464 12.8289V15.3652C14.9464 16.6281 13.919 17.6554 12.656 17.6554H9.35071ZM16.3186 9.57953L15.4904 10.4077C15.1968 10.7013 15.1969 11.1773 15.4904 11.471C15.6318 11.6124 15.8222 11.691 16.0221 11.691C16.2222 11.691 16.4124 11.6126 16.554 11.471L18.6654 9.35919C18.959 9.0656 18.959 8.58982 18.6654 8.29623L16.554 6.18475C16.2603 5.89107 15.7843 5.8912 15.4905 6.18471C15.1969 6.47805 15.197 6.95428 15.4905 7.24771L16.3186 8.07565H10.7708C10.3553 8.07565 10.0189 8.4123 10.0189 8.82771C10.0189 9.24312 10.3554 9.57957 10.7708 9.57957H16.3186V9.57953Z" fill="#474747"/>
</svg>
