<?xml version="1.0" encoding="utf-8"?>
<!-- Generator: Adobe Illustrator 25.4.1, SVG Export Plug-In . SVG Version: 6.00 Build 0)  -->
<svg version="1.1" id="Слой_1" xmlns="http://www.w3.org/2000/svg" xmlns:xlink="http://www.w3.org/1999/xlink" x="0px" y="0px"
	 viewBox="0 0 87.5 42.5" style="enable-background:new 0 0 87.5 42.5;" xml:space="preserve">
<style type="text/css">
	.st0{fill:url(#SVGID_1_);}
	.st1{fill:#AC2920;}
	.st2{fill:url(#SVGID_00000177466989141496817190000017010500035335988625_);}
	.st3{fill:#72A475;}
</style>
<linearGradient id="SVGID_1_" gradientUnits="userSpaceOnUse" x1="1.001358e-03" y1="64.9705" x2="26.0797" y2="64.9705" gradientTransform="matrix(1 0 0 -1 0 77.2602)">
	<stop  offset="0" style="stop-color:#FCDA51"/>
	<stop  offset="0.23" style="stop-color:#FDC15F"/>
	<stop  offset="0.53" style="stop-color:#FEA66F"/>
	<stop  offset="0.8" style="stop-color:#FE9578"/>
	<stop  offset="1" style="stop-color:#FF907C"/>
</linearGradient>
<path class="st0" d="M22.9,6.6H20c-0.2-1.6-0.9-3.1-2-4.3c-1.4-1.5-3.3-2.3-5.2-2.2c-1.8,0.1-3.6,1-4.9,2.4C6.9,3.6,6.2,5,6.1,6.6
	H3.2C1.4,6.6,0,8,0,9.7v11.7c0,1.8,1.4,3.2,3.2,3.2h19.7c1.8,0,3.2-1.4,3.2-3.2V9.7C26.1,8,24.7,6.6,22.9,6.6L22.9,6.6z M10.6,4.8
	c0.6-0.7,1.4-1.1,2.3-1.2c0.9,0,1.8,0.4,2.4,1.1c0.5,0.5,0.8,1.1,0.9,1.8H9.8C9.9,5.9,10.2,5.3,10.6,4.8z M12.8,21.6
	c-0.1,0-0.1-0.1-0.2-0.1l-4.1-3.2l-2.9-2.3c-0.2-0.1-0.2-0.3-0.2-0.5v-5.5c0-0.5,0.6-0.8,1-0.5l4.1,3.2l2.3,1.7c0,0,0.1,0.1,0.1,0.1
	V21.6L12.8,21.6z M20.5,16.1l-2.9,2.3l0,0c-1.4,1.1-2.8,2.1-4.2,3.2c-0.1,0-0.1,0.1-0.2,0.1v-7c0,0,0.1,0,0.1-0.1l2.2-1.7h0l4.2-3.2
	c0.4-0.3,1,0,1,0.5l0,5.5C20.8,15.8,20.7,16,20.5,16.1L20.5,16.1z"/>
<path class="st1" d="M56.2,22.8v4.1V22.8L56.2,22.8z"/>
<linearGradient id="SVGID_00000089570856326539419610000008965277922907004564_" gradientUnits="userSpaceOnUse" x1="48.7705" y1="50.6823" x2="56.2456" y2="50.6823" gradientTransform="matrix(1 0 0 -1 0 77.2602)">
	<stop  offset="0" style="stop-color:#FCDA51"/>
	<stop  offset="0.23" style="stop-color:#FDC15F"/>
	<stop  offset="0.53" style="stop-color:#FEA66F"/>
	<stop  offset="0.8" style="stop-color:#FE9578"/>
	<stop  offset="1" style="stop-color:#FF907C"/>
</linearGradient>
<path style="fill:url(#SVGID_00000089570856326539419610000008965277922907004564_);" d="M51.5,25.3l-0.3-0.2l-2.4-2.3v4.1l1.5,1.4
	l1.3,1.2l0.1,0.1l0.1,0.1l0.1,0.1l0.1,0.1l0.1,0.1l0.1,0.1l0.1,0.1l0.1,0.1l0.1,0.1l0.1,0.1l0.1,0.1l0.1,0.1l0,0l0,0v0l0,0l0.1-0.1
	l0.1-0.1l0.1-0.1l0.1-0.1l0.1-0.1l0.1-0.1l0.1-0.1l0.1-0.1l0.1-0.1l0.1-0.1l0.1-0.1l0.1-0.1l1.4-1.2l0,0l1.5-1.4v-4.1l-2.5,2.3h0
	l-0.3,0.2c-0.3,0.5-0.7,0.9-1,1.4L51.5,25.3L51.5,25.3z"/>
<path class="st3" d="M10.6,40.6H8.9V29.8H1.7v10.8H0V28.1h10.6L10.6,40.6L10.6,40.6z"/>
<path class="st3" d="M21.2,40.6H13V28.1h8.3v1.7h-6.5v2.8h6.5v1.7h-6.5V39h6.5V40.6z"/>
<path class="st3" d="M25.2,40.6h-1.7V28.1h6.4c1,0,1.9,0.3,2.7,1c0.4,0.4,0.8,0.8,1.1,1.3c0.3,0.5,0.4,1.1,0.4,1.7
	c0,0.7-0.2,1.4-0.6,2c-0.4,0.6-0.9,1.1-1.5,1.5c-0.6,0.4-1.3,0.5-2.1,0.6h-4.6L25.2,40.6L25.2,40.6z M29.9,34.5
	c0.7,0,1.2-0.2,1.7-0.7c0.5-0.5,0.7-1,0.7-1.6c0-0.6-0.2-1.2-0.7-1.6c-0.5-0.5-1-0.7-1.7-0.7h-4.6v4.7L29.9,34.5L29.9,34.5z"/>
<path class="st3" d="M44.1,40.6h-8.3V28.1h8.3v1.7h-6.5v2.8h6.5v1.7h-6.5V39h6.5V40.6z"/>
<path class="st3" d="M58.7,40.6h-2.2l-4-4.9l-4,4.9h-2.2l5.1-6.3l-5.1-6.3h2.2l4,4.9l4-4.9h2.2l-5.1,6.3L58.7,40.6z"/>
<path class="st3" d="M66.5,40.6c-1.2,0-2.3-0.3-3.3-0.8c-1-0.6-1.8-1.3-2.3-2.3c-0.6-0.9-0.9-2-0.9-3.1c0-1.1,0.3-2.2,0.9-3.2
	c0.6-0.9,1.4-1.7,2.3-2.3c1-0.6,2.1-0.8,3.3-0.8c1.2,0,2.3,0.3,3.2,0.8c1,0.6,1.8,1.3,2.3,2.3c0.6,0.9,0.9,2,0.9,3.2
	c0,1.2-0.3,2.2-0.9,3.1c-0.6,0.9-1.4,1.7-2.3,2.3C68.7,40.4,67.7,40.6,66.5,40.6z M66.5,39c0.9,0,1.7-0.2,2.4-0.6
	c0.7-0.4,1.3-1,1.7-1.7c0.4-0.7,0.6-1.5,0.6-2.3s-0.2-1.6-0.6-2.3c-0.4-0.7-1-1.2-1.7-1.7c-0.7-0.4-1.5-0.6-2.4-0.6
	c-0.9,0-1.7,0.2-2.4,0.6c-0.7,0.4-1.3,1-1.7,1.7c-0.4,0.7-0.6,1.5-0.6,2.3s0.2,1.6,0.6,2.3c0.4,0.7,1,1.2,1.7,1.7
	C64.8,38.7,65.6,39,66.5,39z"/>
<path class="st3" d="M87.5,42.5h-1.7v-1.9h-9.4v1.9h-1.7V39h1.3c0.5-0.4,0.8-0.8,1.1-1.5c0.3-0.6,0.5-1.3,0.5-2v-7.4h8.3V39h1.8
	L87.5,42.5L87.5,42.5z M83.9,39v-9.1h-4.8v5.7c0,1.6-0.3,2.7-1,3.4H83.9z"/>
<path class="st3" d="M40,16.9c0,1.5-0.1,2.8-0.3,3.8c-0.2,1-0.5,1.8-0.9,2.4c-0.4,0.6-0.9,1-1.5,1.3c-0.6,0.2-1.3,0.4-2.1,0.4
	c-0.7,0-1.4-0.1-1.9-0.3c-0.5-0.2-1-0.5-1.4-0.8c-0.4-0.3-0.7-0.7-1-1.1c-0.3-0.4-0.5-0.8-0.6-1.2c-0.2-0.4-0.3-0.8-0.3-1.2
	c-0.1-0.4-0.1-0.7-0.1-0.9h3.1c0,1,0.2,1.7,0.6,2.2c0.4,0.5,0.9,0.7,1.5,0.7c0.4,0,0.6-0.1,0.9-0.3c0.2-0.2,0.4-0.5,0.5-0.9
	c0.1-0.4,0.2-0.9,0.3-1.5c0-0.6,0.1-1.2,0.1-1.9v0c-0.3,0-0.6,0.1-0.9,0.1c-0.3,0-0.5,0-0.8,0c-1,0-1.9-0.2-2.6-0.5
	c-0.7-0.4-1.3-0.8-1.7-1.4c-0.4-0.6-0.7-1.2-0.9-2c-0.2-0.7-0.3-1.5-0.4-2.2c0-0.3,0-0.6,0-0.9c0-1.6,0.2-3.3,0.7-5.2h3.4
	c-0.4,1.8-0.7,3.4-0.7,4.8v0.2c0,0.5,0,1.1,0.1,1.6c0.1,0.5,0.2,1,0.4,1.5c0.2,0.4,0.5,0.8,0.9,1.1c0.4,0.3,0.9,0.4,1.5,0.4
	c0.3,0,0.6,0,0.9-0.1V5.4H40V16.9L40,16.9z"/>
<path class="st3" d="M70.4,8.5v4.7h4.4v3.1h-4.4v4.7h5.3v3.1H67V5.4l8.7,0v3.1L70.4,8.5L70.4,8.5z"/>
<path class="st3" d="M87.5,5.4v3h-3.4v15.8h-3.5V8.4h-3.4v-3H87.5L87.5,5.4z"/>
<path class="st3" d="M60.7,5.4c-0.9,0.2-1.8,0.5-2.8,0.8c-1,0.3-2.1,0.7-3.1,1.1c-1.1,0.4-2.2,0.9-3.3,1.4c-1.1,0.5-2.2,1-3.2,1.6
	c-1,0.6-2,1.2-2.9,1.9c-0.9,0.7-1.7,1.4-2.3,2.2c-0.7,0.8-1.2,1.6-1.5,2.5c-0.4,0.9-0.6,1.8-0.6,2.8c0,0.7,0.1,1.3,0.3,1.9
	c0.1,0.3,0.3,0.8,0.9,1.3c0,0,0.8,0.8,1.9,1c2.4,0.5,4.1-2.6,5.7-2.1c0.3,0.1,0.7,0.4,1,0.9c0.3,0.5,0.5,1.3,0.7,2.5l1,1.4
	c0.3-0.5,0.7-0.9,1-1.4c-0.2-1-0.3-1.8-0.5-2.5c-0.7-2.3-1.6-3.1-2.4-3.4c-2-0.5-5.1,2.1-5.7,1.4c-0.2-0.2-0.2-0.8-0.2-1
	c0-0.7,0.1-1.3,0.4-1.9c0.3-0.6,0.6-1.2,1.1-1.7c0.4-0.5,1-1.1,1.6-1.6c0.6-0.5,1.2-1,1.9-1.4c0.7-0.4,1.4-0.8,2.1-1.2
	c0.7-0.4,1.4-0.7,2.1-1c1.3-0.6,2.6-1.1,3.7-1.4c1.1-0.4,2.2-0.7,3.1-0.9v15.4h3.8V5.4L60.7,5.4L60.7,5.4z"/>
</svg>
