<svg width="16" height="17" viewBox="0 0 16 17" fill="none" xmlns="http://www.w3.org/2000/svg">
<path d="M15.3218 6.32668C15.0607 6.06702 14.6386 6.06817 14.379 6.32921L6.36476 14.3867C5.32502 15.4265 3.63632 15.4265 2.59464 14.3853C1.55374 13.3439 1.55374 11.6552 2.59477 10.6142L10.8462 2.31943C11.4953 1.67032 12.5507 1.67032 13.2017 2.32084C13.8525 2.97166 13.8525 4.02691 13.2015 4.67792L6.36601 11.5134C6.36558 11.5138 6.3652 11.5143 6.36476 11.5148C6.10435 11.7737 5.6835 11.7734 5.42362 11.5135C5.1633 11.2532 5.1633 10.8313 5.42362 10.571L8.72307 7.27083C8.98339 7.01045 8.98336 6.58831 8.72297 6.32799C8.46259 6.06767 8.04046 6.0677 7.78014 6.32809L4.48072 9.62816C3.69973 10.4092 3.69973 11.6753 4.48078 12.4563C5.2618 13.2373 6.52795 13.2373 7.309 12.4563C7.30991 12.4554 7.31063 12.4544 7.3115 12.4535L14.1444 5.62069C15.3161 4.44898 15.3161 2.5495 14.1444 1.37778C12.9725 0.206755 11.0731 0.206755 9.9021 1.37778L1.65068 9.6726C0.0902097 11.2331 0.0902096 13.7658 1.65181 15.3282C3.21444 16.89 5.74719 16.89 7.30888 15.3283L15.3243 7.26951C15.584 7.00844 15.5828 6.58634 15.3218 6.32668Z" fill="white"/>
</svg>
