<svg width="17" height="16" viewBox="0 0 17 16" fill="none" xmlns="http://www.w3.org/2000/svg">
<path d="M16.6975 14.4796L13.1838 10.9646C14.2373 9.59178 14.7292 7.86967 14.5596 6.14758C14.39 4.42548 13.5717 2.83237 12.2707 1.6914C10.9697 0.550431 9.28331 -0.0529518 7.55373 0.0036505C5.82416 0.0602528 4.18087 0.772602 2.95722 1.99619C1.73357 3.21978 1.02119 4.86299 0.964588 6.59249C0.907983 8.32198 1.51139 10.0083 2.65241 11.3092C3.79344 12.6102 5.38663 13.4285 7.1088 13.598C8.83097 13.7676 10.5532 13.2758 11.926 12.2223L15.4427 15.7395C15.5252 15.8221 15.6233 15.8876 15.7312 15.9323C15.8391 15.977 15.9548 16 16.0715 16C16.1883 16 16.304 15.977 16.4119 15.9323C16.5198 15.8876 16.6179 15.8221 16.7004 15.7395C16.783 15.6569 16.8485 15.5589 16.8932 15.451C16.9379 15.3431 16.9609 15.2274 16.9609 15.1106C16.9609 14.9939 16.9379 14.8782 16.8932 14.7703C16.8485 14.6624 16.783 14.5644 16.7004 14.4818L16.6975 14.4796ZM2.75157 6.82147C2.75157 5.82645 3.04664 4.85377 3.59947 4.02644C4.1523 3.19911 4.93806 2.55428 5.85738 2.1735C6.7767 1.79272 7.7883 1.69309 8.76425 1.88721C9.7402 2.08133 10.6367 2.56048 11.3403 3.26407C12.0439 3.96766 12.5231 4.86408 12.7172 5.83998C12.9113 6.81589 12.8117 7.82744 12.4309 8.74672C12.0501 9.666 11.4052 10.4517 10.5779 11.0045C9.75051 11.5573 8.77779 11.8524 7.78272 11.8524C6.4488 11.851 5.1699 11.3205 4.22667 10.3774C3.28344 9.43417 2.75294 8.15533 2.75157 6.82147Z" fill="#A0A0A0"/>
</svg>
