<svg width="693" height="452" viewBox="0 0 693 452" fill="none" xmlns="http://www.w3.org/2000/svg">
<mask id="mask0_150_5266" style="mask-type:alpha" maskUnits="userSpaceOnUse" x="0" y="0" width="693" height="452">
<rect width="693" height="452" rx="16.3938" fill="#D9D9D9"/>
</mask>
<g mask="url(#mask0_150_5266)">
<rect opacity="0.2" width="693" height="452" rx="16.3938" fill="#D9D9D9"/>
<path d="M324.222 585.342H-60.6164C-66.8882 585.342 -71.9922 580.238 -71.9922 573.966V33.013C-71.9922 26.7412 -66.8882 21.6372 -60.6164 21.6372H324.222C330.492 21.6372 335.596 26.7412 335.596 33.013V573.966C335.596 580.238 330.492 585.342 324.222 585.342ZM-60.6164 22.1374C-66.6152 22.1374 -71.4939 27.0162 -71.4939 33.015V573.968C-71.4939 579.967 -66.6152 584.846 -60.6164 584.846H324.222C330.219 584.846 335.098 579.967 335.098 573.968V33.013C335.098 27.0162 330.219 22.1354 324.222 22.1354L-60.6164 22.1374Z" fill="#EBEBEB"/>
<path d="M755.293 585.342H370.456C364.184 585.342 359.082 580.238 359.082 573.966V33.013C359.082 26.7412 364.186 21.6372 370.456 21.6372H755.293C761.566 21.6372 766.668 26.7412 766.668 33.013V573.966C766.67 580.238 761.566 585.342 755.293 585.342ZM370.456 22.1374C364.459 22.1374 359.58 27.0162 359.58 33.015V573.968C359.58 579.967 364.459 584.846 370.456 584.846H755.293C761.291 584.846 766.17 579.967 766.17 573.968V33.013C766.17 27.0162 761.291 22.1354 755.293 22.1354L370.456 22.1374Z" fill="#EBEBEB"/>
<path d="M161.947 73.6714H-16.6406V459.885H161.947V73.6714Z" fill="#E6E6E6"/>
<path d="M168.78 73.6714H-9.80762V459.885H168.78V73.6714Z" fill="#F5F5F5"/>
<path d="M156.514 448.433L156.514 85.124L2.45778 85.124L2.45778 448.433H156.514Z" fill="white"/>
<path d="M156.514 448.433L156.514 85.124H151.348L151.348 448.433H156.514Z" fill="#E6E6E6"/>
<path d="M163.707 401.368H-4.73438V416.744H163.707V401.368Z" fill="#F5F5F5"/>
<path d="M163.707 360.835H-4.73438V376.211H163.707V360.835Z" fill="#F5F5F5"/>
<path d="M407.624 73.6714H229.037V459.885H407.624V73.6714Z" fill="#E6E6E6"/>
<path d="M414.458 73.6714H235.871V459.885H414.458V73.6714Z" fill="#F5F5F5"/>
<path d="M402.191 448.433L402.191 85.124L248.136 85.124L248.136 448.433H402.191Z" fill="white"/>
<path d="M402.191 448.434L402.191 85.1255H397.026L397.026 448.434H402.191Z" fill="#E6E6E6"/>
<path d="M409.383 401.368H240.942V416.743H409.383V401.368Z" fill="#F5F5F5"/>
<path d="M409.383 360.835H240.942V376.211H409.383V360.835Z" fill="#F5F5F5"/>
<path d="M542.246 350.055C568.725 356.933 597.541 378.925 605.73 400.703C608.032 381.602 611.129 362.593 615.017 343.722C613.11 346.046 610.802 348.312 608.034 350.51C571.112 381.893 549.929 311.223 564.659 257.773C590.068 267.9 615.914 293.384 621.315 316.061C625.983 297.344 631.439 278.791 637.683 260.454C635.503 262.535 632.918 264.508 629.895 266.359C589.302 293.065 577.113 220.071 598.635 168.441C622.573 181.684 644.964 210.335 647.439 233.637C653.952 216.814 661.144 200.199 669.011 183.836C641.197 183.318 652.726 130.493 677.77 101.29C697.187 127.611 709.254 175.524 677.582 182.874C674.543 189.092 671.603 195.344 668.762 201.634C687.286 186.649 723.365 187.679 748.109 199.126C725.79 235.339 676.855 280.041 659.827 237.122C658.647 233.83 657.932 230.689 657.623 227.702C650.436 245.543 644.025 263.631 638.391 281.916C654.841 264.902 690.7 261.544 716.682 269.805C699.262 308.102 656.341 358.235 634.038 317.983C632.454 314.882 631.34 311.87 630.664 308.963C625.795 327.431 621.708 346.071 618.411 364.833C632.599 345.998 667.733 338.293 694.546 343.255C682.094 383.156 645.733 438.124 618.593 401.033C616.618 398.16 615.161 395.318 614.121 392.525C611.591 411.395 609.852 430.36 608.905 449.371C620.645 428.937 654.55 416.969 681.772 418.567C674.388 459.585 645.093 518.744 613.574 485.266C613.551 485.24 613.529 485.214 613.505 485.188C610.332 481.579 604.742 481.559 601.742 485.314L600.766 486.535C600.68 467.283 601.401 448.041 602.918 428.867C601.312 431.404 599.305 433.935 596.83 436.458C564.081 472.152 534.322 404.663 542.246 350.055Z" fill="#F5F5F5"/>
<path d="M642.762 393.841C625.302 399.393 606.662 415.323 601.751 430.431C599.744 417.489 597.209 404.633 594.152 391.9C595.479 393.42 597.071 394.889 598.971 396.298C624.335 416.483 636.682 367.625 625.547 331.676C608.882 339.407 592.304 357.621 589.271 373.251C585.698 360.646 581.604 348.178 576.992 335.885C578.495 337.233 580.265 338.492 582.325 339.656C610.018 356.532 616.319 306.384 600.707 271.897C585.098 281.705 570.9 301.963 569.832 317.925C565.076 306.671 559.875 295.582 554.231 284.686C572.737 283.425 563.747 247.797 546.349 228.712C534.074 247.284 527.228 280.334 548.499 284.312C550.677 288.449 552.79 292.616 554.839 296.809C542.131 287.201 518.134 289.081 501.943 297.69C517.704 321.642 551.397 350.512 561.668 320.705C562.372 318.423 562.771 316.259 562.902 314.212C568.132 326.138 572.849 338.255 577.054 350.536C565.678 339.477 541.719 338.359 524.623 344.836C537.175 370.37 566.996 403.138 580.847 374.973C581.823 372.807 582.491 370.718 582.87 368.715C586.57 381.144 589.753 393.715 592.416 406.394C582.501 394.02 558.916 389.915 541.187 394.172C550.47 420.959 576.046 457.237 593.193 431.071C594.437 429.048 595.336 427.063 595.959 425.126C598.112 437.905 599.742 450.774 600.844 463.7C592.519 450.156 569.648 443.107 551.562 445.084C557.497 472.798 578.473 512.163 598.628 488.317C598.642 488.299 598.658 488.279 598.672 488.261C600.695 485.698 604.415 485.501 606.506 487.962L607.186 488.763C606.763 475.638 605.807 462.548 604.32 449.528C605.452 451.204 606.853 452.864 608.563 454.502C631.259 477.77 649.397 430.8 642.762 393.841Z" fill="#EBEBEB"/>
<path d="M417.435 178.727C442.018 165.075 459.458 139.701 461.643 109.561C465.084 62.0732 429.378 20.783 381.888 17.3411C334.4 13.8993 293.11 49.6052 289.668 97.0955C286.858 135.857 310.136 170.478 344.608 183.769C335.171 199.639 320.168 205.917 320.168 205.917C320.168 205.917 348.6 202.162 358.852 187.871C362.303 188.552 365.825 189.057 369.422 189.318C381.844 190.219 393.834 188.417 404.843 184.451C413.475 198.724 436.473 207.585 436.473 207.585C436.473 207.585 422.566 197.383 417.435 178.727Z" fill="white"/>
<path opacity="0.5" d="M417.435 178.727C442.018 165.075 459.458 139.701 461.643 109.561C465.084 62.0732 429.378 20.783 381.888 17.3411C334.4 13.8993 293.11 49.6052 289.668 97.0955C286.858 135.857 310.136 170.478 344.608 183.769C335.171 199.639 320.168 205.917 320.168 205.917C320.168 205.917 348.6 202.162 358.852 187.871C362.303 188.552 365.825 189.057 369.422 189.318C381.844 190.219 393.834 188.417 404.843 184.451C413.475 198.724 436.473 207.585 436.473 207.585C436.473 207.585 422.566 197.383 417.435 178.727Z" fill="#C7DBC8"/>
<path d="M466.352 145.869L448.187 147.346C449.364 150.064 449.99 153.118 449.821 156.352C449.293 166.365 441.088 174.682 431.083 175.323C420.197 176.023 410.715 167.86 409.828 156.944C409.645 154.69 409.854 152.492 410.398 150.417L379.691 152.914L377.193 122.207C381.642 123.329 386.68 123.108 391.565 120.328C398.534 116.36 402.861 108.693 402.03 100.715C400.906 89.9169 391.345 81.9371 380.47 82.822C378.216 83.0054 376.081 83.5674 374.12 84.4184L371.625 53.7327L402.333 51.2356C401.153 48.5849 400.539 45.6094 400.666 42.4586C401.063 32.5316 409.027 24.1732 418.922 23.2963C430.011 22.3137 439.77 30.5586 440.671 41.6375C440.854 43.8915 440.643 46.0897 440.121 48.1624L458.287 46.6856C465.2 46.1236 471.261 51.2734 471.823 58.187L477.852 132.329C478.416 139.247 473.266 145.307 466.352 145.869Z" fill="#74A475"/>
<path d="M382.806 82.7763C379.675 82.6587 376.753 83.2884 374.12 84.4304L371.625 53.7368L340.961 56.23C341.882 58.3525 342.44 60.6823 342.574 63.1436C343.134 73.4053 335.503 82.6587 325.323 84.0597C313.827 85.6421 303.508 77.2398 302.581 65.8321C302.398 63.5781 302.587 61.3818 303.109 59.3091L284.963 60.7839C278.05 61.3459 272.9 67.4065 273.462 74.3221L279.493 148.464C280.055 155.378 286.115 160.528 293.029 159.966L311.203 158.487C310.274 162.172 310.314 166.212 311.828 170.331C314.509 177.625 321.345 182.839 329.097 183.379C341.669 184.254 351.576 173.821 350.595 161.763C350.412 159.507 349.846 157.379 348.991 155.414L379.691 152.917L377.193 122.217C379.27 122.741 381.462 122.956 383.718 122.773C394.753 121.876 402.97 112.2 402.068 101.165C401.251 91.1905 392.808 83.1509 382.806 82.7763Z" fill="#DFDFDF"/>
<path d="M344.363 21.0418C342.42 19.1943 340.515 17.5999 338.699 16.3045L340.174 14.2378C342.087 15.603 344.086 17.2731 346.115 19.2023L344.363 21.0418Z" fill="#263238"/>
<path d="M359.725 42.1413C358.304 38.3128 355.099 33.2088 350.936 28.1348L352.897 26.5225C357.233 31.8038 360.589 37.1728 362.106 41.2564L359.725 42.1413Z" fill="#688281"/>
<path d="M376.65 36.834L374.109 36.7762C374.353 26.1457 377.786 16.8027 384.313 9.01025L386.258 10.6405C380.112 17.9806 376.88 26.7934 376.65 36.834Z" fill="#263238"/>
<path d="M364.577 24.9898C364.551 24.8643 361.891 12.3704 356.902 4.92868L359.013 3.51367C364.28 11.3699 366.953 23.9395 367.064 24.4697L364.577 24.9898Z" fill="#688281"/>
<path d="M399.848 187.231C398.09 185.669 396.28 183.795 394.471 181.663L396.406 180.019C398.142 182.059 399.868 183.847 401.538 185.332L399.848 187.231Z" fill="#263238"/>
<path d="M390.912 177.714C386.255 171.55 382.982 164.228 381.916 160.034L384.379 159.409C385.384 163.363 388.493 170.298 392.939 176.183L390.912 177.714Z" fill="#688281"/>
<path d="M373.953 175.713C372.173 167.676 375.691 160.527 375.842 160.226L378.114 161.362C378.08 161.428 374.853 168.031 376.432 175.163L373.953 175.713Z" fill="#688281"/>
<path d="M186.859 615.594C169.883 520.871 162.823 406.671 162.823 406.671L253.26 405.246C253.26 405.246 245.519 559.169 241.784 623.641C237.907 690.675 235.178 819.671 235.178 819.671H203.982C203.982 819.671 177.445 698.471 186.859 615.594Z" fill="#565656"/>
<path opacity="0.2" d="M205.205 432.478C205.205 432.478 192.914 524.405 182.848 591.822C173.895 535.165 168.213 475.635 165.268 439.828L205.205 432.478Z" fill="black"/>
<path d="M102.878 612.926C118.307 517.675 117.808 454.022 133.245 407.075L221.536 405.866C221.536 405.866 178.844 556.984 159.361 619.906C139.801 683.074 104.501 819.671 104.501 819.671H75.9023C75.9023 819.671 77.061 686.611 102.878 612.926Z" fill="#565656"/>
<path d="M252.79 239.005L260.37 245.524L268.169 252.132C273.369 256.519 278.65 260.768 283.881 264.867C286.501 266.912 289.141 268.884 291.772 270.752C294.377 272.668 296.99 274.487 299.555 276.123C302.107 277.778 304.673 279.237 306.985 280.494C309.265 281.718 311.461 282.618 312.58 283.009L308.977 282.74C308.478 282.988 309.74 282.998 311.339 282.626C312.97 282.273 315.034 281.515 317.154 280.573C321.411 278.673 326.119 276.179 330.732 273.357C335.415 270.591 340.112 267.527 344.847 264.402L359.049 254.898L359.371 254.682C364.198 251.451 370.728 252.745 373.958 257.572C376.365 261.167 376.252 265.717 374.048 269.134C370.532 274.566 366.864 279.356 362.886 284.205C358.912 289 354.673 293.616 350.078 298.103C345.409 302.516 340.524 306.905 334.575 310.882C331.596 312.877 328.41 314.825 324.546 316.593C320.666 318.33 316.18 319.977 309.782 320.42C308.975 320.476 308.18 320.444 307.41 320.336L306.18 320.151C300.241 319.27 295.654 317.712 291.373 316.092C287.132 314.463 283.361 312.563 279.7 310.658C272.405 306.839 265.836 302.658 259.518 298.277C253.168 293.946 247.2 289.319 241.352 284.598C238.457 282.204 235.561 279.821 232.761 277.321C229.895 274.811 227.269 272.383 224.318 269.533C216.026 261.525 215.793 248.313 223.798 240.021C231.51 232.032 244.054 231.523 252.379 238.651L252.79 239.005Z" fill="#CF7A64"/>
<path d="M362.921 273.936L386.307 273.738L378.221 246.878C378.221 246.878 357.067 249.629 356.711 261.104L362.921 273.936Z" fill="#CE7A63"/>
<path d="M403.471 256.548L399.05 247.614C397.29 244.057 393.212 242.299 389.417 243.458L378.219 246.881L386.305 273.74L399.649 267.483C403.764 265.551 405.487 260.618 403.471 256.548Z" fill="#CE7A63"/>
<path d="M231.365 224.655C213.787 237.49 209.053 262.056 219.911 280.919C221.515 283.709 223.307 286.163 225.316 288.074C234.574 296.876 257.538 304.63 272.603 311.165C291.782 304.332 301.553 284.007 298.716 272.743C284.118 253.407 257.467 225.051 243.619 221.296C239.399 220.15 235.379 221.723 231.365 224.655Z" fill="#757575"/>
<path d="M146.851 217.028C170.586 214.101 202.576 213.824 228.169 216.5C251.188 218.907 268.687 238.464 268.615 261.61C268.486 303.202 261.819 349.154 254.886 413.032C235.221 433.394 129.577 412.219 129.577 412.219C129.928 395.148 133.251 368.745 138.147 343.237C134.547 316.903 125.42 286.747 120.263 251.774C117.761 234.801 129.825 219.129 146.851 217.028Z" fill="#B9B9B9"/>
<mask id="mask1_150_5266" style="mask-type:luminance" maskUnits="userSpaceOnUse" x="119" y="214" width="150" height="208">
<path d="M146.851 217.028C170.586 214.101 202.576 213.824 228.169 216.5C251.188 218.907 268.687 238.464 268.615 261.61C268.486 303.202 261.819 349.154 254.886 413.032C235.221 433.394 129.577 412.219 129.577 412.219C129.928 395.148 133.251 368.745 138.147 343.237C134.547 316.903 125.42 286.747 120.263 251.774C117.761 234.801 129.825 219.129 146.851 217.028Z" fill="white"/>
</mask>
<g mask="url(#mask1_150_5266)">
<g opacity="0.2">
<path d="M142.365 261.257C141.992 261.257 141.686 260.966 141.668 260.594C141.649 260.211 141.948 259.882 142.33 259.866C147.524 259.612 152.602 257.504 156.624 254.16C155.885 253.809 155.183 253.315 154.619 252.621C153.877 251.708 153.51 250.61 153.249 249.657C151.708 243.967 153.098 236.577 158.733 233.455C160.652 232.394 163.405 232.069 164.922 233.861C165.558 234.619 165.793 235.569 165.928 236.313C166.656 240.428 165.347 244.323 164.12 246.867C162.938 249.322 161.317 251.56 159.39 253.503C159.557 253.524 159.712 253.539 159.865 253.553C163.787 253.875 168.021 252.093 170.913 248.913C173.574 245.991 175.223 241.924 175.553 237.461C175.582 237.078 175.886 236.78 176.3 236.817C176.683 236.846 176.973 237.179 176.944 237.564C176.588 242.338 174.811 246.701 171.943 249.85C168.715 253.394 164.189 255.3 159.749 254.941C159.253 254.901 158.704 254.825 158.137 254.685C153.79 258.528 148.158 260.972 142.394 261.251C142.386 261.254 142.375 261.257 142.365 261.257ZM161.919 233.98C161.09 233.98 160.18 234.249 159.411 234.674C154.458 237.419 153.233 244.252 154.597 249.29C154.819 250.1 155.123 251.027 155.703 251.739C156.258 252.42 157.007 252.853 157.788 253.13C159.881 251.161 161.626 248.836 162.866 246.26C164.006 243.901 165.223 240.301 164.561 236.556C164.458 235.986 164.284 235.263 163.859 234.759C163.394 234.212 162.689 233.98 161.919 233.98Z" fill="white"/>
<path d="M201.481 287.498C201.402 287.498 201.32 287.485 201.235 287.454C196.751 285.778 193.056 282.856 190.834 279.222C188.332 275.131 187.775 270.225 189.348 266.092C189.525 265.627 189.752 265.118 190.045 264.614C187.569 259.364 186.793 253.275 188.131 247.664C188.221 247.29 188.604 247.057 188.971 247.15C189.345 247.239 189.575 247.614 189.485 247.989C188.279 253.043 188.886 258.509 190.974 263.307C191.515 262.695 192.185 262.159 193.009 261.813C194.104 261.349 195.308 261.309 196.237 261.325C202.127 261.433 208.839 264.83 210.264 271.114C210.75 273.252 210.293 275.986 208.145 276.941C207.24 277.345 206.26 277.303 205.508 277.224C201.357 276.778 197.981 274.432 195.88 272.542C193.853 270.721 192.156 268.543 190.826 266.15C190.76 266.3 190.702 266.448 190.649 266.59C189.25 270.264 189.776 274.827 192.024 278.496C194.083 281.864 197.53 284.582 201.726 286.147C202.085 286.282 202.27 286.683 202.133 287.045C202.03 287.327 201.766 287.498 201.481 287.498ZM191.639 264.709C192.945 267.269 194.69 269.594 196.817 271.505C198.765 273.257 201.882 275.429 205.664 275.836C206.242 275.899 206.984 275.933 207.585 275.667C208.95 275.06 209.285 273.072 208.91 271.423C207.657 265.896 201.436 262.814 196.215 262.719C195.36 262.697 194.405 262.734 193.555 263.096C192.745 263.439 192.117 264.038 191.639 264.709Z" fill="white"/>
<path d="M255.494 270.248C254.406 270.248 253.361 269.905 252.601 269.047C251.944 268.306 251.685 267.361 251.535 266.619C250.877 263.381 251.413 259.717 253.084 256.023C254.206 253.542 255.768 251.264 257.647 249.274C257.484 249.255 257.328 249.245 257.175 249.234C253.269 249.007 249.059 250.892 246.238 254.143C243.651 257.128 242.105 261.235 241.883 265.706C241.864 266.091 241.55 266.395 241.155 266.368C240.769 266.35 240.474 266.023 240.492 265.637C240.73 260.855 242.398 256.453 245.187 253.233C248.331 249.609 252.849 247.585 257.251 247.843C257.747 247.873 258.299 247.936 258.869 248.06C263.121 244.109 268.692 241.528 274.446 241.108C274.876 241.082 275.161 241.369 275.193 241.752C275.222 242.135 274.932 242.467 274.549 242.496C269.363 242.876 264.338 245.109 260.397 248.551C261.144 248.883 261.859 249.361 262.437 250.039C263.216 250.947 263.614 252.079 263.878 252.966C265.56 258.614 264.353 266.038 258.793 269.298C257.827 269.868 256.636 270.248 255.494 270.248ZM259.265 249.607C257.22 251.628 255.53 253.993 254.353 256.598C253.274 258.986 252.144 262.615 252.902 266.339C253.018 266.909 253.208 267.627 253.643 268.121C254.641 269.24 256.636 268.952 258.091 268.1C262.981 265.233 264.034 258.369 262.546 253.367C262.321 252.613 261.986 251.655 261.384 250.947C260.812 250.28 260.046 249.863 259.265 249.607Z" fill="white"/>
<path d="M228.38 256.366C228.333 256.366 228.285 256.36 228.235 256.35C227.858 256.271 227.617 255.898 227.699 255.524C228.781 250.44 228.04 244.99 225.836 240.245C225.308 240.871 224.651 241.422 223.833 241.789C222.748 242.28 221.547 242.349 220.621 242.356C220.587 242.356 220.557 242.356 220.526 242.356C214.654 242.356 207.929 239.126 206.358 232.913C205.823 230.789 206.208 228.044 208.332 227.036C209.227 226.611 210.204 226.629 210.959 226.69C215.123 227.036 218.557 229.297 220.703 231.134C222.772 232.905 224.522 235.038 225.91 237.4C225.971 237.25 226.026 237.102 226.076 236.959C227.385 233.251 226.749 228.704 224.413 225.088C222.268 221.77 218.758 219.139 214.527 217.677C214.163 217.553 213.97 217.154 214.094 216.793C214.221 216.429 214.619 216.233 214.981 216.36C219.507 217.922 223.273 220.754 225.585 224.33C228.188 228.358 228.863 233.251 227.393 237.421C227.227 237.888 227.013 238.403 226.736 238.915C229.341 244.101 230.265 250.169 229.061 255.814C228.99 256.141 228.702 256.366 228.38 256.366ZM210.241 228.052C209.8 228.052 209.33 228.105 208.929 228.297C207.578 228.939 207.293 230.934 207.707 232.573C209.085 238.036 215.327 240.966 220.526 240.966C220.555 240.966 220.581 240.963 220.608 240.963C221.444 240.958 222.413 240.902 223.257 240.52C224.057 240.158 224.669 239.543 225.137 238.859C223.764 236.334 221.967 234.053 219.792 232.195C217.802 230.493 214.632 228.395 210.84 228.081C210.658 228.065 210.452 228.052 210.241 228.052Z" fill="white"/>
<path d="M153.794 332.597C153.422 332.597 153.116 332.307 153.098 331.935C153.079 331.549 153.375 331.222 153.76 331.206C158.951 330.953 164.032 328.844 168.054 325.5C167.315 325.149 166.613 324.656 166.048 323.962C165.301 323.038 164.924 321.895 164.679 321C163.137 315.31 164.528 307.918 170.163 304.798C172.082 303.737 174.834 303.412 176.352 305.204C176.988 305.959 177.223 306.909 177.357 307.656C178.086 311.771 176.777 315.666 175.552 318.213C174.367 320.668 172.749 322.906 170.823 324.848C170.989 324.87 171.145 324.885 171.298 324.899C175.228 325.223 179.453 323.439 182.346 320.256C185.006 317.337 186.656 313.27 186.985 308.807C187.017 308.424 187.302 308.123 187.732 308.163C188.118 308.192 188.405 308.525 188.376 308.91C188.02 313.684 186.244 318.047 183.375 321.196C180.147 324.743 175.613 326.64 171.182 326.289C170.685 326.25 170.136 326.173 169.569 326.033C165.22 329.879 159.59 332.323 153.826 332.602C153.815 332.597 153.805 332.597 153.794 332.597ZM173.348 305.321C172.52 305.321 171.609 305.59 170.841 306.015C165.887 308.757 164.663 315.593 166.027 320.634C166.246 321.441 166.55 322.365 167.133 323.08C167.687 323.761 168.437 324.196 169.215 324.471C171.308 322.502 173.055 320.177 174.296 317.601C175.436 315.242 176.655 311.642 175.99 307.897C175.887 307.324 175.716 306.601 175.288 306.099C174.824 305.553 174.119 305.321 173.348 305.321Z" fill="white"/>
<path d="M214.482 361.69C214.403 361.69 214.319 361.677 214.237 361.645C209.753 359.969 206.058 357.048 203.836 353.413C201.334 349.32 200.777 344.411 202.35 340.283C202.526 339.821 202.753 339.312 203.046 338.805C200.568 333.556 199.795 327.467 201.133 321.856C201.223 321.481 201.611 321.251 201.972 321.341C202.347 321.431 202.579 321.806 202.487 322.181C201.281 327.235 201.888 332.701 203.973 337.499C204.516 336.886 205.187 336.351 206.013 336.005C207.108 335.54 208.306 335.506 209.241 335.517C215.132 335.625 221.843 339.022 223.271 345.306C223.757 347.443 223.297 350.18 221.152 351.133C220.244 351.537 219.27 351.495 218.515 351.415C215.232 351.062 211.901 349.444 208.884 346.733C206.857 344.912 205.16 342.735 203.833 340.341C203.77 340.492 203.709 340.639 203.656 340.782C202.257 344.456 202.782 349.016 205.028 352.688C207.087 356.055 210.534 358.774 214.73 360.339C215.089 360.473 215.274 360.874 215.137 361.236C215.031 361.518 214.765 361.69 214.482 361.69ZM204.635 338.903C205.942 341.463 207.686 343.788 209.813 345.699C211.764 347.451 214.883 349.623 218.663 350.03C219.238 350.093 219.977 350.13 220.582 349.861C221.946 349.254 222.281 347.264 221.906 345.614C220.653 340.09 214.432 337.008 209.212 336.913C208.372 336.886 207.401 336.931 206.551 337.29C205.746 337.631 205.118 338.232 204.635 338.903Z" fill="white"/>
<path d="M164.408 374.583C164.131 374.583 163.867 374.414 163.759 374.137C162.025 369.672 161.75 364.968 162.983 360.893C164.371 356.304 167.668 352.625 171.803 351.052C172.268 350.875 172.798 350.706 173.368 350.587C175.641 345.248 179.674 340.619 184.754 337.887C185.095 337.702 185.514 337.832 185.696 338.17C185.878 338.507 185.752 338.932 185.414 339.112C180.837 341.574 177.158 345.662 174.965 350.41H174.976C175.791 350.41 176.63 350.556 177.435 350.938C178.512 351.448 179.344 352.319 179.945 353.023C183.785 357.494 185.712 364.765 181.967 370.007C180.69 371.791 178.341 373.266 176.208 372.303C175.3 371.894 174.683 371.136 174.242 370.521C171.817 367.127 171.323 363.044 171.334 360.218C171.347 357.494 171.84 354.778 172.746 352.192C172.587 352.245 172.439 352.297 172.297 352.35C168.62 353.752 165.561 357.177 164.316 361.295C163.17 365.071 163.434 369.453 165.055 373.628C165.195 373.987 165.015 374.391 164.659 374.53C164.58 374.567 164.493 374.583 164.408 374.583ZM174.358 351.841C173.316 354.52 172.743 357.367 172.727 360.228C172.716 362.849 173.165 366.626 175.377 369.716C175.715 370.189 176.179 370.764 176.781 371.039C178.145 371.648 179.848 370.58 180.832 369.202C184.126 364.594 182.289 357.898 178.89 353.936C178.343 353.3 177.676 352.598 176.839 352.202C176.045 351.825 175.189 351.754 174.358 351.841Z" fill="white"/>
<path d="M161.127 420.97C161.112 420.97 161.096 420.967 161.077 420.967C156.303 420.638 151.93 418.888 148.763 416.04C145.197 412.828 143.268 408.281 143.6 403.876C143.64 403.382 143.714 402.831 143.848 402.26C139.979 397.935 137.504 392.318 137.19 386.557C137.168 386.172 137.464 385.844 137.847 385.823C138.232 385.829 138.559 386.098 138.58 386.48C138.863 391.669 141.003 396.737 144.368 400.74C144.714 399.999 145.202 399.297 145.894 398.726C146.82 397.966 147.958 397.586 148.85 397.341C154.524 395.768 161.925 397.114 165.081 402.73C166.153 404.641 166.496 407.394 164.712 408.919C163.957 409.563 163.009 409.803 162.262 409.941C158.148 410.696 154.252 409.408 151.697 408.193C149.235 407.024 146.989 405.422 145.036 403.506C145.015 403.667 144.999 403.826 144.989 403.979C144.693 407.898 146.493 412.121 149.692 415.003C152.626 417.645 156.704 419.268 161.172 419.577C161.558 419.603 161.845 419.935 161.819 420.318C161.798 420.688 161.492 420.97 161.127 420.97ZM145.403 401.896C147.385 403.979 149.718 405.71 152.299 406.937C154.664 408.059 158.269 409.257 162.014 408.571C162.587 408.465 163.308 408.288 163.812 407.861C164.944 406.892 164.698 404.889 163.867 403.414C161.093 398.473 154.255 397.288 149.222 398.682C148.464 398.893 147.504 399.209 146.778 399.801C146.105 400.363 145.675 401.118 145.403 401.896Z" fill="white"/>
<path d="M139.301 360.31C139.285 360.31 139.269 360.307 139.253 360.307C134.476 359.977 130.103 358.228 126.938 355.38C123.373 352.171 121.444 347.623 121.776 343.216C121.816 342.722 121.89 342.17 122.024 341.6C118.155 337.275 115.679 331.658 115.365 325.897C115.344 325.511 115.64 325.184 116.022 325.163C116.413 325.176 116.735 325.438 116.756 325.82C117.039 331.009 119.179 336.076 122.544 340.08C122.89 339.339 123.378 338.636 124.07 338.066C124.993 337.309 126.133 336.926 127.026 336.681C132.689 335.1 140.103 336.454 143.257 342.07C144.331 343.981 144.674 346.734 142.887 348.259C142.133 348.906 141.182 349.143 140.438 349.281C136.324 350.035 132.428 348.747 129.873 347.533C127.411 346.364 125.165 344.762 123.212 342.846C123.191 343.007 123.175 343.165 123.164 343.318C122.869 347.238 124.669 351.461 127.867 354.34C130.802 356.982 134.877 358.608 139.348 358.914C139.733 358.94 140.021 359.273 139.995 359.655C139.971 360.03 139.665 360.31 139.301 360.31ZM123.579 341.239C125.561 343.321 127.894 345.052 130.475 346.28C132.845 347.404 136.448 348.597 140.19 347.913C140.763 347.808 141.483 347.634 141.985 347.206C143.122 346.237 142.874 344.234 142.043 342.759C139.269 337.818 132.431 336.633 127.398 338.027C126.59 338.251 125.672 338.56 124.956 339.146C124.278 339.705 123.848 340.458 123.579 341.239Z" fill="white"/>
<path d="M266.925 334.955C265.837 334.955 264.792 334.609 264.032 333.751C263.375 333.012 263.116 332.068 262.966 331.326C262.134 327.233 263.348 323.305 264.515 320.729C265.637 318.249 267.199 315.971 269.078 313.981C268.914 313.962 268.759 313.952 268.606 313.941C264.684 313.722 260.493 315.599 257.671 318.85C255.085 321.835 253.538 325.939 253.317 330.413C253.298 330.795 253.013 331.086 252.588 331.075C252.203 331.057 251.907 330.73 251.926 330.344C252.163 325.562 253.831 321.16 256.621 317.94C259.767 314.313 264.33 312.31 268.685 312.55C269.181 312.579 269.735 312.643 270.303 312.767C274.555 308.816 280.126 306.235 285.88 305.815C286.307 305.775 286.595 306.076 286.626 306.459C286.655 306.842 286.365 307.174 285.982 307.203C280.796 307.583 275.771 309.816 271.831 313.258C272.578 313.59 273.293 314.068 273.871 314.746C274.65 315.654 275.048 316.786 275.312 317.673C276.993 323.324 275.787 330.745 270.226 334.005C269.258 334.575 268.067 334.955 266.925 334.955ZM270.696 314.313C268.651 316.335 266.961 318.7 265.784 321.305C264.705 323.691 263.575 327.32 264.333 331.046C264.449 331.616 264.639 332.334 265.074 332.825C266.067 333.939 268.062 333.656 269.522 332.804C274.409 329.94 275.465 323.076 273.977 318.074C273.752 317.32 273.417 316.364 272.815 315.654C272.243 314.989 271.48 314.569 270.696 314.313Z" fill="white"/>
<path d="M263.588 383.023C263.224 383.023 262.918 382.741 262.891 382.374C262.537 377.188 260.326 372.155 256.903 368.196C256.565 368.943 256.085 369.653 255.404 370.231C254.493 371.002 253.358 371.398 252.471 371.659C246.815 373.314 239.399 372.073 236.161 366.499C235.06 364.604 234.68 361.859 236.441 360.305C237.185 359.653 238.132 359.397 238.874 359.252C242.112 358.608 245.773 359.159 249.465 360.846C251.941 361.981 254.213 363.551 256.195 365.441C256.211 365.277 256.227 365.119 256.235 364.966C256.475 361.041 254.614 356.842 251.373 354.01C248.402 351.411 244.303 349.843 239.832 349.6C239.449 349.579 239.154 349.252 239.175 348.866C239.199 348.481 239.55 348.217 239.909 348.207C244.688 348.468 249.088 350.157 252.289 352.96C255.9 356.119 257.895 360.637 257.623 365.05C257.592 365.546 257.528 366.101 257.399 366.668C261.331 370.938 263.886 376.52 264.279 382.277C264.306 382.662 264.013 382.992 263.63 383.018C263.62 383.023 263.604 383.023 263.588 383.023ZM241.598 360.384C240.793 360.384 239.975 360.455 239.148 360.619C238.576 360.732 237.858 360.92 237.364 361.353C236.243 362.34 236.517 364.338 237.367 365.802C240.209 370.704 247.074 371.791 252.078 370.323C252.833 370.102 253.791 369.772 254.501 369.17C255.171 368.603 255.594 367.843 255.852 367.059C253.841 365.005 251.484 363.306 248.882 362.115C247.029 361.266 244.424 360.384 241.598 360.384Z" fill="white"/>
<path d="M243.143 421.06C242.177 421.06 241.246 420.767 240.515 420.046C239.807 419.355 239.485 418.428 239.282 417.697C238.176 413.667 239.118 409.666 240.108 407.022C241.056 404.469 242.46 402.089 244.199 399.977C244.033 399.972 243.872 399.967 243.721 399.972C239.789 400.02 235.74 402.181 233.151 405.618C230.776 408.771 229.509 412.973 229.591 417.449C229.599 417.835 229.293 418.151 228.907 418.159C228.601 418.212 228.203 417.861 228.197 417.476C228.11 412.688 229.472 408.178 232.035 404.778C234.919 400.949 239.282 398.631 243.703 398.579C244.199 398.587 244.759 398.597 245.334 398.684C249.306 394.451 254.685 391.498 260.399 390.685C260.797 390.627 261.132 390.896 261.188 391.276C261.241 391.656 260.977 392.01 260.594 392.062C255.448 392.796 250.586 395.367 246.891 399.07C247.662 399.352 248.403 399.777 249.031 400.416C249.863 401.268 250.343 402.374 250.668 403.24C252.729 408.761 252.032 416.251 246.709 419.88C245.693 420.571 244.389 421.06 243.143 421.06ZM245.835 400.196C243.932 402.35 242.41 404.828 241.412 407.507C240.496 409.962 239.62 413.657 240.628 417.328C240.784 417.887 241.021 418.592 241.489 419.051C242.55 420.094 244.524 419.679 245.928 418.724C250.607 415.536 251.19 408.613 249.367 403.723C249.074 402.939 248.686 402.047 248.039 401.387C247.422 400.761 246.635 400.4 245.835 400.196Z" fill="white"/>
<path d="M188.166 430.113C187.889 430.113 187.625 429.944 187.519 429.67C187.377 429.313 187.553 428.909 187.91 428.767C192.745 426.859 196.875 423.23 199.612 418.769C198.799 418.674 197.978 418.432 197.221 417.957C196.208 417.321 195.487 416.357 194.97 415.589C191.684 410.699 190.626 403.253 194.957 398.487C196.435 396.866 198.937 395.668 200.945 396.885C201.797 397.397 202.323 398.223 202.687 398.883C204.703 402.543 204.714 406.653 204.368 409.458C204.038 412.161 203.225 414.803 202.024 417.26C202.188 417.228 202.341 417.191 202.489 417.154C206.303 416.194 209.742 413.148 211.46 409.207C213.041 405.589 213.291 401.208 212.172 396.872C212.077 396.499 212.302 396.119 212.671 396.022C213.062 395.927 213.421 396.151 213.521 396.523C214.717 401.158 214.439 405.861 212.737 409.764C210.818 414.161 207.113 417.429 202.827 418.506C202.344 418.627 201.797 418.73 201.217 418.783C198.335 423.821 193.79 427.946 188.419 430.063C188.34 430.097 188.25 430.113 188.166 430.113ZM199.132 397.787C198.042 397.787 196.828 398.5 195.988 399.426C192.18 403.618 193.217 410.482 196.128 414.816C196.595 415.51 197.176 416.286 197.963 416.779C198.704 417.247 199.557 417.416 200.383 417.426C201.731 414.89 202.639 412.126 202.985 409.289C203.304 406.69 203.299 402.889 201.465 399.556C201.188 399.046 200.795 398.421 200.227 398.078C199.895 397.877 199.52 397.787 199.132 397.787Z" fill="white"/>
<path d="M239.811 321.072C239.763 321.072 239.716 321.067 239.666 321.056C239.288 320.977 239.048 320.605 239.13 320.23C240.212 315.147 239.47 309.697 237.267 304.952C236.739 305.577 236.082 306.129 235.263 306.496C234.176 306.989 232.975 307.055 232.049 307.06C232.017 307.06 231.985 307.06 231.951 307.06C226.081 307.06 219.359 303.83 217.789 297.617C217.253 295.493 217.639 292.748 219.763 291.739C220.653 291.315 221.634 291.333 222.389 291.394C226.551 291.739 229.988 294.001 232.133 295.838C234.202 297.609 235.952 299.744 237.34 302.104C237.401 301.951 237.457 301.803 237.509 301.66C238.819 297.952 238.182 293.405 235.847 289.789C233.701 286.472 230.191 283.84 225.963 282.378C225.599 282.254 225.406 281.856 225.53 281.491C225.657 281.13 226.05 280.934 226.417 281.061C230.94 282.624 234.707 285.453 237.019 289.032C239.621 293.059 240.296 297.952 238.824 302.122C238.658 302.589 238.441 303.104 238.164 303.616C240.772 308.802 241.695 314.872 240.492 320.515C240.421 320.848 240.133 321.072 239.811 321.072ZM221.669 292.758C221.231 292.758 220.761 292.814 220.362 293.001C219.011 293.642 218.726 295.638 219.14 297.279C220.523 302.743 226.757 305.669 231.959 305.669C231.988 305.669 232.015 305.667 232.044 305.667C232.833 305.664 233.844 305.609 234.693 305.226C235.493 304.864 236.105 304.25 236.573 303.566C235.2 301.04 233.403 298.757 231.231 296.899C229.241 295.194 226.071 293.099 222.278 292.785C222.088 292.771 221.882 292.758 221.669 292.758Z" fill="white"/>
<path d="M149.979 313.234C149.931 313.234 149.884 313.229 149.834 313.218C149.456 313.139 149.216 312.767 149.298 312.39C150.38 307.306 149.638 301.856 147.435 297.114C146.907 297.739 146.25 298.291 145.431 298.658C144.347 299.148 143.146 299.217 142.219 299.225C142.185 299.225 142.156 299.225 142.124 299.225C136.252 299.225 129.527 295.995 127.957 289.782C127.421 287.657 127.807 284.912 129.931 283.904C130.823 283.479 131.8 283.498 132.557 283.558C136.719 283.904 140.156 286.166 142.301 288.003C144.37 289.774 146.12 291.909 147.509 294.268C147.569 294.115 147.625 293.968 147.675 293.825C148.984 290.117 148.348 285.57 146.012 281.954C143.866 278.636 140.356 276.005 136.125 274.543C135.761 274.419 135.569 274.02 135.693 273.659C135.819 273.294 136.22 273.102 136.579 273.228C141.106 274.791 144.872 277.62 147.184 281.199C149.786 285.226 150.462 290.12 148.992 294.29C148.825 294.757 148.609 295.271 148.332 295.783C150.94 300.97 151.863 307.04 150.66 312.682C150.591 313.01 150.303 313.234 149.979 313.234ZM131.837 284.92C131.399 284.92 130.929 284.976 130.53 285.163C129.179 285.804 128.894 287.8 129.308 289.441C130.686 294.905 136.928 297.834 142.127 297.834C142.156 297.834 142.182 297.831 142.209 297.831C143.046 297.826 144.014 297.771 144.859 297.388C145.658 297.026 146.271 296.412 146.738 295.728C145.365 293.202 143.568 290.919 141.396 289.061C139.406 287.356 136.236 285.261 132.444 284.947C132.259 284.931 132.05 284.92 131.837 284.92Z" fill="white"/>
</g>
</g>
<path d="M171.338 166.655C172.014 189.749 167.778 202.647 162.882 215.223C171.422 223.162 185.265 233.011 203.711 232.745C222.157 232.475 219.114 223.04 214.165 216.614C200.948 209.944 200.103 200.16 203.336 194.235L171.338 166.655Z" fill="#CE7A63"/>
<path opacity="0.2" d="M203.35 194.238L188.731 185.122C181.998 186.185 178.76 194.744 187.108 201.205C192.824 205.626 201.819 207.36 203.025 206.183C201.03 201.799 201.587 197.439 203.35 194.238Z" fill="black"/>
<path d="M209.101 130.439C227.908 126.496 224.749 149.827 219.861 161.952C207.543 143.939 209.101 130.439 209.101 130.439Z" fill="#263238"/>
<path d="M160.976 155.254C164.608 175.945 165.751 186.661 179.055 193.694C212.23 211.23 219.739 199.147 222.368 177.732C224.733 158.455 218.398 127.856 197.052 122.047C176.02 116.325 157.345 134.562 160.976 155.254Z" fill="#CE7A63"/>
<path d="M167.17 172.287C185.191 175.985 165.893 157.003 170.073 149.291C174.254 141.582 196.901 147.317 190.414 134.731C208.01 139.201 224.339 140.798 227.91 128.924C233.096 111.664 216.337 108.375 206.424 113.363C198.11 117.546 198.179 118.937 185.753 114.757C173.328 110.576 142.435 113.015 150.332 127.182C136.281 127.763 136.281 145.763 147.893 150.756C159.506 155.749 153.583 169.5 167.17 172.287Z" fill="#263238"/>
<path d="M163.398 162.647C163.102 162.647 162.825 162.454 162.733 162.156C162.619 161.789 162.822 161.398 163.192 161.285L191.266 152.575C191.638 152.456 192.023 152.668 192.136 153.034C192.25 153.401 192.047 153.792 191.677 153.905L163.604 162.615C163.535 162.639 163.466 162.647 163.398 162.647Z" fill="white"/>
<path d="M153.531 128.157C146.738 122.699 137.738 121.358 137.796 124.583C137.854 127.809 150.454 127.112 151.673 129.376C152.893 131.641 153.531 128.157 153.531 128.157Z" fill="#263238"/>
<path d="M211.956 177.563C211.956 177.563 205.556 176.257 187.557 175.689C189.631 179.809 193.537 183.243 202.756 183.467C211.978 183.694 211.956 177.563 211.956 177.563Z" fill="white"/>
<path d="M154.725 171.235C157.108 176.125 161.194 179.448 165.018 180.823C170.772 182.889 173.516 177.212 171.806 171.021C170.267 165.447 165.422 157.656 159.703 158.284C154.065 158.901 152.001 165.642 154.725 171.235Z" fill="#CE7A63"/>
<path d="M196.095 155.578C196.361 157.349 197.517 158.632 198.673 158.447C199.829 158.262 200.55 156.676 200.283 154.905C200.014 153.134 198.86 151.852 197.702 152.036C196.548 152.221 195.828 153.807 196.095 155.578Z" fill="#263238"/>
<path d="M215.218 155.169C215.487 156.94 216.64 158.223 217.799 158.038C218.955 157.854 219.675 156.267 219.409 154.496C219.142 152.726 217.986 151.443 216.83 151.628C215.669 151.815 214.948 153.401 215.218 155.169Z" fill="#263238"/>
<path d="M188.913 151.089C188.738 151.076 188.564 151.018 188.411 150.912C187.931 150.588 187.809 149.936 188.137 149.453C191.428 144.623 196.287 144.636 196.49 144.641C197.073 144.649 197.53 145.127 197.517 145.708C197.503 146.286 197.023 146.75 196.445 146.745C196.284 146.745 192.497 146.774 189.871 150.627C189.649 150.952 189.277 151.118 188.913 151.089Z" fill="#263238"/>
<path d="M220.55 145.346C220.214 145.409 219.858 145.309 219.605 145.047C216.39 141.722 212.661 142.382 212.503 142.411C211.932 142.519 211.386 142.147 211.281 141.577C211.175 141.007 211.547 140.458 212.115 140.344C212.32 140.307 217.092 139.41 221.12 143.575C221.521 143.992 221.508 144.657 221.091 145.063C220.935 145.214 220.748 145.309 220.55 145.346Z" fill="#263238"/>
<path d="M217.374 167.719C216.105 167.719 214.904 167.143 213.901 166.053C211.684 163.644 210.576 158.935 211.008 153.765C211.655 146.006 215.419 139.925 219.575 139.925C220.845 139.925 222.048 140.5 223.049 141.59C225.266 144 226.377 148.708 225.944 153.879C225.297 161.641 221.534 167.719 217.374 167.719ZM219.575 141.318C216.25 141.318 212.964 147.069 212.394 153.879C212.003 158.6 212.993 163.008 214.925 165.108C215.667 165.916 216.493 166.325 217.374 166.325C220.7 166.325 223.988 160.574 224.558 153.765C224.949 149.043 223.957 144.636 222.025 142.535C221.28 141.727 220.457 141.318 219.575 141.318Z" fill="white"/>
<path d="M209.766 155.24C209.766 155.24 214.888 165.053 219.863 169.503C217.018 172.799 211.521 172.063 211.521 172.063L209.766 155.24Z" fill="#BA4D3C"/>
<path d="M147.025 263.32L140.105 270.536L133.082 277.965C128.418 282.919 123.892 287.963 119.516 292.961C117.331 295.469 115.22 297.994 113.211 300.52C111.158 303.019 109.199 305.527 107.426 308C105.634 310.46 104.037 312.94 102.657 315.181C101.311 317.393 100.295 319.536 99.8433 320.631L100.308 317.05C100.086 316.564 100.039 318.034 100.368 319.8C100.68 321.608 101.342 323.846 102.205 326.155C103.931 330.787 106.183 335.873 108.751 340.89C111.261 345.968 114.045 351.08 116.88 356.235L125.494 371.711L125.655 371.999C128.479 377.069 126.655 383.469 121.585 386.29C117.764 388.418 113.182 387.898 109.952 385.346C104.76 381.234 100.194 377.016 95.6047 372.506C91.0652 368 86.7262 363.258 82.5377 358.193C78.4311 353.06 74.364 347.728 70.7641 341.434C68.9562 338.29 67.2143 334.925 65.6729 330.945C64.1686 326.934 62.7513 322.397 62.6431 315.815C62.6299 315.01 62.7038 314.223 62.8542 313.463L63.1076 312.23C64.3111 306.348 66.1137 301.853 67.9638 297.664C69.8218 293.516 71.9227 289.852 74.0235 286.305C78.2331 279.229 82.7647 272.895 87.481 266.825C92.1525 260.72 97.0932 255.012 102.126 249.427C104.673 246.666 107.209 243.903 109.859 241.243C112.52 238.516 115.088 236.025 118.094 233.233C126.539 225.386 139.746 225.872 147.593 234.315C155.151 242.449 154.977 255.001 147.408 262.927L147.025 263.32Z" fill="#CF7A64"/>
<path d="M111.927 365.617L135.313 365.95L127.071 392.762C127.071 392.762 105.933 389.89 105.643 378.412L111.927 365.617Z" fill="#CE7A63"/>
<path d="M152.378 383.24L147.904 392.15C146.123 395.697 142.037 397.431 138.247 396.251L127.067 392.765L135.31 365.953L148.617 372.287C152.721 374.237 154.418 379.181 152.378 383.24Z" fill="#CE7A63"/>
<path d="M142.135 217.986C130.562 220.768 116.769 225.36 104.343 239.179C95.5521 248.955 80.5084 270.436 73.166 285.123C86.3042 307.971 107.674 310.602 113.404 309.116C133.502 295.588 145.69 288.704 151.34 270.808C156.991 252.911 150.807 231.826 142.135 217.986Z" fill="#757575"/>
<path d="M197.089 167.719C195.819 167.719 194.616 167.144 193.618 166.054C191.401 163.644 190.29 158.936 190.72 153.763C191.367 146.003 195.13 139.922 199.29 139.922C200.562 139.922 201.76 140.498 202.763 141.588C204.98 143.997 206.089 148.706 205.656 153.876C205.009 161.641 201.245 167.719 197.089 167.719ZM199.29 141.319C195.964 141.319 192.676 147.069 192.106 153.879C191.715 158.6 192.71 163.01 194.639 165.109C195.381 165.914 196.207 166.323 197.089 166.323C200.414 166.323 203.7 160.572 204.27 153.763C204.661 149.038 203.668 144.631 201.739 142.533C200.997 141.728 200.171 141.319 199.29 141.319Z" fill="white"/>
<path d="M211.7 154.517C211.428 154.517 211.172 154.359 211.059 154.092C210.94 153.81 210.737 153.622 210.425 153.501C209.029 152.96 206.221 154.002 205.258 154.448C204.907 154.615 204.498 154.459 204.331 154.11C204.168 153.762 204.321 153.345 204.669 153.184C205.076 152.994 208.72 151.35 210.921 152.197C211.584 152.45 212.075 152.915 212.341 153.54C212.492 153.894 212.326 154.303 211.972 154.454C211.885 154.498 211.79 154.517 211.7 154.517Z" fill="white"/>
<path d="M587.171 213.601C607.834 189.882 597.187 163.896 573.98 149.602C550.773 135.308 523.666 145.728 513.191 170.001C502.718 194.274 506.49 200.537 500.068 201.862C497.115 214.612 506.289 228.019 516.901 220.959C532.943 227.742 561.069 243.564 587.171 213.601Z" fill="#263238"/>
<path d="M558.807 232.825C547.445 232.825 537.439 227.898 530.087 224.277C528.938 223.712 527.843 223.171 526.809 222.68L527.864 220.444C528.909 220.941 530.018 221.484 531.179 222.054C545.157 228.938 566.279 239.341 588.823 215.9C597.126 207.267 600.99 197.56 599.998 187.834C598.95 177.536 592.354 167.514 581.9 160.338L583.302 158.301C594.355 165.889 601.336 176.562 602.46 187.583C603.526 198.056 599.43 208.441 590.607 217.615C579.551 229.114 568.667 232.825 558.807 232.825Z" fill="#263238"/>
<path d="M511.014 179.602C506.554 163.962 511.64 132.262 550.529 132.22C589.55 132.178 605.964 159.758 589.706 182.611C542.788 193.229 511.014 179.602 511.014 179.602Z" fill="#263238"/>
<path d="M494.91 210.98C470.663 217.367 491.669 257.8 515.491 239.352C510.352 238.996 498.599 227.317 507.502 219.769C498.05 211.476 494.91 210.98 494.91 210.98Z" fill="#263238"/>
<path d="M495.221 247.092C492.497 247.092 490.283 246.314 488.755 245.543C482.067 242.162 477.659 233.59 478.501 225.601C479.23 218.697 483.716 213.666 490.805 211.798L491.434 214.189C483.162 216.369 481.323 222.437 480.961 225.86C480.219 232.883 484.049 240.394 489.869 243.334C495.02 245.936 500.969 244.53 506.625 239.362L508.296 241.188C503.323 245.728 498.826 247.092 495.221 247.092Z" fill="#263238"/>
<path d="M513.781 222.476C507.552 221.191 498.038 205.034 501.899 201.196C496.871 201.027 492.696 204.976 491.244 209.446C489.626 214.429 492.812 223.788 503.96 226.575C509.616 227.992 513.781 222.476 513.781 222.476Z" fill="#E19379"/>
<path d="M515.099 289.104C514.911 295.138 514.457 301.097 514.111 307.096L512.575 325.059C512.048 331.06 511.311 337.049 510.564 343.114C510.155 346.144 509.709 349.184 509.173 352.357C508.624 355.716 507.785 359.271 506.817 362.417C502.749 375.083 496.996 385.994 490.796 396.625C484.554 407.224 477.743 417.2 470.192 426.91C468.252 429.404 464.657 429.855 462.16 427.913C459.957 426.2 459.35 423.197 460.574 420.8L460.638 420.676C465.945 410.259 471.1 399.536 475.824 388.915C478.141 383.571 480.416 378.25 482.367 372.898C484.346 367.569 486.109 362.233 487.278 357.076C487.864 354.455 488.273 352.161 488.5 349.599C488.735 346.848 488.922 343.953 489.075 341.037L490.039 323.391L490.949 305.613C491.364 299.693 491.63 293.734 492.111 287.843L492.113 287.814C492.631 281.474 498.189 276.753 504.528 277.267C510.657 277.769 515.275 283.024 515.099 289.104Z" fill="#FFB573"/>
<path d="M513.33 396.577C513.33 396.577 513.362 534.773 521.726 609.617C522.589 679.882 538.633 838.638 538.633 838.638H556.366C559.351 759.875 581.285 686.324 566.712 616.849C600.813 480.429 584.988 396.656 584.988 396.656L513.33 396.577Z" fill="#FFB573"/>
<path d="M532.643 396.656C532.643 396.656 545.965 565.782 572.448 626.331C600.26 689.919 649.656 814.528 654.52 835.637L669.337 831.691C669.337 831.691 659.556 694.941 614.335 617.646C628.331 427.034 593.079 396.656 593.079 396.656H532.643Z" fill="#FFB573"/>
<path d="M507.693 254.702C492.818 267.27 488.046 287.721 488.234 301.578C497.125 316.173 524.925 320.699 524.925 320.699C524.925 320.699 529.327 292.182 527.21 278.743C525.091 265.304 516.257 247.465 507.693 254.702Z" fill="#74A475"/>
<path d="M497.032 280.957C495.277 265.19 506.138 250.991 521.741 248.241C526.064 247.478 530.596 246.76 534.99 246.206C548.244 244.527 560.688 244.575 575.888 244.768C579.797 244.818 583.621 244.984 587.237 245.219C600.768 246.095 610.81 258.428 608.81 271.704C600.185 328.967 595.067 370.377 600.713 395.484C600.713 395.484 618.572 419.301 626.662 473.915C633.727 521.611 631.99 602.04 639.718 645.25C611.921 665.11 523.61 663.898 510.574 652.275C514.251 564.916 496.391 450.449 509.973 397.609C504.533 368.311 507.492 345.911 504.43 328.168C484.016 314.312 499.331 301.622 497.032 280.957Z" fill="#74A475"/>
<path d="M548.449 405.833C532.8 405.833 518.29 404.329 511.895 401.515C509.266 400.357 508.013 398.968 508.176 397.382C508.219 396.968 508.588 396.659 509.005 396.709C509.417 396.751 509.72 397.121 509.678 397.535C509.562 398.665 511.399 399.649 512.505 400.135C527.902 406.91 591.03 406.155 601.178 394.756C601.453 394.445 601.933 394.418 602.239 394.695C602.55 394.973 602.579 395.45 602.3 395.759C596.148 402.674 571.112 405.833 548.449 405.833Z" fill="white"/>
<path d="M547.697 400.454C532.049 400.454 517.538 398.95 511.143 396.136C508.514 394.978 507.261 393.59 507.424 392.003C507.467 391.589 507.852 391.288 508.253 391.33C508.665 391.373 508.968 391.742 508.926 392.156C508.81 393.286 510.647 394.27 511.753 394.756C527.15 401.528 590.278 400.776 600.426 389.377C600.701 389.066 601.184 389.039 601.487 389.317C601.799 389.594 601.828 390.071 601.548 390.38C595.396 397.298 570.36 400.454 547.697 400.454Z" fill="white"/>
<path d="M569.174 199.056C567.353 212.25 566.17 236.349 575.883 244.768C575.883 244.768 544.523 257.164 526.616 288.434C513.721 259.059 534.988 246.204 534.988 246.204C549.459 242.2 548.453 231.371 545.307 221.281L569.174 199.056Z" fill="#FFB573"/>
<path opacity="0.2" d="M559.444 208.124L545.316 221.27C546.069 223.659 546.689 226.084 546.998 228.454C552.556 227.451 559.901 221.054 560.16 215.187C560.286 212.262 560.001 209.465 559.444 208.124Z" fill="black"/>
<path d="M574.59 169.881C575.694 191.695 576.625 200.914 566.989 213.041C552.495 231.284 525.601 227.296 518.037 206.113C511.227 187.047 510.565 154.579 530.692 144.02C550.52 133.616 573.487 148.068 574.59 169.881Z" fill="#FFB573"/>
<path d="M554.129 152.658C552.503 175.651 577.357 195.395 585.137 186.686C592.918 177.976 573.757 136.981 554.129 152.658Z" fill="#263238"/>
<path d="M519.533 150.8C547.612 172.167 580.376 172.054 578.285 156.49C576.195 140.929 536.176 127.11 519.533 150.8Z" fill="#263238"/>
<path d="M540.977 178.634C541.175 180.399 540.386 181.919 539.217 182.025C538.048 182.131 536.939 180.787 536.741 179.022C536.543 177.256 537.333 175.736 538.502 175.63C539.671 175.522 540.779 176.868 540.977 178.634Z" fill="#263238"/>
<path d="M519.007 180.956C519.205 182.722 518.415 184.242 517.246 184.348C516.077 184.453 514.969 183.11 514.771 181.344C514.573 179.579 515.362 178.058 516.531 177.953C517.7 177.845 518.809 179.191 519.007 180.956Z" fill="#263238"/>
<path d="M517.061 178.003L512.627 177.174C512.627 177.174 515.203 180.285 517.061 178.003Z" fill="#263238"/>
<path d="M525.942 181.795C525.942 181.795 523.756 189.676 520.824 193.65C523.429 195.611 527.335 194.25 527.335 194.25L525.942 181.795Z" fill="#ED893E"/>
<path d="M581.697 189.645C579.99 193.899 576.704 196.668 573.502 197.707C568.688 199.272 565.917 194.068 566.949 188.618C567.878 183.714 571.502 176.989 576.482 177.831C581.388 178.66 583.65 184.78 581.697 189.645Z" fill="#FFB573"/>
<path d="M546.638 169.795C546.361 169.763 546.091 169.623 545.907 169.386C543.009 165.672 539.129 165.883 539.084 165.886C538.509 165.918 537.992 165.49 537.941 164.915C537.891 164.342 538.324 163.846 538.907 163.806C539.111 163.793 543.977 163.524 547.575 168.135C547.934 168.594 547.849 169.248 547.39 169.594C547.168 169.76 546.899 169.826 546.638 169.795Z" fill="#263238"/>
<path d="M512.461 173.363C512.216 173.455 511.936 173.455 511.674 173.347C511.133 173.12 510.872 172.508 511.091 171.98C513.29 166.68 518.069 165.791 518.273 165.756C518.845 165.656 519.402 166.034 519.513 166.601C519.624 167.166 519.252 167.704 518.682 167.807C518.494 167.839 514.799 168.583 513.052 172.798C512.939 173.07 512.72 173.268 512.461 173.363Z" fill="#263238"/>
<path d="M539.03 175.679L534.596 174.848C534.596 174.848 537.169 177.962 539.03 175.679Z" fill="#263238"/>
<path d="M572.023 362.199L554.578 353.31L550.553 375.358C550.553 375.358 564.638 378.726 574.565 374.585L576.116 371.982C576.457 367.131 575.895 365.139 572.023 362.199Z" fill="#FFB573"/>
<path d="M540.64 359.245L540.228 368.939C540.104 371.837 542.228 374.342 545.108 374.695L550.553 375.36L554.577 353.312L545.802 353.938C542.981 354.135 540.761 356.421 540.64 359.245Z" fill="#FFB573"/>
<path d="M608.956 265.311C613.239 277.391 617.082 289.408 620.552 301.704C624.044 314.019 627.317 326.273 629.455 339.606C629.943 343.008 630.399 346.386 630.468 350.49C630.584 354.827 629.726 360.073 627.048 364.737C624.387 369.474 620.022 372.948 615.91 374.885C611.748 376.896 607.715 377.685 603.93 378.121C596.348 378.955 589.475 378.015 582.846 376.841C579.531 376.247 576.295 375.434 573.117 374.494C569.905 373.555 566.87 372.578 563.621 371.269C560.684 370.087 559.261 366.745 560.444 363.808C561.433 361.354 563.93 359.955 566.437 360.256L566.725 360.293C569.538 360.63 572.647 360.992 575.606 361.222C578.602 361.435 581.581 361.575 584.511 361.668C590.349 361.818 596.155 361.359 601.003 360.213C603.405 359.625 605.519 358.757 606.929 357.83C608.362 356.864 608.94 356.014 609.204 355.154C609.518 354.262 609.681 353.085 609.512 351.166C609.346 348.989 608.845 346.141 608.259 343.359C607.098 337.711 605.519 331.802 603.854 325.943C602.189 320.057 600.455 314.14 598.61 308.236C594.888 296.457 591.046 284.544 587.195 272.849L587.166 272.759C585.179 266.718 588.464 260.21 594.506 258.222C600.455 256.261 606.868 259.436 608.956 265.311Z" fill="#FFB573"/>
<path d="M462.371 416.805L442.854 415.248L447.549 437.164C447.549 437.164 460.32 435.145 468.132 428.497C469.014 427.747 469.539 426.66 469.708 425.514C469.827 424.709 469.761 423.873 469.476 423.11C468.093 419.383 466.646 417.934 462.371 416.805Z" fill="#FFB573"/>
<path d="M432.236 426.05L435.554 435.166C436.546 437.892 439.465 439.396 442.26 438.623L447.547 437.161L442.851 415.245L434.978 419.172C432.45 420.433 431.27 423.392 432.236 426.05Z" fill="#FFB573"/>
<path d="M595.729 247.433C608.772 252.912 614.982 261.78 625.737 286.444C623.021 303.317 594.557 317.693 594.557 317.693C594.557 317.693 585.145 296.309 582.026 283.068C578.906 269.827 582.482 241.872 595.729 247.433Z" fill="#74A475"/>
<path d="M534.32 277.014C540.375 274.739 557.453 273.385 565.173 280.572C577.781 274.082 584.68 255.541 583.115 244.187C577.517 240.344 572.785 241.004 572.785 241.004C572.785 241.004 544.69 258.645 534.32 277.014Z" fill="#FAFAFA"/>
<path d="M523.104 277.286C523.104 277.286 519.605 262.458 536.177 245.85C534.189 244.546 527.193 247.043 527.193 247.043C527.193 247.043 506.928 258.526 510.169 282.121C516.248 276.639 523.104 277.286 523.104 277.286Z" fill="#FAFAFA"/>
<path d="M546.518 195.308C547.312 194.567 548.085 193.714 548.819 192.735C549.017 192.471 548.946 192.107 548.661 191.922C548.376 191.74 547.99 191.798 547.784 192.067C542.437 199.225 534.533 199.088 534.454 199.085C534.105 199.074 533.815 199.328 533.807 199.65C533.796 199.972 534.071 200.244 534.417 200.252C534.72 200.262 541.086 200.378 546.518 195.308Z" fill="#263238"/>
<path d="M313.936 858.488H309.296L289.228 472.3C288.631 460.616 278.982 451.461 267.298 451.461H197.29C185.579 451.461 175.93 460.616 175.334 472.3L155.265 858.488H150.625L170.72 472.052C171.464 457.911 183.125 446.847 197.29 446.847H267.298C281.439 446.847 293.123 457.911 293.844 472.052L313.936 858.488Z" fill="#688281"/>
<path opacity="0.7" d="M313.936 858.488H309.296L289.228 472.3C288.631 460.616 278.982 451.461 267.298 451.461H197.29C185.579 451.461 175.93 460.616 175.334 472.3L155.265 858.488H150.625L170.72 472.052C171.464 457.911 183.125 446.847 197.29 446.847H267.298C281.439 446.847 293.123 457.911 293.844 472.052L313.936 858.488Z" fill="white"/>
<path d="M575.089 858.488H570.449L550.38 472.3C549.784 460.616 540.134 451.461 528.451 451.461H458.442C446.732 451.461 437.082 460.616 436.486 472.3L416.417 858.488H411.777L431.873 472.052C432.617 457.911 444.277 446.847 458.442 446.847H528.451C542.592 446.847 554.276 457.911 554.996 472.052L575.089 858.488Z" fill="#688281"/>
<path opacity="0.7" d="M575.089 858.488H570.449L550.38 472.3C549.784 460.616 540.134 451.461 528.451 451.461H458.442C446.732 451.461 437.082 460.616 436.486 472.3L416.417 858.488H411.777L431.873 472.052C432.617 457.911 444.277 446.847 458.442 446.847H528.451C542.592 446.847 554.276 457.911 554.996 472.052L575.089 858.488Z" fill="white"/>
<path d="M566.113 432.154H158.112V454.591H566.113V432.154Z" fill="#688281"/>
<path opacity="0.3" d="M566.115 432.154H424.971V454.591H566.115V432.154Z" fill="black"/>
<path d="M457.646 426.736H265.638C264.147 426.736 262.928 427.956 262.928 429.447C262.928 430.938 264.147 432.157 265.638 432.157H457.646C459.137 432.157 460.357 430.938 460.357 429.447C460.354 427.956 459.135 426.736 457.646 426.736Z" fill="#688281"/>
<path opacity="0.1" d="M457.646 426.736H265.638C264.147 426.736 262.928 427.956 262.928 429.447C262.928 430.938 264.147 432.157 265.638 432.157H457.646C459.137 432.157 460.357 430.938 460.357 429.447C460.354 427.956 459.135 426.736 457.646 426.736Z" fill="white"/>
<path d="M409.361 432.154H253.741C250.93 432.154 248.066 429.856 247.375 427.045L225.466 337.854C224.775 335.043 226.511 332.745 229.322 332.745H384.943C387.754 332.745 390.617 335.043 391.309 337.854L413.217 427.045C413.906 429.856 412.172 432.154 409.361 432.154Z" fill="#688281"/>
<path opacity="0.3" d="M409.361 432.154H253.741C250.93 432.154 248.066 429.856 247.375 427.045L225.466 337.854C224.775 335.043 226.511 332.745 229.322 332.745H384.943C387.754 332.745 390.617 335.043 391.309 337.854L413.217 427.045C413.906 429.856 412.172 432.154 409.361 432.154Z" fill="white"/>
<path d="M363.476 405.028C363.394 405.028 363.307 405.015 363.225 404.986C362.835 404.848 362.626 404.418 362.763 404.025C365.474 396.308 365.326 388.068 362.383 381.211C362.177 381.581 361.95 381.927 361.705 382.254C360.008 384.51 357.173 386.054 353.724 386.603C350.916 387.049 348.221 386.785 345.938 385.838C343.309 384.751 341.246 382.742 340.277 380.33C339.213 377.667 339.591 374.579 341.248 372.465C345.033 367.627 352.75 368.746 356.862 371.414C359.274 372.98 360.969 375.305 362.162 377.395C362.241 376.986 362.304 376.561 362.344 376.126C362.668 372.673 361.621 369.662 359.219 367.173C355.806 363.637 349.857 361.567 344.157 361.897C342.175 362.011 340.266 362.383 338.485 363.003C338.092 363.146 337.664 362.932 337.527 362.539C337.39 362.145 337.595 361.715 337.991 361.581C339.905 360.916 341.95 360.514 344.072 360.393C350.269 360.052 356.603 362.288 360.306 366.128C362.988 368.907 364.21 372.415 363.845 376.271C363.74 377.374 363.521 378.416 363.199 379.372C363.212 379.398 363.223 379.425 363.236 379.448C366.83 386.872 367.179 396.012 364.186 404.526C364.08 404.835 363.787 405.028 363.476 405.028ZM348.899 370.649C346.413 370.649 343.988 371.414 342.436 373.396C341.106 375.096 340.81 377.598 341.681 379.773C342.497 381.81 344.26 383.515 346.516 384.447C348.546 385.289 350.953 385.519 353.489 385.115C356.553 384.629 359.042 383.291 360.502 381.349C360.919 380.792 361.275 380.156 361.56 379.456C360.438 377.245 358.707 374.41 356.044 372.681C354.228 371.502 351.531 370.649 348.899 370.649Z" fill="white"/>
<path d="M378.881 394.82H344.402L348 432.155H375.282L378.881 394.82Z" fill="#688281"/>
<path d="M361.103 366.126C359.316 366.126 358.073 365.732 357.965 365.698C357.696 365.611 357.5 365.379 357.456 365.102C357.416 364.859 356.558 359.118 361.412 354.972C366.123 350.947 374.384 350.074 374.735 350.039C374.993 350.013 375.22 350.111 375.381 350.301C375.545 350.488 375.6 350.744 375.54 350.982C375.45 351.319 373.302 359.345 368.588 363.37C365.978 365.595 363.175 366.126 361.103 366.126ZM358.894 364.384C360.227 364.679 364.12 365.202 367.606 362.22C370.976 359.34 372.995 353.993 373.745 351.692C371.356 352.074 365.759 353.236 362.388 356.115C358.899 359.097 358.807 363.027 358.894 364.384Z" fill="white"/>
<path d="M334.487 384.999C330.887 384.999 327.115 383.218 326.936 383.131C326.791 383.062 326.69 382.925 326.667 382.769C326.64 382.611 326.696 382.45 326.809 382.339C326.975 382.18 330.866 378.464 334.83 377.82C338.886 377.153 341.386 379.987 341.489 380.106C341.607 380.246 341.639 380.439 341.568 380.61C341.51 380.758 340.053 384.223 335.97 384.886C335.484 384.962 334.986 384.999 334.487 384.999ZM328.039 382.545C329.491 383.139 332.974 384.376 335.812 383.92C338.747 383.442 340.119 381.299 340.528 380.52C339.895 379.911 337.902 378.311 334.978 378.784C332.148 379.243 329.227 381.523 328.039 382.545Z" fill="white"/>
</g>
</svg>
