<?xml version="1.0" encoding="utf-8"?>
<!-- Generator: Adobe Illustrator 25.4.1, SVG Export Plug-In . SVG Version: 6.00 Build 0)  -->
<svg version="1.1" id="Слой_1" xmlns="http://www.w3.org/2000/svg" xmlns:xlink="http://www.w3.org/1999/xlink" x="0px" y="0px"
	 viewBox="0 0 335 804" style="enable-background:new 0 0 335 804;" xml:space="preserve">
<style type="text/css">
	.st0{fill:#D9D9D9;filter:url(#Adobe_OpacityMaskFilter);}
	.st1{mask:url(#mask0_150_4344_00000081639227263451671370000005866650866692389771_);}
	.st2{fill:#FFFFFF;}
	.st3{fill:url(#SVGID_1_);}
	.st4{fill:#FFFFFF;stroke:#263238;stroke-width:0.7548;stroke-linecap:round;stroke-miterlimit:10;}
	.st5{fill:none;stroke:#263238;stroke-width:0.7548;stroke-linecap:round;stroke-miterlimit:10;}
	.st6{fill:#263238;}
	.st7{fill:none;stroke:#263238;stroke-width:0.938;stroke-linecap:round;stroke-miterlimit:10;}
	.st8{fill:#F4E3FF;}
	.st9{fill:none;stroke:#263238;stroke-width:1.2086;stroke-linecap:round;stroke-miterlimit:10;}
	.st10{fill:#E3EDE3;}
	.st11{fill:none;stroke:#FFFFFF;stroke-width:2.4171;stroke-miterlimit:10;}
	.st12{fill:none;stroke:#263238;stroke-width:1.2819;stroke-linecap:round;stroke-miterlimit:10;}
	.st13{fill:none;stroke:#FFFFFF;stroke-width:2.5638;stroke-miterlimit:10;}
	.st14{fill:#FFFFFF;filter:url(#Adobe_OpacityMaskFilter_00000178204656547960932750000004351663148695199419_);}
	.st15{mask:url(#mask1_150_4344_00000136391159758804286760000006539856203745911451_);}
	.st16{fill:#FFFFFF;stroke:#263238;stroke-width:0.938;stroke-linecap:round;stroke-miterlimit:10;}
	.st17{fill:#74A475;}
	.st18{fill:none;stroke:#FFFFFF;stroke-width:0.938;stroke-linecap:round;stroke-miterlimit:10;}
	.st19{fill:#FFBC9E;}
	.st20{fill:none;stroke:#FFFFFF;stroke-width:1.8761;stroke-miterlimit:10;}
	.st21{fill:#91CD92;}
	.st22{fill:#FFBC9E;stroke:#263238;stroke-width:0.938;stroke-linecap:round;stroke-miterlimit:10;}
	.st23{fill:#0D1012;}
	.st24{fill:#263238;stroke:#FFFFFF;stroke-width:1.8761;stroke-miterlimit:10;}
	.st25{fill:none;stroke:#9E9E9E;}
</style>
<defs>
	<filter id="Adobe_OpacityMaskFilter" filterUnits="userSpaceOnUse" x="-560.1" y="-25.4" width="1259.7" height="999.5">
		<feColorMatrix  type="matrix" values="1 0 0 0 0  0 1 0 0 0  0 0 1 0 0  0 0 0 1 0"/>
	</filter>
</defs>
<mask maskUnits="userSpaceOnUse" x="-560.1" y="-25.4" width="1259.7" height="999.5" id="mask0_150_4344_00000081639227263451671370000005866650866692389771_">
	<path class="st0" d="M16,0h303c8.8,0,16,7.2,16,16v772c0,8.8-7.2,16-16,16H16c-8.8,0-16-7.2-16-16V16C0,7.2,7.2,0,16,0z"/>
</mask>
<g class="st1">
	<path class="st2" d="M16,0h303c8.8,0,16,7.2,16,16v772c0,8.8-7.2,16-16,16H16c-8.8,0-16-7.2-16-16V16C0,7.2,7.2,0,16,0z"/>
	
		<linearGradient id="SVGID_1_" gradientUnits="userSpaceOnUse" x1="123.4493" y1="688.0793" x2="70.154" y2="-171.1046" gradientTransform="matrix(1 0 0 -1 0 803.0394)">
		<stop  offset="0" style="stop-color:#F3F3F3"/>
		<stop  offset="1" style="stop-color:#FFFFFF"/>
	</linearGradient>
	<path class="st3" d="M291.6,107h-247L-456,974.1H596.3L291.6,107z"/>
	<path class="st4" d="M157.2,108.4c0,6.6,5.1,11.9,11.4,11.9c6.3,0,11.4-5.3,11.4-11.9c0-6.6-5.1-11.9-11.4-11.9
		C162.3,96.5,157.2,101.8,157.2,108.4z"/>
	<path class="st5" d="M168.4,96.3V-25"/>
	<path class="st4" d="M174.2,27.1h-10.6c-2.9,0-5.3,2.4-5.3,5.5v50.3c0,3,2.4,5.5,5.3,5.5h10.6c2.9,0,5.3-2.4,5.3-5.5V32.6
		C179.4,29.6,177.1,27.1,174.2,27.1z"/>
	<path class="st6" d="M293.8,108.4H43c8.2-12.1,61.2-28,125.4-28C232.5,80.5,285.5,96.4,293.8,108.4z"/>
	<path class="st2" d="M-101.7,355.6c0,0,34.5-3.6,56.1,17.3c21.6,20.9,24.8,142.8,38.3,154.4c13.5,11.6,30.5,8.9,22.6,11.6
		c-1.6,0.6-213-1.1-213-1.1s38.6-65.8,28.6-104.7c-11.7-45.5,3-56.7,44.2-71.7"/>
	<path class="st7" d="M-101.7,355.6c0,0,34.5-3.6,56.1,17.3c21.6,20.9,24.8,142.8,38.3,154.4c13.5,11.6,30.5,8.9,22.6,11.6
		c-1.6,0.6-213-1.1-213-1.1s38.6-65.8,28.6-104.7c-11.7-45.5,3-56.7,44.2-71.7"/>
	<path class="st6" d="M7.5,747.6c0,0,5.9,12,18.1,17.8c12.2,5.8,14.6,14.5,15.4,15.8c0,0-26.8,4.6-66.6,0.7
		c-24.4-2.4-34.5-2.2-34.5-2.2l-10.1-31.3C-70.1,748.4-20.2,753.1,7.5,747.6z"/>
	<path class="st8" d="M-47.8,479.5c0,0-2.9,52.9,15.3,113.6c18.2,60.7,40.3,154.7,40.3,154.7s-52.6,26.9-100.5-38.7
		c-3.4-4.7,9.8,44,3,47.7c-22.9,12.6-82.6,5.5-82.6,5.5s-3.1-248.7,13.4-293.6L-47.8,479.5z"/>
	<path class="st9" d="M74.9,578.5c0,0,12.5,22.3,11.4,60.1"/>
	<path class="st9" d="M105,581.7c0,0,6.5,22.8-0.5,48.4"/>
	<path class="st10" d="M117,508.8C63.5,511.3-16.1,292.6,54,323c20.1,8.7,33.9,27.7,43.3,50.4c-4.8,16.7-8.8,36-3.8,40.7
		c3.1,2.9,11.1-0.5,18.6-11.7C123.2,451.7,117,508.8,117,508.8z"/>
	<path class="st11" d="M59.6,362c0,0,34.1,69.6,44.5,134.8"/>
	<path class="st10" d="M83.3,513.9c-1.3-5.9-50.7-104-109.1-87.1C-84.2,443.8,92.4,555.2,83.3,513.9z"/>
	<path class="st11" d="M2.7,448.7c0,0,46.3,32.5,67.8,75.2"/>
	<path class="st9" d="M89.9,357.3c0,0,12.6-39.5,37.2-18.2c31.4,27.3,5.9,136.8,5.9,136.8"/>
	<path class="st12" d="M312,563.3c0,0-13.3,23.6-12.1,63.8"/>
	<path class="st12" d="M280,566.7c0,0-6.9,24.2,0.6,51.4"/>
	<path class="st10" d="M267.3,489.4c56.7,2.6,141.2-229.3,66.8-197.1c-21.4,9.2-35.9,29.4-45.9,53.5c5.1,17.7,9.4,38.2,4.1,43.2
		c-3.2,3.1-11.8-0.5-19.7-12.4C260.8,428.8,267.3,489.4,267.3,489.4z"/>
	<path class="st13" d="M328.2,333.7c0,0-36.1,73.8-47.2,142.9"/>
	<path class="st10" d="M303,494.7c1.4-6.3,53.8-110.3,115.7-92.3C480.8,420.4,293.5,538.6,303,494.7z"/>
	<path class="st13" d="M388.5,425.6c0,0-49.1,34.5-71.9,79.8"/>
	<path class="st12" d="M296.1,328.7c0,0-13.4-41.9-39.4-19.3c-33.3,28.9-6.3,145.1-6.3,145.1"/>
	<defs>
		
			<filter id="Adobe_OpacityMaskFilter_00000083051333815217478000000002647938503715506607_" filterUnits="userSpaceOnUse" x="-560.1" y="735.5" width="1259.7" height="0.9">
			<feColorMatrix  type="matrix" values="1 0 0 0 0  0 1 0 0 0  0 0 1 0 0  0 0 0 1 0"/>
		</filter>
	</defs>
	
		<mask maskUnits="userSpaceOnUse" x="-560.1" y="735.5" width="1259.7" height="0.9" id="mask1_150_4344_00000136391159758804286760000006539856203745911451_">
		<path style="fill:#FFFFFF;filter:url(#Adobe_OpacityMaskFilter_00000083051333815217478000000002647938503715506607_);" d="
			M522.1,98.2H-528v801.1H522.1V98.2z"/>
	</mask>
	<g class="st15">
		<path class="st7" d="M-559.6,736H699.1"/>
	</g>
	<path class="st16" d="M32.7,517.8c0,4.3-3.4,7.8-7.7,7.8c-4.2,0-7.7-3.5-7.7-7.8c0-4.3,3.4-7.8,7.7-7.8
		C29.3,510,32.7,513.5,32.7,517.8z"/>
	<path class="st16" d="M25.1,522.1c-2.4,0-4.3-2-4.3-4.4c0-2.4,1.9-4.4,4.3-4.4c2.4,0,4.3,2,4.3,4.4
		C29.3,520.2,27.4,522.1,25.1,522.1z"/>
	<path class="st16" d="M51.2,501H28.6c-1.6,0-2.9,1.5-2.6,3.1l3.1,20.8c1,7,7,12.2,13.9,12.2h22.1L51.2,501z"/>
	<path class="st6" d="M204.1,440.2H320c19.6,0,35.4,16.2,35.4,36.2v185.9c0,24.6-19.5,44.6-43.6,44.6H167.7c0,0,1.9-156.9,1-230
		C168.5,456.7,184.4,440.2,204.1,440.2z"/>
	<path class="st2" d="M324.4,456.6c4.2,7.2,8.1,16.2,11.5,27.2c3,9.4,9.3,31.8,7.9,40c-7.2,45.2-60.4,21.2-60.4,21.2
		s28.7,79.6-126.8,22.3c0,0,16.5-9.1,24.1-28.2l-68.8-3c0,0-1.4-11.7,33.6-21.9c19.2-5.6,25.1-11.5,31.1-26.3c2.5-6.1,4-12.5,5-19
		c1.1-7.5,2.8-13.3,5-18.1"/>
	<path class="st7" d="M324.4,456.6c4.2,7.2,8.1,16.2,11.5,27.2c3,9.4,9.3,31.8,7.9,40c-7.2,45.2-60.4,21.2-60.4,21.2
		s28.7,79.6-126.8,22.3c0,0,16.5-9.1,24.1-28.2l-68.8-3c0,0-1.4-11.7,33.6-21.9c19.2-5.6,25.1-11.5,31.1-26.3c2.5-6.1,4-12.5,5-19
		c1.1-7.5,2.8-13.3,5-18.1"/>
	<path class="st17" d="M215.8,578.1c0,0-23.7-11.6-66.1-10.9c-26.5,0.4-66.4,11-87.4,27.6c-17,13.5-32.8,33.5-34,62
		c-1.6,37.5,25.9,110.8,25.9,110.8s35.2,8.3,74.4-6.6c0,0-2.1-63.9-17.9-96.3c-1.4-2.8,0.6-6.1,3.7-6.1
		c24.5-0.3,103.7-3.3,101.5-31.1C213.2,594.6,215.8,578.1,215.8,578.1z"/>
	<path class="st7" d="M128.8,760.8c0,0,1,7.9,3.2,18.3c3,14.3,3.2,21.7,3.2,21.7S66.4,813.1,22,803.7c0,0,2.1-10.4,24.5-18.3
		c9.1-3.2,7.8-17.1,7.8-17.1"/>
	<path class="st7" d="M134.7,795.9c0,0-61.2,11.9-110.3,3.8"/>
	<path class="st18" d="M215.8,474.1c0,0-6.1,10.5-3.3,21.9c2.8,11.4,9.5,31.8,7.4,43.7"/>
	<path class="st2" d="M238.3,519.1c0,0,45.2-22.2,68-11L238.3,519.1z"/>
	<path class="st7" d="M238.3,519.1c0,0,45.2-22.2,68-11"/>
	<path class="st2" d="M282.2,479.6c0,0,7.9,8.6,12,25.1L282.2,479.6z"/>
	<path class="st7" d="M282.2,479.6c0,0,7.9,8.6,12,25.1"/>
	<path class="st6" d="M310.3,800.3h8.8V693.6h-22L310.3,800.3z"/>
	<path class="st19" d="M249.3,538.5c0,0-0.9-15.6-11.5-19.6c0,0-16.9,0.2-30.1-4.5c-13.2-4.6-20.3,21.7-20.3,21.7s3.3,3.7,11.5-7.1
		c0.2-0.2,0.6-0.1,0.5,0.2l-1.9,8.2"/>
	<path class="st7" d="M215.3,526.4c0,0-5-4.8-8.3-5.4c-3.3-0.6-11.5,12.1-11.5,12.1"/>
	<path class="st7" d="M215.9,530.5c0,0-10.7-4.4-10.1,3.7"/>
	<path class="st2" d="M198.2,763.5c0,0,1,7.9,3.2,18.3c3,14.3,3.2,21.7,3.2,21.7s-68.7,12.4-113.2,2.9c0,0,2.1-10.4,24.5-18.3
		c9.1-3.2,7.8-17.1,7.8-17.1"/>
	<path class="st7" d="M198.2,763.5c0,0,1,7.9,3.2,18.3c3,14.3,3.2,21.7,3.2,21.7s-68.7,12.4-113.2,2.9c0,0,2.1-10.4,24.5-18.3
		c9.1-3.2,7.8-17.1,7.8-17.1"/>
	<path class="st17" d="M285.2,580.9c0,0-23.7-11.6-66.1-10.9c-26.5,0.4-66.4,11-87.4,27.6c-17,13.5-32.8,33.5-34,62
		c-1.6,37.5,25.9,110.8,25.9,110.8s35.2,8.3,74.4-6.6c0,0-2.1-63.9-17.9-96.3c-1.4-2.8,0.6-6.1,3.7-6.1
		c24.5-0.3,103.7-3.3,101.5-31.1C282.7,597.3,285.2,580.9,285.2,580.9z"/>
	<path class="st7" d="M120.6,764.1c0,0-48.4-100.2-23.6-142.1c23.2-39.1,97-49.8,97-49.8"/>
	<path class="st7" d="M240.8,615.6c0,0-28.4,23-77.8,26.1c-9.9,0.6-16.6,10.6-13.4,20.2c8.4,25.3,22,69.9,27.7,107.9"/>
	<path class="st7" d="M204.2,798.6c0,0-61.2,11.9-110.3,3.8"/>
	<path class="st6" d="M255,564.4h69.2v123.2H222.8v-90.3C222.8,579.1,237.2,564.4,255,564.4z"/>
	<path class="st6" d="M82.9,767.6c0.8-23.9-34.2-14.9-34.2-14.9s1.6,7.9,3.5,15.1c2.2,8.4,2.7,13.6-5.7,17.5
		C46.5,785.4,81.7,801.4,82.9,767.6z"/>
	<path class="st20" d="M80.3,785.6c-0.5,0-13.2-10.5-28.9-8.8"/>
	<path class="st20" d="M47.7,783.3c0,0,14.1-2.3,24.2,6.8"/>
	<path class="st6" d="M113.5,789c0,0,11.2,8.2,22.9,2.3c11.7-5.9,12.4-28.6,5.5-34c-6.9-5.4-25.2-2.8-25.2-2.8s4.4,18.2,4.9,26.5
		C121.8,785.5,113.5,789,113.5,789z"/>
	<path class="st20" d="M144.6,790c0,0-12.1-9.6-23.8-8.6"/>
	<path class="st20" d="M139,795.1c0,0-12.1-9.6-23.8-8.6"/>
	<path class="st7" d="M203.5,475c0,0-7.3,45.2-24.1,60.4"/>
	<path class="st21" d="M324.4,456.6c-0.1,0-0.1,0.1-0.1,0.1c-81.9,7.5-137.8-4.9-137.8-4.9c0-0.3,0.1-0.7,0.1-1
		c3.2-6.9,7.8-11.5,14.1-15.4c22.3-13.8,39.3-4.7,52.3-6.2C282.5,425.9,306.7,426.2,324.4,456.6z"/>
	<path class="st19" d="M217.1,379.3c-6.6,2.5-14.3,0.4-12.1,8.3c1.4,5.1,1.3,6.5,2.7,14.6c3,17.2,17.5,23.5,30,12.6
		c12.7-11,13.1-19,4.6-37.1c-6.3-13.3-11.9-5-11.9-5S225.3,376.2,217.1,379.3z"/>
	<path class="st6" d="M209.1,394.8c0.5,1.2,1.4,2,2,1.7c0.6-0.3,0.6-1.5,0.1-2.7c-0.5-1.2-1.4-2-2-1.7
		C208.6,392.4,208.6,393.6,209.1,394.8z"/>
	<path class="st6" d="M222,390.8c0.2,1.3,0.9,2.3,1.6,2.3c0.7-0.1,1-1.2,0.8-2.5s-0.9-2.3-1.6-2.3
		C222.1,388.4,221.8,389.5,222,390.8z"/>
	<path class="st19" d="M227.2,420.2c0,0,3.1,4.7,3.2,11c0.1,5.7,4.2,10.7,9.8,11.2c0.1,0,0.2,0,0.3,0c5.7,0.4,21.5-2.2,19.5-14
		c0,0-11-22.6-12.9-33.7C247.2,394.7,228.3,418.1,227.2,420.2z"/>
	<path class="st6" d="M227.2,420.2c0,0,7.3-1.6,13-8.7c5.7-7.1,1.7,12-10.3,16.7C229.9,428.2,229.9,425.1,227.2,420.2z"/>
	<path class="st6" d="M219.1,385.7c0,0,8.5-1.1,9.5-2.4C230,381.6,218.1,376.3,219.1,385.7z"/>
	<path class="st6" d="M212.6,387.7c0,0-7.8,3.8-9.3,3.3C201.3,390.3,208.5,379.3,212.6,387.7z"/>
	<path class="st19" d="M242.5,389c0,0,2-6,6.4-7c4.4-1,6.7,12.7-2.7,14.1C236.7,397.3,242.5,389,242.5,389z"/>
	<path class="st7" d="M246.2,389.4c0,0-0.2-3.6,2.9-4.6"/>
	<path class="st7" d="M247.6,396.1c0,0,5.8,21.6,12.9,33.2"/>
	<path class="st7" d="M206.8,398.2c4.4,16.9,11.4,26.4,22.8,21.6"/>
	<path class="st7" d="M227.4,408.8c0,0-3.9,3.7-6.6,2.2"/>
	<path class="st6" d="M235.3,368.4c0,0-17.7,18.8-38.3,16l3.6-3.5l-5.1-3.6c0,0,4.7-0.1,10.4-3.8c5.7-3.7,17.9-13.6,28-9.3
		C244,368.5,235.3,368.4,235.3,368.4z"/>
	<path class="st6" d="M230.9,370.8c0,0,3.2,7.7,7.9,9c4.7,1.3,5.2,5.9,5.2,5.9s2.1-3.1,3.8-3.8c0,0-2.5-22.6-16.3-18.9L230.9,370.8z
		"/>
	<path class="st18" d="M284.7,565.1h30.9"/>
	<path class="st18" d="M223.1,659.1v17.3"/>
	<path class="st7" d="M249.3,537.7h-26.5"/>
	<path class="st22" d="M196.1,518.4c0,0-4.2-5.2-9.9-3.9c-5.7,1.3-11.3,11.2-9.7,11.7c1.2,0.4,5.5-2.4,7.8-4c0.9-0.6,2.1-0.6,3,0.1
		l4,3L196.1,518.4z"/>
	<path class="st8" d="M198.1,516.5c0,0-7.3,7.8-10,17.5L198.1,516.5z"/>
	<path class="st7" d="M198.1,516.5c0,0-7.3,7.8-10,17.5"/>
	<path class="st2" d="M-22.2,759.2c0,0,9,13.3,22.2,18.8c15.2,6.4,14.2,15.6,14.2,15.6s-59.5,7.8-104.1-2.3c0,0-4.8-13-13.6-29.1"/>
	<path class="st7" d="M-22.2,759.2c0,0,9,13.3,22.2,18.8c15.2,6.4,14.2,15.6,14.2,15.6s-59.5,7.8-104.1-2.3c0,0-4.8-13-13.6-29.1"/>
	<path class="st7" d="M-91.6,786.7c0,0,54.6,9,104.5,2.6"/>
	<path class="st23" d="M416.4,557h-864.7c-5.1,0-9.2-4.2-9.2-9.4c0-5.2,4.1-9.4,9.2-9.4h864.7c5.1,0,9.2,4.2,9.2,9.4
		C425.5,552.8,421.4,557,416.4,557z"/>
	<path class="st6" d="M159.4,538.1H54.2c-1.7,0-3.1-1.3-3.3-3l-8.1-66.4c-0.2-2,1.3-3.8,3.3-3.8h105.3c1.7,0,3.1,1.3,3.3,3l8.1,66.4
		C163,536.3,161.5,538.1,159.4,538.1z"/>
	<path class="st24" d="M105.6,506.8c-1.4,2-4.9,1.9-7.9-0.3c-3-2.1-4.3-5.5-2.9-7.5s4.9-1.9,7.9,0.3
		C105.7,501.5,107,504.8,105.6,506.8z"/>
	<path class="st6" d="M140.9,533.2h82c1.3,0,2.4,1.1,2.4,2.5c0,1.4-1.1,2.5-2.4,2.5h-82c-1.3,0-2.4-1.1-2.4-2.5
		C138.4,534.3,139.5,533.2,140.9,533.2z"/>
</g>
<path class="st25" d="M16,0.5h303c8.6,0,15.5,6.9,15.5,15.5v772c0,8.6-6.9,15.5-15.5,15.5H16c-8.6,0-15.5-6.9-15.5-15.5V16
	C0.5,7.4,7.4,0.5,16,0.5z"/>
</svg>
