<?xml version="1.0" encoding="utf-8"?>
<!-- Generator: Adobe Illustrator 25.4.1, SVG Export Plug-In . SVG Version: 6.00 Build 0)  -->
<svg version="1.1" id="Слой_1" xmlns="http://www.w3.org/2000/svg" xmlns:xlink="http://www.w3.org/1999/xlink" x="0px" y="0px"
	 viewBox="0 0 375 513" style="enable-background:new 0 0 375 513;" xml:space="preserve">
<style type="text/css">
	.st0{fill:none;stroke:#263238;stroke-width:0.2803;stroke-linecap:round;stroke-miterlimit:10;}
	.st1{fill:#ECECEC;}
	.st2{fill:#263238;fill-opacity:0.3;}
	.st3{fill:#FFFFFF;}
	.st4{fill:#263238;}
	.st5{opacity:0.78;fill:#74A475;enable-background:new    ;}
	.st6{fill:#868686;fill-opacity:0.48;}
	.st7{fill:#455A64;}
	.st8{opacity:0.1;enable-background:new    ;}
	.st9{fill:#EBEBEB;}
	.st10{fill:#C7C7C7;}
	.st11{fill:#E19379;}
	.st12{fill:#A6A6A6;}
	.st13{fill:#DBDBDB;}
	.st14{fill:#CCCCCC;fill-opacity:0.48;}
	.st15{fill:#FFFFFF;fill-opacity:0.95;}
	.st16{fill:#242645;}
	.st17{fill:#FFD3CA;}
	.st18{fill:#74A475;}
	.st19{fill:#D17360;}
	.st20{fill:#EEEEEE;}
	.st21{fill:#E2E2E2;}
	.st22{opacity:0.3;fill:url(#SVGID_1_);enable-background:new    ;}
	.st23{fill:#FFFFFF;fill-opacity:0.6;}
	.st24{fill:#222A40;}
	.st25{fill:#BD4A28;}
	.st26{fill:#10141C;}
	.st27{fill:#F5F5F5;}
	.st28{fill:#AFAFAF;}
	.st29{fill:#C9C9C9;}
	.st30{fill:#E6E6E6;}
	.st31{fill:#ABABAB;}
	.st32{fill:#CFCFCF;}
	.st33{fill:#CDE9B7;}
	.st34{fill:#BCD3BD;}
	.st35{opacity:0.35;fill:#CDE9B7;enable-background:new    ;}
	.st36{opacity:0.1;fill:#939393;enable-background:new    ;}
	.st37{opacity:0.3;fill:#90B691;enable-background:new    ;}
	.st38{fill:#90B691;}
	.st39{clip-path:url(#SVGID_00000137816205605883784010000001117565174207393702_);}
	.st40{fill:#A3C28A;}
	.st41{opacity:0.3;}
	.st42{fill:#515151;}
	.st43{clip-path:url(#SVGID_00000042700443769946567690000007582263429047044519_);}
	.st44{fill:#9EB59F;}
</style>
<path class="st0" d="M-8,511.9h431"/>
<path class="st1" d="M254.1,462.2c5.7-3,12.5-3.3,18.8-2.3c3.4,0.6,7,1.6,9.3,4.2c2.3,2.6,2.8,7.1,0.1,9.3c-1.6,1.3-3.8,1.5-5.9,1.5
	c-5-0.1-10.5-0.9-14.5,2.1c-2.3,1.7-3.8,4.5-6.5,5.4c-2.7,0.8-5.7-0.7-7.1-3.1c-1.4-2.4-1.5-5.4-0.8-8.1
	C247.6,471,248.3,465.1,254.1,462.2z"/>
<path class="st1" d="M241,436.8c3.5,5,10.3,3.3,13.5,0.3c3.2-3.1,4.5-7.5,5.7-11.7c2.8-9.6,5.6-19.8,3.5-29.6
	c-0.6-2.9-1.7-5.9-3.8-8c-2.1-2.2-5.2-3.5-8.1-2.7c-3.4,0.9-5.6,4.3-7.1,7.5c-4.5,9.4-6.9,19.8-7,30.3
	C237.6,427.7,238.2,432.8,241,436.8z"/>
<path class="st1" d="M231.3,444c3.8-4.5,4.5-11.1,2.8-16.7c-1.7-5.7-5.5-10.5-9.9-14.4c-5.2-4.6-11.2-8.2-17.8-10.5
	c-2.6-0.9-5.3-1.6-8-1.4c-2.7,0.3-5.4,1.6-6.7,4.1c-1.9,3.6-0.1,7.9,1.9,11.4c3.4,6.2,7.3,12.2,11.7,17.8c3.5,4.5,7.5,9,12.8,11
	c5.3,2,10.9,1.8,13.7-1.9"/>
<path class="st2" d="M240.7,512.3c0.1,0,0.2-0.8,0.3-2.3c0.2-1.7,0.4-3.7,0.6-6.2c0.3-2.6,0.7-5.7,1.4-9.1c0.7-3.4,1.9-7,3.3-10.7
	c1.5-3.7,3.3-7,5.5-9.7c2.1-2.7,4.6-4.6,6.9-5.8c2.3-1.1,4.4-1.6,5.8-1.8c1.5-0.1,2.3-0.3,2.3-0.3c0-0.1-0.8-0.1-2.3,0
	c-1.5,0.1-3.6,0.5-6.1,1.6c-2.5,1.1-5.1,3.1-7.3,5.8c-2.2,2.7-4.2,6.2-5.7,9.9c-1.5,3.8-2.6,7.5-3.3,10.9c-0.7,3.4-1,6.6-1.2,9.2
	c-0.2,2.6-0.3,4.8-0.3,6.2C240.6,511.5,240.7,512.3,240.7,512.3z"/>
<path class="st2" d="M241.1,507.5c0,0,0-0.4,0.1-1.1c0-0.8,0-1.8,0-3c0-2.6,0-6.4,0.1-11.1c0.2-9.4,1-19.4,2.6-33.6
	c1.5-13.3,3.5-28.9,5.5-39c0.4-2.3,0.9-4.4,1.3-6.2c0.4-1.8,0.8-3.4,1.1-4.6c0.3-1.2,0.5-2.2,0.7-2.9c0.1-0.7,0.2-1,0.2-1
	c0,0-0.2,0.3-0.4,1c-0.2,0.8-0.5,1.7-0.9,2.9c-0.4,1.3-0.8,2.8-1.2,4.6c-0.5,1.8-1,3.9-1.5,6.2c-2.1,9.2-4.2,21.9-5.8,36.2
	c-1.6,14.2-2.3,27.2-2.3,36.6c-0.1,4.7,0,8.5,0.2,11.1c0.1,1.2,0.1,2.2,0.2,3C241.1,507.1,241.1,507.5,241.1,507.5z"/>
<path class="st2" d="M241.2,482.5c0.1,0,0.1-1.1,0-3.2c-0.1-2-0.4-5-1-8.5c-0.6-3.6-1.4-7.8-2.8-12.4c-0.6-2.1-1.9-7.2-5.2-14.7
	c-4.3-10.2-10.2-18.6-15.3-23.8c-1.2-1.4-2.5-2.4-3.6-3.3c-0.6-0.5-1-0.9-1.5-1.3c-0.5-0.3-1-0.7-1.4-1c-1.7-1.1-2.6-1.8-2.7-1.7
	c-0.1,0.2,3.8,2.5,8.7,7.8c4.9,5.2,10.6,13.6,14.9,23.7c2.4,5.5,4.1,10.4,5.2,14.6c1.4,4.6,2.3,8.8,3,12.3c0.7,3.5,1,6.4,1.3,8.5
	C241,481.4,241.1,482.5,241.2,482.5z"/>
<path class="st3" d="M165.1,295h-91v46.4h91V295z"/>
<path class="st4" d="M165.1,341.4c0,0-91.1,0-91.1,0c0,0,0-46.4,0-46.4v0h0.1c0,0,91,0,91.1,0C165.1,295,165.1,341.4,165.1,341.4z
	 M165.1,341.4c0,0-0.1-46.5,0-46.4l-91,0l0.1,0c0,0,0,46.5-0.1,46.3C74.1,341.4,165.1,341.4,165.1,341.4z"/>
<path class="st5" d="M165.1,295h-91v6.2h91V295z"/>
<path class="st4" d="M165.1,295h-91v2.3h91V295z"/>
<path class="st6" d="M76.2,296.1c0,0.2-0.2,0.3-0.4,0.3c-0.2,0-0.4-0.2-0.4-0.3c0-0.2,0.2-0.3,0.4-0.3C76,295.8,76.2,296,76.2,296.1
	z"/>
<path class="st3" d="M78,296.1c0,0.2-0.2,0.3-0.4,0.3c-0.2,0-0.4-0.2-0.4-0.3c0-0.2,0.2-0.3,0.4-0.3C77.8,295.8,78,296,78,296.1z"/>
<path class="st7" d="M79.8,296.1c0,0.2-0.2,0.3-0.4,0.3c-0.2,0-0.4-0.2-0.4-0.3s0.2-0.3,0.4-0.3C79.6,295.8,79.8,296,79.8,296.1z"/>
<path class="st6" d="M95,295.8H82.7l-0.7,1.6h13.8L95,295.8z"/>
<path class="st8" d="M94.5,296.8l-0.1,0.1l-0.3-0.2l-0.3,0.2l-0.1-0.1l0.3-0.2l-0.3-0.2l0.1-0.1l0.3,0.2l0.3-0.2l0.1,0.1l-0.3,0.2
	L94.5,296.8z"/>
<path class="st3" d="M97.7,296.4v0.1h-0.4v0.3h-0.2v-0.3h-0.4v-0.1h0.4v-0.3h0.2v0.3H97.7z"/>
<path class="st3" d="M146.4,298.9h-63v1.4h63V298.9z"/>
<path class="st9" d="M146.5,300.2h-63v-1.4h63L146.5,300.2L146.5,300.2z"/>
<path class="st10" d="M84.6,299.5c0-0.1-0.1-0.1-0.2-0.1c-0.1,0-0.2,0.1-0.2,0.1v0.3v0c0,0,0,0,0,0c0,0,0,0,0,0c0,0,0,0,0,0
	c0,0,0,0,0,0h0h0c0,0,0,0,0,0c0,0,0,0,0,0c0,0,0,0,0,0v-0.3v0v-0.3c0,0,0,0,0,0c0,0,0,0,0,0v0.2c0,0,0.1-0.1,0.2-0.1
	C84.6,299.3,84.7,299.4,84.6,299.5l0.1,0.3c0,0,0,0,0,0c0,0,0,0,0,0V299.5z"/>
<path class="st10" d="M85.1,299.4C85.1,299.4,85.1,299.4,85.1,299.4l-0.1,0v0.3c0,0,0,0,0,0s0,0,0,0c0,0,0,0,0,0
	c-0.1,0-0.1,0-0.1-0.1v-0.3h-0.1c0,0,0,0,0,0c0,0,0,0,0,0H85v-0.2c0,0,0,0,0,0c0,0,0,0,0,0v0.2L85.1,299.4
	C85.1,299.3,85.1,299.4,85.1,299.4z"/>
<path class="st10" d="M85.5,299.4C85.5,299.4,85.5,299.4,85.5,299.4l-0.1,0v0.3c0,0,0,0,0,0c0,0,0,0,0,0c0,0,0,0,0,0
	c-0.1,0-0.1,0-0.1-0.1v-0.3h-0.1c0,0,0,0,0,0c0,0,0,0,0,0h0.1v-0.2c0,0,0,0,0,0c0,0,0,0,0,0v0.2L85.5,299.4
	C85.5,299.3,85.5,299.4,85.5,299.4z"/>
<path class="st10" d="M85.8,299.6L85.8,299.6L85.8,299.6v-0.2c0,0,0,0,0,0c0,0,0,0,0,0v0.1c0-0.1,0.1-0.1,0.2-0.1
	c0.2,0,0.3,0.1,0.3,0.2c0,0.1-0.1,0.2-0.3,0.2c-0.1,0-0.2,0-0.2-0.1v0.3c0,0,0,0,0,0c0,0,0,0,0,0V299.6z M85.8,299.6
	c0,0.1,0.1,0.2,0.2,0.2c0.1,0,0.2-0.1,0.2-0.2c0-0.1-0.1-0.2-0.2-0.2C85.9,299.4,85.8,299.5,85.8,299.6L85.8,299.6z"/>
<path class="st10" d="M86.6,299.3C86.6,299.3,86.7,299.3,86.6,299.3C86.7,299.4,86.6,299.4,86.6,299.3
	C86.6,299.4,86.5,299.4,86.6,299.3C86.5,299.3,86.6,299.3,86.6,299.3z M86.6,299.7C86.6,299.7,86.7,299.7,86.6,299.7
	C86.7,299.8,86.6,299.8,86.6,299.7C86.6,299.8,86.5,299.8,86.6,299.7C86.5,299.7,86.6,299.7,86.6,299.7z"/>
<path class="st10" d="M86.8,299.8l0.3-0.6c0,0,0,0,0,0c0,0,0,0,0,0L86.8,299.8C86.9,299.8,86.9,299.8,86.8,299.8
	C86.8,299.8,86.8,299.8,86.8,299.8C86.8,299.8,86.8,299.8,86.8,299.8z"/>
<path class="st10" d="M87.1,299.8l0.3-0.6c0,0,0,0,0,0c0,0,0,0,0,0L87.1,299.8C87.2,299.8,87.1,299.8,87.1,299.8
	C87.1,299.8,87.1,299.8,87.1,299.8C87.1,299.8,87.1,299.8,87.1,299.8z"/>
<path class="st9" d="M157.3,308.8H94.8v-3.6h62.5V308.8z"/>
<path class="st11" d="M92.3,308.8H81.9v-3.6h10.5V308.8z"/>
<path class="st12" d="M96.9,307.3C96.9,307.3,97,307.3,96.9,307.3c0.1,0.1,0.2,0.1,0.4,0.1c0.1,0,0.2,0,0.2-0.1
	c0.1,0,0.1-0.1,0.1-0.2c0-0.1,0-0.1-0.1-0.1c-0.1,0-0.1-0.1-0.2-0.1h0c-0.1,0-0.2,0-0.2-0.1c-0.1,0-0.1-0.1-0.1-0.2
	c0-0.1,0-0.1,0.1-0.2c0.1,0,0.2-0.1,0.2-0.1c0.1,0,0.2,0.1,0.3,0.1c0,0,0,0,0,0c0,0,0,0,0,0c-0.1-0.1-0.2-0.1-0.3-0.1
	c-0.1,0-0.2,0-0.2,0.1c-0.1,0-0.1,0.1-0.1,0.1c0,0.1,0,0.1,0.1,0.1c0.1,0,0.1,0.1,0.2,0.1h0c0.1,0,0.2,0,0.3,0.1
	c0.1,0,0.1,0.1,0.1,0.2s0,0.2-0.1,0.2c-0.1,0-0.2,0.1-0.3,0.1C97.2,307.5,97,307.4,96.9,307.3C96.9,307.3,96.9,307.3,96.9,307.3z"/>
<path class="st12" d="M97.9,307.2c0-0.2,0.2-0.4,0.3-0.4c0.2,0,0.3,0.1,0.3,0.3v0v0c0,0,0,0,0,0L97.9,307.2c0.1,0.2,0.2,0.3,0.3,0.3
	c0.1,0,0.2-0.1,0.2-0.1c0,0,0,0,0,0c0,0,0,0,0,0c-0.1,0.1-0.2,0.2-0.3,0.2C98,307.5,97.9,307.3,97.9,307.2z M98,307.1h0.5
	c0-0.1-0.1-0.2-0.3-0.2C98.1,306.9,98,307,98,307.1z"/>
<path class="st12" d="M99.4,306.8v0.6c0,0,0,0,0,0c0,0,0,0,0,0v-0.1c-0.1,0.1-0.2,0.1-0.3,0.1c-0.2,0-0.3-0.2-0.3-0.4
	c0-0.2,0.2-0.4,0.3-0.4c0.1,0,0.2,0.1,0.3,0.1L99.4,306.8C99.4,306.8,99.4,306.8,99.4,306.8C99.4,306.8,99.4,306.8,99.4,306.8z
	 M99.4,307.1c0-0.2-0.1-0.3-0.3-0.3c-0.1,0-0.3,0.1-0.3,0.3c0,0.2,0.1,0.3,0.3,0.3C99.2,307.4,99.4,307.3,99.4,307.1z"/>
<path class="st12" d="M99.7,306.8C99.7,306.8,99.7,306.8,99.7,306.8C99.8,306.8,99.8,306.8,99.7,306.8l0.1,0.2c0,0,0,0,0,0
	c0.1-0.1,0.1-0.2,0.3-0.2c0,0,0,0,0,0c0,0,0,0,0,0c-0.1,0-0.2,0.1-0.2,0.1c0,0.1-0.1,0.1-0.1,0.2c0,0,0,0,0,0v0.3c0,0,0,0,0,0
	c0,0,0,0,0,0V306.8z"/>
<path class="st12" d="M100.3,307.1c0-0.2,0.2-0.4,0.4-0.4c0.1,0,0.2,0,0.2,0.1c0,0,0,0,0,0c0,0,0,0,0,0c-0.1,0-0.1-0.1-0.2-0.1
	C100.5,306.9,100.3,307,100.3,307.1c0.1,0.2,0.2,0.3,0.4,0.3c0.1,0,0.1,0,0.2-0.1c0,0,0,0,0,0c0,0,0,0,0,0.1c-0.1,0-0.1,0.1-0.2,0.1
	C100.4,307.5,100.3,307.3,100.3,307.1z"/>
<path class="st12" d="M101.7,307.1c0-0.1-0.1-0.2-0.2-0.2c-0.1,0-0.2,0.1-0.2,0.2v0.4v0c0,0,0,0,0,0c0,0,0,0,0,0c0,0,0,0,0,0
	c0,0,0,0,0,0h0h0c0,0,0,0,0,0c0,0,0,0,0,0c0,0,0,0,0,0v-0.4v0v-0.5c0,0,0,0,0,0c0,0,0,0,0,0v0.4c0.1-0.1,0.1-0.1,0.2-0.1
	C101.6,306.8,101.8,306.9,101.7,307.1l0.1,0.4c0,0,0,0,0,0c0,0,0,0,0,0V307.1z"/>
<path class="st11" d="M157.3,305.2h-3.6v3.6h3.6V305.2z"/>
<path class="st3" d="M156.4,307.8l-0.3,0.2l-0.5-0.6l-0.2-0.2c0,0,0.1,0,0.1-0.1c0.1,0,0.1-0.1,0.1-0.2l0.2,0.2L156.4,307.8z"/>
<path class="st3" d="M155.9,306.3c-0.2-0.3-0.7-0.4-1-0.1c-0.3,0.2-0.4,0.7-0.1,1c0.2,0.3,0.6,0.4,0.9,0.2c0,0,0.1,0,0.1-0.1
	c0.1,0,0.1-0.1,0.1-0.2C156.1,306.9,156.1,306.5,155.9,306.3z M155.6,307c0,0-0.1,0-0.1,0.1c-0.2,0.1-0.4,0-0.5-0.1
	c-0.1-0.2-0.1-0.4,0.1-0.6c0.2-0.1,0.4-0.1,0.6,0.1c0.1,0.1,0.1,0.3,0.1,0.4C155.7,306.9,155.6,307,155.6,307z"/>
<path class="st13" d="M165.1,301.7h-1.6v52.7h1.6V301.7z"/>
<path class="st12" d="M164.3,321.2c-0.2,0-0.4-0.2-0.4-0.4v-18.1c0-0.2,0.2-0.4,0.4-0.4c0.2,0,0.4,0.2,0.4,0.4v18.1
	C164.7,321,164.5,321.2,164.3,321.2z"/>
<path class="st14" d="M94.2,314.4H81.9v9.6h12.3V314.4z"/>
<path class="st8" d="M94.2,314.4H81.9v9.6h12.3V314.4z"/>
<path class="st15" d="M93.4,323h-6.9l3.5-4.2L93.4,323z"/>
<path class="st15" d="M88.1,323h-5.5l2.8-3.1L88.1,323z"/>
<path class="st3" d="M86.9,317.9c0,0.4-0.3,0.7-0.7,0.7c-0.4,0-0.7-0.3-0.7-0.7c0-0.4,0.3-0.7,0.7-0.7
	C86.5,317.2,86.9,317.5,86.9,317.9z"/>
<path class="st13" d="M111.1,312.1H81.9v0.7h29.2V312.1z"/>
<path class="st9" d="M157.3,314.4H96.4v0.4h60.9V314.4z"/>
<path class="st9" d="M157.3,316.3H96.4v0.4h60.9V316.3z"/>
<path class="st9" d="M157.3,318.1H96.4v0.4h60.9V318.1z"/>
<path class="st9" d="M157.3,319.9H96.4v0.4h60.9V319.9z"/>
<path class="st9" d="M157.3,321.7H96.4v0.4h60.9V321.7z"/>
<path class="st9" d="M149,323.6H96.4v0.4H149V323.6z"/>
<path class="st9" d="M157.3,323.6h-0.7v0.4h0.7V323.6z"/>
<path class="st9" d="M155.2,323.6h-0.7v0.4h0.7V323.6z"/>
<path class="st9" d="M153.2,323.6h-0.7v0.4h0.7V323.6z"/>
<path class="st9" d="M151.2,323.6h-0.7v0.4h0.7V323.6z"/>
<path class="st6" d="M94.2,328.1H81.9v9.6h12.3V328.1z"/>
<path class="st8" d="M94.2,328.1H81.9v9.6h12.3V328.1z"/>
<path class="st3" d="M93.4,336.8h-6.9l3.5-4.2L93.4,336.8z"/>
<path class="st3" d="M88.1,336.8h-5.5l2.8-3.1L88.1,336.8z"/>
<path class="st3" d="M86.1,332.4c0.4,0,0.7-0.3,0.7-0.7c0-0.4-0.3-0.7-0.7-0.7c-0.4,0-0.7,0.3-0.7,0.7
	C85.4,332.1,85.7,332.4,86.1,332.4z"/>
<path class="st13" d="M111,325.9H81.9v0.7H111V325.9z"/>
<path class="st9" d="M157.2,328.2H96.4v0.4h60.9V328.2z"/>
<path class="st9" d="M157.2,330H96.4v0.4h60.9V330z"/>
<path class="st9" d="M157.2,331.8H96.4v0.4h60.9V331.8z"/>
<path class="st9" d="M157.2,333.7H96.4v0.4h60.9V333.7z"/>
<path class="st9" d="M157.2,335.5H96.4v0.4h60.9V335.5z"/>
<path class="st9" d="M149,337.3H96.4v0.4H149V337.3z"/>
<path class="st9" d="M157.2,337.3h-0.7v0.4h0.7V337.3z"/>
<path class="st9" d="M155.2,337.3h-0.7v0.4h0.7V337.3z"/>
<path class="st9" d="M153.2,337.3h-0.7v0.4h0.7V337.3z"/>
<path class="st9" d="M151.2,337.3h-0.7v0.4h0.7V337.3z"/>
<path class="st16" d="M70.1,313.7c0,0-8.7-1.4-11.1,14.2c-2.6,17.4-9.6,14.5-20.6,28.7c-6.5,8.3,0.3,22.8,14.2,22.5
	c13.8-0.3,26.3-4.3,34.3-2.6c8,1.7,8.4-18.9,0.5-25.3c-7.8-6.4,8.9-24.7-1.3-32.8C75.9,310.3,70.1,313.7,70.1,313.7z"/>
<path class="st17" d="M96.3,362.2l9,33l-3.2-3.7c1.2,0.6,2.6,1.1,4.1,1.5c1.5,0.3,3.2,0.5,4.9,0.6c1.7,0.1,3.6,0.1,5.4,0
	c1.9-0.1,3.8-0.2,5.7-0.4h0c2.8-0.2,5.3,1.9,5.6,4.7c0.2,2.7-1.7,5.1-4.3,5.5c-2,0.3-4,0.6-6.1,0.9c-2.1,0.2-4.2,0.4-6.4,0.5
	c-2.2,0-4.5,0-6.8-0.4c-2.3-0.3-4.8-1-7.2-2c-1.5-0.7-2.6-1.9-3.1-3.4l-0.1-0.3l-10.8-32.5c-1.2-3.6,0.8-7.6,4.4-8.8
	c3.6-1.2,7.6,0.8,8.8,4.4C96.2,361.9,96.2,362,96.3,362.2z"/>
<path class="st18" d="M51.3,401.1c0,0-0.3,2.5,3,3.1L89,405c0,0,2.3-1.2,1.9-4.1C90.8,400.9,76.1,392.8,51.3,401.1z"/>
<path class="st17" d="M89.4,417.5c-21.4,3.2-37.4-3-37.4-3c0.9-2.6,1.6-5.6,2.1-8.3c0.6-3.1,0.9-5.9,1-7.3
	c7.6-0.5,26.4-1.6,33.7,0.1l0.1,2.9L89.4,417.5z"/>
<path class="st19" d="M76.2,407.5c-0.1,0.9-0.5,1.6-0.9,1.6c-0.4,0-0.6-0.8-0.5-1.8c0.1-0.9,0.5-1.6,0.9-1.6
	C76.1,405.8,76.3,406.6,76.2,407.5z"/>
<path class="st18" d="M88.9,401.9c-7.7-0.4-22.7-0.3-34.8,4.3c0.6-3.1,0.9-5.9,1-7.3c7.6-0.5,26.4-1.6,33.7,0.1L88.9,401.9z"/>
<path class="st18" d="M91,394.7C91,394.7,91,394.7,91,394.7c0,0.2,0,0.3,0,0.5c0,0.6-0.1,1.2-0.1,2c0,0.6,0,1.3,0,2
	c0,0.5,0,1.1,0,1.7c-10.2-4.4-31.1-1.3-39.5,0.3c0.1-0.4,0.2-0.8,0.2-1.2c0.1-0.3,0.1-0.6,0.2-0.9c0.6-3.2,0.9-6.1,1-8.7
	c0-0.2,0-0.5,0-0.7c0.1-3.8-0.3-9.3-1.2-14.9c-0.1-0.4-0.1-0.8-0.2-1.2c0-0.3-0.1-0.5-0.1-0.8c-0.3-1.9-0.7-3.8-1.1-5.6
	c-0.1-0.6-0.3-1.2-0.4-1.9c-0.1-0.7-0.2-1.4-0.3-2.1c-0.2-1.7-0.1-3.4,0.1-5c0.4-2.8,1.5-5.2,3.5-6.8c1.1-0.9,2.6-1.5,4.4-1.7
	c0.6-0.1,1.2-0.2,1.7-0.2c1.8-0.2,3.4-0.4,4.7-0.5c0.4,0,0.8-0.1,1.2-0.1c0.9-0.1,1.6-0.1,1.9-0.1c0.2,0,0.2,0,0.2,0l16.2,2.3
	c0,0,2.7,0.8,3.3,1c1.4,0.5,2.6,0.9,3.6,1.3c1.3,0.5,2.5,1,3.2,1.5c3.5,2.4,2.2,7.2,2.2,12.7c0,0.1,0,0.2,0,0.3c0,0,0,0.1,0,0.1
	c0,0.4,0,0.8,0,1.2c0,0.5,0,1,0.1,1.5c0.1,1,0.2,2,0.3,3c0.7,6.1,2.1,11.5,0.8,14.4c-1.5,3-4.5,5.4-5.6,6.2
	C91.1,394.6,91,394.7,91,394.7z"/>
<path class="st18" d="M62.2,398.4c-0.1,0-0.2-0.1-0.3-0.3c0-0.2,0.1-0.4,0.3-0.4c7.1-1.4,12.3-3.9,12.3-4c0.2-0.1,0.4,0,0.5,0.2
	c0.1,0.2,0,0.4-0.2,0.5c-0.1,0-5.3,2.6-12.5,4C62.3,398.4,62.2,398.4,62.2,398.4z"/>
<path class="st19" d="M84.5,327.5c0,0,1.5-0.1,2,1.7c0.6,1.8,0.2,5-1.8,4.9C82.9,334,84.5,327.5,84.5,327.5z"/>
<path class="st3" d="M81,336.9c-0.1-2.2,1.6-4.2,3.8-4.3c2.2-0.1,4.2,1.6,4.3,3.8c0.1,2.2-1.6,4.2-3.8,4.3
	C83.1,340.9,81.2,339.2,81,336.9z M81.8,336.9c0.1,1.8,1.7,3.2,3.5,3.1c1.8-0.1,3.2-1.7,3.1-3.5c-0.1-1.8-1.7-3.2-3.5-3.1
	C83.1,333.5,81.7,335,81.8,336.9z"/>
<path class="st17" d="M67.8,349.2c0,0,2.9,4.7,8.4,4.6c7-0.1,7.3-2.6,7.3-2.6c-0.4-0.9-0.8-1.8-1-2.7c-0.1-0.4-0.2-0.7-0.2-1.1
	c-0.2-1.1-0.3-2.3-0.4-3.7c0-0.3,0-0.7-0.1-1l0,0c-4.9-0.3-9.1-1.8-12.3-4.8l-0.8-0.3l-0.5-0.2l0,0.3l0.2,0.9
	C69.4,342.4,69.5,345,67.8,349.2z"/>
<path class="st3" d="M81.1,358.2c0.2,0,0.3,0,0.4-0.1c1.4-0.3,2.3-1,2.8-2.1c1.5-3.3-1.2-8.7-1.3-8.9c-0.1-0.2-0.3-0.3-0.5-0.2
	c-0.2,0.1-0.3,0.3-0.2,0.5c0,0.1,2.7,5.4,1.3,8.3c-0.4,0.9-1.2,1.5-2.3,1.7c-4.8,1.1-13.7-9.1-13.8-9.2c-0.1-0.2-0.4-0.2-0.5,0
	c-0.2,0.1-0.2,0.4,0,0.5C67.3,349.1,75.8,358.7,81.1,358.2z"/>
<path class="st19" d="M73.3,340.8c1.4,2.1,4.3,5.7,8.9,6.5c-0.2-1.1-0.3-2.3-0.4-3.7c0-0.3,0-0.7-0.1-1c-0.1,0-0.2,0-0.3,0.1
	C78.9,343.3,75.9,342.4,73.3,340.8z"/>
<path class="st17" d="M61.2,331.4c0.3,2.6,2.8,5.5,6.2,5.3l0,0c0,0,0,0,0,0l0.1,0c0.1,0.1,0.1,0.3,0.2,0.4c0,0.1,0.1,0.1,0.1,0.2
	c0,0,0,0,0,0c2.6,4.2,9.1,6.1,12.5,5.9c1.2-0.1,2-0.4,2.3-0.5c3.5-1.1,3.7-6.1,2.8-9.7c-0.1-0.5-0.3-1-0.5-1.5c0,0,0-0.1,0-0.1
	c0,0,0.7-5.3,0.7-7.6c0.1-4.4-2.9-8.6-12.6-8.6c-9.7,0.1-11.4,6.3-11.8,9.5c-0.1,0.5,0.4,3.7,0.9,4.1
	C61.3,329.4,61.2,330.5,61.2,331.4z"/>
<path class="st3" d="M77.7,334.9c0,0,0.4,3,3,3c2.6,0,2.7-2.6,2.7-2.6L77.7,334.9z"/>
<path class="st19" d="M80.2,339.1c-0.5-0.1-0.8-0.4-0.8-0.4c-0.1-0.1-0.1-0.2,0-0.3s0.2-0.1,0.3,0c0,0,0.4,0.4,1,0.2
	c0.1,0,0.3,0,0.3,0.1c0,0.1,0,0.3-0.1,0.3C80.7,339.1,80.4,339.2,80.2,339.1z"/>
<path class="st19" d="M67.4,336.6L67.4,336.6C67.4,336.6,67.4,336.6,67.4,336.6L67.4,336.6c0.2,0.1,0.2,0.3,0.3,0.4
	c0,0.1,0.1,0.1,0.1,0.2c0,0,0,0,0,0c0.4-0.1,0.8-0.3,1.3-0.6c0.2-0.2,0.5-0.5,0.6-0.8c0.1-0.2,0-0.4-0.2-0.5c-0.2-0.1-0.4,0-0.5,0.2
	c-0.2,0.4-0.5,0.6-0.8,0.8c-0.2,0.1-0.4,0.2-0.6,0.3C67.6,336.6,67.5,336.6,67.4,336.6z"/>
<path class="st19" d="M83.3,332.4c0,0.4,0.9,0.6,2,0.5c-0.1-0.5-0.3-1-0.5-1.5C83.9,331.6,83.3,332,83.3,332.4z"/>
<path class="st3" d="M63.7,335.5c0.2,0.1,0.5,0.3,0.7,0.4c-1,0.6-1.6,1.8-1.6,3c0.1,1.8,1.7,3.2,3.5,3.1c1.8-0.1,3.2-1.7,3.1-3.5
	c-0.1-1.7-1.5-3.1-3.2-3.1c-0.3-0.1-0.5-0.3-0.5-0.7c0.1,0,0.1,0,0.2,0c2.2-0.1,4.2,1.6,4.3,3.8c0.1,2.2-1.6,4.2-3.8,4.3
	c-2.2,0.1-4.2-1.6-4.3-3.8C62,337.6,62.6,336.3,63.7,335.5z"/>
<path class="st19" d="M81.2,333.8c0.1,0,0.1,0,0.2-0.1l1.2-0.9c0.1-0.1,0.1-0.2,0.1-0.3c0-0.1-0.1-0.2-0.2-0.2
	c-1.1-0.5-1.8-1.4-2.3-2.8c-0.1-0.2-0.2-0.2-0.4-0.2c-0.2,0-0.2,0.2-0.2,0.4c0.4,1.4,1.1,2.3,2.2,2.9l-0.9,0.6
	c-0.1,0.1-0.2,0.3-0.1,0.4C81,333.8,81.1,333.8,81.2,333.8z"/>
<path class="st16" d="M77.5,325.7c0.8,0,1.1-1,0.4-1.4c-0.4-0.2-0.9-0.2-1.5-0.1c-2.6,0.7-3.4,3.1-3.4,3.1s2.3-1.5,3.7-1.7
	C77,325.7,77.2,325.7,77.5,325.7z"/>
<path class="st16" d="M81.6,325.6c-0.8,0.1-1.2-0.9-0.5-1.3c0.3-0.2,0.8-0.3,1.4-0.3c2.7,0.4,3,2.3,3,2.3s-1.7-0.7-3.1-0.8
	C82.1,325.5,81.8,325.5,81.6,325.6z"/>
<path class="st19" d="M77.3,333c0.1,0.4-1,0.9-2.3,1.1c-1.3,0.2-2.5-0.1-2.5-0.5c-0.1-0.4,1-0.9,2.3-1.1S77.3,332.6,77.3,333z"/>
<path class="st19" d="M67.5,334.6c-0.1,0-0.3-0.1-0.3-0.2c-0.7-2.4-3.7-3.1-3.8-3.2c-0.2,0-0.3-0.2-0.3-0.4c0-0.2,0.2-0.3,0.4-0.3
	c0.1,0,3.4,0.9,4.3,3.6c0.1,0.2-0.1,0.4-0.2,0.4C67.6,334.6,67.6,334.6,67.5,334.6z"/>
<path class="st19" d="M64.4,333.5c0,0-0.1,0-0.1,0c-0.2-0.1-0.2-0.3-0.2-0.5c0,0,0.6-1.2,2-1.3c0.2,0,0.4,0.1,0.4,0.3
	c0,0.2-0.1,0.4-0.3,0.4c-1,0.1-1.4,0.9-1.4,0.9C64.6,333.5,64.5,333.5,64.4,333.5z"/>
<path class="st16" d="M83.3,328.8c0,0.6-0.3,1.1-0.6,1c-0.3,0-0.5-0.5-0.5-1.1c0-0.6,0.3-1.1,0.6-1
	C83.1,327.7,83.3,328.2,83.3,328.8z"/>
<path class="st16" d="M81.1,328.4C81,328.4,81,328.3,81.1,328.4c-0.1-0.1-0.1-0.2,0-0.3c0.1,0,1.5-1,2.7-0.2c0.1,0,0.1,0.1,0,0.2
	c0,0.1-0.1,0.1-0.2,0c-1.1-0.7-2.4,0.2-2.4,0.2C81.2,328.4,81.1,328.4,81.1,328.4z"/>
<path class="st16" d="M77.4,328.9c0,0.6-0.3,1.1-0.6,1c-0.3,0-0.5-0.5-0.5-1.1c0-0.6,0.3-1.1,0.6-1
	C77.2,327.8,77.4,328.3,77.4,328.9z"/>
<path class="st16" d="M74.9,328.7C74.9,328.6,74.9,328.6,74.9,328.7c-0.1-0.1-0.1-0.2-0.1-0.3c0.1,0,1.3-1.2,2.7-0.5
	c0.1,0,0.1,0.1,0.1,0.2c0,0.1-0.1,0.1-0.2,0.1c-1.2-0.6-2.3,0.5-2.3,0.5C75,328.7,75,328.7,74.9,328.7z"/>
<path class="st16" d="M72.8,320.5c0,0,0.8,2.7-1.3,4.5c-1.8,1.5-2.9,2-2.9,2s3.9,7.2,1.2,8.6c-2.7,1.4-3.2-6.9-7.6-6.6
	c0,0-1.6-0.2-1.7-2.9c-0.1-2.8,1.4-10.5,11-11.4c7.2-0.6,14,2.6,14.7,7.6c0.8,5-0.4,4.1-0.4,4.1s0.2-3-3.5-4.8
	C79.2,319.9,72.8,320.5,72.8,320.5z"/>
<path class="st20" d="M103.9,512.3c-1,0-1.9-0.7-2-1.8l-8.5-63.8H57.6l-8.4,63.8c-0.1,1.1-1.2,1.9-2.3,1.8c-1.1-0.1-1.9-1.2-1.8-2.3
	l8.6-65.6c0.1-1,1-1.8,2-1.8h39.3c1,0,1.9,0.8,2,1.8L106,510c0.2,1.1-0.6,2.1-1.8,2.3C104.1,512.3,104,512.3,103.9,512.3z"/>
<path class="st20" d="M83.8,444.7H58.2c-8.1,0-16.8-4.4-18-12.4c-1.7-10.7-2.1-21-1.6-30.5c0.5-10.7,5.7-20.7,14.1-27.4
	c0,0,5.1,22.2-1.3,52.9C53.9,438.9,83.8,444.7,83.8,444.7z"/>
<path class="st4" d="M142.9,485h-11.4c0,0-2.6-12.7-3.5-19.8c-0.9-7.1-1.3-23.9-1.3-23.9s-9.1,3-28.1,1.8
	c-42.2-2.5-26.2-33.4-26.2-33.4c1.4,2,10.2,0.6,16.1,1.5c18.3,1.8,34.2,8.9,43.7,13.1c2.3,1,4.3,2,6.1,3.1c2.3,1.4,3.7,5.7,4.6,11.4
	C145.4,455.8,142.9,485,142.9,485z"/>
<path class="st17" d="M142.5,499.6h-8.1l-1.6-9.4l-0.8-5.2h10l0.2,5.2L142.5,499.6z"/>
<path class="st20" d="M142.5,499.6h-8.1l-1.2-7l-0.4-2.4h9.3l0.1,2.5L142.5,499.6z"/>
<path class="st18" d="M162.4,512.3H132c-0.2-0.4-0.3-1-0.4-1.7c-0.2-2.6,0.6-6.7,1-9.3c0-0.3,0.1-0.6,0.1-0.8
	c0.1-0.4,0.1-0.8,0.1-1.1c0-2.1,1.9-1.8,1.9-1.8c3.1,3,6.6-1.5,8.6,0c0,0,0.1,0.1,0.3,0.2c0.2,0.1,0.4,0.3,0.8,0.6
	c0.5,0.4,1.2,1.1,2.2,2c2.4,2.2,6.5,3.6,10,5.1c0.4,0.2,0.9,0.4,1.2,0.6c0.3,0.1,0.6,0.3,0.8,0.4c2.9,1.5,3.8,3,4,4.1
	C162.9,511.6,162.4,512.3,162.4,512.3z"/>
<path class="st4" d="M162.4,512.3H132c-0.2-0.4-0.4-1-0.4-1.7h31.1C162.9,511.6,162.4,512.3,162.4,512.3z"/>
<path class="st17" d="M65.3,357.7l10.4,38.1l-3.7-4.3c1.4,0.7,3,1.3,4.7,1.7c1.8,0.4,3.7,0.6,5.7,0.7c2,0.1,4.1,0.1,6.2,0
	c2.1-0.1,4.3-0.2,6.6-0.4h0c3.3-0.3,6.2,2.2,6.4,5.4c0.3,3.1-2,5.9-5,6.4c-2.3,0.4-4.6,0.7-7,1c-2.4,0.3-4.8,0.5-7.4,0.5
	c-2.5,0.1-5.2,0-7.9-0.4c-2.7-0.4-5.5-1.1-8.3-2.3c-1.8-0.8-3-2.2-3.6-3.9l-0.1-0.4L50,362.4c-1.4-4.2,0.9-8.8,5.1-10.2
	c4.2-1.4,8.8,0.9,10.2,5.1C65.3,357.4,65.3,357.6,65.3,357.7z"/>
<path class="st19" d="M70,394.6c-0.1,0-0.2-0.1-0.3-0.2c-0.1-0.1,0-0.3,0.1-0.4c0.1-0.1,2.4-1.3,4.8-1.5c0.2,0,0.3,0.1,0.3,0.3
	c0,0.2-0.1,0.3-0.3,0.3c-2.2,0.2-4.5,1.4-4.5,1.4C70.1,394.6,70.1,394.6,70,394.6z"/>
<path class="st19" d="M73.8,393.2c-0.1,0-0.1,0-0.2,0c-1.4-0.9-3.2-1-3.2-1c-0.2,0-0.3-0.2-0.3-0.3c0-0.2,0.2-0.3,0.3-0.3
	c0.1,0,1.9,0.1,3.5,1.1c0.1,0.1,0.2,0.3,0.1,0.4C74,393.2,73.9,393.2,73.8,393.2z"/>
<path class="st4" d="M123,485h-11.4c0,0-2.6-12.7-3.5-19.8c-0.9-7.1-1.3-23.9-1.3-23.9s-9.1,3-28.1,1.8
	c-42.2-2.5-26.2-33.4-26.2-33.4c1.4,2,12.1,4.7,18.1,5.6c18.3,1.8,32.2,4.9,41.8,9c2.3,1,4.3,2,6.1,3.1c2.3,1.4,3.7,5.7,4.6,11.4
	C125.6,455.8,123,485,123,485z"/>
<path class="st17" d="M122.7,499.6h-8.1l-1.6-9.4l-0.8-5.2h10l0.2,5.2L122.7,499.6z"/>
<path class="st20" d="M122.7,499.6h-8.1l-1.2-7l-0.4-2.4h9.3l0.1,2.5L122.7,499.6z"/>
<path class="st18" d="M142.6,512.3h-30.5c-0.2-0.4-0.3-1-0.4-1.7c-0.2-2.6,0.6-6.7,1-9.3c0-0.3,0.1-0.6,0.1-0.8
	c0.1-0.4,0.1-0.8,0.1-1.1c0-2.1,1.9-1.8,1.9-1.8c3.1,3,6.6-1.5,8.6,0c0,0,0.1,0.1,0.3,0.2c0.2,0.1,0.4,0.3,0.8,0.6
	c0.5,0.4,1.2,1.1,2.2,2c2.4,2.2,6.5,3.6,10,5.1c0.4,0.2,0.9,0.4,1.2,0.6c0.3,0.1,0.6,0.3,0.8,0.4c2.9,1.5,3.8,3,4,4.1
	C143,511.7,142.6,512.3,142.6,512.3z"/>
<path class="st4" d="M142.6,512.3h-30.5c-0.2-0.4-0.3-1-0.4-1.7h31.1C143,511.7,142.6,512.3,142.6,512.3z"/>
<path class="st16" d="M51.4,412.8l1-3.1l2-5c0,0,20,7.8,34.8,4l0.2,2.6c0,0-8.8,7.1-21.9,5C54.4,414.2,51.4,412.8,51.4,412.8z"/>
<path class="st21" d="M166.9,409.1v2.2c0,1.2-0.9,2.3-2.1,2.3H22.1c-1.1,0-2.1-1-2.1-2.3v-2.2c0-1.2,0.9-2.3,2.1-2.3h142.8
	C166,406.8,166.9,407.8,166.9,409.1z"/>
<linearGradient id="SVGID_1_" gradientUnits="userSpaceOnUse" x1="116.5754" y1="223.3844" x2="116.5754" y2="114.9224" gradientTransform="matrix(1 0 0 -1 0 511.0394)">
	<stop  offset="0" style="stop-color:#E1E1E1;stop-opacity:0"/>
	<stop  offset="1" style="stop-color:#E1E1E1"/>
</linearGradient>
<path class="st22" d="M122.8,396.1l41.7-42.1v-58.5H74V342l-5.3,54.1H122.8z"/>
<path class="st20" d="M162.6,419H28.4c-0.6,0-1.1-0.4-1.1-0.9v-4.7h136.4v4.7C163.7,418.6,163.2,419,162.6,419z"/>
<path class="st20" d="M27.8,512.3l19-93.7h-6.7l-19,93.7H27.8z"/>
<path class="st20" d="M158.8,512.7l-19-93.7h6.7l19,93.7H158.8z"/>
<path class="st11" d="M81.2,406.7h47.9l0.5-1.8c0.3-1.1-0.5-2.3-1.7-2.3H83.7c-0.8,0-1.5,0.5-1.7,1.3L81.2,406.7z"/>
<path class="st11" d="M164.2,357.7l-8.2,34.6l-0.2,0.9l-0.6,2.3c-0.2,1-1.1,1.7-2.2,1.7H98c-1.4,0-2.5-1.3-2.2-2.7l8.9-37.8
	c0.2-1,1.1-1.7,2.2-1.7h55.1C163.5,355,164.6,356.3,164.2,357.7z"/>
<path class="st3" d="M109.2,355l-9.5,42.3H98c-1.4,0-2.5-1.3-2.2-2.7l8.9-37.8c0.2-1,1.1-1.7,2.2-1.7H109.2z"/>
<path class="st3" d="M125.1,397.3l-1.7,9.4h5.5l1.7-9.4H125.1z"/>
<path class="st11" d="M115.2,405l1.1-1.6c0.4-0.6,1.1-0.9,1.8-0.9h15.1c0.8,0,1.5,0.4,1.9,1.2l0.8,1.5c0.4,0.7-0.1,1.5-0.9,1.5H116
	C115.2,406.7,114.7,405.7,115.2,405z"/>
<path class="st11" d="M334,500.6l0.5,4.5l-5.7,7.1h-17c0-6,3.9-6.2,3.9-6.2l5.4-5.4H334z"/>
<path class="st11" d="M308.9,511.6l-31,0.5c0,0-0.6,0.1-0.8-2.1c0,0,0-2.4,2.6-3.3c2.5-0.9,14.7-6.3,15.1-6.5c0,0,0,0,0,0l12.9-2.3
	C308.5,500.6,308.9,511.6,308.9,511.6z"/>
<path class="st23" d="M335.5,304.2c-2,6.6-10.5,12.6-10.5,12.6c-0.9-4.8-3.4-5.8-3.4-5.8s8-3.3,12.1-8.2l-0.4-2.3l2.4,2.8
	C335.7,303.5,335.6,303.8,335.5,304.2z"/>
<path class="st23" d="M317.1,304.7l4.5,6.2c0,0-3.4,0.8-4.7,4.9c0,0-2.7-9.2-1.4-12.2l1.9-0.9L317.1,304.7z"/>
<path class="st11" d="M354.7,350.9c-0.7,4-11.4,8.2-11.4,8.2s0.7,9.8-1,11.3c-0.4,0.3-1.2,0.6-2.2,0.9c-3.5,0.8-9.5,1.1-9.5,1.1
	s-11.8,3.5-18.7,2.8c-6.8-0.6-11.7-7-11.7-7l-1.1,1.7c0,0-1.3-0.7-2.6-1.7c-1.4-1-2.9-2.4-3-3.5c-0.2-2.2,3-33.8,3-33.8
	s-25.8,3.5-29.9,1.8s-16-14.2-16-14.2c0-0.3,0.1-0.6,0.2-0.9c0.8-3.1,4.1-6.6,5.5-8.1c0.4-0.4,0.7-0.7,0.7-0.7l16.3,8.9
	c0,0,25.3-14.4,27.4-14.8c2.1-0.4,14.9,0.8,14.9,0.8c-1.3,3,1.4,12.2,1.4,12.2c1.3-4.2,4.7-4.9,4.7-4.9s2.4,1,3.4,5.8
	c0,0,8.6-5.9,10.5-12.6c12.9,0.9,14.3,5.1,14.3,5.1C352.8,314.4,355.4,346.9,354.7,350.9z"/>
<path class="st23" d="M263.5,317.1c-0.2-0.2-0.4-0.3-0.7-0.3c-0.2,0-0.5,0.1-0.7,0.3c-0.6,0.7-1.2,1.5-1.8,2.2
	c-0.2,0.2-0.3,0.4-0.3,0.7c0,0.2,0.1,0.5,0.3,0.7c0.2,0.2,0.4,0.3,0.7,0.3c0.2,0,0.5-0.1,0.7-0.3c0.6-0.7,1.2-1.5,1.8-2.2
	c0.2-0.2,0.3-0.4,0.3-0.7C263.8,317.6,263.7,317.3,263.5,317.1z"/>
<path class="st23" d="M269.3,326.5c-0.5-1.1-1.1-2.3-1.6-3.4c-0.2-0.5-0.9-0.6-1.3-0.3c-0.5,0.3-0.6,0.8-0.3,1.3
	c0.5,1.1,1.1,2.3,1.6,3.4c0.2,0.5,0.9,0.6,1.3,0.3C269.4,327.5,269.5,326.9,269.3,326.5z"/>
<path class="st23" d="M279.9,325.1c-0.9-1.1-1.7-2.1-2.6-3.2c-0.1-0.2-0.5-0.3-0.7-0.3c-0.2,0-0.5,0.1-0.7,0.3
	c-0.2,0.2-0.3,0.4-0.3,0.7c0,0.3,0.1,0.5,0.3,0.7c0.9,1.1,1.7,2.1,2.6,3.2c0.1,0.2,0.5,0.3,0.7,0.3c0.2,0,0.5-0.1,0.7-0.3
	c0.2-0.2,0.3-0.4,0.3-0.7C280.1,325.5,280,325.3,279.9,325.1z"/>
<path class="st23" d="M290.5,317.1c-1.3-0.1-2.7-0.3-4-0.4c-0.5-0.1-1,0.5-1,1c0,0.6,0.4,0.9,1,1c1.3,0.1,2.7,0.3,4,0.4
	c0.5,0.1,1-0.5,1-1C291.5,317.5,291.1,317.2,290.5,317.1z"/>
<path class="st23" d="M299.8,313.7c-0.8-0.9-1.6-1.9-2.4-2.8c-0.2-0.2-0.5-0.3-0.7-0.3c-0.2,0-0.5,0.1-0.7,0.3
	c-0.2,0.2-0.3,0.4-0.3,0.7c0,0.3,0.1,0.5,0.3,0.7c0.8,0.9,1.6,1.9,2.4,2.8c0.2,0.2,0.4,0.3,0.7,0.3c0.2,0,0.5-0.1,0.7-0.3
	c0.2-0.2,0.3-0.4,0.3-0.7C300.1,314.1,300,313.9,299.8,313.7z"/>
<path class="st23" d="M294.7,320.4c-0.5,0-1,0.4-1,1c0,1.1,0,2.1,0,3.2c0,0.5,0.4,1,1,1c0.5,0,1-0.4,1-1c0-1.1,0-2.1,0-3.2
	C295.6,320.9,295.2,320.4,294.7,320.4z"/>
<path class="st23" d="M256.6,319.8c-0.3-0.7-0.7-1.5-1-2.2c-0.1-0.2-0.4-0.4-0.6-0.4c-0.2-0.1-0.5,0-0.7,0.1
	c-0.2,0.1-0.4,0.3-0.4,0.6c0,0.1,0,0.2,0,0.3c0,0.2,0,0.3,0.1,0.5c0.3,0.7,0.7,1.5,1,2.2c0.1,0.2,0.4,0.4,0.6,0.4
	c0.2,0.1,0.5,0,0.7-0.1c0.2-0.1,0.4-0.3,0.4-0.6c0-0.1,0-0.2,0-0.3C256.7,320.1,256.7,319.9,256.6,319.8z"/>
<path class="st23" d="M311,311.8c-1.4-0.6-2.8-1.2-4.2-1.8c-0.2-0.1-0.5-0.2-0.7-0.1c-0.2,0.1-0.5,0.2-0.6,0.4
	c-0.2,0.4-0.1,1.1,0.3,1.3c1.4,0.6,2.8,1.2,4.2,1.8c0.2,0.1,0.5,0.2,0.7,0.1c0.2-0.1,0.5-0.2,0.6-0.4
	C311.5,312.7,311.4,312,311,311.8z"/>
<path class="st23" d="M313.1,319.1c-0.7-0.5-1.3-1.1-2-1.6c-0.1-0.1-0.2-0.2-0.3-0.2c-0.1-0.1-0.2-0.1-0.4-0.1
	c-0.2,0-0.5,0.1-0.7,0.3c-0.2,0.2-0.3,0.4-0.3,0.7c0,0.2,0.1,0.5,0.3,0.7c0.7,0.5,1.3,1.1,2,1.6c0.1,0.1,0.2,0.2,0.3,0.2
	c0.1,0.1,0.2,0.1,0.4,0.1c0.2,0,0.5-0.1,0.7-0.3c0.2-0.2,0.3-0.4,0.3-0.7C313.4,319.6,313.3,319.3,313.1,319.1z"/>
<path class="st23" d="M306.3,323.9c-0.1-0.2-0.3-0.4-0.6-0.4c-0.5-0.1-1.1,0.1-1.2,0.7c-0.2,1.2-0.4,2.4-0.6,3.6
	c0,0.3,0,0.5,0.1,0.7c0.1,0.2,0.3,0.4,0.6,0.4c0.5,0.1,1.1-0.1,1.2-0.7c0.2-1.2,0.4-2.4,0.6-3.6
	C306.5,324.4,306.5,324.1,306.3,323.9z"/>
<path class="st23" d="M320.4,327.9c-0.1-0.5-0.7-0.9-1.2-0.7c-1.2,0.5-2.4,0.9-3.6,1.4c-0.2,0.1-0.4,0.2-0.6,0.4
	c-0.1,0.2-0.2,0.5-0.1,0.7c0.1,0.5,0.7,0.9,1.2,0.7c1.2-0.5,2.4-0.9,3.6-1.4c0.2-0.1,0.4-0.2,0.6-0.4
	C320.4,328.4,320.4,328.1,320.4,327.9z"/>
<path class="st23" d="M328.1,320.3c-1.3-0.3-2.5-0.7-3.8-1c-0.5-0.1-1.1,0.2-1.2,0.7c-0.1,0.5,0.1,1,0.7,1.2c1.3,0.3,2.5,0.7,3.8,1
	c0.5,0.1,1.1-0.2,1.2-0.7C328.9,320.9,328.6,320.4,328.1,320.3z"/>
<path class="st23" d="M338.7,322.2c-1-0.5-2-1.1-3-1.6c-0.4-0.2-1.1-0.1-1.3,0.3c-0.2,0.4-0.1,1.1,0.3,1.3c1,0.5,2,1.1,3,1.6
	c0.4,0.2,1.1,0.1,1.3-0.3C339.2,323,339.1,322.4,338.7,322.2z"/>
<path class="st23" d="M287.1,326.4c-1.1-0.4-2.2-0.7-3.3-1.1c-0.5-0.2-1.1,0.2-1.2,0.7c-0.1,0.5,0.2,1,0.7,1.2
	c1.1,0.4,2.2,0.7,3.3,1.1c0.5,0.2,1.1-0.2,1.2-0.7C287.9,327,287.7,326.5,287.1,326.4z"/>
<path class="st23" d="M306,304.9c-0.2-0.5-0.6-0.8-1.2-0.7c-1.6,0.3-3.1,0.6-4.7,0.9c-0.5,0.1-0.8,0.7-0.7,1.2
	c0.2,0.5,0.6,0.8,1.2,0.7c1.6-0.3,3.1-0.6,4.7-0.9C305.9,306,306.2,305.4,306,304.9z"/>
<path class="st23" d="M323.2,336.8c-0.2-0.5-0.7-0.8-1.2-0.7c-1.6,0.4-3.3,0.9-4.9,1.3c-0.5,0.1-0.8,0.7-0.7,1.2
	c0.2,0.5,0.7,0.8,1.2,0.7c1.6-0.4,3.3-0.9,4.9-1.3C323,337.8,323.3,337.3,323.2,336.8z"/>
<path class="st23" d="M282.7,315.3c-0.1-0.2-0.2-0.5-0.4-0.6c-0.4-0.2-1.1-0.1-1.3,0.3c-0.5,1.2-1.1,2.5-1.6,3.7
	c-0.1,0.2-0.2,0.5-0.1,0.7c0.1,0.2,0.2,0.5,0.4,0.6c0.4,0.2,1.1,0.1,1.3-0.3c0.5-1.2,1.1-2.5,1.6-3.7
	C282.7,315.8,282.8,315.6,282.7,315.3z"/>
<path class="st23" d="M260.9,312.7c-1.4-0.2-2.8-0.3-4.1-0.5c-0.5-0.1-1,0.5-1,1c0,0.6,0.4,0.9,1,1c1.4,0.2,2.8,0.3,4.1,0.5
	c0.5,0.1,1-0.5,1-1C261.8,313.1,261.4,312.8,260.9,312.7z"/>
<path class="st23" d="M274.5,327.7c-0.4-0.3-1-0.4-1.4,0c-1,1-2,2.1-3,3.1c-0.3,0.4-0.4,1,0,1.4c0.4,0.3,1,0.4,1.4,0l3-3.1
	C274.9,328.7,274.9,328.1,274.5,327.7z"/>
<path class="st23" d="M310.4,339.5c-1.2-1.2-2.4-2.5-3.6-3.7c-0.4-0.4-1-0.4-1.4,0c-0.4,0.4-0.4,1,0,1.4c1.2,1.2,2.4,2.5,3.6,3.7
	c0.4,0.4,1,0.4,1.4,0C310.7,340.5,310.8,339.9,310.4,339.5z"/>
<path class="st23" d="M303.2,345.8c-0.3-1.7-0.6-3.4-0.9-5c-0.1-0.5-0.7-0.8-1.2-0.7c-0.5,0.2-0.8,0.6-0.7,1.2
	c0.3,1.7,0.6,3.4,0.9,5c0.1,0.5,0.7,0.8,1.2,0.7C303,346.8,303.3,346.4,303.2,345.8z"/>
<path class="st23" d="M312.4,350c-0.6-1.3-1.2-2.6-1.8-3.9c-0.2-0.5-0.9-0.6-1.3-0.3c-0.5,0.3-0.6,0.8-0.3,1.3
	c0.6,1.3,1.2,2.6,1.8,3.9c0.2,0.5,0.9,0.6,1.3,0.3C312.5,351,312.6,350.5,312.4,350z"/>
<path class="st23" d="M303.3,352.7c-1-0.5-2-1-3-1.5c-0.4-0.2-1.1-0.1-1.3,0.3c-0.2,0.4-0.1,1.1,0.3,1.3c1,0.5,2,1,3,1.5
	c0.4,0.2,1.1,0.1,1.3-0.3C303.9,353.5,303.8,352.9,303.3,352.7z"/>
<path class="st23" d="M309.4,360c-0.3-0.5-0.8-0.6-1.3-0.3c-1.3,0.6-2.6,1.2-3.9,1.8c-0.5,0.2-0.6,0.9-0.3,1.3
	c0.3,0.5,0.8,0.6,1.3,0.3c1.3-0.6,2.6-1.2,3.9-1.8C309.5,361.1,309.6,360.4,309.4,360z"/>
<path class="st23" d="M318.3,359.7c-0.5-0.8-1.1-1.7-1.6-2.5c-0.1-0.2-0.3-0.4-0.6-0.4c-0.2-0.1-0.5,0-0.7,0.1
	c-0.4,0.3-0.6,0.9-0.3,1.3c0.5,0.8,1.1,1.7,1.6,2.5c0.1,0.2,0.3,0.4,0.6,0.4c0.2,0.1,0.5,0,0.7-0.1
	C318.4,360.7,318.6,360.1,318.3,359.7z"/>
<path class="st23" d="M324,348.7c-0.1-0.5-0.7-0.9-1.2-0.7c-1.3,0.5-2.6,1-3.9,1.5c-0.2,0.1-0.4,0.2-0.6,0.4
	c-0.1,0.2-0.2,0.5-0.1,0.7c0.1,0.5,0.7,0.9,1.2,0.7c1.3-0.5,2.6-1,3.9-1.5c0.2-0.1,0.4-0.2,0.6-0.4C324,349.2,324.1,348.9,324,348.7
	z"/>
<path class="st23" d="M328.3,341.1c-1.2,0-2.4,0-3.5,0c-0.5,0-1,0.4-1,1c0,0.5,0.4,1,1,1c1.2,0,2.4,0,3.5,0c0.5,0,1-0.4,1-1
	C329.2,341.5,328.8,341.1,328.3,341.1z"/>
<path class="st23" d="M328.7,330.4c-0.5,0-0.9,0.4-1,1c0,1.2-0.1,2.4-0.1,3.6c0,0.5,0.4,1,1,1c0.5,0,0.9-0.4,1-1
	c0-1.2,0.1-2.4,0.1-3.6C329.7,330.9,329.2,330.4,328.7,330.4z"/>
<path class="st23" d="M336.7,328.9c-1.2-0.6-2.3-1.2-3.5-1.8c-0.4-0.2-1.1-0.1-1.3,0.3c-0.2,0.4-0.1,1.1,0.3,1.3
	c1.2,0.6,2.3,1.2,3.5,1.8c0.4,0.2,1.1,0.1,1.3-0.3C337.3,329.8,337.2,329.1,336.7,328.9z"/>
<path class="st23" d="M341.1,313.2c-0.4-0.2-1-0.1-1.3,0.3c-0.5,0.9-0.9,1.7-1.4,2.6c-0.2,0.4-0.1,1.1,0.3,1.3
	c0.4,0.2,1,0.1,1.3-0.3c0.5-0.9,0.9-1.7,1.4-2.6C341.7,314.1,341.6,313.4,341.1,313.2z"/>
<path class="st23" d="M336.1,311.6c-0.1-0.2-0.2-0.5-0.4-0.6c-0.2-0.1-0.5-0.2-0.7-0.1c-0.2,0.1-0.4,0.2-0.6,0.4
	c-0.3,0.5-0.6,1.1-1,1.6c-0.1,0.2-0.2,0.5-0.1,0.7c0.1,0.2,0.2,0.5,0.4,0.6c0.2,0.1,0.5,0.2,0.7,0.1c0.2-0.1,0.4-0.2,0.6-0.4
	c0.3-0.5,0.6-1.1,1-1.6C336.2,312.2,336.2,311.9,336.1,311.6z"/>
<path class="st23" d="M347.1,311.4l-2.3-2.3c-0.4-0.4-1-0.4-1.4,0c-0.4,0.4-0.4,1,0,1.4l2.3,2.3c0.4,0.4,1,0.4,1.4,0
	C347.5,312.4,347.5,311.8,347.1,311.4z"/>
<path class="st23" d="M350.9,321.2c-0.4-0.8-0.8-1.5-1.2-2.3c-0.1-0.2-0.4-0.4-0.6-0.4c-0.2-0.1-0.5,0-0.7,0.1
	c-0.2,0.1-0.4,0.3-0.4,0.6c-0.1,0.3,0,0.5,0.1,0.7c0.4,0.8,0.8,1.5,1.2,2.3c0.1,0.2,0.4,0.4,0.6,0.4c0.2,0.1,0.5,0,0.7-0.1
	c0.2-0.1,0.4-0.3,0.4-0.6C351.1,321.7,351,321.5,350.9,321.2z"/>
<path class="st23" d="M345.7,324.4c-0.5-0.1-1,0.2-1.2,0.7c-0.3,0.9-0.5,1.9-0.8,2.8c-0.1,0.5,0.2,1.1,0.7,1.2
	c0.5,0.1,1-0.2,1.2-0.7c0.3-0.9,0.5-1.9,0.8-2.8C346.5,325,346.2,324.5,345.7,324.4z"/>
<path class="st23" d="M339.3,334.3c-0.5,0-0.9,0.4-1,1c0,0.9-0.1,1.7-0.1,2.6c0,0.5,0.5,1,1,1c0.5,0,0.9-0.4,1-1
	c0-0.9,0.1-1.7,0.1-2.6C340.3,334.8,339.8,334.3,339.3,334.3z"/>
<path class="st23" d="M348.6,337.2c-0.6-0.7-1.3-1.4-1.9-2.1c-0.3-0.4-1-0.4-1.4,0c-0.4,0.4-0.4,1,0,1.4c0.6,0.7,1.3,1.4,1.9,2.1
	c0.3,0.4,1,0.4,1.4,0C349,338.1,349,337.6,348.6,337.2z"/>
<path class="st23" d="M353,344.4c-0.4-0.5-0.8-1.1-1.2-1.6c-0.1-0.1-0.1-0.2-0.2-0.3c-0.1-0.1-0.2-0.1-0.3-0.2
	c-0.2-0.1-0.5,0-0.7,0.1c-0.2,0.1-0.4,0.3-0.4,0.6c-0.1,0.2-0.1,0.5,0.1,0.7c0.4,0.5,0.8,1.1,1.2,1.6c0.1,0.1,0.1,0.2,0.2,0.3
	c0.1,0.1,0.2,0.1,0.3,0.2c0.2,0.1,0.5,0,0.7-0.1c0.2-0.1,0.4-0.3,0.4-0.6C353.2,344.9,353.2,344.7,353,344.4z"/>
<path class="st23" d="M349,348.4c-0.1-0.2-0.3-0.4-0.6-0.4c-0.2-0.1-0.5,0-0.7,0.1c-0.2,0.1-0.3,0.3-0.4,0.6c-0.4,1-0.8,2-1.2,3
	c-0.1,0.2,0,0.5,0.1,0.7c0.1,0.2,0.3,0.4,0.6,0.4c0.2,0.1,0.5,0,0.7-0.1c0.2-0.1,0.3-0.3,0.4-0.6c0.4-1,0.8-2,1.2-3
	C349.2,349,349.1,348.6,349,348.4z"/>
<path class="st23" d="M344,343.3c-0.1-0.2-0.2-0.5-0.4-0.6c-0.5-0.3-1-0.1-1.3,0.3c-0.6,0.9-1.2,1.8-1.9,2.8
	c-0.1,0.2-0.2,0.5-0.1,0.7c0.1,0.2,0.2,0.5,0.4,0.6c0.5,0.3,1,0.1,1.3-0.3c0.6-0.9,1.2-1.8,1.9-2.8
	C344.1,343.8,344.1,343.5,344,343.3z"/>
<path class="st23" d="M342.2,353.4c-1-0.8-2-1.7-3-2.5c-0.2-0.2-0.4-0.3-0.7-0.3c-0.2,0-0.5,0.1-0.7,0.3c-0.3,0.4-0.4,1,0,1.4
	c1,0.8,2,1.7,3,2.5c0.2,0.2,0.4,0.3,0.7,0.3c0.2,0,0.5-0.1,0.7-0.3C342.5,354.4,342.6,353.7,342.2,353.4z"/>
<path class="st23" d="M333.8,345c-0.5,0-0.9,0.4-1,1l-0.1,4c0,0.5,0.4,1,1,1c0.5,0,0.9-0.4,1-1l0.1-4
	C334.8,345.5,334.3,345,333.8,345z"/>
<path class="st23" d="M330.1,355.3l-1.2-2.7c-0.1-0.2-0.4-0.4-0.6-0.4c-0.2-0.1-0.5,0-0.7,0.1c-0.2,0.1-0.4,0.3-0.4,0.6
	c-0.1,0.3,0,0.5,0.1,0.7c0.4,0.9,0.8,1.8,1.2,2.7c0.1,0.2,0.4,0.4,0.6,0.4c0.2,0.1,0.5,0,0.7-0.1c0.2-0.1,0.4-0.3,0.4-0.6
	C330.3,355.8,330.2,355.6,330.1,355.3z"/>
<path class="st23" d="M332.6,361.2c-1.1,0.1-2.1,0.1-3.2,0.2c-0.5,0-1,0.4-1,1c0,0.5,0.4,1,1,1c1.1-0.1,2.1-0.1,3.2-0.2
	c0.5,0,1-0.4,1-1C333.6,361.7,333.2,361.2,332.6,361.2z"/>
<path class="st23" d="M340.4,359.8c-0.7-0.7-1.4-1.5-2.1-2.2c-0.2-0.2-0.4-0.3-0.7-0.3c-0.2,0-0.5,0.1-0.7,0.3c-0.4,0.4-0.4,1,0,1.4
	c0.7,0.7,1.4,1.5,2.1,2.2c0.2,0.2,0.4,0.3,0.7,0.3c0.2,0,0.5-0.1,0.7-0.3C340.8,360.7,340.8,360.1,340.4,359.8z"/>
<path class="st23" d="M341,367.8c-0.4-1.1-0.8-2.1-1.2-3.2c-0.1-0.2-0.2-0.4-0.4-0.6c-0.2-0.1-0.5-0.2-0.7-0.1
	c-0.5,0.1-0.9,0.7-0.7,1.2c0.4,1.1,0.8,2.1,1.2,3.2c0.1,0.2,0.2,0.4,0.4,0.6c0.2,0.1,0.5,0.2,0.7,0.1
	C340.8,368.8,341.2,368.3,341,367.8z"/>
<path class="st23" d="M333.7,366.1c-0.5-0.1-1,0.2-1.2,0.7c-0.4,1.1-0.8,2.1-1.2,3.2c-0.2,0.5,0.2,1.1,0.7,1.2
	c0.5,0.1,1-0.2,1.2-0.7c0.4-1.1,0.8-2.1,1.2-3.2C334.6,366.8,334.2,366.2,333.7,366.1z"/>
<path class="st23" d="M326.7,370.1c0-0.1-0.1-0.2-0.1-0.2c-0.1-0.1-0.2-0.3-0.3-0.3c-0.7-0.6-1.5-1.1-2.2-1.7
	c-0.2-0.1-0.5-0.2-0.7-0.1c-0.2,0.1-0.5,0.2-0.6,0.4c-0.1,0.2-0.2,0.5-0.1,0.7c0,0.1,0.1,0.2,0.1,0.2c0.1,0.1,0.2,0.3,0.3,0.3
	l2.2,1.7c0.2,0.1,0.5,0.2,0.7,0.1c0.2-0.1,0.5-0.2,0.6-0.4C326.7,370.6,326.8,370.3,326.7,370.1z"/>
<path class="st23" d="M323.5,358.2c-0.5-0.1-1,0.2-1.2,0.7c-0.3,1-0.6,2-1,3c-0.2,0.5,0.2,1.1,0.7,1.2c0.5,0.1,1-0.2,1.2-0.7
	c0.3-1,0.6-2,1-3C324.3,358.9,324,358.3,323.5,358.2z"/>
<path class="st23" d="M318.7,369.3c-0.6-0.8-1.2-1.7-1.9-2.5c-0.2-0.2-0.3-0.4-0.6-0.4c-0.2-0.1-0.5,0-0.7,0.1
	c-0.2,0.1-0.4,0.3-0.4,0.6c-0.1,0.2-0.1,0.5,0.1,0.7c0.6,0.8,1.2,1.7,1.9,2.5c0.2,0.2,0.3,0.4,0.6,0.4c0.2,0.1,0.5,0,0.7-0.1
	c0.2-0.1,0.4-0.3,0.4-0.6C318.8,369.8,318.8,369.5,318.7,369.3z"/>
<path class="st23" d="M309.9,366.4c-0.2-0.2-0.4-0.3-0.7-0.3c-0.2,0-0.5,0.1-0.7,0.3c-0.2,0.2-0.3,0.4-0.3,0.7
	c-0.1,0.9-0.2,1.7-0.3,2.6c0,0.2,0.1,0.5,0.3,0.7c0.2,0.2,0.4,0.3,0.7,0.3c0.2,0,0.5-0.1,0.7-0.3c0.2-0.2,0.3-0.4,0.3-0.7
	c0.1-0.9,0.2-1.7,0.3-2.6C310.2,366.8,310.1,366.6,309.9,366.4z"/>
<path class="st23" d="M299,360c-0.5-0.1-1,0.2-1.2,0.7c-0.3,0.9-0.5,1.8-0.8,2.7c-0.1,0.5,0.2,1.1,0.7,1.2c0.5,0.1,1-0.2,1.2-0.7
	c0.3-0.9,0.5-1.8,0.8-2.7C299.8,360.7,299.5,360.1,299,360z"/>
<path class="st23" d="M301.1,333.2c-0.1-0.2-0.2-0.5-0.4-0.6c-0.5-0.2-1-0.1-1.3,0.3c-0.4,0.7-0.8,1.4-1.3,2
	c-0.1,0.2-0.2,0.5-0.1,0.7c0.1,0.2,0.2,0.5,0.4,0.6c0.5,0.2,1,0.1,1.3-0.3c0.4-0.7,0.8-1.4,1.3-2
	C301.2,333.7,301.2,333.4,301.1,333.2z"/>
<path class="st23" d="M311.7,327.7c0-0.5-0.4-1-1-1c-0.5,0-1,0.4-1,1c0.1,1.3,0.1,2.5,0.2,3.8c0,0.5,0.4,1,1,1c0.5,0,1-0.4,1-1
	C311.8,330.2,311.8,328.9,311.7,327.7z"/>
<path class="st23" d="M320.1,321.3c-0.2-0.9-0.5-1.8-0.7-2.7c-0.1-0.5-0.7-0.8-1.2-0.7c-0.5,0.2-0.8,0.7-0.7,1.2
	c0.2,0.9,0.5,1.8,0.7,2.7c0.1,0.5,0.7,0.8,1.2,0.7C320,322.3,320.3,321.8,320.1,321.3z"/>
<path class="st23" d="M303.5,320.1c-0.3-0.4-0.9-0.6-1.3-0.3c-1,0.7-2.1,1.4-3.1,2c-0.4,0.3-0.6,0.9-0.3,1.3
	c0.3,0.4,0.9,0.6,1.3,0.3c1-0.7,2.1-1.4,3.1-2C303.5,321.1,303.7,320.6,303.5,320.1z"/>
<path class="st23" d="M292.2,313c-0.1-0.2-0.2-0.5-0.4-0.6c-0.7-0.3-1.4-0.7-2.1-1c-0.2-0.1-0.5-0.2-0.7-0.1
	c-0.2,0.1-0.5,0.2-0.6,0.4c-0.1,0.2-0.2,0.5-0.1,0.7c0.1,0.2,0.2,0.5,0.4,0.6c0.7,0.3,1.4,0.6,2.1,1c0.2,0.1,0.5,0.2,0.7,0.1
	c0.2-0.1,0.5-0.2,0.6-0.4C292.2,313.5,292.3,313.2,292.2,313z"/>
<path class="st23" d="M272.1,321.2c0-0.2-0.1-0.3-0.2-0.4c-0.7-0.9-1.4-1.8-2.1-2.7c-0.1-0.2-0.5-0.3-0.7-0.3
	c-0.2,0-0.5,0.1-0.7,0.3c-0.2,0.2-0.3,0.4-0.3,0.7c0,0.1,0,0.2,0,0.3c0,0.2,0.1,0.3,0.2,0.4c0.7,0.9,1.4,1.8,2.1,2.7
	c0.1,0.2,0.5,0.3,0.7,0.3c0.2,0,0.5-0.1,0.7-0.3c0.2-0.2,0.3-0.4,0.3-0.7C272.1,321.4,272.1,321.3,272.1,321.2z"/>
<path class="st4" d="M342.5,386.3c0.5,5.5-7.5,114.3-7.5,114.3h-1h-13h-1.8l-4.2-93.3l-9,31.2l2.8,59.2l-1.1,0.2l-12.9,2.3
	c0,0,0,0,0,0l-1.9,0.3c0,0-11.1-66.4-11-70.3c0.1-3.7,12.7-54.4,14.6-62.1c1.3,1,2.6,1.7,2.6,1.7l1.1-1.7c0,0,4.9,6.4,11.7,7
	c6.8,0.6,18.7-2.8,18.7-2.8s6-0.3,9.5-1.1C340.6,373.8,342.1,381.7,342.5,386.3z"/>
<path class="st24" d="M338.6,278.2c0.2,0.5,0.1,1,0.1,1.5c-0.3,2-1,3.9-1.9,5.6c-0.4-0.6-1.1-1.1-1.8-1.3c-0.4-0.1-0.8-0.1-1.3-0.1
	c0,0-2.5-2.7-2.5-5.5c0-2.8-1.3-4.7-1.3-4.7s-8.6,2.4-13.4-0.6c0,0-1.2,0.7-2.1,1.9c-0.4,0.5-0.7,1.2-0.8,2
	c-0.2,0.8-0.4,1.7-0.4,2.6h0c0,0,0,0.2-0.1,0.6c-0.8-0.2-1.5-0.8-1.7-1.7c-0.2-0.8,0.1-1.8,0.8-2.3c-0.5-0.8-0.6-1.9-0.1-2.7
	c0.5-0.8,1.4-1.3,2.4-1.2c-0.2-1,0.2-2.1,1-2.8c0.8-0.7,1.9-0.9,2.9-0.6c0.3-1.1,1.2-2,2.3-2.3c1.1-0.3,2.3,0,3.1,0.8
	c0-1,1.1-1.7,2.1-1.5c1,0.2,1.7,0.9,2.3,1.7c0.7-0.8,1.8-1.1,2.7-0.8c1,0.3,1.7,1.2,1.9,2.2c0.4-0.6,1.3-0.7,1.9-0.3
	c0.6,0.3,1,1,1.1,1.7c0.1,0.7,0.1,1.4-0.1,2.1c1-0.4,2.2,0.6,2.4,1.6c0.2,1.1-0.2,2.2-0.6,3.2C338,277.3,338.4,277.7,338.6,278.2z"
	/>
<path class="st11" d="M336.7,285.3c0.1,0.2,0.2,0.3,0.3,0.5c0.4,0.9,0.5,1.9,0.3,2.8c-0.2,1.4-1,2.6-2.1,3.5c-0.9,0.7-2,1.1-3.2,1.1
	c-1.4,6.6-7.8,8.5-8.9,9.1c-0.8,0.4-3.7,0.5-5.7,0.2c-0.8-0.1-1.5-0.3-1.8-0.6c-1.1-0.9-2.9-6.1-3.3-9.1c-0.3-2.6,0.4-10.4,0.7-12.6
	v0c0-0.4,0.1-0.6,0.1-0.6h0c0-0.9,0.2-1.7,0.4-2.6c0.2-0.7,0.5-1.3,0.8-2c0.9-1.3,2.1-1.9,2.1-1.9c4.8,3,13.4,0.6,13.4,0.6
	s1.3,1.9,1.3,4.7c0,2.8,2.5,5.5,2.5,5.5c0.4-0.1,0.9,0,1.3,0.1C335.6,284.2,336.3,284.7,336.7,285.3z"/>
<path class="st11" d="M333.3,300.7l0.3,2c-3.9,4.9-12.1,8.2-12.1,8.2l-4.5-6.2c15.5,2,14.9-11.4,14.9-11.4L333.3,300.7z"/>
<path class="st24" d="M332.1,293.2c0,0,0.6,13.4-14.9,11.4l0.3-2l0-0.2c2,0.3,4.9,0.2,5.7-0.2C324.3,301.8,330.7,299.9,332.1,293.2z
	"/>
<path class="st11" d="M251.7,306.3l4.6,3.1c-1.5,1.4-4.7,4.9-5.5,8.1l-1.7-1.6c-4.8-0.4-6.9-4.2-6.9-4.2s-1.7,0-3.5-1
	c-1.7-1-2.6-2.1-2.6-2.9c0-0.9,0.6-1.2,0.6-1.2s-0.1-1.2-0.1-1.6c0-0.4,1.2-1.4,1.2-1.4s-0.7-2.1-0.6-2.6c0.1-0.5,2.1-1.1,2.1-1.1
	s-6.7-3.4-7.9-4.2c-1.2-0.8-2.1-3.7-0.6-3.5c1.4,0.2,16.7,7.3,17.2,8.1C248.5,301.1,251.7,306.3,251.7,306.3z"/>
<path class="st25" d="M318.7,284.4c0,0,0.7,2,0.4,4.4c-0.2,2.4-1.7,3.7-2.5,3.5c-0.8-0.2-2.1-1.4-1.9-2.6c0,0,0.4-0.8,1-1.4
	C316.4,287.7,318.7,284.4,318.7,284.4z"/>
<path class="st24" d="M317.5,293.1c0,0-0.1,0-0.1,0c-1.1-0.5-2-1.2-2.7-2.2c-0.4-0.6-0.4-1.4,0.2-2c1.5-1.6,2.9-3.4,4-5.3
	c0.1-0.2,0.3-0.2,0.4-0.1c0.2,0.1,0.2,0.3,0.1,0.4c-1.2,2-2.5,3.8-4.1,5.4c-0.3,0.3-0.4,0.9-0.1,1.2c0.6,0.9,1.5,1.6,2.5,2
	c0.2,0.1,0.2,0.3,0.2,0.4C317.8,293,317.7,293.1,317.5,293.1z"/>
<path class="st24" d="M323.5,286.9c0.8,0,1.4-0.7,1.4-1.6s-0.6-1.6-1.4-1.6c-0.8,0-1.4,0.7-1.4,1.6S322.8,286.9,323.5,286.9z"/>
<path class="st24" d="M314.7,286.9c0.8,0,1.4-0.7,1.4-1.6s-0.6-1.6-1.4-1.6c-0.8,0-1.4,0.7-1.4,1.6S313.9,286.9,314.7,286.9z"/>
<path class="st24" d="M322.9,280.3c1.2,0.1,2.4,0.4,3.5,0.9c0.2,0.1,0.4,0.3,0.4,0.6c0.1,0.2,0,0.5-0.1,0.7
	c-0.1,0.2-0.3,0.4-0.6,0.4c-0.3,0.1-0.5,0-0.7-0.1c-0.1,0-0.1-0.1-0.2-0.1c-0.7-0.3-1.4-0.5-2.1-0.6c-0.1,0-0.2,0-0.3,0
	c-0.2,0-0.5-0.1-0.7-0.3c-0.2-0.2-0.3-0.4-0.3-0.7C322,280.7,322.4,280.2,322.9,280.3z"/>
<path class="st24" d="M312.4,282.5c0,0.2,0.3,0.4,0.6,0.4c0.3,0.1,0.5,0,0.7-0.1c0.1,0,0.1-0.1,0.2-0.1c0.7-0.3,1.4-0.5,2.1-0.6
	c0.1,0,0.2,0,0.3,0c0.2,0,0.5-0.1,0.7-0.3c0.2-0.2,0.3-0.4,0.3-0.7c0-0.5-0.4-1-0.9-0.9c-1.2,0.1-2.4,0.4-3.5,0.9
	C312.8,281.2,312.3,281.6,312.4,282.5z"/>
<path class="st3" d="M315.8,295.8c0.5,0.9,1.8,2.6,4.3,2.2c2.3-0.4,2.9-2.5,3-3.6c0-0.3-0.3-0.6-0.6-0.6l-6.4,1.3
	C315.9,295.2,315.7,295.5,315.8,295.8z"/>
<path class="st24" d="M332.7,291.6C332.7,291.6,332.7,291.6,332.7,291.6c-0.2,0-0.3-0.2-0.3-0.3c0.2-2,1.2-4,2.9-5.2
	c0.1-0.1,0.3-0.1,0.4,0.1c0.1,0.1,0.1,0.3-0.1,0.4c-1.5,1.1-2.4,2.9-2.6,4.8C333,291.5,332.9,291.6,332.7,291.6z"/>
<path class="st24" d="M295.7,340.8C295.6,340.8,295.6,340.8,295.7,340.8c-0.2,0-0.3-0.2-0.3-0.4l0.9-9.6c0.6-5.6-0.2-8.7-0.3-8.7
	c0-0.2,0.1-0.3,0.2-0.4c0.2,0,0.3,0.1,0.4,0.2c0,0.1,0.9,3.2,0.3,9l-0.9,9.6C296,340.7,295.8,340.8,295.7,340.8z"/>
<path class="st24" d="M305.2,373c-0.1,0-0.1,0-0.2-0.1c-6.6-4.3-9-9.8-9.1-10.1c-0.1-0.2,0-0.3,0.2-0.4c0.2-0.1,0.4,0,0.4,0.2
	c0,0.1,2.5,5.6,8.9,9.8c0.1,0.1,0.2,0.3,0.1,0.4C305.4,372.9,305.3,373,305.2,373z"/>
<path class="st24" d="M338.8,344c-0.2,0-0.3-0.1-0.3-0.3L337,324c0-0.2,0.1-0.3,0.3-0.3c0.2,0,0.3,0.1,0.3,0.3l1.5,19.7
	C339.2,343.9,339,344,338.8,344C338.9,344,338.9,344,338.8,344z"/>
<path class="st24" d="M273.7,321.4c-0.2,0-0.3-0.1-0.3-0.3l-0.4-3.4c0-0.2,0.1-0.3,0.3-0.4c0.2,0,0.3,0.1,0.4,0.3l0.4,3.4
	C274,321.2,273.9,321.4,273.7,321.4C273.7,321.4,273.7,321.4,273.7,321.4z"/>
<path class="st24" d="M244.7,308.9c-0.1,0-0.1,0-0.2,0c-2.8-1.7-1.9-4.9-1.6-5.7l-0.6-0.5c-0.3,0.1-1,0.4-2,0.7
	c-1.6,0.5-2.5-1.6-2.6-1.7c-0.1-0.1,0-0.3,0.1-0.4c0.3-0.2,2.9-1.8,3.8-2c0.8-0.2,3.8-0.5,3.9-0.5c0.2,0,0.3,0.1,0.4,0.3
	c0,0.2-0.1,0.3-0.3,0.4c0,0-3.1,0.3-3.9,0.5c-0.6,0.1-2.4,1.2-3.3,1.8c0.3,0.4,0.9,1.3,1.7,1.1c1.3-0.4,2.1-0.8,2.1-0.8
	c0.1,0,0.2,0,0.3,0.1l0.9,0.8c0.1,0.1,0.1,0.2,0.1,0.4c-0.1,0.1-1.5,3.5,1.2,5.2c0.2,0.1,0.2,0.3,0.1,0.4
	C244.9,308.8,244.8,308.9,244.7,308.9z"/>
<path class="st24" d="M241.3,305.9c-0.2,0-0.4,0-0.7-0.1c-1-0.3-3-1.8-3-1.9c-0.1-0.1-0.2-0.3-0.1-0.4c0.1-0.1,0.3-0.2,0.4-0.1
	c0.5,0.4,2.1,1.5,2.8,1.7c0.8,0.2,1.8-0.3,1.8-0.3c0.2-0.1,0.4,0,0.4,0.1c0.1,0.2,0,0.3-0.1,0.4
	C242.9,305.5,242.2,305.9,241.3,305.9z"/>
<path class="st24" d="M240.6,308.7c-0.1,0-0.3,0-0.4,0c-1.9-0.1-3.6-1.7-3.7-1.8c-0.1-0.1-0.1-0.3,0-0.5c0.1-0.1,0.3-0.1,0.5,0
	c0,0,1.6,1.5,3.3,1.6c1.8,0.1,2.7-0.5,2.7-0.5c0,0,0-0.2,0.1-0.3c0-0.2,0.2-0.3,0.4-0.3c0.2,0,0.3,0.2,0.3,0.4
	c-0.1,0.4-0.2,0.6-0.3,0.7C243.2,308.2,242.3,308.7,240.6,308.7z"/>
<path class="st24" d="M242.2,312.1c-0.1,0-0.3-0.1-0.3-0.2c-0.1-0.2,0-0.3,0.2-0.4c0.4-0.2,0.9-0.4,0.9-0.6c0.1-0.4,0-1.5-0.1-1.7
	c-0.1-0.1-1-0.4-1.7-0.6c-0.2,0-0.3-0.2-0.2-0.4c0.1-0.2,0.2-0.3,0.4-0.2c0.4,0.1,1.6,0.5,1.9,0.7c0.5,0.3,0.4,2,0.3,2.4
	c-0.2,0.5-1,0.9-1.3,1C242.3,312.1,242.3,312.1,242.2,312.1z"/>
<path class="st24" d="M249.6,314.7C249.6,314.7,249.6,314.7,249.6,314.7c-0.2,0-0.3-0.2-0.3-0.4l1-5.8c0-0.2,0.2-0.3,0.4-0.3
	c0.2,0,0.3,0.2,0.3,0.4l-1,5.8C249.9,314.6,249.8,314.7,249.6,314.7z"/>
<path class="st18" d="M337.8,360.6l-13.5,3.8l-0.7-1.9l-3.2-11.6l10.7-4.2l-7.8-16.4l-20.1,9.5l-3.1,1.4l5.5,11.7l4.6,1.9h0
	l7.8,16.7l20.2-9.5l0.2-0.1L337.8,360.6z"/>
<path class="st11" d="M321,352.5l2.7,10l-4.4,1.1c0,0-3.5,2.1-5.8,1.9c-2.3-0.2-2.1-2.2-2.1-2.2s-1.3-0.3-1.1-1.9
	c0,0-1.8-0.8-1.7-1.6c0.1-0.8,0-1.3,0-1.3s-1.2-0.8-1.2-1.2c0-0.4,0.3-2.1,0.3-2.1s-3.7-0.3-3.6-2.6c0,0,0.3-0.6,1.4-0.4
	c1.1,0.2,4.6-0.8,6.8-1.1c2.2-0.3,6.6,1.9,6.6,1.9L321,352.5z"/>
<path class="st24" d="M310.5,355.8c-1.1,0-3.6-0.5-3.9-0.5c-0.2,0-0.3-0.2-0.3-0.4c0-0.2,0.2-0.3,0.4-0.3c1.3,0.3,3.5,0.6,4,0.5
	c0.2,0,0.3,0.1,0.4,0.3c0,0.2-0.1,0.3-0.3,0.4C310.8,355.8,310.7,355.8,310.5,355.8z"/>
<path class="st24" d="M309.7,358.8h-1.2c-0.2,0-0.3-0.1-0.3-0.3c0-0.2,0.1-0.3,0.3-0.3h1.2c0.2,0,0.3,0.1,0.3,0.3
	C310,358.7,309.9,358.8,309.7,358.8z"/>
<path class="st24" d="M311.3,361.7h-1.1c-0.2,0-0.3-0.1-0.3-0.3c0-0.2,0.1-0.3,0.3-0.3h1.1c0.2,0,0.3,0.1,0.3,0.3
	C311.7,361.6,311.5,361.7,311.3,361.7z"/>
<path class="st24" d="M312.8,363.6h-1.4c-0.2,0-0.3-0.1-0.3-0.3c0-0.2,0.1-0.3,0.3-0.3h1.4c0.2,0,0.3,0.1,0.3,0.3
	C313.1,363.4,312.9,363.6,312.8,363.6z"/>
<path class="st24" d="M324.4,364.7c-0.1,0-0.3-0.1-0.3-0.2l-0.7-1.9l-3.2-11.6c0-0.2,0-0.3,0.2-0.4l18.3-7.3c0,0,0,0,0.1,0
	c0.2,0,5-0.8,7.7,0.5c0.2,0.1,0.2,0.3,0.1,0.4c-0.1,0.2-0.3,0.2-0.4,0.1c-2.4-1.2-6.9-0.5-7.3-0.4l-18,7.1l3.1,11.3l0.6,1.6
	l18.6-5.2c0.2-0.1,0.3,0.1,0.4,0.2c0,0.2-0.1,0.3-0.2,0.4L324.4,364.7C324.4,364.7,324.4,364.7,324.4,364.7z"/>
<path class="st3" d="M323.4,330.4l-22.7,7l1.2,3.1L323.4,330.4z"/>
<path class="st24" d="M320.3,505.1c-0.1,0-0.1,0-0.2-0.1c-0.1-0.1-0.1-0.1-0.1-0.2c0-0.1,0-0.1,0-0.2c-1.9-1.6-3.7-3.3-5.5-5.1
	c-0.4-0.4-0.7-0.8-0.9-1.2c-0.2-0.6-0.1-1.2,0.2-1.6c0.4-0.4,1-0.5,1.6-0.3c0.5,0.2,0.9,0.5,1.2,0.8c1.9,1.8,3.2,4.2,3.8,6.7
	c2.7-2.3,6.3-3.6,9.8-3.4c0.3,0,0.6,0,0.9,0.2c0.3,0.2,0.6,0.6,0.4,1c-0.1,0.5-0.6,0.6-0.9,0.7C327.4,503.5,323.9,504.4,320.3,505.1
	C320.4,505.1,320.3,505.1,320.3,505.1z M329.6,501.1c-3.1,0-6.3,1.2-8.7,3.2c3.2-0.7,6.5-1.5,9.6-2.6c0.1,0,0.4-0.1,0.4-0.3
	c0-0.1-0.1-0.2-0.2-0.3c-0.2-0.1-0.4-0.1-0.6-0.1C330,501.1,329.8,501.1,329.6,501.1z M315,496.9c-0.2,0-0.4,0.1-0.6,0.2
	c-0.2,0.2-0.2,0.7-0.1,1c0.1,0.4,0.4,0.7,0.7,1c1.5,1.6,3.1,3.1,4.8,4.6c-0.5-2.3-1.8-4.5-3.5-6.1c-0.3-0.3-0.6-0.5-1-0.7
	C315.2,496.9,315.1,496.9,315,496.9z"/>
<path class="st24" d="M292.2,502.8c0,0-0.1,0-0.1,0c-2.4-1.1-4.5-2.8-6.2-4.9c-0.3-0.3-0.5-0.7-0.6-1.2c-0.1-0.5,0-1.1,0.5-1.4
	c0.6-0.3,1.3-0.1,2,0.5c1,0.9,1.7,1.9,2.4,2.9c-0.4-1.9-0.4-3.8,0-5.7c0.2-0.8,0.6-1.3,1.1-1.3c0,0,0,0,0,0c0.6,0,1,0.5,1.1,1.4
	c0.5,3.1,0.5,6.2,0,9.2c0,0,0,0.1,0,0.1c0,0,0,0.1,0,0.1C292.4,502.7,292.3,502.8,292.2,502.8z M292,501.6
	C292,501.6,292,501.6,292,501.6c0.4-2.7,0.4-5.5-0.1-8.3c-0.1-0.4-0.2-0.9-0.5-0.9c-0.2,0-0.4,0.4-0.5,0.8
	C290.2,496,290.6,499,292,501.6z M286.4,495.7c-0.1,0-0.2,0-0.3,0.1c-0.2,0.1-0.3,0.5-0.2,0.8c0.1,0.3,0.3,0.7,0.5,0.9
	c1.3,1.7,3,3.1,4.9,4.2c-1.1-1.9-2.2-3.9-3.9-5.4C287.2,496.1,286.8,495.7,286.4,495.7z"/>
<path class="st26" d="M314.9,405.7c-0.2,0-0.3-0.1-0.3-0.3l-1-13.3l-14.2-7.6c-0.2-0.1-0.2-0.3-0.1-0.4c0.1-0.2,0.3-0.2,0.4-0.1
	l14.4,7.6c0.1,0.1,0.2,0.1,0.2,0.3l1,13.5C315.2,405.5,315.1,405.6,314.9,405.7C314.9,405.7,314.9,405.7,314.9,405.7z"/>
<path class="st26" d="M334,500.9C334,500.9,334,500.9,334,500.9c-0.2,0-0.3-0.2-0.3-0.3c0.1-1,6.8-102.4,5.2-108.9
	c-1.6-6.5-8.6-19-8.6-19.1c-0.1-0.2,0-0.3,0.1-0.4c0.2-0.1,0.3,0,0.4,0.1c0.1,0.1,7.1,12.7,8.7,19.3c1.6,6.6-4.9,105-5.2,109.1
	C334.3,500.7,334.2,500.9,334,500.9z"/>
<path class="st27" d="M44.1,51c11.5,3.9,24-2.3,27.9-13.9c3.9-11.5-2.3-24-13.9-27.9c-11.5-3.9-24,2.3-27.9,13.9
	C26.4,34.7,32.6,47.1,44.1,51z"/>
<path class="st28" d="M61.7,35.8l1.2-3.6L59.5,31c0.1-0.9,0.1-1.8-0.1-2.8l3.1-1.6l-1.7-3.4l-3,1.5c-0.7-0.9-1.6-1.7-2.6-2.2
	l1.1-3.4L52.7,18l-1.1,3.5c-0.8-0.1-1.5,0-2.3,0.2l-1.6-3.1l-3.4,1.7l1.5,3c-0.9,0.7-1.7,1.6-2.2,2.6l-3-1l-1.2,3.6l3.1,1
	c-0.1,1,0,2,0.3,2.9l-3,1.5l1.7,3.4l3.1-1.6c0.7,0.8,1.6,1.5,2.6,1.9l-1.1,3.4l3.6,1.2l1.2-3.7c0.8,0,1.7-0.1,2.5-0.3l1.5,3l3.4-1.7
	l-1.6-3.1c0.6-0.5,1.1-1.1,1.5-1.8L61.7,35.8z M52.6,33.1c-1.7,0.9-3.8,0.2-4.7-1.5c-0.9-1.7-0.2-3.8,1.5-4.7
	c1.7-0.9,3.8-0.2,4.7,1.5C55,30.2,54.3,32.3,52.6,33.1z"/>
<path class="st27" d="M70.4,36.5l6.4,13.3c0.5,1-0.4,2.1-1.5,1.8l-14.9-4.2L70.4,36.5z"/>
<path class="st27" d="M336.9,67.2h-29.9l-10.4,3c-1.5,0.4-2.9-0.9-2.6-2.4l3.3-16.7c0-8.9,5.4-16.1,12.1-16.1h27.6
	c6.7,0,12.1,7.2,12.1,16.1C349,60,343.6,67.2,336.9,67.2z"/>
<path class="st29" d="M321.1,58.6h5.1V46.8h-5.1V58.6z"/>
<path class="st30" d="M328.2,58.6h5.1v-8h-5.1V58.6z"/>
<path class="st31" d="M313.3,58.6h5.1V43.3h-5.1V58.6z"/>
<path class="st32" d="M126.4,247.1c16.9-16.9,16.9-44.4,0-61.3c-16.9-16.9-44.4-16.9-61.3,0c-16.9,16.9-16.9,44.4,0,61.3
	S109.4,264.1,126.4,247.1z"/>
<path class="st33" d="M228.2,72.5c8.4-22.4-3-47.4-25.4-55.8c-22.4-8.4-47.4,3-55.8,25.4c-8.4,22.4,3,47.4,25.4,55.8
	S219.8,94.9,228.2,72.5z"/>
<path class="st34" d="M318.1,235.9c10.7-21.4,1.9-47.5-19.5-58.1c-21.4-10.7-47.5-1.9-58.1,19.5c-10.7,21.4-1.9,47.5,19.5,58.1
	C281.4,266.1,307.4,257.3,318.1,235.9z"/>
<path class="st35" d="M221.2,16.3c-22.6-18.6-55.9-15.5-74.6,7.1c-18.6,22.6-15.5,55.9,7.1,74.6c22.6,18.6,55.9,15.5,74.6-7.1
	C247,68.3,243.8,34.9,221.2,16.3z M220.9,84.7c-15.3,18.5-42.6,21.1-61.1,5.8c-18.5-15.3-21.1-42.6-5.8-61.1
	c15.3-18.5,42.6-21.1,61.1-5.8C233.6,38.9,236.2,66.3,220.9,84.7z"/>
<path class="st36" d="M129.5,175.7c-22.6-18.6-55.9-15.5-74.6,7.1c-18.6,22.6-15.5,55.9,7.1,74.6c22.6,18.6,55.9,15.5,74.6-7.1
	C155.2,227.7,152,194.3,129.5,175.7z M129.2,244.2c-15.3,18.5-42.6,21.1-61.1,5.8c-18.5-15.3-21.1-42.6-5.8-61.1
	c15.3-18.5,42.6-21.1,61.1-5.8C141.8,198.4,144.4,225.7,129.2,244.2z"/>
<path class="st37" d="M313,175.7c-22.6-18.6-55.9-15.5-74.6,7.1c-18.6,22.6-15.5,55.9,7.1,74.6c22.6,18.6,55.9,15.5,74.6-7.1
	C338.7,227.7,335.5,194.3,313,175.7z M312.7,244.2c-15.3,18.5-42.6,21.1-61.1,5.8c-18.5-15.3-21.1-42.6-5.8-61.1
	c15.3-18.5,42.6-21.1,61.1-5.8C325.3,198.4,327.9,225.7,312.7,244.2z"/>
<path class="st33" d="M151.1,101.2c-15.8-13.1-22.8-32.8-20.2-51.7c-0.3,0.2-0.6,0.3-0.9,0.5c-18.3,9.3-34.1,22.9-46,39.6l21.9,25
	l31.3,12.7c6.1-8.5,14.2-15.2,23.4-19.7C157.3,105.8,154.1,103.7,151.1,101.2z"/>
<path class="st33" d="M256.4,56.7c-4-2.6-8.1-4.9-12.4-7.1c2,15.2-2,31.2-12.6,43.9c-4.9,6-10.9,10.7-17.3,14.1
	c10.4,5.1,19.3,13,25.5,23.1l25.1-23.5l31.8-8.3C286.7,81.9,272.9,67.4,256.4,56.7z"/>
<path class="st32" d="M125.9,167.9c-0.2-2.7-0.3-5.5-0.1-8.3c0.5-8.8,2.9-17.5,7-25.3L101,121.4L79.2,96.7
	c-11,17.9-17.4,38.3-18.5,59.3c-0.3,5.1-0.3,10.2,0.1,15.2C79.4,156.7,105.6,155.2,125.9,167.9z"/>
<path class="st32" d="M180.8,224.3c-10.4-1.1-19.9-4.8-28.1-10.3c0.6,13.6-3.7,27.4-13,38.8c-6.1,7.4-13.7,12.9-22,16.3
	c17.6,11.6,37.9,18.6,59.3,20.3l10.1-30.5L180.8,224.3z"/>
<path class="st38" d="M242.7,260.4c-14.4-11.9-21.4-29.3-20.7-46.6c-9.4,6.5-20.7,10.4-32.8,10.8l6.3,34.9l-10,30.4
	c25.6,0.4,50.3-6.9,71.4-20.8C251.9,266.9,247.2,264,242.7,260.4z"/>
<path class="st38" d="M248.8,166.4c0,0.5-0.1,1.1-0.1,1.6c19.7-12.4,45.8-11.9,65.2,3c0-0.3,0-0.7,0.1-1
	c1.2-22.1-3.3-44.1-13.2-63.7l-31.8,8.3l-25.3,23.6C247.6,147.1,249.3,156.8,248.8,166.4z"/>
<path class="st4" d="M162.7,73.9c0.5,0,1,0.2,1.3,0.6c0.3,0.4,0.5,0.9,0.5,1.6c0,0.7-0.2,1.2-0.5,1.6c-0.3,0.4-0.7,0.6-1.3,0.6
	c-0.6,0-1.1-0.3-1.3-0.8h0v2.1h-1.1v-5.7h1.1v0.7h0c0.1-0.2,0.3-0.4,0.5-0.6C162.1,73.9,162.4,73.9,162.7,73.9z M162.3,77.4
	c0.3,0,0.5-0.1,0.7-0.3c0.2-0.2,0.3-0.5,0.3-0.9c0-0.4-0.1-0.7-0.3-0.9c-0.2-0.2-0.4-0.3-0.7-0.3c-0.3,0-0.5,0.1-0.7,0.4
	c-0.2,0.2-0.3,0.5-0.3,0.9c0,0.4,0.1,0.7,0.3,0.9C161.8,77.2,162,77.4,162.3,77.4z M166.8,77.5c0.3,0,0.5-0.1,0.7-0.2
	c0.2-0.2,0.3-0.3,0.3-0.6v-0.3l-0.9,0.1c-0.5,0-0.7,0.2-0.7,0.5c0,0.2,0.1,0.3,0.2,0.4C166.4,77.4,166.6,77.5,166.8,77.5z
	 M166.4,78.3c-0.4,0-0.8-0.1-1-0.4c-0.3-0.2-0.4-0.6-0.4-0.9c0-0.4,0.1-0.7,0.4-0.9c0.3-0.2,0.7-0.3,1.3-0.4l1.1-0.1v-0.3
	c0-0.2-0.1-0.4-0.2-0.5c-0.1-0.1-0.3-0.2-0.6-0.2c-0.2,0-0.4,0-0.5,0.1c-0.1,0.1-0.2,0.2-0.2,0.4h-1c0-0.4,0.2-0.7,0.5-1
	c0.3-0.3,0.8-0.4,1.3-0.4c0.6,0,1,0.1,1.3,0.4c0.3,0.3,0.5,0.6,0.5,1v3h-1.1v-0.7h0c-0.1,0.2-0.3,0.4-0.5,0.5
	C167,78.2,166.7,78.3,166.4,78.3z M171.7,78.3c-0.7,0-1.2-0.2-1.6-0.7c-0.4-0.4-0.6-1.1-0.6-1.9c0-1.2,0.2-2.1,0.6-2.6
	c0.4-0.5,1-0.8,1.8-0.8l0.5,0c0.6,0,1-0.1,1.1-0.2V73c-0.1,0.1-0.5,0.2-1.1,0.2l-0.5,0c-0.5,0-0.9,0.2-1.1,0.4
	c-0.2,0.3-0.4,0.7-0.4,1.3h0c0.3-0.5,0.8-0.8,1.5-0.8c0.6,0,1,0.2,1.4,0.6c0.4,0.4,0.5,0.9,0.5,1.5c0,0.7-0.2,1.2-0.6,1.6
	C172.9,78.1,172.3,78.3,171.7,78.3z M171.7,77.4c0.3,0,0.5-0.1,0.7-0.3c0.2-0.2,0.3-0.5,0.3-0.9c0-0.4-0.1-0.7-0.3-0.9
	c-0.2-0.2-0.4-0.3-0.7-0.3c-0.3,0-0.5,0.1-0.7,0.3c-0.2,0.2-0.3,0.5-0.3,0.9c0,0.4,0.1,0.7,0.3,0.9
	C171.1,77.3,171.4,77.4,171.7,77.4z M176.5,78.3c-0.7,0-1.2-0.2-1.6-0.6c-0.4-0.4-0.6-0.9-0.6-1.6c0-0.7,0.2-1.2,0.6-1.6
	c0.4-0.4,0.9-0.6,1.5-0.6c0.7,0,1.2,0.2,1.5,0.6c0.4,0.4,0.6,0.9,0.6,1.6c0,0.7-0.2,1.2-0.6,1.6C177.7,78.1,177.1,78.3,176.5,78.3z
	 M176.5,77.4c0.3,0,0.5-0.1,0.7-0.4c0.2-0.2,0.3-0.6,0.3-1c0-0.4-0.1-0.8-0.3-1c-0.2-0.2-0.4-0.4-0.7-0.4c-0.3,0-0.5,0.1-0.7,0.4
	c-0.2,0.2-0.3,0.6-0.3,1c0,0.4,0.1,0.8,0.3,1C175.9,77.3,176.2,77.4,176.5,77.4z M182.7,74.8h-1.3v3.4h-1.1v-3.4H179v-0.9h3.7V74.8z
	 M185.3,78.3c-0.7,0-1.2-0.2-1.6-0.6c-0.4-0.4-0.6-0.9-0.6-1.6c0-0.7,0.2-1.2,0.6-1.6c0.4-0.4,0.9-0.6,1.6-0.6
	c0.7,0,1.2,0.2,1.5,0.6c0.4,0.4,0.6,0.9,0.6,1.6c0,0.7-0.2,1.2-0.6,1.6C186.5,78.1,185.9,78.3,185.3,78.3z M185.3,77.4
	c0.3,0,0.5-0.1,0.7-0.4c0.2-0.2,0.3-0.6,0.3-1c0-0.4-0.1-0.8-0.3-1c-0.2-0.2-0.4-0.4-0.7-0.4c-0.3,0-0.5,0.1-0.7,0.4
	c-0.2,0.2-0.3,0.6-0.3,1c0,0.4,0.1,0.8,0.3,1C184.7,77.3,185,77.4,185.3,77.4z M191,74.8h-1.3l-0.1,1.4c0,0.5-0.1,0.9-0.3,1.2v0h1.7
	V74.8z M187.8,79.3v-2h0.3c0.3-0.2,0.4-0.6,0.5-1.3l0.1-2.2h3.4v3.4h0.6v2h-1v-1.1h-2.9v1.1H187.8z M195,77.5c0.3,0,0.5-0.1,0.7-0.2
	c0.2-0.2,0.3-0.3,0.3-0.6v-0.3l-0.9,0.1c-0.5,0-0.7,0.2-0.7,0.5c0,0.2,0.1,0.3,0.2,0.4C194.6,77.4,194.7,77.5,195,77.5z M194.6,78.3
	c-0.4,0-0.8-0.1-1-0.4c-0.3-0.2-0.4-0.6-0.4-0.9c0-0.4,0.1-0.7,0.4-0.9c0.3-0.2,0.7-0.3,1.3-0.4l1.1-0.1v-0.3c0-0.2-0.1-0.4-0.2-0.5
	c-0.1-0.1-0.3-0.2-0.6-0.2c-0.2,0-0.4,0-0.5,0.1c-0.1,0.1-0.2,0.2-0.2,0.4h-1c0-0.4,0.2-0.7,0.5-1c0.3-0.3,0.8-0.4,1.3-0.4
	c0.6,0,1,0.1,1.3,0.4c0.3,0.3,0.5,0.6,0.5,1v3h-1.1v-0.7h0c-0.1,0.2-0.3,0.4-0.5,0.5C195.1,78.2,194.9,78.3,194.6,78.3z M201.2,74.8
	h-1.3v3.4h-1.1v-3.4h-1.3v-0.9h3.7V74.8z M203.7,74.7c-0.3,0-0.5,0.1-0.7,0.3c-0.2,0.2-0.3,0.4-0.3,0.7h1.9c0-0.3-0.1-0.5-0.3-0.7
	C204.2,74.8,204,74.7,203.7,74.7z M205.7,76.9c-0.1,0.4-0.3,0.8-0.6,1c-0.4,0.3-0.8,0.4-1.3,0.4c-0.7,0-1.2-0.2-1.6-0.6
	c-0.4-0.4-0.6-0.9-0.6-1.6c0-0.7,0.2-1.2,0.6-1.6c0.4-0.4,0.9-0.6,1.5-0.6c0.6,0,1.1,0.2,1.5,0.6c0.4,0.4,0.6,0.9,0.6,1.6v0.4h-3
	v0.1c0,0.3,0.1,0.6,0.3,0.8c0.2,0.2,0.4,0.3,0.7,0.3c0.2,0,0.4,0,0.6-0.1c0.2-0.1,0.3-0.2,0.3-0.4H205.7z M208,76.2
	c0,0.7-0.2,1.2-0.4,1.5c-0.2,0.4-0.6,0.6-1.1,0.6c-0.2,0-0.3,0-0.4-0.1v-1c0.1,0,0.2,0,0.2,0c0.2,0,0.3-0.1,0.4-0.3
	c0.1-0.2,0.1-0.5,0.1-0.8l0.1-2.2h3.2v4.3h-1.1v-3.4h-1.1L208,76.2z M212.3,76v1.3h0.7c0.2,0,0.4-0.1,0.5-0.2
	c0.1-0.1,0.2-0.3,0.2-0.5c0-0.2-0.1-0.4-0.2-0.5c-0.1-0.1-0.3-0.2-0.5-0.2H212.3z M211.2,73.9h1.1v1.3h0.8c0.5,0,0.9,0.1,1.2,0.4
	c0.3,0.3,0.4,0.6,0.4,1.1c0,0.5-0.1,0.8-0.4,1.1c-0.3,0.3-0.7,0.4-1.2,0.4h-2V73.9z"/>
<g>
	<defs>
		<rect id="SVGID_00000011013781291577549830000016439698990708272035_" x="170.2" y="31.4" width="34.9" height="34.9"/>
	</defs>
	<clipPath id="SVGID_00000004547961533776612330000007604439102670140827_">
		<use xlink:href="#SVGID_00000011013781291577549830000016439698990708272035_"  style="overflow:visible;"/>
	</clipPath>
	<g style="clip-path:url(#SVGID_00000004547961533776612330000007604439102670140827_);">
		<rect x="170.2" y="31.4" class="st33" width="34.9" height="34.9"/>
		<path class="st40" d="M187.6,45c3.8,0,6.8-3,6.8-6.8s-3-6.8-6.8-6.8c-3.8,0-6.8,3-6.8,6.8S183.9,45,187.6,45z"/>
		<path class="st40" d="M186.4,47l0.3,2h1.7l0.3-2H186.4z"/>
		<path class="st40" d="M182.5,47c-0.2,0-0.3,0-0.5,0l2.7,3.9l0.1-0.9l-0.5-3.1H182.5z"/>
		<path class="st40" d="M190.3,50.1l0.1,0.9l2.7-3.9c-0.2,0-0.3,0-0.5,0h-1.9L190.3,50.1z"/>
		<path class="st40" d="M186.8,51.1l-0.3,2.4l1.1,1.6l1.1-1.6l-0.3-2.4H186.8z"/>
		<path class="st40" d="M200.9,55.2c0-3.6-2.3-6.6-5.5-7.7l-6.9,10c-0.4,0.6-1.3,0.6-1.7,0l-6.9-10c-3.2,1.1-5.5,4.1-5.5,7.7v4.9
			h26.6V55.2z"/>
		<path class="st40" d="M204,62.1h-32.8c-0.6,0-1,0.5-1,1v2c0,0.6,0.5,1,1,1H204c0.6,0,1-0.5,1-1v-2C205,62.6,204.6,62.1,204,62.1z"
			/>
	</g>
</g>
<g class="st41">
	<path class="st42" d="M105.4,189.9H85.9c-2.2,0-4,1.8-4,4v1.7h7.6c0.3,0,0.6,0.1,0.8,0.3l1.7,1.7h17.4v-3.8
		C109.4,191.7,107.6,189.9,105.4,189.9z M96.1,194.6c-0.5,0.5-1.1,0.5-1.6,0c-0.5-0.5-0.5-1.1,0-1.6c0.5-0.5,1.3-0.5,1.6,0
		C96.5,193.3,96.6,194.1,96.1,194.6z M100.7,194.6c-0.6,0.5-1.3,0.5-1.6,0c-0.5-0.5-0.5-1.3,0-1.6c0.5-0.5,1.1-0.5,1.6,0
		C101.2,193.5,101,194.1,100.7,194.6z M105.3,194.6c-0.5,0.5-1.3,0.5-1.6,0c-0.5-0.5-0.5-1.1,0-1.6c0.5-0.5,1.1-0.5,1.6,0
		C105.6,193.3,105.7,194.1,105.3,194.6z"/>
	<path class="st42" d="M90.6,199.6l-1.7-1.7h-7v15.5c0,2.2,1.8,4,4,4h19.5c2.2,0,4-1.8,4-4V200H91.5C91.2,200,90.9,199.8,90.6,199.6
		z M100.8,212H90.5c-0.7,0-1.1-0.5-1.1-1.1c0-0.7,0.5-1.1,1.1-1.1h10.4c0.7,0,1.1,0.5,1.1,1.1C102.1,211.5,101.5,212,100.8,212z
		 M102,205.5c0,0.7-0.5,1.1-1.1,1.1H90.5c-0.7,0-1.1-0.5-1.1-1.1c0-0.7,0.5-1.1,1.1-1.1h10.4C101.5,204.3,102,204.9,102,205.5z"/>
</g>
<path class="st4" d="M63.7,229.4c-0.7,0-1.2-0.2-1.6-0.6c-0.4-0.4-0.6-0.9-0.6-1.6c0-0.7,0.2-1.2,0.6-1.6c0.4-0.4,0.9-0.6,1.5-0.6
	c0.7,0,1.2,0.2,1.5,0.6c0.4,0.4,0.6,0.9,0.6,1.6c0,0.7-0.2,1.2-0.6,1.6C64.9,229.2,64.4,229.4,63.7,229.4z M63.7,228.5
	c0.3,0,0.5-0.1,0.7-0.4c0.2-0.2,0.3-0.6,0.3-1c0-0.4-0.1-0.8-0.3-1c-0.2-0.2-0.4-0.4-0.7-0.4c-0.3,0-0.5,0.1-0.7,0.4
	c-0.2,0.2-0.3,0.6-0.3,1c0,0.4,0.1,0.8,0.3,1C63.2,228.4,63.4,228.5,63.7,228.5z M68.6,229.4c-0.7,0-1.2-0.2-1.6-0.7
	c-0.4-0.4-0.6-1.1-0.6-1.9c0-1.2,0.2-2.1,0.6-2.6c0.4-0.5,1-0.8,1.8-0.8l0.5,0c0.6,0,1-0.1,1.1-0.2v0.9c-0.1,0.1-0.5,0.2-1.1,0.2
	l-0.5,0c-0.5,0-0.9,0.2-1.2,0.4c-0.2,0.3-0.4,0.7-0.4,1.3h0c0.3-0.5,0.8-0.8,1.5-0.8c0.6,0,1,0.2,1.4,0.6c0.3,0.4,0.5,0.9,0.5,1.5
	c0,0.7-0.2,1.2-0.6,1.6C69.8,229.2,69.3,229.4,68.6,229.4z M68.6,228.5c0.3,0,0.5-0.1,0.7-0.3c0.2-0.2,0.3-0.5,0.3-0.9
	c0-0.4-0.1-0.7-0.3-0.9c-0.2-0.2-0.4-0.3-0.7-0.3c-0.3,0-0.5,0.1-0.7,0.3c-0.2,0.2-0.3,0.5-0.3,0.9c0,0.4,0.1,0.7,0.3,0.9
	C68,228.4,68.3,228.5,68.6,228.5z M73.9,224.9c0.5,0,1,0.2,1.3,0.6c0.3,0.4,0.5,0.9,0.5,1.6c0,0.7-0.2,1.2-0.5,1.6
	c-0.3,0.4-0.7,0.6-1.3,0.6c-0.6,0-1.1-0.3-1.3-0.8h0v2.1h-1.1V225h1.1v0.7h0c0.1-0.2,0.3-0.4,0.5-0.6
	C73.3,225,73.6,224.9,73.9,224.9z M73.5,228.4c0.3,0,0.5-0.1,0.7-0.3c0.2-0.2,0.3-0.5,0.3-0.9c0-0.4-0.1-0.7-0.3-0.9
	c-0.2-0.2-0.4-0.3-0.7-0.3c-0.3,0-0.5,0.1-0.7,0.4c-0.2,0.2-0.3,0.5-0.3,0.9c0,0.4,0.1,0.7,0.3,0.9C73,228.3,73.2,228.4,73.5,228.4z
	 M78,228.5c0.3,0,0.5-0.1,0.7-0.2c0.2-0.2,0.3-0.3,0.3-0.6v-0.3l-0.9,0.1c-0.5,0-0.7,0.2-0.7,0.5c0,0.2,0.1,0.3,0.2,0.4
	C77.7,228.4,77.8,228.5,78,228.5z M77.7,229.3c-0.4,0-0.8-0.1-1-0.4c-0.3-0.2-0.4-0.6-0.4-0.9c0-0.4,0.1-0.7,0.4-0.9
	c0.3-0.2,0.7-0.3,1.3-0.4l1.1-0.1v-0.3c0-0.2-0.1-0.4-0.2-0.5c-0.1-0.1-0.3-0.2-0.6-0.2c-0.2,0-0.4,0.1-0.5,0.1
	c-0.1,0.1-0.2,0.2-0.2,0.4h-1c0-0.4,0.2-0.7,0.5-1c0.3-0.3,0.8-0.4,1.3-0.4c0.6,0,1,0.1,1.3,0.4c0.3,0.3,0.5,0.6,0.5,1v3H79v-0.7h0
	c-0.1,0.2-0.3,0.4-0.5,0.5C78.2,229.3,77.9,229.3,77.7,229.3z M82.6,229.4c-0.6,0-1-0.1-1.3-0.4c-0.3-0.3-0.5-0.6-0.6-1.1h1.1
	c0.1,0.4,0.4,0.6,0.8,0.6c0.2,0,0.4,0,0.5-0.1c0.1-0.1,0.2-0.2,0.2-0.4c0-0.3-0.2-0.5-0.7-0.5H82v-0.8h0.6c0.4,0,0.6-0.2,0.6-0.5
	c0-0.1-0.1-0.3-0.2-0.3c-0.1-0.1-0.3-0.1-0.5-0.1c-0.4,0-0.7,0.2-0.7,0.5h-1.1c0-0.4,0.2-0.8,0.5-1c0.3-0.2,0.7-0.4,1.3-0.4
	c0.6,0,1,0.1,1.3,0.3c0.3,0.2,0.4,0.5,0.4,0.9c0,0.2-0.1,0.4-0.2,0.6c-0.1,0.2-0.3,0.3-0.5,0.3v0c0.5,0.1,0.8,0.5,0.8,1
	c0,0.4-0.2,0.8-0.5,1C83.7,229.2,83.2,229.4,82.6,229.4z M87.2,229.4c-0.7,0-1.2-0.2-1.6-0.6c-0.4-0.4-0.6-0.9-0.6-1.6
	c0-0.7,0.2-1.2,0.6-1.6c0.4-0.4,0.9-0.6,1.5-0.6c0.7,0,1.2,0.2,1.5,0.6c0.4,0.4,0.6,0.9,0.6,1.6c0,0.7-0.2,1.2-0.6,1.6
	C88.3,229.2,87.8,229.4,87.2,229.4z M87.2,228.5c0.3,0,0.5-0.1,0.7-0.4c0.2-0.2,0.3-0.6,0.3-1c0-0.4-0.1-0.8-0.3-1
	c-0.2-0.2-0.4-0.4-0.7-0.4c-0.3,0-0.5,0.1-0.7,0.4c-0.2,0.2-0.3,0.6-0.3,1c0,0.4,0.1,0.8,0.3,1C86.6,228.4,86.9,228.5,87.2,228.5z
	 M91.1,225.7v1h0.7c0.4,0,0.7-0.2,0.7-0.5c0-0.3-0.2-0.5-0.6-0.5H91.1z M91.1,227.4v1.2h0.8c0.5,0,0.7-0.2,0.7-0.6
	c0-0.4-0.3-0.6-0.8-0.6H91.1z M90,225h2.2c0.4,0,0.8,0.1,1,0.3c0.3,0.2,0.4,0.5,0.4,0.8c0,0.2-0.1,0.4-0.2,0.6
	c-0.1,0.2-0.3,0.3-0.6,0.3v0c0.3,0,0.5,0.1,0.7,0.3c0.2,0.2,0.3,0.4,0.3,0.7c0,0.4-0.1,0.7-0.4,0.9c-0.3,0.2-0.7,0.3-1.2,0.3H90V225
	z M96.2,228.5c0.3,0,0.5-0.1,0.7-0.2c0.2-0.2,0.3-0.3,0.3-0.6v-0.3l-0.9,0.1c-0.5,0-0.7,0.2-0.7,0.5c0,0.2,0.1,0.3,0.2,0.4
	C95.8,228.4,96,228.5,96.2,228.5z M95.8,229.3c-0.4,0-0.8-0.1-1-0.4c-0.3-0.2-0.4-0.6-0.4-0.9c0-0.4,0.1-0.7,0.4-0.9
	c0.3-0.2,0.7-0.3,1.3-0.4l1.1-0.1v-0.3c0-0.2-0.1-0.4-0.2-0.5c-0.1-0.1-0.3-0.2-0.6-0.2c-0.2,0-0.4,0.1-0.5,0.1
	c-0.1,0.1-0.2,0.2-0.2,0.4h-1c0-0.4,0.2-0.7,0.5-1c0.3-0.3,0.8-0.4,1.3-0.4c0.6,0,1,0.1,1.3,0.4c0.3,0.3,0.5,0.6,0.5,1v3h-1.1v-0.7
	h0c-0.1,0.2-0.3,0.4-0.5,0.5C96.3,229.3,96.1,229.3,95.8,229.3z M102.4,225.8h-1.3v3.4H100v-3.4h-1.3V225h3.7V225.8z M104.9,225.7
	c-0.3,0-0.5,0.1-0.7,0.3c-0.2,0.2-0.3,0.4-0.3,0.7h1.9c0-0.3-0.1-0.5-0.3-0.7C105.4,225.8,105.2,225.7,104.9,225.7z M106.9,228
	c-0.1,0.4-0.3,0.8-0.6,1c-0.4,0.3-0.8,0.4-1.3,0.4c-0.7,0-1.2-0.2-1.5-0.6c-0.4-0.4-0.6-0.9-0.6-1.6c0-0.7,0.2-1.2,0.6-1.6
	c0.4-0.4,0.9-0.6,1.5-0.6c0.6,0,1.1,0.2,1.5,0.6c0.4,0.4,0.6,0.9,0.6,1.6v0.4h-3v0.1c0,0.3,0.1,0.6,0.3,0.8c0.2,0.2,0.4,0.3,0.7,0.3
	c0.2,0,0.4,0,0.6-0.1c0.2-0.1,0.3-0.2,0.3-0.4H106.9z M109.2,227.2c0,0.7-0.2,1.2-0.4,1.5c-0.2,0.4-0.6,0.6-1.1,0.6
	c-0.2,0-0.3,0-0.4-0.1v-1c0.1,0,0.2,0,0.2,0c0.2,0,0.3-0.1,0.4-0.3c0.1-0.2,0.1-0.5,0.1-0.8l0.1-2.2h3.2v4.3h-1.1v-3.4h-1.1
	L109.2,227.2z M113.5,227.1v1.3h0.7c0.2,0,0.4-0.1,0.5-0.2c0.1-0.1,0.2-0.3,0.2-0.5c0-0.2-0.1-0.4-0.2-0.5c-0.1-0.1-0.3-0.2-0.5-0.2
	H113.5z M112.4,225h1.1v1.3h0.8c0.5,0,0.9,0.1,1.2,0.4c0.3,0.3,0.4,0.6,0.4,1.1c0,0.5-0.1,0.8-0.4,1.1c-0.3,0.3-0.7,0.4-1.2,0.4h-2
	V225z M119.6,227.5h-1.7v1.8h-1.1V225h1.1v1.7h1.7V225h1.1v4.3h-1.1V227.5z M123.2,228.5c0.3,0,0.5-0.1,0.7-0.2
	c0.2-0.2,0.3-0.3,0.3-0.6v-0.3l-0.9,0.1c-0.5,0-0.7,0.2-0.7,0.5c0,0.2,0.1,0.3,0.2,0.4C122.8,228.4,123,228.5,123.2,228.5z
	 M122.8,229.3c-0.4,0-0.8-0.1-1-0.4c-0.3-0.2-0.4-0.6-0.4-0.9c0-0.4,0.1-0.7,0.4-0.9c0.3-0.2,0.7-0.3,1.3-0.4l1.1-0.1v-0.3
	c0-0.2-0.1-0.4-0.2-0.5c-0.1-0.1-0.3-0.2-0.6-0.2c-0.2,0-0.4,0.1-0.5,0.1c-0.1,0.1-0.2,0.2-0.2,0.4h-1c0-0.4,0.2-0.7,0.5-1
	c0.3-0.3,0.8-0.4,1.3-0.4c0.6,0,1,0.1,1.3,0.4c0.3,0.3,0.5,0.6,0.5,1v3h-1.1v-0.7h0c-0.1,0.2-0.3,0.4-0.5,0.5
	C123.4,229.3,123.1,229.3,122.8,229.3z M128.5,227.1v-1.2h-0.7c-0.2,0-0.4,0.1-0.5,0.2c-0.1,0.1-0.2,0.3-0.2,0.5
	c0,0.2,0.1,0.3,0.2,0.4c0.1,0.1,0.3,0.2,0.5,0.2H128.5z M128.5,227.9H128l-1,1.4h-1.3l1.1-1.6c-0.3-0.1-0.5-0.2-0.7-0.5
	c-0.2-0.2-0.3-0.5-0.3-0.8c0-0.5,0.2-0.8,0.5-1.1c0.3-0.3,0.7-0.4,1.2-0.4h1.9v4.3h-1.1V227.9z M76.6,235.8h-1.7v3.4h-1.1V235h4v4.3
	h-1.1V235.8z M80.1,237.2c0,0.7-0.2,1.2-0.4,1.5c-0.2,0.4-0.6,0.6-1.1,0.6c-0.2,0-0.3,0-0.4-0.1v-1c0.1,0,0.2,0,0.2,0
	c0.2,0,0.3-0.1,0.4-0.3c0.1-0.2,0.1-0.5,0.1-0.8l0.1-2.2h3.2v4.3h-1.1v-3.4h-1.1L80.1,237.2z M85,238.5c0.3,0,0.5-0.1,0.7-0.2
	c0.2-0.2,0.3-0.3,0.3-0.6v-0.3l-0.9,0.1c-0.5,0-0.7,0.2-0.7,0.5c0,0.2,0.1,0.3,0.2,0.4C84.6,238.4,84.8,238.5,85,238.5z M84.6,239.3
	c-0.4,0-0.8-0.1-1-0.4c-0.3-0.2-0.4-0.6-0.4-0.9c0-0.4,0.1-0.7,0.4-0.9c0.3-0.2,0.7-0.3,1.3-0.4l1.1-0.1v-0.3c0-0.2-0.1-0.4-0.2-0.5
	c-0.1-0.1-0.3-0.2-0.6-0.2c-0.2,0-0.4,0.1-0.5,0.1c-0.1,0.1-0.2,0.2-0.2,0.4h-1c0-0.4,0.2-0.7,0.5-1c0.3-0.3,0.8-0.4,1.3-0.4
	c0.6,0,1,0.1,1.3,0.4c0.3,0.3,0.5,0.6,0.5,1v3h-1.1v-0.7h0c-0.1,0.2-0.3,0.4-0.5,0.5C85.1,239.3,84.9,239.3,84.6,239.3z M91.3,235.8
	H90v3.4h-1.1v-3.4h-1.3V235h3.7V235.8z M94,235.8c-0.4,0-0.6,0.1-0.9,0.4c-0.2,0.2-0.3,0.6-0.3,1c0,0.4,0.1,0.7,0.3,1
	c0.2,0.2,0.5,0.4,0.9,0.4V235.8z M96.3,237.1c0-0.4-0.1-0.7-0.3-1c-0.2-0.2-0.5-0.4-0.9-0.4v2.7c0.4,0,0.6-0.1,0.9-0.4
	C96.2,237.9,96.3,237.5,96.3,237.1z M94,239.3c-0.7,0-1.3-0.2-1.7-0.6c-0.4-0.4-0.6-0.9-0.6-1.6c0-0.7,0.2-1.2,0.6-1.6
	c0.4-0.4,1-0.6,1.7-0.6v-1.3h1.1v1.3c0.7,0,1.3,0.2,1.7,0.6c0.4,0.4,0.6,0.9,0.6,1.6c0,0.7-0.2,1.2-0.6,1.6c-0.4,0.4-1,0.6-1.7,0.6
	v1.3H94V239.3z M100.1,239.4c-0.7,0-1.2-0.2-1.6-0.6c-0.4-0.4-0.6-0.9-0.6-1.6c0-0.7,0.2-1.2,0.6-1.6c0.4-0.4,0.9-0.6,1.5-0.6
	c0.7,0,1.2,0.2,1.5,0.6c0.4,0.4,0.6,0.9,0.6,1.6c0,0.7-0.2,1.2-0.6,1.6C101.3,239.2,100.8,239.4,100.1,239.4z M100.1,238.5
	c0.3,0,0.5-0.1,0.7-0.4c0.2-0.2,0.3-0.6,0.3-1c0-0.4-0.1-0.8-0.3-1c-0.2-0.2-0.4-0.4-0.7-0.4c-0.3,0-0.5,0.1-0.7,0.4
	c-0.2,0.2-0.3,0.6-0.3,1c0,0.4,0.1,0.8,0.3,1C99.6,238.4,99.8,238.5,100.1,238.5z M105.4,234.9c0.5,0,1,0.2,1.3,0.6
	c0.3,0.4,0.5,0.9,0.5,1.6c0,0.7-0.2,1.2-0.5,1.6c-0.3,0.4-0.7,0.6-1.3,0.6c-0.6,0-1.1-0.3-1.3-0.8h0v2.1h-1.1V235h1.1v0.7h0
	c0.1-0.2,0.3-0.4,0.5-0.6C104.8,235,105.1,234.9,105.4,234.9z M105,238.4c0.3,0,0.5-0.1,0.7-0.3c0.2-0.2,0.3-0.5,0.3-0.9
	c0-0.4-0.1-0.7-0.3-0.9c-0.2-0.2-0.4-0.3-0.7-0.3c-0.3,0-0.5,0.1-0.7,0.4c-0.2,0.2-0.3,0.5-0.3,0.9c0,0.4,0.1,0.7,0.3,0.9
	C104.5,238.3,104.7,238.4,105,238.4z M107.9,239.3V235h1.5l1.2,2.8h0l1.2-2.8h1.5v4.3h-1.1v-2.9h0l-1.1,2.7h-0.8l-1.1-2.7h0v2.9
	H107.9z M115.7,238.5c0.3,0,0.5-0.1,0.7-0.2c0.2-0.2,0.3-0.3,0.3-0.6v-0.3l-0.9,0.1c-0.5,0-0.7,0.2-0.7,0.5c0,0.2,0.1,0.3,0.2,0.4
	C115.3,238.4,115.5,238.5,115.7,238.5z M115.3,239.3c-0.4,0-0.8-0.1-1-0.4c-0.3-0.2-0.4-0.6-0.4-0.9c0-0.4,0.1-0.7,0.4-0.9
	c0.3-0.2,0.7-0.3,1.3-0.4l1.1-0.1v-0.3c0-0.2-0.1-0.4-0.2-0.5c-0.1-0.1-0.3-0.2-0.6-0.2c-0.2,0-0.4,0.1-0.5,0.1
	c-0.1,0.1-0.2,0.2-0.2,0.4h-1c0-0.4,0.2-0.7,0.5-1c0.3-0.3,0.8-0.4,1.3-0.4c0.6,0,1,0.1,1.3,0.4c0.3,0.3,0.5,0.6,0.5,1v3h-1.1v-0.7
	h0c-0.1,0.2-0.3,0.4-0.5,0.5C115.8,239.3,115.6,239.3,115.3,239.3z"/>
<path class="st4" d="M259.1,230.8v1h0.7c0.4,0,0.7-0.2,0.7-0.5c0-0.3-0.2-0.5-0.6-0.5H259.1z M259.1,232.5v1.2h0.8
	c0.5,0,0.7-0.2,0.7-0.6c0-0.4-0.3-0.6-0.8-0.6H259.1z M258,230.1h2.2c0.4,0,0.8,0.1,1,0.3c0.3,0.2,0.4,0.5,0.4,0.8
	c0,0.2-0.1,0.4-0.2,0.6c-0.1,0.2-0.3,0.3-0.6,0.3v0c0.3,0,0.5,0.1,0.7,0.3c0.2,0.2,0.3,0.4,0.3,0.7c0,0.4-0.1,0.7-0.4,0.9
	c-0.3,0.2-0.7,0.3-1.2,0.3H258V230.1z M266.5,230.1h1.1v4.3h-1.1V230.1z M263.6,232.2v1.4h0.7c0.2,0,0.4-0.1,0.5-0.2
	c0.1-0.1,0.2-0.3,0.2-0.5c0-0.2-0.1-0.4-0.2-0.5c-0.1-0.1-0.3-0.2-0.5-0.2H263.6z M262.5,230.1h1.1v1.3h0.8c0.5,0,0.9,0.1,1.2,0.4
	c0.3,0.3,0.5,0.6,0.5,1.1c0,0.5-0.1,0.8-0.5,1.1c-0.3,0.3-0.7,0.4-1.2,0.4h-2V230.1z M271.3,230.9h-1.7v3.4h-1.1v-4.3h4v4.3h-1.1
	V230.9z M273.9,235.9c-0.2,0-0.4,0-0.4,0V235c0,0,0.1,0,0.3,0c0.4,0,0.7-0.2,0.8-0.5l0-0.2l-1.5-4.3h1.3l0.9,3.4h0l0.9-3.4h1.2
	l-1.5,4.4c-0.2,0.5-0.4,0.9-0.7,1.2C274.8,235.8,274.4,235.9,273.9,235.9z M280.6,231.5c0-0.2-0.1-0.3-0.3-0.5
	c-0.2-0.1-0.3-0.2-0.6-0.2c-0.3,0-0.5,0.1-0.7,0.4c-0.2,0.2-0.3,0.6-0.3,1c0,0.4,0.1,0.7,0.3,1c0.2,0.2,0.4,0.3,0.7,0.3
	c0.5,0,0.7-0.2,0.8-0.6h1.1c-0.1,0.5-0.3,0.8-0.6,1.1c-0.3,0.3-0.8,0.4-1.3,0.4c-0.6,0-1.2-0.2-1.5-0.6c-0.4-0.4-0.6-0.9-0.6-1.6
	c0-0.7,0.2-1.2,0.6-1.6c0.4-0.4,0.9-0.6,1.5-0.6c0.5,0,1,0.1,1.3,0.4c0.3,0.3,0.5,0.6,0.6,1.1H280.6z M286.4,234.4H285l-1.5-1.9h0
	v1.9h-1.1v-4.3h1.1v1.7h0l1.5-1.7h1.3l-1.7,2L286.4,234.4z M289.7,232.6H288v1.8h-1.1v-4.3h1.1v1.7h1.7v-1.7h1.1v4.3h-1.1V232.6z
	 M291.7,234.4v-4.3h1.1v2.7h0l1.8-2.7h1.1v4.3h-1.1v-2.8h0l-1.8,2.8H291.7z M300.7,234.4h-1.4l-1.5-1.9h0v1.9h-1.1v-4.3h1.1v1.7h0
	l1.5-1.7h1.3l-1.7,2L300.7,234.4z"/>
<g>
	<defs>
		<rect id="SVGID_00000070086368006578669420000015100589280443862707_" x="260.3" y="188.8" width="37.3" height="37.3"/>
	</defs>
	<clipPath id="SVGID_00000154418747065775307920000000224863186483054262_">
		<use xlink:href="#SVGID_00000070086368006578669420000015100589280443862707_"  style="overflow:visible;"/>
	</clipPath>
	<g style="clip-path:url(#SVGID_00000154418747065775307920000000224863186483054262_);">
		<path class="st44" d="M295.2,214.8c0.3-0.2,0.5-0.5,0.6-0.8c0.1-0.3,0.2-0.7,0.1-1c0-0.3-0.2-0.7-0.4-0.9
			c-0.2-0.3-0.5-0.5-0.8-0.6v-2.7l-1.6,0.7v2c-0.3,0.1-0.6,0.4-0.8,0.6c-0.2,0.3-0.3,0.6-0.4,0.9c0,0.3,0,0.7,0.1,1
			c0.1,0.3,0.4,0.6,0.6,0.8c-0.2,0.2-0.4,0.4-0.6,0.7c-0.1,0.3-0.2,0.6-0.2,0.9v1.9c0,0.2,0.1,0.4,0.2,0.5c0.1,0.1,0.3,0.2,0.5,0.2
			h2.3c0.2,0,0.4-0.1,0.5-0.2c0.1-0.1,0.2-0.3,0.2-0.5v-1.9c0-0.3-0.1-0.6-0.2-0.9C295.6,215.2,295.4,214.9,295.2,214.8z"/>
		<path class="st44" d="M290.9,210.4v5.7c0,0.7-0.2,1.3-0.5,1.9c-0.3,0.6-0.8,1.1-1.4,1.4c-3,1.7-6.3,2.6-9.8,2.6
			c-3.4,0-6.8-0.9-9.8-2.6c-0.6-0.3-1-0.8-1.4-1.4c-0.3-0.6-0.5-1.2-0.5-1.9v-5.7l9.5,4c0.7,0.3,1.4,0.4,2.1,0.4s1.4-0.1,2.1-0.4
			L290.9,210.4z"/>
		<path class="st44" d="M296.4,202.1l-15.6-6.6c-0.5-0.2-1-0.3-1.5-0.3c-0.5,0-1,0.1-1.5,0.3l-15.6,6.6c-0.4,0.2-0.8,0.5-1,0.9
			c-0.3,0.4-0.4,0.8-0.4,1.3c0,0.5,0.1,0.9,0.4,1.3c0.3,0.4,0.6,0.7,1,0.9l15.6,6.6c0.5,0.2,1,0.3,1.5,0.3c0.5,0,1-0.1,1.5-0.3
			l15.6-6.6c0.4-0.2,0.8-0.5,1-0.9c0.3-0.4,0.4-0.8,0.4-1.3c0-0.5-0.1-0.9-0.4-1.3C297.1,202.6,296.8,202.3,296.4,202.1z"/>
	</g>
</g>
</svg>
