<svg width="53" height="53" viewBox="0 0 53 53" fill="none" xmlns="http://www.w3.org/2000/svg">
<mask id="mask0_195_860" style="mask-type:alpha" maskUnits="userSpaceOnUse" x="0" y="0" width="53" height="53">
<circle cx="26.5" cy="26.5" r="26.5" fill="#D9D9D9"/>
</mask>
<g mask="url(#mask0_195_860)">
<circle cx="26.5" cy="26.5" r="26.5" fill="#D9D9D9"/>
<path d="M38.8663 20.6498C38.8663 27.4222 33.3563 32.9322 26.5839 32.9322C19.8115 32.9322 14.3015 27.4222 14.3015 20.6498C14.3015 13.8774 19.8115 8.36743 26.5839 8.36743C33.3563 8.36743 38.8663 13.8774 38.8663 20.6498ZM18.765 34.514C11.3906 37.6596 6.625 44.8743 6.625 52.8911C6.625 53.7397 7.31244 54.4264 8.1603 54.4264M45.0075 54.4264C45.8554 54.4264 46.5428 53.7397 46.5428 52.8911C46.5428 44.8743 41.7772 37.6596 34.4028 34.514C33.9995 34.3401 33.543 34.3491 33.1494 34.5365C28.9918 36.4826 24.176 36.4826 20.0184 34.5365C19.6233 34.3491 19.1668 34.3401 18.765 34.514C11.3906 37.6596 6.625 44.8743 6.625 52.8911C6.625 53.7397 7.31244 54.4264 8.1603 54.4264H45.0075Z" fill="white"/>
</g>
</svg>
